%TF.GenerationSoftware,KiCad,Pcbnew,9.0.2*%
%TF.CreationDate,2025-06-30T23:43:09-04:00*%
%TF.ProjectId,GamePad_Zero,47616d65-5061-4645-9f5a-65726f2e6b69,rev?*%
%TF.SameCoordinates,Original*%
%TF.FileFunction,Legend,Bot*%
%TF.FilePolarity,Positive*%
%FSLAX46Y46*%
G04 Gerber Fmt 4.6, Leading zero omitted, Abs format (unit mm)*
G04 Created by KiCad (PCBNEW 9.0.2) date 2025-06-30 23:43:09*
%MOMM*%
%LPD*%
G01*
G04 APERTURE LIST*
%ADD10C,0.100000*%
%ADD11C,0.300000*%
%ADD12C,0.150000*%
%ADD13C,0.000000*%
%ADD14C,0.120000*%
%ADD15C,0.127000*%
%ADD16C,0.200000*%
G04 APERTURE END LIST*
D10*
G36*
X27665073Y-2712800D02*
G01*
X27665073Y-2460741D01*
X28463014Y-2460741D01*
X28463014Y-4420423D01*
X28183112Y-4420423D01*
X28183112Y-3728850D01*
X27819068Y-3728850D01*
X27819068Y-3476791D01*
X28183112Y-3476791D01*
X28183112Y-2712800D01*
X27665073Y-2712800D01*
G37*
G36*
X27385170Y-4422500D02*
G01*
X27105146Y-4422500D01*
X27105146Y-2462573D01*
X27385170Y-2462573D01*
X27385170Y-4422500D01*
G37*
G36*
X26190090Y-2462573D02*
G01*
X26190090Y-3484607D01*
X26775296Y-2462573D01*
X26825610Y-2462573D01*
X26825610Y-4422500D01*
X26545708Y-4422500D01*
X26545708Y-3400587D01*
X25960502Y-4422500D01*
X25910066Y-4422500D01*
X25910066Y-2462573D01*
X26190090Y-2462573D01*
G37*
G36*
X25630530Y-4422500D02*
G01*
X25350505Y-4422500D01*
X25350505Y-2462573D01*
X25630530Y-2462573D01*
X25630530Y-4422500D01*
G37*
G36*
X24273028Y-3880525D02*
G01*
X24287594Y-3727625D01*
X24330182Y-3583859D01*
X24401240Y-3443643D01*
X24504894Y-3298480D01*
X24596991Y-3189601D01*
X24664422Y-3110507D01*
X24719912Y-3036488D01*
X24757546Y-2965681D01*
X24771406Y-2896226D01*
X24767612Y-2853772D01*
X24756684Y-2815863D01*
X24715939Y-2754216D01*
X24652126Y-2712104D01*
X24567850Y-2693616D01*
X24519550Y-2695137D01*
X24469456Y-2704623D01*
X24438258Y-2714509D01*
X24438258Y-2462573D01*
X24505546Y-2449720D01*
X24572009Y-2444773D01*
X24637360Y-2447606D01*
X24700383Y-2458105D01*
X24759696Y-2475856D01*
X24815278Y-2500762D01*
X24865083Y-2531697D01*
X24910005Y-2569084D01*
X24948121Y-2611157D01*
X24980466Y-2658958D01*
X25005752Y-2710647D01*
X25024500Y-2767460D01*
X25036018Y-2828103D01*
X25040188Y-2893437D01*
X25040195Y-2896226D01*
X25025626Y-3011096D01*
X24982566Y-3120390D01*
X24906740Y-3235488D01*
X24798987Y-3362077D01*
X24704219Y-3472060D01*
X24620868Y-3590448D01*
X24587426Y-3654988D01*
X24561582Y-3724263D01*
X24544915Y-3799149D01*
X24539009Y-3880525D01*
X24542818Y-3941888D01*
X24553855Y-3995184D01*
X24570648Y-4039007D01*
X24593009Y-4076133D01*
X24652278Y-4131604D01*
X24732696Y-4165795D01*
X24838315Y-4177792D01*
X24971919Y-4162755D01*
X25099057Y-4126599D01*
X25099057Y-4392458D01*
X25013719Y-4416317D01*
X24930794Y-4431530D01*
X24851496Y-4438290D01*
X24775436Y-4437000D01*
X24704188Y-4428082D01*
X24636907Y-4411784D01*
X24575242Y-4388857D01*
X24518167Y-4359232D01*
X24467072Y-4323896D01*
X24421122Y-4282493D01*
X24381240Y-4235950D01*
X24347053Y-4183866D01*
X24319059Y-4126769D01*
X24297380Y-4064536D01*
X24282319Y-3997096D01*
X24274308Y-3924824D01*
X24273028Y-3880525D01*
G37*
G36*
X23336479Y-2460497D02*
G01*
X23336479Y-3476791D01*
X23798464Y-3476791D01*
X23798464Y-2460497D01*
X24078367Y-2460497D01*
X24078367Y-4420423D01*
X23798464Y-4420423D01*
X23798464Y-3728850D01*
X23336479Y-3728850D01*
X23336479Y-4420423D01*
X23056454Y-4420423D01*
X23056454Y-2460497D01*
X23336479Y-2460497D01*
G37*
G36*
X22035764Y-2712800D02*
G01*
X22035764Y-2460741D01*
X22833705Y-2460741D01*
X22833705Y-4422500D01*
X22035764Y-4422500D01*
X22035764Y-4170563D01*
X22553803Y-4170563D01*
X22553803Y-3728850D01*
X22189759Y-3728850D01*
X22189759Y-3476791D01*
X22553803Y-3476791D01*
X22553803Y-2712800D01*
X22035764Y-2712800D01*
G37*
G36*
X21811793Y-4422500D02*
G01*
X21394626Y-4422500D01*
X21324833Y-4418659D01*
X21258743Y-4407405D01*
X21136544Y-4363713D01*
X21026271Y-4292158D01*
X20927520Y-4191712D01*
X20841706Y-4060690D01*
X20772164Y-3898430D01*
X20723763Y-3707418D01*
X20701796Y-3495332D01*
X20701857Y-3468812D01*
X20953134Y-3468812D01*
X20958905Y-3570828D01*
X20972489Y-3670557D01*
X20992978Y-3762826D01*
X21020730Y-3849672D01*
X21052598Y-3923224D01*
X21090589Y-3989592D01*
X21129790Y-4041880D01*
X21173901Y-4086513D01*
X21217734Y-4119352D01*
X21265535Y-4144631D01*
X21313350Y-4160734D01*
X21364571Y-4169276D01*
X21394626Y-4170563D01*
X21531891Y-4170563D01*
X21531891Y-2712800D01*
X21397435Y-2712800D01*
X21346027Y-2716630D01*
X21297773Y-2727808D01*
X21209110Y-2771452D01*
X21129400Y-2844651D01*
X21059213Y-2950824D01*
X21002165Y-3092901D01*
X20964465Y-3269177D01*
X20953134Y-3468812D01*
X20701857Y-3468812D01*
X20702051Y-3385179D01*
X20710103Y-3275660D01*
X20725780Y-3168940D01*
X20749117Y-3065262D01*
X20778698Y-2969782D01*
X20815325Y-2879274D01*
X20856001Y-2799982D01*
X20902850Y-2726852D01*
X20951742Y-2665381D01*
X21005925Y-2610636D01*
X21061009Y-2566407D01*
X21120659Y-2529139D01*
X21181111Y-2500863D01*
X21245625Y-2479741D01*
X21311703Y-2466583D01*
X21381560Y-2460934D01*
X21397435Y-2460741D01*
X21811793Y-2460741D01*
X21811793Y-4422500D01*
G37*
G36*
X19446104Y-2433383D02*
G01*
X19505883Y-2445086D01*
X19557151Y-2463126D01*
X19603980Y-2487992D01*
X19684065Y-2557012D01*
X19751379Y-2656972D01*
X19807829Y-2798240D01*
X19852813Y-2997285D01*
X19884104Y-3280088D01*
X19898415Y-3693160D01*
X19898883Y-3802611D01*
X19895059Y-3896764D01*
X19883924Y-3983421D01*
X19866230Y-4061709D01*
X19842376Y-4132702D01*
X19813145Y-4195858D01*
X19778817Y-4251881D01*
X19740011Y-4300622D01*
X19697083Y-4342304D01*
X19600195Y-4404794D01*
X19490672Y-4439197D01*
X19411618Y-4445947D01*
X19351109Y-4442036D01*
X19292215Y-4430296D01*
X19236666Y-4411193D01*
X19183783Y-4384551D01*
X19135075Y-4351114D01*
X19089976Y-4310411D01*
X19049540Y-4263137D01*
X19013619Y-4208771D01*
X18982857Y-4147634D01*
X18957547Y-4079453D01*
X18938141Y-4004025D01*
X18925201Y-3921493D01*
X18918859Y-3802611D01*
X19176413Y-3802611D01*
X19180194Y-3873413D01*
X19191033Y-3938841D01*
X19208615Y-3999439D01*
X19231969Y-4052955D01*
X19259893Y-4098113D01*
X19291873Y-4134931D01*
X19325025Y-4161356D01*
X19360435Y-4179141D01*
X19411618Y-4188393D01*
X19479587Y-4173307D01*
X19541100Y-4128060D01*
X19593882Y-4049745D01*
X19631137Y-3936495D01*
X19644016Y-3802611D01*
X19644016Y-3783072D01*
X19639396Y-3709987D01*
X19627898Y-3643790D01*
X19609954Y-3583620D01*
X19586653Y-3531265D01*
X19558763Y-3486848D01*
X19527317Y-3450972D01*
X19494121Y-3424528D01*
X19459289Y-3406813D01*
X19411618Y-3397290D01*
X19347427Y-3409574D01*
X19286427Y-3453184D01*
X19232058Y-3531907D01*
X19192253Y-3647723D01*
X19180797Y-3718703D01*
X19176433Y-3796802D01*
X19176413Y-3802611D01*
X18918859Y-3802611D01*
X18922681Y-3707272D01*
X18933810Y-3618454D01*
X18951724Y-3536360D01*
X18975917Y-3461100D01*
X19005764Y-3393063D01*
X19040837Y-3332128D01*
X19080338Y-3278802D01*
X19124003Y-3232788D01*
X19170862Y-3194581D01*
X19220842Y-3163846D01*
X19272913Y-3140931D01*
X19327109Y-3125630D01*
X19408810Y-3117266D01*
X19464841Y-3121219D01*
X19519747Y-3133264D01*
X19569412Y-3152269D01*
X19616050Y-3178937D01*
X19598207Y-3041420D01*
X19574598Y-2926193D01*
X19550386Y-2847123D01*
X19521952Y-2783477D01*
X19494856Y-2742062D01*
X19464681Y-2711396D01*
X19435909Y-2693460D01*
X19404730Y-2683617D01*
X19380844Y-2681536D01*
X19348716Y-2685555D01*
X19314821Y-2698049D01*
X19280976Y-2719343D01*
X19248080Y-2750176D01*
X19218616Y-2789355D01*
X19192426Y-2838482D01*
X19176413Y-2879862D01*
X18972103Y-2748581D01*
X19009091Y-2677467D01*
X19050117Y-2615299D01*
X19093579Y-2563299D01*
X19140041Y-2519811D01*
X19187833Y-2485607D01*
X19237697Y-2459500D01*
X19288318Y-2441743D01*
X19340204Y-2431803D01*
X19380844Y-2429478D01*
X19446104Y-2433383D01*
G37*
G36*
X17820010Y-2210636D02*
G01*
X18783182Y-4674680D01*
X18536863Y-4674680D01*
X17573691Y-2210636D01*
X17820010Y-2210636D01*
G37*
G36*
X16763049Y-3367126D02*
G01*
X16711715Y-3325103D01*
X16666041Y-3277192D01*
X16628216Y-3225935D01*
X16596731Y-3169515D01*
X16572900Y-3110321D01*
X16555993Y-3046533D01*
X16544574Y-2928588D01*
X16548392Y-2851050D01*
X16559489Y-2780783D01*
X16576957Y-2718670D01*
X16600421Y-2663236D01*
X16629341Y-2614361D01*
X16663230Y-2571818D01*
X16745991Y-2503759D01*
X16848330Y-2458532D01*
X16969612Y-2438114D01*
X17000942Y-2437294D01*
X17115643Y-2452680D01*
X17170648Y-2471783D01*
X17222923Y-2498243D01*
X17271497Y-2531650D01*
X17316017Y-2571957D01*
X17362177Y-2627803D01*
X17188642Y-2773860D01*
X17142893Y-2724305D01*
X17072352Y-2690812D01*
X17000942Y-2680926D01*
X16956914Y-2684771D01*
X16917113Y-2696055D01*
X16882762Y-2713824D01*
X16853064Y-2737936D01*
X16808787Y-2804085D01*
X16786842Y-2894890D01*
X16785397Y-2928588D01*
X16800192Y-3022373D01*
X16843046Y-3104918D01*
X16912164Y-3172958D01*
X17003984Y-3220527D01*
X17056132Y-3234424D01*
X17110617Y-3240745D01*
X17126971Y-3241097D01*
X17126971Y-3484607D01*
X17121353Y-3484607D01*
X17028633Y-3499553D01*
X16937182Y-3545020D01*
X16856006Y-3619792D01*
X16822926Y-3666180D01*
X16796221Y-3717513D01*
X16777317Y-3771165D01*
X16766037Y-3828132D01*
X16763049Y-3876861D01*
X16766875Y-3942150D01*
X16778029Y-4001002D01*
X16795313Y-4051361D01*
X16818545Y-4094909D01*
X16845921Y-4129826D01*
X16877948Y-4157812D01*
X16912889Y-4177921D01*
X16951451Y-4190952D01*
X17003750Y-4196819D01*
X17077945Y-4182298D01*
X17162440Y-4135132D01*
X17198798Y-4101868D01*
X17227376Y-4064120D01*
X17227843Y-4063340D01*
X17406995Y-4224785D01*
X17372561Y-4275338D01*
X17333558Y-4319102D01*
X17242606Y-4387237D01*
X17134974Y-4429939D01*
X17011348Y-4445897D01*
X17003750Y-4445947D01*
X16936819Y-4442045D01*
X16872886Y-4430362D01*
X16814420Y-4411707D01*
X16759697Y-4385848D01*
X16710645Y-4353923D01*
X16665969Y-4315283D01*
X16626808Y-4270891D01*
X16592659Y-4220094D01*
X16564035Y-4163191D01*
X16541165Y-4099995D01*
X16524326Y-4029916D01*
X16514140Y-3953491D01*
X16510990Y-3876861D01*
X16525960Y-3738137D01*
X16570035Y-3607784D01*
X16641931Y-3488918D01*
X16739315Y-3386362D01*
X16763049Y-3367126D01*
G37*
G36*
X15929839Y-2439376D02*
G01*
X15977311Y-2451142D01*
X16067971Y-2498161D01*
X16152981Y-2578838D01*
X16230161Y-2697531D01*
X16295500Y-2859016D01*
X16343718Y-3067265D01*
X16359661Y-3190481D01*
X16369007Y-3324908D01*
X16371406Y-3441742D01*
X16367583Y-3589152D01*
X16356454Y-3724662D01*
X16338876Y-3846392D01*
X16315210Y-3956729D01*
X16286730Y-4053411D01*
X16253371Y-4139369D01*
X16216915Y-4212308D01*
X16176726Y-4275329D01*
X16134991Y-4326563D01*
X16090549Y-4368737D01*
X16045592Y-4400787D01*
X15998783Y-4424537D01*
X15951670Y-4439737D01*
X15903399Y-4447119D01*
X15881454Y-4447901D01*
X15833048Y-4443987D01*
X15785558Y-4432221D01*
X15694870Y-4385206D01*
X15609845Y-4304543D01*
X15532655Y-4185877D01*
X15467309Y-4024435D01*
X15419084Y-3816244D01*
X15403136Y-3693061D01*
X15393785Y-3558671D01*
X15391381Y-3441742D01*
X15649057Y-3441742D01*
X15652841Y-3598958D01*
X15663697Y-3737502D01*
X15680280Y-3854171D01*
X15702137Y-3953519D01*
X15726828Y-4031065D01*
X15755001Y-4093579D01*
X15782843Y-4137036D01*
X15812641Y-4168494D01*
X15840066Y-4186268D01*
X15868407Y-4194915D01*
X15881454Y-4195842D01*
X15933164Y-4180158D01*
X15984207Y-4129733D01*
X16034740Y-4031538D01*
X16079041Y-3869957D01*
X16107955Y-3633676D01*
X16113852Y-3441742D01*
X16110911Y-3292368D01*
X16100917Y-3159743D01*
X16084856Y-3044501D01*
X16063520Y-2945557D01*
X16038693Y-2865367D01*
X16010482Y-2800177D01*
X15982050Y-2753174D01*
X15951968Y-2718825D01*
X15924470Y-2698931D01*
X15896559Y-2688814D01*
X15881454Y-2687398D01*
X15829719Y-2703082D01*
X15778682Y-2753490D01*
X15728169Y-2851642D01*
X15683884Y-3013182D01*
X15654967Y-3249479D01*
X15649057Y-3441742D01*
X15391381Y-3441742D01*
X15395204Y-3294307D01*
X15406333Y-3158776D01*
X15423911Y-3037034D01*
X15447577Y-2926687D01*
X15476056Y-2830002D01*
X15509415Y-2744041D01*
X15545870Y-2671101D01*
X15586059Y-2608079D01*
X15627794Y-2556842D01*
X15672238Y-2514665D01*
X15717200Y-2482609D01*
X15764016Y-2458851D01*
X15811141Y-2443642D01*
X15859427Y-2436248D01*
X15881454Y-2435462D01*
X15929839Y-2439376D01*
G37*
G36*
X14261880Y-2210636D02*
G01*
X15225052Y-4674680D01*
X14978733Y-4674680D01*
X14015561Y-2210636D01*
X14261880Y-2210636D01*
G37*
G36*
X13092812Y-2891341D02*
G01*
X13096640Y-2817846D01*
X13107803Y-2750634D01*
X13125448Y-2690786D01*
X13149253Y-2637120D01*
X13178468Y-2590100D01*
X13212843Y-2549265D01*
X13295773Y-2486114D01*
X13396411Y-2448142D01*
X13496057Y-2437294D01*
X13601731Y-2452186D01*
X13695688Y-2495346D01*
X13736321Y-2526588D01*
X13771338Y-2563266D01*
X13800047Y-2604613D01*
X13821956Y-2650112D01*
X13836219Y-2698000D01*
X13842837Y-2748674D01*
X13843248Y-2765068D01*
X13650052Y-2863253D01*
X13646221Y-2821992D01*
X13635037Y-2784568D01*
X13617488Y-2752704D01*
X13593814Y-2726339D01*
X13565892Y-2707136D01*
X13533151Y-2694569D01*
X13490439Y-2689352D01*
X13452557Y-2693203D01*
X13420336Y-2704530D01*
X13374752Y-2744783D01*
X13347153Y-2811456D01*
X13339253Y-2891341D01*
X13353831Y-2970395D01*
X13408322Y-3094850D01*
X13517592Y-3287744D01*
X13631344Y-3486362D01*
X13738332Y-3703363D01*
X13782793Y-3817042D01*
X13817768Y-3933259D01*
X13840658Y-4051328D01*
X13848866Y-4170563D01*
X13848866Y-4422500D01*
X13098429Y-4422500D01*
X13098429Y-4170563D01*
X13594120Y-4170563D01*
X13579551Y-4035272D01*
X13533498Y-3883311D01*
X13448645Y-3701291D01*
X13334083Y-3499119D01*
X13244864Y-3343636D01*
X13167651Y-3190331D01*
X13113337Y-3039476D01*
X13098170Y-2965051D01*
X13092812Y-2891341D01*
G37*
G36*
X12529099Y-3147308D02*
G01*
X12607501Y-3152925D01*
X12520795Y-2712800D01*
X12072732Y-2712800D01*
X12072732Y-2460741D01*
X12750383Y-2460741D01*
X12935153Y-3399244D01*
X12730722Y-3555804D01*
X12681673Y-3473372D01*
X12615575Y-3417414D01*
X12578554Y-3400535D01*
X12540959Y-3391728D01*
X12531908Y-3390818D01*
X12496779Y-3392964D01*
X12461907Y-3404177D01*
X12432247Y-3422681D01*
X12404566Y-3450178D01*
X12380571Y-3485969D01*
X12359926Y-3531715D01*
X12343125Y-3589302D01*
X12331348Y-3658858D01*
X12324790Y-3779408D01*
X12328572Y-3860575D01*
X12339411Y-3933788D01*
X12356530Y-3998656D01*
X12379181Y-4054917D01*
X12405907Y-4101221D01*
X12436481Y-4138692D01*
X12468482Y-4165847D01*
X12502720Y-4184468D01*
X12559996Y-4195842D01*
X12617014Y-4180946D01*
X12683082Y-4130971D01*
X12716010Y-4091206D01*
X12744727Y-4043985D01*
X12767114Y-3991899D01*
X12971545Y-4170807D01*
X12914228Y-4261358D01*
X12824735Y-4346801D01*
X12711975Y-4413069D01*
X12654204Y-4433835D01*
X12597059Y-4445569D01*
X12559996Y-4447901D01*
X12500981Y-4443994D01*
X12443489Y-4432281D01*
X12388915Y-4413137D01*
X12336863Y-4386445D01*
X12288475Y-4352717D01*
X12243547Y-4311657D01*
X12202856Y-4263648D01*
X12166553Y-4208428D01*
X12135139Y-4146037D01*
X12109084Y-4076459D01*
X12088793Y-3999322D01*
X12074897Y-3914947D01*
X12067114Y-3779408D01*
X12070921Y-3682256D01*
X12081942Y-3594135D01*
X12099327Y-3515683D01*
X12122585Y-3445552D01*
X12151005Y-3383741D01*
X12184098Y-3329695D01*
X12221645Y-3282781D01*
X12262778Y-3243278D01*
X12356013Y-3184320D01*
X12461370Y-3152651D01*
X12529099Y-3147308D01*
G37*
G36*
X80897650Y-53148570D02*
G01*
X81810385Y-53148570D01*
X81810385Y-53574285D01*
X81401523Y-53574285D01*
X81401523Y-54416678D01*
X81495164Y-54454433D01*
X81595266Y-54476714D01*
X81698278Y-54483601D01*
X81816904Y-54475939D01*
X81928244Y-54453569D01*
X82131614Y-54366896D01*
X82312136Y-54224246D01*
X82469529Y-54022100D01*
X82598447Y-53756810D01*
X82688862Y-53430506D01*
X82728490Y-53057775D01*
X82728738Y-53047942D01*
X82725210Y-52857988D01*
X82706104Y-52670151D01*
X82672064Y-52489822D01*
X82622965Y-52317029D01*
X82562769Y-52163128D01*
X82489196Y-52020681D01*
X82409749Y-51901752D01*
X82319041Y-51796239D01*
X82226187Y-51712957D01*
X82123944Y-51643775D01*
X82020469Y-51593297D01*
X81908912Y-51557293D01*
X81698278Y-51532415D01*
X81577496Y-51540133D01*
X81464091Y-51562895D01*
X81359474Y-51599636D01*
X81262671Y-51649956D01*
X81183169Y-51705827D01*
X80875179Y-51280356D01*
X80998260Y-51200908D01*
X81130722Y-51134895D01*
X81266982Y-51084935D01*
X81411935Y-51049077D01*
X81698278Y-51022680D01*
X81855865Y-51030362D01*
X82005178Y-51052876D01*
X82280857Y-51140021D01*
X82528222Y-51281386D01*
X82748102Y-51476938D01*
X82938411Y-51727864D01*
X83093823Y-52034145D01*
X83206253Y-52391442D01*
X83266496Y-52788048D01*
X83271934Y-53120726D01*
X83255522Y-53329205D01*
X83223529Y-53534379D01*
X83177125Y-53730079D01*
X83115809Y-53918718D01*
X83043252Y-54090702D01*
X82957085Y-54252788D01*
X82863451Y-54394943D01*
X82757752Y-54525408D01*
X82647512Y-54636025D01*
X82526646Y-54733924D01*
X82402558Y-54813760D01*
X82268977Y-54880188D01*
X82131853Y-54930417D01*
X81985996Y-54966513D01*
X81698278Y-54993092D01*
X81431735Y-54963021D01*
X81162157Y-54871532D01*
X80907514Y-54720583D01*
X80897650Y-54713189D01*
X80897650Y-53148570D01*
G37*
G36*
X80597719Y-54961340D02*
G01*
X80032053Y-54961340D01*
X79886484Y-54445988D01*
X78917573Y-54445988D01*
X78760769Y-54961340D01*
X78195347Y-54961340D01*
X78501051Y-53942115D01*
X79074377Y-53942115D01*
X79740915Y-53942115D01*
X79421690Y-52805408D01*
X79074377Y-53942115D01*
X78501051Y-53942115D01*
X79371132Y-51041242D01*
X79472004Y-51041242D01*
X80597719Y-54961340D01*
G37*
G36*
X75846219Y-51041975D02*
G01*
X76551837Y-52525995D01*
X77246219Y-51041975D01*
X77806024Y-51041975D01*
X77806024Y-54961829D01*
X77246219Y-54961829D01*
X77246219Y-52357956D01*
X76551837Y-53606769D01*
X75846219Y-52346720D01*
X75846219Y-54961829D01*
X75286170Y-54961829D01*
X75286170Y-51041975D01*
X75846219Y-51041975D01*
G37*
G36*
X73244056Y-51542429D02*
G01*
X73244056Y-51038311D01*
X74839938Y-51038311D01*
X74839938Y-54961829D01*
X73244056Y-54961829D01*
X73244056Y-54457956D01*
X74280134Y-54457956D01*
X74280134Y-53574529D01*
X73552046Y-53574529D01*
X73552046Y-53070412D01*
X74280134Y-53070412D01*
X74280134Y-51542429D01*
X73244056Y-51542429D01*
G37*
G36*
X72796114Y-54957921D02*
G01*
X72236310Y-54957921D01*
X72236310Y-53871528D01*
X72072801Y-53863871D01*
X71919520Y-53841529D01*
X71775709Y-53805219D01*
X71642237Y-53755985D01*
X71402393Y-53619779D01*
X71199864Y-53435872D01*
X71037300Y-53206765D01*
X70920288Y-52936938D01*
X70856253Y-52635715D01*
X70853432Y-52433078D01*
X71350300Y-52433078D01*
X71355458Y-52561379D01*
X71376242Y-52687799D01*
X71411928Y-52808108D01*
X71462732Y-52922248D01*
X71525128Y-53023185D01*
X71601218Y-53114722D01*
X71685270Y-53190566D01*
X71781433Y-53254906D01*
X71883978Y-53303954D01*
X71997447Y-53339906D01*
X72236310Y-53367411D01*
X72236310Y-51542429D01*
X72107432Y-51550048D01*
X71988675Y-51572117D01*
X71779843Y-51655840D01*
X71607836Y-51788319D01*
X71474291Y-51966431D01*
X71385390Y-52185318D01*
X71350300Y-52433078D01*
X70853432Y-52433078D01*
X70851844Y-52318999D01*
X70872945Y-52161753D01*
X70909605Y-52007810D01*
X70960478Y-51862229D01*
X71026216Y-51723165D01*
X71103297Y-51597357D01*
X71194075Y-51480552D01*
X71293350Y-51378946D01*
X71405068Y-51288128D01*
X71523666Y-51212474D01*
X71653665Y-51148987D01*
X71790446Y-51100148D01*
X71937923Y-51064784D01*
X72236310Y-51038311D01*
X72796114Y-51038311D01*
X72796114Y-54957921D01*
G37*
G36*
X71015584Y-54961340D02*
G01*
X70449918Y-54961340D01*
X70304349Y-54445988D01*
X69335437Y-54445988D01*
X69178634Y-54961340D01*
X68613211Y-54961340D01*
X68918915Y-53942115D01*
X69492241Y-53942115D01*
X70158780Y-53942115D01*
X69839555Y-52805408D01*
X69492241Y-53942115D01*
X68918915Y-53942115D01*
X69788996Y-51041242D01*
X69889869Y-51041242D01*
X71015584Y-54961340D01*
G37*
G36*
X68223888Y-54961829D02*
G01*
X67389555Y-54961829D01*
X67249968Y-54954147D01*
X67117788Y-54931640D01*
X66873390Y-54844256D01*
X66652843Y-54701145D01*
X66455342Y-54500254D01*
X66283713Y-54238210D01*
X66144630Y-53913689D01*
X66047828Y-53531665D01*
X66003895Y-53107493D01*
X66004018Y-53054454D01*
X66506570Y-53054454D01*
X66518113Y-53258485D01*
X66545280Y-53457943D01*
X66586258Y-53642481D01*
X66641763Y-53816174D01*
X66705498Y-53963277D01*
X66781480Y-54096013D01*
X66859882Y-54200590D01*
X66948105Y-54289855D01*
X67035771Y-54355533D01*
X67131373Y-54406091D01*
X67227002Y-54438298D01*
X67329445Y-54455381D01*
X67389555Y-54457956D01*
X67664084Y-54457956D01*
X67664084Y-51542429D01*
X67395172Y-51542429D01*
X67292357Y-51550089D01*
X67195849Y-51572446D01*
X67018522Y-51659734D01*
X66859101Y-51806131D01*
X66718728Y-52018478D01*
X66604633Y-52302632D01*
X66529232Y-52655184D01*
X66506570Y-53054454D01*
X66004018Y-53054454D01*
X66004404Y-52887188D01*
X66020509Y-52668150D01*
X66051863Y-52454710D01*
X66098536Y-52247353D01*
X66157699Y-52056394D01*
X66230952Y-51875377D01*
X66312304Y-51716793D01*
X66406003Y-51570533D01*
X66503786Y-51447591D01*
X66612153Y-51338102D01*
X66722320Y-51249644D01*
X66841620Y-51175107D01*
X66962524Y-51118555D01*
X67091553Y-51076312D01*
X67223709Y-51049995D01*
X67363421Y-51038698D01*
X67395172Y-51038311D01*
X68223888Y-51038311D01*
X68223888Y-54961829D01*
G37*
G36*
X137818675Y-49496250D02*
G01*
X137419521Y-49496250D01*
X137419521Y-46556359D01*
X137495176Y-46556359D01*
X137818675Y-47068720D01*
X137818675Y-49496250D01*
G37*
G36*
X136381465Y-46521564D02*
G01*
X136452672Y-46539213D01*
X136588663Y-46609742D01*
X136716177Y-46730757D01*
X136831948Y-46908797D01*
X136929957Y-47151025D01*
X137002283Y-47463398D01*
X137026198Y-47648222D01*
X137040217Y-47849863D01*
X137043815Y-48025114D01*
X137038081Y-48246228D01*
X137021387Y-48449493D01*
X136995021Y-48632088D01*
X136959522Y-48797594D01*
X136916802Y-48942617D01*
X136866763Y-49071554D01*
X136812078Y-49180963D01*
X136751795Y-49275494D01*
X136689194Y-49352345D01*
X136622530Y-49415606D01*
X136555094Y-49463681D01*
X136484881Y-49499306D01*
X136414212Y-49522105D01*
X136341804Y-49533179D01*
X136308888Y-49534351D01*
X136236279Y-49528481D01*
X136165043Y-49510832D01*
X136029012Y-49440309D01*
X135901474Y-49319315D01*
X135785689Y-49141316D01*
X135687670Y-48899153D01*
X135615333Y-48586866D01*
X135591410Y-48402091D01*
X135577383Y-48200507D01*
X135573778Y-48025114D01*
X135960293Y-48025114D01*
X135965968Y-48260937D01*
X135982252Y-48468753D01*
X136007126Y-48643757D01*
X136039913Y-48792778D01*
X136076948Y-48909097D01*
X136119208Y-49002869D01*
X136160971Y-49068054D01*
X136205668Y-49115242D01*
X136246805Y-49141902D01*
X136289318Y-49154873D01*
X136308888Y-49156263D01*
X136386452Y-49132738D01*
X136463017Y-49057099D01*
X136538816Y-48909808D01*
X136605267Y-48667436D01*
X136648639Y-48313014D01*
X136657484Y-48025114D01*
X136653073Y-47801052D01*
X136638082Y-47602114D01*
X136613991Y-47429252D01*
X136581987Y-47280835D01*
X136544747Y-47160551D01*
X136502430Y-47062766D01*
X136459782Y-46992262D01*
X136414658Y-46940738D01*
X136373411Y-46910896D01*
X136331545Y-46895722D01*
X136308888Y-46893598D01*
X136231285Y-46917123D01*
X136154729Y-46992736D01*
X136078961Y-47139964D01*
X136012533Y-47382273D01*
X135969156Y-47736719D01*
X135960293Y-48025114D01*
X135573778Y-48025114D01*
X135579513Y-47803961D01*
X135596207Y-47600664D01*
X135622572Y-47418051D01*
X135658072Y-47252530D01*
X135700790Y-47107503D01*
X135750828Y-46978562D01*
X135805512Y-46869152D01*
X135865795Y-46774619D01*
X135928397Y-46697764D01*
X135995064Y-46634498D01*
X136062507Y-46586413D01*
X136132731Y-46550777D01*
X136203417Y-46527963D01*
X136275847Y-46516873D01*
X136308888Y-46515693D01*
X136381465Y-46521564D01*
G37*
G36*
X134746015Y-46521564D02*
G01*
X134817222Y-46539213D01*
X134953213Y-46609742D01*
X135080727Y-46730757D01*
X135196498Y-46908797D01*
X135294507Y-47151025D01*
X135366833Y-47463398D01*
X135390748Y-47648222D01*
X135404767Y-47849863D01*
X135408365Y-48025114D01*
X135402630Y-48246228D01*
X135385937Y-48449493D01*
X135359571Y-48632088D01*
X135324071Y-48797594D01*
X135281352Y-48942617D01*
X135231313Y-49071554D01*
X135176628Y-49180963D01*
X135116345Y-49275494D01*
X135053744Y-49352345D01*
X134987080Y-49415606D01*
X134919644Y-49463681D01*
X134849431Y-49499306D01*
X134778762Y-49522105D01*
X134706354Y-49533179D01*
X134673438Y-49534351D01*
X134600829Y-49528481D01*
X134529593Y-49510832D01*
X134393562Y-49440309D01*
X134266024Y-49319315D01*
X134150239Y-49141316D01*
X134052220Y-48899153D01*
X133979882Y-48586866D01*
X133955960Y-48402091D01*
X133941933Y-48200507D01*
X133938328Y-48025114D01*
X134324842Y-48025114D01*
X134330518Y-48260937D01*
X134346802Y-48468753D01*
X134371676Y-48643757D01*
X134404462Y-48792778D01*
X134441498Y-48909097D01*
X134483758Y-49002869D01*
X134525521Y-49068054D01*
X134570217Y-49115242D01*
X134611355Y-49141902D01*
X134653867Y-49154873D01*
X134673438Y-49156263D01*
X134751002Y-49132738D01*
X134827567Y-49057099D01*
X134903366Y-48909808D01*
X134969817Y-48667436D01*
X135013188Y-48313014D01*
X135022034Y-48025114D01*
X135017623Y-47801052D01*
X135002632Y-47602114D01*
X134978541Y-47429252D01*
X134946537Y-47280835D01*
X134909297Y-47160551D01*
X134866980Y-47062766D01*
X134824332Y-46992262D01*
X134779208Y-46940738D01*
X134737961Y-46910896D01*
X134696095Y-46895722D01*
X134673438Y-46893598D01*
X134595834Y-46917123D01*
X134519279Y-46992736D01*
X134443511Y-47139964D01*
X134377083Y-47382273D01*
X134333706Y-47736719D01*
X134324842Y-48025114D01*
X133938328Y-48025114D01*
X133944063Y-47803961D01*
X133960757Y-47600664D01*
X133987122Y-47418051D01*
X134022622Y-47252530D01*
X134065340Y-47107503D01*
X134115378Y-46978562D01*
X134170062Y-46869152D01*
X134230345Y-46774619D01*
X134292947Y-46697764D01*
X134359614Y-46634498D01*
X134427057Y-46586413D01*
X134497281Y-46550777D01*
X134567967Y-46527963D01*
X134640397Y-46516873D01*
X134673438Y-46515693D01*
X134746015Y-46521564D01*
G37*
G36*
X133110565Y-46521564D02*
G01*
X133181772Y-46539213D01*
X133317763Y-46609742D01*
X133445277Y-46730757D01*
X133561048Y-46908797D01*
X133659057Y-47151025D01*
X133731383Y-47463398D01*
X133755298Y-47648222D01*
X133769317Y-47849863D01*
X133772915Y-48025114D01*
X133767180Y-48246228D01*
X133750487Y-48449493D01*
X133724121Y-48632088D01*
X133688621Y-48797594D01*
X133645902Y-48942617D01*
X133595863Y-49071554D01*
X133541178Y-49180963D01*
X133480895Y-49275494D01*
X133418293Y-49352345D01*
X133351630Y-49415606D01*
X133284194Y-49463681D01*
X133213980Y-49499306D01*
X133143312Y-49522105D01*
X133070904Y-49533179D01*
X133037988Y-49534351D01*
X132965379Y-49528481D01*
X132894143Y-49510832D01*
X132758111Y-49440309D01*
X132630574Y-49319315D01*
X132514789Y-49141316D01*
X132416770Y-48899153D01*
X132344432Y-48586866D01*
X132320510Y-48402091D01*
X132306483Y-48200507D01*
X132302878Y-48025114D01*
X132689392Y-48025114D01*
X132695068Y-48260937D01*
X132711352Y-48468753D01*
X132736226Y-48643757D01*
X132769012Y-48792778D01*
X132806048Y-48909097D01*
X132848308Y-49002869D01*
X132890071Y-49068054D01*
X132934767Y-49115242D01*
X132975905Y-49141902D01*
X133018417Y-49154873D01*
X133037988Y-49156263D01*
X133115552Y-49132738D01*
X133192117Y-49057099D01*
X133267916Y-48909808D01*
X133334367Y-48667436D01*
X133377738Y-48313014D01*
X133386584Y-48025114D01*
X133382173Y-47801052D01*
X133367182Y-47602114D01*
X133343090Y-47429252D01*
X133311087Y-47280835D01*
X133273846Y-47160551D01*
X133231530Y-47062766D01*
X133188882Y-46992262D01*
X133143758Y-46940738D01*
X133102511Y-46910896D01*
X133060645Y-46895722D01*
X133037988Y-46893598D01*
X132960384Y-46917123D01*
X132883829Y-46992736D01*
X132808060Y-47139964D01*
X132741632Y-47382273D01*
X132698256Y-47736719D01*
X132689392Y-48025114D01*
X132302878Y-48025114D01*
X132308613Y-47803961D01*
X132325306Y-47600664D01*
X132351672Y-47418051D01*
X132387172Y-47252530D01*
X132429890Y-47107503D01*
X132479928Y-46978562D01*
X132534612Y-46869152D01*
X132594895Y-46774619D01*
X132657497Y-46697764D01*
X132724164Y-46634498D01*
X132791607Y-46586413D01*
X132861831Y-46550777D01*
X132932517Y-46527963D01*
X133004947Y-46516873D01*
X133037988Y-46515693D01*
X133110565Y-46521564D01*
G37*
G36*
X130537185Y-48982424D02*
G01*
X130611447Y-49037630D01*
X130692444Y-49081842D01*
X130772912Y-49111777D01*
X130859452Y-49130640D01*
X130957222Y-49137579D01*
X131046118Y-49131833D01*
X131129558Y-49115056D01*
X131282009Y-49050047D01*
X131417383Y-48943031D01*
X131535459Y-48791357D01*
X131632210Y-48592292D01*
X131700093Y-48347475D01*
X131729874Y-48067951D01*
X131730068Y-48060285D01*
X131727421Y-47917869D01*
X131713092Y-47777046D01*
X131687562Y-47641862D01*
X131650740Y-47512331D01*
X131605593Y-47396965D01*
X131550416Y-47290186D01*
X131490829Y-47201034D01*
X131422797Y-47121941D01*
X131353148Y-47059509D01*
X131276456Y-47007649D01*
X131198833Y-46969809D01*
X131115145Y-46942823D01*
X130957222Y-46924189D01*
X130866636Y-46929976D01*
X130781582Y-46947037D01*
X130703059Y-46974589D01*
X130630407Y-47012312D01*
X130570891Y-47054065D01*
X130339898Y-46735145D01*
X130432209Y-46675559D01*
X130531555Y-46626049D01*
X130633750Y-46588580D01*
X130742465Y-46561686D01*
X130957222Y-46541888D01*
X131075439Y-46547650D01*
X131187447Y-46564535D01*
X131394244Y-46629892D01*
X131579792Y-46735909D01*
X131744711Y-46882556D01*
X131887438Y-47070719D01*
X132003978Y-47300376D01*
X132088269Y-47568267D01*
X132133410Y-47865608D01*
X132137465Y-48114690D01*
X132125155Y-48271066D01*
X132101158Y-48424985D01*
X132066349Y-48571825D01*
X132020353Y-48713381D01*
X131965923Y-48842449D01*
X131901284Y-48964096D01*
X131831047Y-49070784D01*
X131751761Y-49168702D01*
X131669079Y-49251717D01*
X131578429Y-49325190D01*
X131485377Y-49385101D01*
X131385208Y-49434953D01*
X131282398Y-49472645D01*
X131173043Y-49499736D01*
X130957222Y-49519697D01*
X130839992Y-49513947D01*
X130728914Y-49497144D01*
X130522613Y-49431914D01*
X130336597Y-49325953D01*
X130314619Y-49309770D01*
X130537185Y-48982424D01*
G37*
G36*
X127860162Y-46553245D02*
G01*
X127860162Y-48077687D01*
X128553140Y-48077687D01*
X128553140Y-46553245D01*
X128972993Y-46553245D01*
X128972993Y-49493135D01*
X128553140Y-49493135D01*
X128553140Y-48455775D01*
X127860162Y-48455775D01*
X127860162Y-49493135D01*
X127440125Y-49493135D01*
X127440125Y-46553245D01*
X127860162Y-46553245D01*
G37*
G36*
X125909089Y-46931700D02*
G01*
X125909089Y-46553612D01*
X127106001Y-46553612D01*
X127106001Y-49496250D01*
X125909089Y-49496250D01*
X125909089Y-49118345D01*
X126686147Y-49118345D01*
X126686147Y-48455775D01*
X126140081Y-48455775D01*
X126140081Y-48077687D01*
X126686147Y-48077687D01*
X126686147Y-46931700D01*
X125909089Y-46931700D01*
G37*
G36*
X125573133Y-49493319D02*
G01*
X125153279Y-49493319D01*
X125153279Y-48678524D01*
X125027250Y-48674311D01*
X124590361Y-49493319D01*
X124136802Y-49493319D01*
X124632493Y-48556708D01*
X124463587Y-48439920D01*
X124323158Y-48288036D01*
X124214123Y-48103282D01*
X124141404Y-47890249D01*
X124110635Y-47657873D01*
X124111486Y-47599687D01*
X124488772Y-47599687D01*
X124492640Y-47695913D01*
X124508229Y-47790728D01*
X124534993Y-47880959D01*
X124573096Y-47966564D01*
X124619893Y-48042267D01*
X124676961Y-48110920D01*
X124740000Y-48167803D01*
X124812122Y-48216057D01*
X124889030Y-48252843D01*
X124974133Y-48279808D01*
X125153279Y-48300437D01*
X125153279Y-46931700D01*
X125056621Y-46937414D01*
X124967554Y-46953966D01*
X124810929Y-47016758D01*
X124681924Y-47116117D01*
X124581765Y-47249701D01*
X124515090Y-47413867D01*
X124488772Y-47599687D01*
X124111486Y-47599687D01*
X124112382Y-47538465D01*
X124125847Y-47419937D01*
X124150768Y-47304598D01*
X124187214Y-47192752D01*
X124233536Y-47088918D01*
X124290687Y-46990783D01*
X124355432Y-46903412D01*
X124430072Y-46823373D01*
X124510476Y-46754823D01*
X124599884Y-46694790D01*
X124694314Y-46645949D01*
X124797066Y-46606610D01*
X124905166Y-46578187D01*
X125021165Y-46560283D01*
X125153279Y-46553612D01*
X125573133Y-46553612D01*
X125573133Y-49493319D01*
G37*
G36*
X122664567Y-46931700D02*
G01*
X122664567Y-46553612D01*
X123861479Y-46553612D01*
X123861479Y-49496250D01*
X122664567Y-49496250D01*
X122664567Y-49118345D01*
X123441625Y-49118345D01*
X123441625Y-48455775D01*
X122895560Y-48455775D01*
X122895560Y-48077687D01*
X123441625Y-48077687D01*
X123441625Y-46931700D01*
X122664567Y-46931700D01*
G37*
D11*
X22752677Y-42112257D02*
X22895535Y-42040828D01*
X22895535Y-42040828D02*
X23109820Y-42040828D01*
X23109820Y-42040828D02*
X23324106Y-42112257D01*
X23324106Y-42112257D02*
X23466963Y-42255114D01*
X23466963Y-42255114D02*
X23538392Y-42397971D01*
X23538392Y-42397971D02*
X23609820Y-42683685D01*
X23609820Y-42683685D02*
X23609820Y-42897971D01*
X23609820Y-42897971D02*
X23538392Y-43183685D01*
X23538392Y-43183685D02*
X23466963Y-43326542D01*
X23466963Y-43326542D02*
X23324106Y-43469400D01*
X23324106Y-43469400D02*
X23109820Y-43540828D01*
X23109820Y-43540828D02*
X22966963Y-43540828D01*
X22966963Y-43540828D02*
X22752677Y-43469400D01*
X22752677Y-43469400D02*
X22681249Y-43397971D01*
X22681249Y-43397971D02*
X22681249Y-42897971D01*
X22681249Y-42897971D02*
X22966963Y-42897971D01*
X21824106Y-42040828D02*
X21824106Y-42397971D01*
X22181249Y-42255114D02*
X21824106Y-42397971D01*
X21824106Y-42397971D02*
X21466963Y-42255114D01*
X22038392Y-42683685D02*
X21824106Y-42397971D01*
X21824106Y-42397971D02*
X21609820Y-42683685D01*
X20681249Y-42040828D02*
X20681249Y-42397971D01*
X21038392Y-42255114D02*
X20681249Y-42397971D01*
X20681249Y-42397971D02*
X20324106Y-42255114D01*
X20895535Y-42683685D02*
X20681249Y-42397971D01*
X20681249Y-42397971D02*
X20466963Y-42683685D01*
X19538392Y-42040828D02*
X19538392Y-42397971D01*
X19895535Y-42255114D02*
X19538392Y-42397971D01*
X19538392Y-42397971D02*
X19181249Y-42255114D01*
X19752678Y-42683685D02*
X19538392Y-42397971D01*
X19538392Y-42397971D02*
X19324106Y-42683685D01*
X76383818Y-30888930D02*
X76526676Y-30817501D01*
X76526676Y-30817501D02*
X76740961Y-30817501D01*
X76740961Y-30817501D02*
X76955247Y-30888930D01*
X76955247Y-30888930D02*
X77098104Y-31031787D01*
X77098104Y-31031787D02*
X77169533Y-31174644D01*
X77169533Y-31174644D02*
X77240961Y-31460358D01*
X77240961Y-31460358D02*
X77240961Y-31674644D01*
X77240961Y-31674644D02*
X77169533Y-31960358D01*
X77169533Y-31960358D02*
X77098104Y-32103215D01*
X77098104Y-32103215D02*
X76955247Y-32246073D01*
X76955247Y-32246073D02*
X76740961Y-32317501D01*
X76740961Y-32317501D02*
X76598104Y-32317501D01*
X76598104Y-32317501D02*
X76383818Y-32246073D01*
X76383818Y-32246073D02*
X76312390Y-32174644D01*
X76312390Y-32174644D02*
X76312390Y-31674644D01*
X76312390Y-31674644D02*
X76598104Y-31674644D01*
X75455247Y-30817501D02*
X75455247Y-31174644D01*
X75812390Y-31031787D02*
X75455247Y-31174644D01*
X75455247Y-31174644D02*
X75098104Y-31031787D01*
X75669533Y-31460358D02*
X75455247Y-31174644D01*
X75455247Y-31174644D02*
X75240961Y-31460358D01*
X74312390Y-30817501D02*
X74312390Y-31174644D01*
X74669533Y-31031787D02*
X74312390Y-31174644D01*
X74312390Y-31174644D02*
X73955247Y-31031787D01*
X74526676Y-31460358D02*
X74312390Y-31174644D01*
X74312390Y-31174644D02*
X74098104Y-31460358D01*
X73169533Y-30817501D02*
X73169533Y-31174644D01*
X73526676Y-31031787D02*
X73169533Y-31174644D01*
X73169533Y-31174644D02*
X72812390Y-31031787D01*
X73383819Y-31460358D02*
X73169533Y-31174644D01*
X73169533Y-31174644D02*
X72955247Y-31460358D01*
D12*
X133702382Y-15454819D02*
X134178572Y-15454819D01*
X134178572Y-15454819D02*
X134178572Y-14454819D01*
X132988096Y-15407200D02*
X133083334Y-15454819D01*
X133083334Y-15454819D02*
X133273810Y-15454819D01*
X133273810Y-15454819D02*
X133369048Y-15407200D01*
X133369048Y-15407200D02*
X133416667Y-15311961D01*
X133416667Y-15311961D02*
X133416667Y-14931009D01*
X133416667Y-14931009D02*
X133369048Y-14835771D01*
X133369048Y-14835771D02*
X133273810Y-14788152D01*
X133273810Y-14788152D02*
X133083334Y-14788152D01*
X133083334Y-14788152D02*
X132988096Y-14835771D01*
X132988096Y-14835771D02*
X132940477Y-14931009D01*
X132940477Y-14931009D02*
X132940477Y-15026247D01*
X132940477Y-15026247D02*
X133416667Y-15121485D01*
X132654762Y-14788152D02*
X132273810Y-14788152D01*
X132511905Y-15454819D02*
X132511905Y-14597676D01*
X132511905Y-14597676D02*
X132464286Y-14502438D01*
X132464286Y-14502438D02*
X132369048Y-14454819D01*
X132369048Y-14454819D02*
X132273810Y-14454819D01*
X132083333Y-14788152D02*
X131702381Y-14788152D01*
X131940476Y-14454819D02*
X131940476Y-15311961D01*
X131940476Y-15311961D02*
X131892857Y-15407200D01*
X131892857Y-15407200D02*
X131797619Y-15454819D01*
X131797619Y-15454819D02*
X131702381Y-15454819D01*
X131416666Y-15407200D02*
X131273809Y-15454819D01*
X131273809Y-15454819D02*
X131035714Y-15454819D01*
X131035714Y-15454819D02*
X130940476Y-15407200D01*
X130940476Y-15407200D02*
X130892857Y-15359580D01*
X130892857Y-15359580D02*
X130845238Y-15264342D01*
X130845238Y-15264342D02*
X130845238Y-15169104D01*
X130845238Y-15169104D02*
X130892857Y-15073866D01*
X130892857Y-15073866D02*
X130940476Y-15026247D01*
X130940476Y-15026247D02*
X131035714Y-14978628D01*
X131035714Y-14978628D02*
X131226190Y-14931009D01*
X131226190Y-14931009D02*
X131321428Y-14883390D01*
X131321428Y-14883390D02*
X131369047Y-14835771D01*
X131369047Y-14835771D02*
X131416666Y-14740533D01*
X131416666Y-14740533D02*
X131416666Y-14645295D01*
X131416666Y-14645295D02*
X131369047Y-14550057D01*
X131369047Y-14550057D02*
X131321428Y-14502438D01*
X131321428Y-14502438D02*
X131226190Y-14454819D01*
X131226190Y-14454819D02*
X130988095Y-14454819D01*
X130988095Y-14454819D02*
X130845238Y-14502438D01*
X130416666Y-15454819D02*
X130416666Y-14454819D01*
X129988095Y-15454819D02*
X129988095Y-14931009D01*
X129988095Y-14931009D02*
X130035714Y-14835771D01*
X130035714Y-14835771D02*
X130130952Y-14788152D01*
X130130952Y-14788152D02*
X130273809Y-14788152D01*
X130273809Y-14788152D02*
X130369047Y-14835771D01*
X130369047Y-14835771D02*
X130416666Y-14883390D01*
X129369047Y-15454819D02*
X129464285Y-15407200D01*
X129464285Y-15407200D02*
X129511904Y-15359580D01*
X129511904Y-15359580D02*
X129559523Y-15264342D01*
X129559523Y-15264342D02*
X129559523Y-14978628D01*
X129559523Y-14978628D02*
X129511904Y-14883390D01*
X129511904Y-14883390D02*
X129464285Y-14835771D01*
X129464285Y-14835771D02*
X129369047Y-14788152D01*
X129369047Y-14788152D02*
X129226190Y-14788152D01*
X129226190Y-14788152D02*
X129130952Y-14835771D01*
X129130952Y-14835771D02*
X129083333Y-14883390D01*
X129083333Y-14883390D02*
X129035714Y-14978628D01*
X129035714Y-14978628D02*
X129035714Y-15264342D01*
X129035714Y-15264342D02*
X129083333Y-15359580D01*
X129083333Y-15359580D02*
X129130952Y-15407200D01*
X129130952Y-15407200D02*
X129226190Y-15454819D01*
X129226190Y-15454819D02*
X129369047Y-15454819D01*
X128178571Y-14788152D02*
X128178571Y-15454819D01*
X128607142Y-14788152D02*
X128607142Y-15311961D01*
X128607142Y-15311961D02*
X128559523Y-15407200D01*
X128559523Y-15407200D02*
X128464285Y-15454819D01*
X128464285Y-15454819D02*
X128321428Y-15454819D01*
X128321428Y-15454819D02*
X128226190Y-15407200D01*
X128226190Y-15407200D02*
X128178571Y-15359580D01*
X127559523Y-15454819D02*
X127654761Y-15407200D01*
X127654761Y-15407200D02*
X127702380Y-15311961D01*
X127702380Y-15311961D02*
X127702380Y-14454819D01*
X126749999Y-15454819D02*
X126749999Y-14454819D01*
X126749999Y-15407200D02*
X126845237Y-15454819D01*
X126845237Y-15454819D02*
X127035713Y-15454819D01*
X127035713Y-15454819D02*
X127130951Y-15407200D01*
X127130951Y-15407200D02*
X127178570Y-15359580D01*
X127178570Y-15359580D02*
X127226189Y-15264342D01*
X127226189Y-15264342D02*
X127226189Y-14978628D01*
X127226189Y-14978628D02*
X127178570Y-14883390D01*
X127178570Y-14883390D02*
X127130951Y-14835771D01*
X127130951Y-14835771D02*
X127035713Y-14788152D01*
X127035713Y-14788152D02*
X126845237Y-14788152D01*
X126845237Y-14788152D02*
X126749999Y-14835771D01*
X125892856Y-15407200D02*
X125988094Y-15454819D01*
X125988094Y-15454819D02*
X126178570Y-15454819D01*
X126178570Y-15454819D02*
X126273808Y-15407200D01*
X126273808Y-15407200D02*
X126321427Y-15311961D01*
X126321427Y-15311961D02*
X126321427Y-14931009D01*
X126321427Y-14931009D02*
X126273808Y-14835771D01*
X126273808Y-14835771D02*
X126178570Y-14788152D01*
X126178570Y-14788152D02*
X125988094Y-14788152D01*
X125988094Y-14788152D02*
X125892856Y-14835771D01*
X125892856Y-14835771D02*
X125845237Y-14931009D01*
X125845237Y-14931009D02*
X125845237Y-15026247D01*
X125845237Y-15026247D02*
X126321427Y-15121485D01*
X125416665Y-15454819D02*
X125416665Y-14788152D01*
X125416665Y-14978628D02*
X125369046Y-14883390D01*
X125369046Y-14883390D02*
X125321427Y-14835771D01*
X125321427Y-14835771D02*
X125226189Y-14788152D01*
X125226189Y-14788152D02*
X125130951Y-14788152D01*
X124273808Y-15454819D02*
X124845236Y-15454819D01*
X124559522Y-15454819D02*
X124559522Y-14454819D01*
X124559522Y-14454819D02*
X124654760Y-14597676D01*
X124654760Y-14597676D02*
X124749998Y-14692914D01*
X124749998Y-14692914D02*
X124845236Y-14740533D01*
X26130953Y-15454819D02*
X26464286Y-14978628D01*
X26702381Y-15454819D02*
X26702381Y-14454819D01*
X26702381Y-14454819D02*
X26321429Y-14454819D01*
X26321429Y-14454819D02*
X26226191Y-14502438D01*
X26226191Y-14502438D02*
X26178572Y-14550057D01*
X26178572Y-14550057D02*
X26130953Y-14645295D01*
X26130953Y-14645295D02*
X26130953Y-14788152D01*
X26130953Y-14788152D02*
X26178572Y-14883390D01*
X26178572Y-14883390D02*
X26226191Y-14931009D01*
X26226191Y-14931009D02*
X26321429Y-14978628D01*
X26321429Y-14978628D02*
X26702381Y-14978628D01*
X25702381Y-15454819D02*
X25702381Y-14788152D01*
X25702381Y-14454819D02*
X25750000Y-14502438D01*
X25750000Y-14502438D02*
X25702381Y-14550057D01*
X25702381Y-14550057D02*
X25654762Y-14502438D01*
X25654762Y-14502438D02*
X25702381Y-14454819D01*
X25702381Y-14454819D02*
X25702381Y-14550057D01*
X24797620Y-14788152D02*
X24797620Y-15597676D01*
X24797620Y-15597676D02*
X24845239Y-15692914D01*
X24845239Y-15692914D02*
X24892858Y-15740533D01*
X24892858Y-15740533D02*
X24988096Y-15788152D01*
X24988096Y-15788152D02*
X25130953Y-15788152D01*
X25130953Y-15788152D02*
X25226191Y-15740533D01*
X24797620Y-15407200D02*
X24892858Y-15454819D01*
X24892858Y-15454819D02*
X25083334Y-15454819D01*
X25083334Y-15454819D02*
X25178572Y-15407200D01*
X25178572Y-15407200D02*
X25226191Y-15359580D01*
X25226191Y-15359580D02*
X25273810Y-15264342D01*
X25273810Y-15264342D02*
X25273810Y-14978628D01*
X25273810Y-14978628D02*
X25226191Y-14883390D01*
X25226191Y-14883390D02*
X25178572Y-14835771D01*
X25178572Y-14835771D02*
X25083334Y-14788152D01*
X25083334Y-14788152D02*
X24892858Y-14788152D01*
X24892858Y-14788152D02*
X24797620Y-14835771D01*
X24321429Y-15454819D02*
X24321429Y-14454819D01*
X23892858Y-15454819D02*
X23892858Y-14931009D01*
X23892858Y-14931009D02*
X23940477Y-14835771D01*
X23940477Y-14835771D02*
X24035715Y-14788152D01*
X24035715Y-14788152D02*
X24178572Y-14788152D01*
X24178572Y-14788152D02*
X24273810Y-14835771D01*
X24273810Y-14835771D02*
X24321429Y-14883390D01*
X23559524Y-14788152D02*
X23178572Y-14788152D01*
X23416667Y-14454819D02*
X23416667Y-15311961D01*
X23416667Y-15311961D02*
X23369048Y-15407200D01*
X23369048Y-15407200D02*
X23273810Y-15454819D01*
X23273810Y-15454819D02*
X23178572Y-15454819D01*
X22892857Y-15407200D02*
X22750000Y-15454819D01*
X22750000Y-15454819D02*
X22511905Y-15454819D01*
X22511905Y-15454819D02*
X22416667Y-15407200D01*
X22416667Y-15407200D02*
X22369048Y-15359580D01*
X22369048Y-15359580D02*
X22321429Y-15264342D01*
X22321429Y-15264342D02*
X22321429Y-15169104D01*
X22321429Y-15169104D02*
X22369048Y-15073866D01*
X22369048Y-15073866D02*
X22416667Y-15026247D01*
X22416667Y-15026247D02*
X22511905Y-14978628D01*
X22511905Y-14978628D02*
X22702381Y-14931009D01*
X22702381Y-14931009D02*
X22797619Y-14883390D01*
X22797619Y-14883390D02*
X22845238Y-14835771D01*
X22845238Y-14835771D02*
X22892857Y-14740533D01*
X22892857Y-14740533D02*
X22892857Y-14645295D01*
X22892857Y-14645295D02*
X22845238Y-14550057D01*
X22845238Y-14550057D02*
X22797619Y-14502438D01*
X22797619Y-14502438D02*
X22702381Y-14454819D01*
X22702381Y-14454819D02*
X22464286Y-14454819D01*
X22464286Y-14454819D02*
X22321429Y-14502438D01*
X21892857Y-15454819D02*
X21892857Y-14454819D01*
X21464286Y-15454819D02*
X21464286Y-14931009D01*
X21464286Y-14931009D02*
X21511905Y-14835771D01*
X21511905Y-14835771D02*
X21607143Y-14788152D01*
X21607143Y-14788152D02*
X21750000Y-14788152D01*
X21750000Y-14788152D02*
X21845238Y-14835771D01*
X21845238Y-14835771D02*
X21892857Y-14883390D01*
X20845238Y-15454819D02*
X20940476Y-15407200D01*
X20940476Y-15407200D02*
X20988095Y-15359580D01*
X20988095Y-15359580D02*
X21035714Y-15264342D01*
X21035714Y-15264342D02*
X21035714Y-14978628D01*
X21035714Y-14978628D02*
X20988095Y-14883390D01*
X20988095Y-14883390D02*
X20940476Y-14835771D01*
X20940476Y-14835771D02*
X20845238Y-14788152D01*
X20845238Y-14788152D02*
X20702381Y-14788152D01*
X20702381Y-14788152D02*
X20607143Y-14835771D01*
X20607143Y-14835771D02*
X20559524Y-14883390D01*
X20559524Y-14883390D02*
X20511905Y-14978628D01*
X20511905Y-14978628D02*
X20511905Y-15264342D01*
X20511905Y-15264342D02*
X20559524Y-15359580D01*
X20559524Y-15359580D02*
X20607143Y-15407200D01*
X20607143Y-15407200D02*
X20702381Y-15454819D01*
X20702381Y-15454819D02*
X20845238Y-15454819D01*
X19654762Y-14788152D02*
X19654762Y-15454819D01*
X20083333Y-14788152D02*
X20083333Y-15311961D01*
X20083333Y-15311961D02*
X20035714Y-15407200D01*
X20035714Y-15407200D02*
X19940476Y-15454819D01*
X19940476Y-15454819D02*
X19797619Y-15454819D01*
X19797619Y-15454819D02*
X19702381Y-15407200D01*
X19702381Y-15407200D02*
X19654762Y-15359580D01*
X19035714Y-15454819D02*
X19130952Y-15407200D01*
X19130952Y-15407200D02*
X19178571Y-15311961D01*
X19178571Y-15311961D02*
X19178571Y-14454819D01*
X18226190Y-15454819D02*
X18226190Y-14454819D01*
X18226190Y-15407200D02*
X18321428Y-15454819D01*
X18321428Y-15454819D02*
X18511904Y-15454819D01*
X18511904Y-15454819D02*
X18607142Y-15407200D01*
X18607142Y-15407200D02*
X18654761Y-15359580D01*
X18654761Y-15359580D02*
X18702380Y-15264342D01*
X18702380Y-15264342D02*
X18702380Y-14978628D01*
X18702380Y-14978628D02*
X18654761Y-14883390D01*
X18654761Y-14883390D02*
X18607142Y-14835771D01*
X18607142Y-14835771D02*
X18511904Y-14788152D01*
X18511904Y-14788152D02*
X18321428Y-14788152D01*
X18321428Y-14788152D02*
X18226190Y-14835771D01*
X17369047Y-15407200D02*
X17464285Y-15454819D01*
X17464285Y-15454819D02*
X17654761Y-15454819D01*
X17654761Y-15454819D02*
X17749999Y-15407200D01*
X17749999Y-15407200D02*
X17797618Y-15311961D01*
X17797618Y-15311961D02*
X17797618Y-14931009D01*
X17797618Y-14931009D02*
X17749999Y-14835771D01*
X17749999Y-14835771D02*
X17654761Y-14788152D01*
X17654761Y-14788152D02*
X17464285Y-14788152D01*
X17464285Y-14788152D02*
X17369047Y-14835771D01*
X17369047Y-14835771D02*
X17321428Y-14931009D01*
X17321428Y-14931009D02*
X17321428Y-15026247D01*
X17321428Y-15026247D02*
X17797618Y-15121485D01*
X16892856Y-15454819D02*
X16892856Y-14788152D01*
X16892856Y-14978628D02*
X16845237Y-14883390D01*
X16845237Y-14883390D02*
X16797618Y-14835771D01*
X16797618Y-14835771D02*
X16702380Y-14788152D01*
X16702380Y-14788152D02*
X16607142Y-14788152D01*
X15749999Y-15454819D02*
X16321427Y-15454819D01*
X16035713Y-15454819D02*
X16035713Y-14454819D01*
X16035713Y-14454819D02*
X16130951Y-14597676D01*
X16130951Y-14597676D02*
X16226189Y-14692914D01*
X16226189Y-14692914D02*
X16321427Y-14740533D01*
X146589654Y-34374819D02*
X146589654Y-35184342D01*
X146589654Y-35184342D02*
X146542035Y-35279580D01*
X146542035Y-35279580D02*
X146494416Y-35327200D01*
X146494416Y-35327200D02*
X146399178Y-35374819D01*
X146399178Y-35374819D02*
X146208702Y-35374819D01*
X146208702Y-35374819D02*
X146113464Y-35327200D01*
X146113464Y-35327200D02*
X146065845Y-35279580D01*
X146065845Y-35279580D02*
X146018226Y-35184342D01*
X146018226Y-35184342D02*
X146018226Y-34374819D01*
X145018226Y-35374819D02*
X145589654Y-35374819D01*
X145303940Y-35374819D02*
X145303940Y-34374819D01*
X145303940Y-34374819D02*
X145399178Y-34517676D01*
X145399178Y-34517676D02*
X145494416Y-34612914D01*
X145494416Y-34612914D02*
X145589654Y-34660533D01*
D13*
%TO.C,G\u002A\u002A\u002A*%
G36*
X30785358Y-49968023D02*
G01*
X30785358Y-52216607D01*
X28536775Y-52216607D01*
X26288191Y-52216607D01*
X26288191Y-49968023D01*
X26288191Y-48331054D01*
X26899806Y-48331054D01*
X26899806Y-49950035D01*
X26899806Y-51569015D01*
X28518786Y-51569015D01*
X30137766Y-51569015D01*
X30137766Y-49950035D01*
X30137766Y-48331054D01*
X28518786Y-48331054D01*
X26899806Y-48331054D01*
X26288191Y-48331054D01*
X26288191Y-47719440D01*
X28536775Y-47719440D01*
X30785358Y-47719440D01*
X30785358Y-49950035D01*
X30785358Y-49968023D01*
G37*
G36*
X25640599Y-51892811D02*
G01*
X25640599Y-52216607D01*
X25316803Y-52216607D01*
X24993007Y-52216607D01*
X24993007Y-51892811D01*
X24993007Y-51569015D01*
X25316803Y-51569015D01*
X25640599Y-51569015D01*
X25640599Y-51892811D01*
G37*
G36*
X24993007Y-40595927D02*
G01*
X24669211Y-40595927D01*
X24345415Y-40595927D01*
X24345415Y-40919723D01*
X24345415Y-41243519D01*
X24669211Y-41243519D01*
X24993007Y-41243519D01*
X24993007Y-42214907D01*
X24993007Y-43186295D01*
X24669211Y-43186295D01*
X24345415Y-43186295D01*
X24345415Y-43510091D01*
X24345415Y-43833887D01*
X23697823Y-43833887D01*
X23050231Y-43833887D01*
X23050231Y-43510091D01*
X23050231Y-43186295D01*
X22078843Y-43186295D01*
X21107455Y-43186295D01*
X21107455Y-42538703D01*
X21107455Y-41891111D01*
X21755047Y-41891111D01*
X21755047Y-42214907D01*
X21755047Y-42538703D01*
X22078843Y-42538703D01*
X22402639Y-42538703D01*
X23050231Y-42538703D01*
X23697823Y-42538703D01*
X24345415Y-42538703D01*
X24345415Y-42214907D01*
X24345415Y-41891111D01*
X23697823Y-41891111D01*
X23050231Y-41891111D01*
X23050231Y-42214907D01*
X23050231Y-42538703D01*
X22402639Y-42538703D01*
X22402639Y-42214907D01*
X22402639Y-41891111D01*
X22078843Y-41891111D01*
X21755047Y-41891111D01*
X21107455Y-41891111D01*
X20783659Y-41891111D01*
X20459863Y-41891111D01*
X20459863Y-41243519D01*
X20459863Y-40595927D01*
X20136067Y-40595927D01*
X19812271Y-40595927D01*
X19812271Y-39948335D01*
X19812271Y-39300743D01*
X19164679Y-39300743D01*
X18517086Y-39300743D01*
X18517086Y-39624539D01*
X18517086Y-39948335D01*
X17869494Y-39948335D01*
X17221902Y-39948335D01*
X17221902Y-40272131D01*
X17221902Y-40595927D01*
X18193290Y-40595927D01*
X19164679Y-40595927D01*
X19164679Y-40919723D01*
X19164679Y-41243519D01*
X18840883Y-41243519D01*
X18517086Y-41243519D01*
X18517086Y-41891111D01*
X18517086Y-42538703D01*
X18840883Y-42538703D01*
X19164679Y-42538703D01*
X19164679Y-41891111D01*
X19164679Y-41243519D01*
X19488475Y-41243519D01*
X19812271Y-41243519D01*
X19812271Y-41567315D01*
X19812271Y-41891111D01*
X20136067Y-41891111D01*
X20459863Y-41891111D01*
X20459863Y-42214907D01*
X20459863Y-42538703D01*
X20136067Y-42538703D01*
X19812271Y-42538703D01*
X19812271Y-42862499D01*
X19812271Y-43186295D01*
X19488475Y-43186295D01*
X19164679Y-43186295D01*
X19164679Y-44157683D01*
X19164679Y-45129071D01*
X18840883Y-45129071D01*
X18517086Y-45129071D01*
X18517086Y-44805275D01*
X18517086Y-44481479D01*
X17869494Y-44481479D01*
X17221902Y-44481479D01*
X17221902Y-44157683D01*
X17221902Y-43833887D01*
X16268503Y-43833887D01*
X15315103Y-43833887D01*
X15315103Y-44157683D01*
X15315103Y-44481479D01*
X14991307Y-44481479D01*
X14667511Y-44481479D01*
X14667511Y-44805275D01*
X14667511Y-45129071D01*
X14991307Y-45129071D01*
X15315103Y-45129071D01*
X15315103Y-44805275D01*
X15315103Y-44481479D01*
X15638900Y-44481479D01*
X15962696Y-44481479D01*
X15962696Y-44805275D01*
X15962696Y-45129071D01*
X16268503Y-45129071D01*
X16574310Y-45129071D01*
X16574310Y-45776664D01*
X16574310Y-46424256D01*
X17221902Y-46424256D01*
X17869494Y-46424256D01*
X17869494Y-47071848D01*
X17869494Y-47719440D01*
X18193290Y-47719440D01*
X18517086Y-47719440D01*
X18517086Y-46748052D01*
X18517086Y-45776664D01*
X19164679Y-45776664D01*
X19812271Y-45776664D01*
X19812271Y-46748052D01*
X19812271Y-47719440D01*
X19488475Y-47719440D01*
X19164679Y-47719440D01*
X19164679Y-48025247D01*
X19164679Y-48331054D01*
X18517086Y-48331054D01*
X17869494Y-48331054D01*
X17869494Y-48978647D01*
X17869494Y-49626239D01*
X18193290Y-49626239D01*
X18517086Y-49626239D01*
X19812271Y-49626239D01*
X19812271Y-49950035D01*
X19812271Y-50273831D01*
X20136067Y-50273831D01*
X20459863Y-50273831D01*
X20459863Y-49950035D01*
X20459863Y-49626239D01*
X20136067Y-49626239D01*
X19812271Y-49626239D01*
X18517086Y-49626239D01*
X18517086Y-49302443D01*
X18517086Y-48978647D01*
X19812271Y-48978647D01*
X21107455Y-48978647D01*
X21107455Y-49626239D01*
X21107455Y-49950035D01*
X21107455Y-50273831D01*
X20783659Y-50273831D01*
X20459863Y-50273831D01*
X20459863Y-50597627D01*
X20459863Y-50921423D01*
X19812271Y-50921423D01*
X19164679Y-50921423D01*
X19164679Y-50597627D01*
X19164679Y-50273831D01*
X18517086Y-50273831D01*
X17869494Y-50273831D01*
X17869494Y-49950035D01*
X17869494Y-49626239D01*
X17545698Y-49626239D01*
X17221902Y-49626239D01*
X17221902Y-49950035D01*
X17221902Y-50273831D01*
X16898106Y-50273831D01*
X16574310Y-50273831D01*
X16574310Y-49950035D01*
X16574310Y-49626239D01*
X16268503Y-49626239D01*
X15962696Y-49626239D01*
X15962696Y-50597627D01*
X15962696Y-51569015D01*
X16268503Y-51569015D01*
X16574310Y-51569015D01*
X16574310Y-51245219D01*
X16574310Y-50921423D01*
X16898106Y-50921423D01*
X17221902Y-50921423D01*
X17221902Y-50597627D01*
X17221902Y-50273831D01*
X17545698Y-50273831D01*
X17869494Y-50273831D01*
X17869494Y-50921423D01*
X17869494Y-51569015D01*
X18193290Y-51569015D01*
X18517086Y-51569015D01*
X18517086Y-51245219D01*
X18517086Y-50921423D01*
X18840883Y-50921423D01*
X19164679Y-50921423D01*
X19164679Y-51245219D01*
X19164679Y-51569015D01*
X18840883Y-51569015D01*
X18517086Y-51569015D01*
X18517086Y-51892811D01*
X18517086Y-52216607D01*
X17239891Y-52216607D01*
X15962696Y-52216607D01*
X15962696Y-51892811D01*
X15962696Y-51569015D01*
X15638900Y-51569015D01*
X15315103Y-51569015D01*
X15315103Y-50921423D01*
X15315103Y-50273831D01*
X14667511Y-50273831D01*
X14019919Y-50273831D01*
X14019919Y-49950035D01*
X14019919Y-49626239D01*
X13372327Y-49626239D01*
X12724735Y-49626239D01*
X12724735Y-50273831D01*
X12724735Y-50921423D01*
X13048531Y-50921423D01*
X13372327Y-50921423D01*
X13372327Y-50597627D01*
X13372327Y-50273831D01*
X13696123Y-50273831D01*
X14019919Y-50273831D01*
X14019919Y-50597627D01*
X14019919Y-50921423D01*
X13696123Y-50921423D01*
X13372327Y-50921423D01*
X13372327Y-51569015D01*
X13372327Y-52216607D01*
X13048531Y-52216607D01*
X12724735Y-52216607D01*
X12724735Y-51569015D01*
X12724735Y-50921423D01*
X12400939Y-50921423D01*
X12077143Y-50921423D01*
X12077143Y-49626239D01*
X12077143Y-49302443D01*
X14019919Y-49302443D01*
X14019919Y-49626239D01*
X14343715Y-49626239D01*
X14667511Y-49626239D01*
X14667511Y-49302443D01*
X14667511Y-48978647D01*
X14343715Y-48978647D01*
X14019919Y-48978647D01*
X14019919Y-49302443D01*
X12077143Y-49302443D01*
X12077143Y-48331054D01*
X12400939Y-48331054D01*
X12724735Y-48331054D01*
X12724735Y-48654850D01*
X12724735Y-48978647D01*
X13372327Y-48978647D01*
X14019919Y-48978647D01*
X14019919Y-48349043D01*
X14019919Y-47719440D01*
X13696123Y-47719440D01*
X13372327Y-47719440D01*
X13372327Y-48025247D01*
X13372327Y-48331054D01*
X13048531Y-48331054D01*
X12724735Y-48331054D01*
X12724735Y-48025247D01*
X12724735Y-47719440D01*
X12400939Y-47719440D01*
X12077143Y-47719440D01*
X12077143Y-47395644D01*
X12077143Y-47071848D01*
X12724735Y-47071848D01*
X13372327Y-47071848D01*
X15315103Y-47071848D01*
X15315103Y-48025247D01*
X15315103Y-48978647D01*
X16268503Y-48978647D01*
X17221902Y-48978647D01*
X17221902Y-48025247D01*
X17221902Y-47071848D01*
X16268503Y-47071848D01*
X15315103Y-47071848D01*
X13372327Y-47071848D01*
X13372327Y-46100460D01*
X13372327Y-45129071D01*
X14019919Y-45129071D01*
X14019919Y-45776664D01*
X14019919Y-46424256D01*
X14343715Y-46424256D01*
X14667511Y-46424256D01*
X14667511Y-45776664D01*
X14667511Y-45129071D01*
X14343715Y-45129071D01*
X14019919Y-45129071D01*
X13372327Y-45129071D01*
X13048531Y-45129071D01*
X12724735Y-45129071D01*
X12724735Y-44157683D01*
X12724735Y-43186295D01*
X12400939Y-43186295D01*
X12077143Y-43186295D01*
X12077143Y-42538703D01*
X12077143Y-41891111D01*
X12724735Y-41891111D01*
X13372327Y-41891111D01*
X13372327Y-41567315D01*
X13372327Y-41243519D01*
X14019919Y-41243519D01*
X14667511Y-41243519D01*
X14667511Y-41567315D01*
X14667511Y-41891111D01*
X14343715Y-41891111D01*
X14019919Y-41891111D01*
X14019919Y-42538703D01*
X14019919Y-43186295D01*
X13696123Y-43186295D01*
X13372327Y-43186295D01*
X13372327Y-43833887D01*
X13372327Y-44481479D01*
X13696123Y-44481479D01*
X14019919Y-44481479D01*
X14019919Y-44157683D01*
X14019919Y-43833887D01*
X14343715Y-43833887D01*
X14667511Y-43833887D01*
X14667511Y-43510091D01*
X14667511Y-43186295D01*
X15315103Y-43186295D01*
X15962696Y-43186295D01*
X15962696Y-42538703D01*
X15962696Y-41891111D01*
X16268503Y-41891111D01*
X16574310Y-41891111D01*
X16574310Y-42538703D01*
X16574310Y-43186295D01*
X16898106Y-43186295D01*
X17221902Y-43186295D01*
X17221902Y-42862499D01*
X17221902Y-42538703D01*
X17545698Y-42538703D01*
X17869494Y-42538703D01*
X17869494Y-41891111D01*
X17869494Y-41243519D01*
X16916095Y-41243519D01*
X15962696Y-41243519D01*
X15962696Y-40919723D01*
X15962696Y-40595927D01*
X15638900Y-40595927D01*
X15315103Y-40595927D01*
X15315103Y-40272131D01*
X15315103Y-39948335D01*
X15962696Y-39948335D01*
X15962696Y-40272131D01*
X15962696Y-40595927D01*
X16268503Y-40595927D01*
X16574310Y-40595927D01*
X16574310Y-40272131D01*
X16574310Y-39948335D01*
X16268503Y-39948335D01*
X15962696Y-39948335D01*
X15315103Y-39948335D01*
X14991307Y-39948335D01*
X14667511Y-39948335D01*
X14667511Y-39624539D01*
X14667511Y-39300743D01*
X14343715Y-39300743D01*
X14019919Y-39300743D01*
X14019919Y-38976947D01*
X14019919Y-38653151D01*
X14343715Y-38653151D01*
X14667511Y-38653151D01*
X14667511Y-38976947D01*
X14667511Y-39300743D01*
X15315103Y-39300743D01*
X15962696Y-39300743D01*
X15962696Y-38976947D01*
X15962696Y-38653151D01*
X16268503Y-38653151D01*
X16574310Y-38653151D01*
X16574310Y-39300743D01*
X16574310Y-39948335D01*
X16898106Y-39948335D01*
X17221902Y-39948335D01*
X17221902Y-39624539D01*
X17221902Y-39300743D01*
X17545698Y-39300743D01*
X17869494Y-39300743D01*
X17869494Y-38976947D01*
X17869494Y-38653151D01*
X17545698Y-38653151D01*
X17221902Y-38653151D01*
X17221902Y-37699751D01*
X17221902Y-36746352D01*
X17545698Y-36746352D01*
X17869494Y-36746352D01*
X17869494Y-36422556D01*
X17869494Y-36098760D01*
X18193290Y-36098760D01*
X18517086Y-36098760D01*
X18517086Y-36746352D01*
X18517086Y-37393944D01*
X18193290Y-37393944D01*
X17869494Y-37393944D01*
X17869494Y-38023547D01*
X17869494Y-38653151D01*
X18193290Y-38653151D01*
X18517086Y-38653151D01*
X18517086Y-38023547D01*
X18517086Y-37393944D01*
X18840883Y-37393944D01*
X19164679Y-37393944D01*
X19164679Y-37699751D01*
X19164679Y-38005559D01*
X19488475Y-38005559D01*
X19812271Y-38005559D01*
X19812271Y-37699751D01*
X19812271Y-37393944D01*
X20136067Y-37393944D01*
X20459863Y-37393944D01*
X20459863Y-37699751D01*
X20459863Y-38005559D01*
X20136067Y-38005559D01*
X19812271Y-38005559D01*
X19812271Y-38023547D01*
X19812271Y-38329355D01*
X19812271Y-38653151D01*
X20136067Y-38653151D01*
X20459863Y-38653151D01*
X20459863Y-39624539D01*
X20459863Y-40595927D01*
X20783659Y-40595927D01*
X21107455Y-40595927D01*
X21107455Y-40272131D01*
X21107455Y-39948335D01*
X21431251Y-39948335D01*
X21755047Y-39948335D01*
X21755047Y-40272131D01*
X21755047Y-40595927D01*
X22078843Y-40595927D01*
X22402639Y-40595927D01*
X22402639Y-40919723D01*
X22402639Y-41243519D01*
X23050231Y-41243519D01*
X23697823Y-41243519D01*
X23697823Y-40595927D01*
X23697823Y-39948335D01*
X23050231Y-39948335D01*
X22402639Y-39948335D01*
X22402639Y-39624539D01*
X22402639Y-39300743D01*
X22726435Y-39300743D01*
X23050231Y-39300743D01*
X23697823Y-39300743D01*
X23697823Y-39624539D01*
X23697823Y-39948335D01*
X24021619Y-39948335D01*
X24345415Y-39948335D01*
X24345415Y-39624539D01*
X24345415Y-39300743D01*
X24021619Y-39300743D01*
X23697823Y-39300743D01*
X23050231Y-39300743D01*
X23050231Y-38976947D01*
X23050231Y-38653151D01*
X22726435Y-38653151D01*
X22402639Y-38653151D01*
X22402639Y-38023547D01*
X22402639Y-37393944D01*
X22078843Y-37393944D01*
X21755047Y-37393944D01*
X21755047Y-37070148D01*
X21755047Y-36746352D01*
X22402639Y-36746352D01*
X23050231Y-36746352D01*
X23050231Y-37375955D01*
X23050231Y-38005559D01*
X23374027Y-38005559D01*
X23697823Y-38005559D01*
X23697823Y-37375955D01*
X23697823Y-36746352D01*
X23374027Y-36746352D01*
X23050231Y-36746352D01*
X23050231Y-36422556D01*
X23050231Y-36098760D01*
X23374027Y-36098760D01*
X23697823Y-36098760D01*
X23697823Y-35451168D01*
X23697823Y-34803576D01*
X23050231Y-34803576D01*
X22402639Y-34803576D01*
X22402639Y-34479780D01*
X22402639Y-34155984D01*
X22726435Y-34155984D01*
X23050231Y-34155984D01*
X23050231Y-33832188D01*
X23050231Y-33508392D01*
X23374027Y-33508392D01*
X23697823Y-33508392D01*
X23697823Y-34155984D01*
X23697823Y-34803576D01*
X24021619Y-34803576D01*
X24345415Y-34803576D01*
X24345415Y-34479780D01*
X24345415Y-34155984D01*
X24669211Y-34155984D01*
X24993007Y-34155984D01*
X24993007Y-33832188D01*
X24993007Y-33508392D01*
X25316803Y-33508392D01*
X25640599Y-33508392D01*
X25640599Y-34155984D01*
X25640599Y-34803576D01*
X24993007Y-34803576D01*
X24345415Y-34803576D01*
X24345415Y-36404567D01*
X24345415Y-38005559D01*
X24021619Y-38005559D01*
X23697823Y-38005559D01*
X23697823Y-38329355D01*
X23697823Y-38653151D01*
X24345415Y-38653151D01*
X24993007Y-38653151D01*
X24993007Y-38023547D01*
X24993007Y-37393944D01*
X25316803Y-37393944D01*
X25640599Y-37393944D01*
X25640599Y-38023547D01*
X25640599Y-38653151D01*
X25316803Y-38653151D01*
X24993007Y-38653151D01*
X24993007Y-39624539D01*
X24993007Y-40595927D01*
G37*
G36*
X21431251Y-50921423D02*
G01*
X22402639Y-50921423D01*
X22402639Y-51245219D01*
X22402639Y-51569015D01*
X22078843Y-51569015D01*
X21755047Y-51569015D01*
X21755047Y-51892811D01*
X21755047Y-52216607D01*
X21431251Y-52216607D01*
X21107455Y-52216607D01*
X21107455Y-51892811D01*
X21107455Y-51569015D01*
X20783659Y-51569015D01*
X20459863Y-51569015D01*
X20459863Y-51245219D01*
X20459863Y-50921423D01*
X21431251Y-50921423D01*
G37*
G36*
X25640599Y-48025247D02*
G01*
X25640599Y-48978647D01*
X25316803Y-48978647D01*
X24993007Y-48978647D01*
X24993007Y-49302443D01*
X24993007Y-49626239D01*
X25316803Y-49626239D01*
X25640599Y-49626239D01*
X25640599Y-50273831D01*
X25640599Y-50921423D01*
X25316803Y-50921423D01*
X24993007Y-50921423D01*
X24993007Y-50597627D01*
X24993007Y-50273831D01*
X24669211Y-50273831D01*
X24345415Y-50273831D01*
X24345415Y-50921423D01*
X24345415Y-51569015D01*
X24021619Y-51569015D01*
X23697823Y-51569015D01*
X23697823Y-51892811D01*
X23697823Y-52216607D01*
X23374027Y-52216607D01*
X23050231Y-52216607D01*
X23050231Y-51569015D01*
X23050231Y-50921423D01*
X23374027Y-50921423D01*
X23697823Y-50921423D01*
X23697823Y-50597627D01*
X23697823Y-50273831D01*
X23374027Y-50273831D01*
X23050231Y-50273831D01*
X23050231Y-49302443D01*
X23050231Y-48331054D01*
X23374027Y-48331054D01*
X23697823Y-48331054D01*
X23697823Y-49302443D01*
X23697823Y-50273831D01*
X24021619Y-50273831D01*
X24345415Y-50273831D01*
X24345415Y-49302443D01*
X24345415Y-48331054D01*
X24669211Y-48331054D01*
X24993007Y-48331054D01*
X24993007Y-47701451D01*
X24993007Y-47071848D01*
X25316803Y-47071848D01*
X25640599Y-47071848D01*
X25640599Y-48025247D01*
G37*
G36*
X14343715Y-50921423D02*
G01*
X14667511Y-50921423D01*
X14667511Y-51245219D01*
X14667511Y-51569015D01*
X14343715Y-51569015D01*
X14019919Y-51569015D01*
X14019919Y-51245219D01*
X14019919Y-50921423D01*
X14343715Y-50921423D01*
G37*
G36*
X30137766Y-39948335D02*
G01*
X30137766Y-40595927D01*
X29813970Y-40595927D01*
X29490174Y-40595927D01*
X29490174Y-40919723D01*
X29490174Y-41243519D01*
X29166378Y-41243519D01*
X28842582Y-41243519D01*
X28842582Y-40919723D01*
X28842582Y-40595927D01*
X28518786Y-40595927D01*
X28194990Y-40595927D01*
X28194990Y-41243519D01*
X28194990Y-41891111D01*
X28842582Y-41891111D01*
X29490174Y-41891111D01*
X29490174Y-42214907D01*
X29490174Y-42538703D01*
X30137766Y-42538703D01*
X30785358Y-42538703D01*
X30785358Y-42862499D01*
X30785358Y-43186295D01*
X30461562Y-43186295D01*
X30137766Y-43186295D01*
X30137766Y-43510091D01*
X30137766Y-43833887D01*
X30461562Y-43833887D01*
X30785358Y-43833887D01*
X30785358Y-44157683D01*
X30785358Y-44481479D01*
X30461562Y-44481479D01*
X30137766Y-44481479D01*
X30137766Y-44805275D01*
X30137766Y-45129071D01*
X29813970Y-45129071D01*
X29490174Y-45129071D01*
X29490174Y-45776664D01*
X29490174Y-46424256D01*
X29166378Y-46424256D01*
X28842582Y-46424256D01*
X28842582Y-46100460D01*
X28842582Y-45776664D01*
X28194990Y-45776664D01*
X27547398Y-45776664D01*
X27547398Y-45452867D01*
X27547398Y-45129071D01*
X27871194Y-45129071D01*
X28194990Y-45129071D01*
X28194990Y-44805275D01*
X28194990Y-44481479D01*
X27871194Y-44481479D01*
X27547398Y-44481479D01*
X27547398Y-44805275D01*
X27547398Y-45129071D01*
X27223602Y-45129071D01*
X26899806Y-45129071D01*
X26899806Y-45452867D01*
X26899806Y-45776664D01*
X26270203Y-45776664D01*
X25640599Y-45776664D01*
X25640599Y-46100460D01*
X25640599Y-46424256D01*
X25316803Y-46424256D01*
X24993007Y-46424256D01*
X24993007Y-46100460D01*
X24993007Y-45776664D01*
X24669211Y-45776664D01*
X24345415Y-45776664D01*
X24345415Y-46100460D01*
X24345415Y-46424256D01*
X23697823Y-46424256D01*
X23050231Y-46424256D01*
X23050231Y-46748052D01*
X23050231Y-47071848D01*
X23374027Y-47071848D01*
X23697823Y-47071848D01*
X23697823Y-47395644D01*
X23697823Y-47719440D01*
X23374027Y-47719440D01*
X23050231Y-47719440D01*
X23050231Y-48025247D01*
X23050231Y-48331054D01*
X22726435Y-48331054D01*
X22402639Y-48331054D01*
X22402639Y-48654850D01*
X22402639Y-48978647D01*
X21755047Y-48978647D01*
X21107455Y-48978647D01*
X21107455Y-48349043D01*
X21107455Y-47719440D01*
X21431251Y-47719440D01*
X21755047Y-47719440D01*
X21755047Y-48025247D01*
X21755047Y-48331054D01*
X22078843Y-48331054D01*
X22402639Y-48331054D01*
X22402639Y-47701451D01*
X22402639Y-47071848D01*
X21431251Y-47071848D01*
X20459863Y-47071848D01*
X20459863Y-46748052D01*
X20459863Y-46424256D01*
X20783659Y-46424256D01*
X21107455Y-46424256D01*
X21107455Y-46100460D01*
X21107455Y-45776664D01*
X20783659Y-45776664D01*
X20459863Y-45776664D01*
X20459863Y-45452867D01*
X20459863Y-45129071D01*
X20136067Y-45129071D01*
X19812271Y-45129071D01*
X19812271Y-44805275D01*
X19812271Y-44481479D01*
X20136067Y-44481479D01*
X20459863Y-44481479D01*
X20459863Y-44157683D01*
X20459863Y-43833887D01*
X21107455Y-43833887D01*
X21755047Y-43833887D01*
X21755047Y-44157683D01*
X21755047Y-44481479D01*
X21431251Y-44481479D01*
X21107455Y-44481479D01*
X21107455Y-44805275D01*
X21107455Y-45129071D01*
X21755047Y-45129071D01*
X22402639Y-45129071D01*
X22402639Y-45776664D01*
X22402639Y-46424256D01*
X22726435Y-46424256D01*
X23050231Y-46424256D01*
X23050231Y-45776664D01*
X23050231Y-45129071D01*
X23374027Y-45129071D01*
X23697823Y-45129071D01*
X23697823Y-44805275D01*
X23697823Y-44481479D01*
X24345415Y-44481479D01*
X24993007Y-44481479D01*
X24993007Y-44805275D01*
X24993007Y-45129071D01*
X25316803Y-45129071D01*
X25640599Y-45129071D01*
X25640599Y-44481479D01*
X25640599Y-43833887D01*
X25316803Y-43833887D01*
X24993007Y-43833887D01*
X24993007Y-43510091D01*
X24993007Y-43186295D01*
X25640599Y-43186295D01*
X26288191Y-43186295D01*
X26288191Y-43510091D01*
X26288191Y-43833887D01*
X26593999Y-43833887D01*
X26899806Y-43833887D01*
X26899806Y-44157683D01*
X26899806Y-44481479D01*
X26593999Y-44481479D01*
X26288191Y-44481479D01*
X26288191Y-44805275D01*
X26288191Y-45129071D01*
X26593999Y-45129071D01*
X26899806Y-45129071D01*
X26899806Y-44805275D01*
X26899806Y-44481479D01*
X27223602Y-44481479D01*
X27547398Y-44481479D01*
X27547398Y-43833887D01*
X27547398Y-43186295D01*
X28194990Y-43186295D01*
X28842582Y-43186295D01*
X28842582Y-42862499D01*
X28842582Y-42538703D01*
X28194990Y-42538703D01*
X27547398Y-42538703D01*
X27547398Y-42214907D01*
X27547398Y-41891111D01*
X26917795Y-41891111D01*
X26288191Y-41891111D01*
X26288191Y-41567315D01*
X26288191Y-41243519D01*
X26917795Y-41243519D01*
X27547398Y-41243519D01*
X27547398Y-40595927D01*
X27547398Y-39948335D01*
X27223602Y-39948335D01*
X26899806Y-39948335D01*
X26899806Y-39624539D01*
X26899806Y-39300743D01*
X26270203Y-39300743D01*
X25640599Y-39300743D01*
X25640599Y-38976947D01*
X25640599Y-38653151D01*
X26593999Y-38653151D01*
X27547398Y-38653151D01*
X27547398Y-38976947D01*
X27547398Y-39300743D01*
X27871194Y-39300743D01*
X28194990Y-39300743D01*
X28842582Y-39300743D01*
X28842582Y-39624539D01*
X28842582Y-39948335D01*
X29166378Y-39948335D01*
X29490174Y-39948335D01*
X29490174Y-39624539D01*
X29490174Y-39300743D01*
X29166378Y-39300743D01*
X28842582Y-39300743D01*
X28194990Y-39300743D01*
X28194990Y-38976947D01*
X28194990Y-38653151D01*
X28842582Y-38653151D01*
X29490174Y-38653151D01*
X29490174Y-38976947D01*
X29490174Y-39300743D01*
X29813970Y-39300743D01*
X30137766Y-39300743D01*
X30137766Y-38976947D01*
X30137766Y-38653151D01*
X30461562Y-38653151D01*
X30785358Y-38653151D01*
X30785358Y-38976947D01*
X30785358Y-39300743D01*
X30461562Y-39300743D01*
X30137766Y-39300743D01*
X30137766Y-39624539D01*
X30137766Y-39948335D01*
G37*
G36*
X24021619Y-47719440D02*
G01*
X24345415Y-47719440D01*
X24345415Y-48025247D01*
X24345415Y-48331054D01*
X24021619Y-48331054D01*
X23697823Y-48331054D01*
X23697823Y-48025247D01*
X23697823Y-47719440D01*
X24021619Y-47719440D01*
G37*
G36*
X29813970Y-46424256D02*
G01*
X30137766Y-46424256D01*
X30137766Y-46748052D01*
X30137766Y-47071848D01*
X29813970Y-47071848D01*
X29490174Y-47071848D01*
X29490174Y-46748052D01*
X29490174Y-46424256D01*
X29813970Y-46424256D01*
G37*
G36*
X30461562Y-45129071D02*
G01*
X30785358Y-45129071D01*
X30785358Y-45452867D01*
X30785358Y-45776664D01*
X30461562Y-45776664D01*
X30137766Y-45776664D01*
X30137766Y-45452867D01*
X30137766Y-45129071D01*
X30461562Y-45129071D01*
G37*
G36*
X30461562Y-40595927D02*
G01*
X30785358Y-40595927D01*
X30785358Y-41243519D01*
X30785358Y-41891111D01*
X30461562Y-41891111D01*
X30137766Y-41891111D01*
X30137766Y-41243519D01*
X30137766Y-40595927D01*
X30461562Y-40595927D01*
G37*
G36*
X20459863Y-34155984D02*
G01*
X20459863Y-34803576D01*
X19812271Y-34803576D01*
X19164679Y-34803576D01*
X19164679Y-34479780D01*
X19164679Y-34155984D01*
X18517086Y-34155984D01*
X17869494Y-34155984D01*
X17869494Y-34479780D01*
X17869494Y-34803576D01*
X18193290Y-34803576D01*
X18517086Y-34803576D01*
X18517086Y-35127372D01*
X18517086Y-35451168D01*
X18193290Y-35451168D01*
X17869494Y-35451168D01*
X17869494Y-35774964D01*
X17869494Y-36098760D01*
X17545698Y-36098760D01*
X17221902Y-36098760D01*
X17221902Y-34803576D01*
X17221902Y-33508392D01*
X18840883Y-33508392D01*
X20459863Y-33508392D01*
X20459863Y-34155984D01*
G37*
G36*
X20459863Y-51892811D02*
G01*
X20459863Y-52216607D01*
X20136067Y-52216607D01*
X19812271Y-52216607D01*
X19812271Y-51892811D01*
X19812271Y-51569015D01*
X20136067Y-51569015D01*
X20459863Y-51569015D01*
X20459863Y-51892811D01*
G37*
G36*
X28842582Y-46748052D02*
G01*
X28842582Y-47071848D01*
X27565387Y-47071848D01*
X26288191Y-47071848D01*
X26288191Y-46748052D01*
X26288191Y-46424256D01*
X27565387Y-46424256D01*
X28842582Y-46424256D01*
X28842582Y-46748052D01*
G37*
G36*
X15315103Y-40919723D02*
G01*
X15315103Y-41243519D01*
X14991307Y-41243519D01*
X14667511Y-41243519D01*
X14667511Y-40919723D01*
X14667511Y-40595927D01*
X14991307Y-40595927D01*
X15315103Y-40595927D01*
X15315103Y-40919723D01*
G37*
G36*
X21755047Y-38347343D02*
G01*
X21755047Y-39300743D01*
X21431251Y-39300743D01*
X21107455Y-39300743D01*
X21107455Y-38347343D01*
X21107455Y-37393944D01*
X21431251Y-37393944D01*
X21755047Y-37393944D01*
X21755047Y-38347343D01*
G37*
G36*
X22402639Y-35451168D02*
G01*
X22402639Y-36098760D01*
X21755047Y-36098760D01*
X21107455Y-36098760D01*
X21107455Y-36422556D01*
X21107455Y-36746352D01*
X20459863Y-36746352D01*
X19812271Y-36746352D01*
X19812271Y-36422556D01*
X19812271Y-36098760D01*
X19488475Y-36098760D01*
X19164679Y-36098760D01*
X19164679Y-35774964D01*
X19164679Y-35451168D01*
X19488475Y-35451168D01*
X19812271Y-35451168D01*
X19812271Y-35774964D01*
X19812271Y-36098760D01*
X20459863Y-36098760D01*
X21107455Y-36098760D01*
X21107455Y-35451168D01*
X21107455Y-34803576D01*
X21755047Y-34803576D01*
X22402639Y-34803576D01*
X22402639Y-35451168D01*
G37*
G36*
X12724735Y-40919723D02*
G01*
X12724735Y-41243519D01*
X12400939Y-41243519D01*
X12077143Y-41243519D01*
X12077143Y-40919723D01*
X12077143Y-40595927D01*
X12400939Y-40595927D01*
X12724735Y-40595927D01*
X12724735Y-40919723D01*
G37*
G36*
X13372327Y-39948335D02*
G01*
X14019919Y-39948335D01*
X14019919Y-40272131D01*
X14019919Y-40595927D01*
X13372327Y-40595927D01*
X12724735Y-40595927D01*
X12724735Y-40272131D01*
X12724735Y-39948335D01*
X13372327Y-39948335D01*
G37*
G36*
X13372327Y-38976947D02*
G01*
X13372327Y-39300743D01*
X13048531Y-39300743D01*
X12724735Y-39300743D01*
X12724735Y-39624539D01*
X12724735Y-39948335D01*
X12400939Y-39948335D01*
X12077143Y-39948335D01*
X12077143Y-39300743D01*
X12077143Y-38653151D01*
X12724735Y-38653151D01*
X13372327Y-38653151D01*
X13372327Y-38976947D01*
G37*
G36*
X30785358Y-38005559D02*
G01*
X28536775Y-38005559D01*
X26288191Y-38005559D01*
X26288191Y-35756975D01*
X26288191Y-34155984D01*
X26899806Y-34155984D01*
X26899806Y-35774964D01*
X26899806Y-37393944D01*
X28518786Y-37393944D01*
X30137766Y-37393944D01*
X30137766Y-35774964D01*
X30137766Y-34155984D01*
X28518786Y-34155984D01*
X26899806Y-34155984D01*
X26288191Y-34155984D01*
X26288191Y-33508392D01*
X28536775Y-33508392D01*
X30785358Y-33508392D01*
X30785358Y-35756975D01*
X30785358Y-35774964D01*
X30785358Y-38005559D01*
G37*
G36*
X16574310Y-38005559D02*
G01*
X14325727Y-38005559D01*
X12077143Y-38005559D01*
X12077143Y-35756975D01*
X12077143Y-34155984D01*
X12724735Y-34155984D01*
X12724735Y-35774964D01*
X12724735Y-37393944D01*
X14343715Y-37393944D01*
X15962696Y-37393944D01*
X15962696Y-35774964D01*
X15962696Y-34155984D01*
X14343715Y-34155984D01*
X12724735Y-34155984D01*
X12077143Y-34155984D01*
X12077143Y-33508392D01*
X14325727Y-33508392D01*
X16574310Y-33508392D01*
X16574310Y-35756975D01*
X16574310Y-35774964D01*
X16574310Y-38005559D01*
G37*
G36*
X25640599Y-35774964D02*
G01*
X25640599Y-36098760D01*
X25316803Y-36098760D01*
X24993007Y-36098760D01*
X24993007Y-35774964D01*
X24993007Y-35451168D01*
X25316803Y-35451168D01*
X25640599Y-35451168D01*
X25640599Y-35774964D01*
G37*
G36*
X29490174Y-49950035D02*
G01*
X29490174Y-50921423D01*
X28518786Y-50921423D01*
X27547398Y-50921423D01*
X27547398Y-49950035D01*
X27547398Y-48978647D01*
X28518786Y-48978647D01*
X29490174Y-48978647D01*
X29490174Y-49950035D01*
G37*
G36*
X17869494Y-45452867D02*
G01*
X17869494Y-45776664D01*
X17545698Y-45776664D01*
X17221902Y-45776664D01*
X17221902Y-45452867D01*
X17221902Y-45129071D01*
X17545698Y-45129071D01*
X17869494Y-45129071D01*
X17869494Y-45452867D01*
G37*
G36*
X23050231Y-44805275D02*
G01*
X23050231Y-45129071D01*
X22726435Y-45129071D01*
X22402639Y-45129071D01*
X22402639Y-44805275D01*
X22402639Y-44481479D01*
X22726435Y-44481479D01*
X23050231Y-44481479D01*
X23050231Y-44805275D01*
G37*
G36*
X20459863Y-43510091D02*
G01*
X20459863Y-43833887D01*
X20136067Y-43833887D01*
X19812271Y-43833887D01*
X19812271Y-43510091D01*
X19812271Y-43186295D01*
X20136067Y-43186295D01*
X20459863Y-43186295D01*
X20459863Y-43510091D01*
G37*
G36*
X27547398Y-42862499D02*
G01*
X27547398Y-43186295D01*
X26917795Y-43186295D01*
X26288191Y-43186295D01*
X26288191Y-42862499D01*
X26288191Y-42538703D01*
X26917795Y-42538703D01*
X27547398Y-42538703D01*
X27547398Y-42862499D01*
G37*
G36*
X26899806Y-40272131D02*
G01*
X26899806Y-40595927D01*
X26593999Y-40595927D01*
X26288191Y-40595927D01*
X26288191Y-40272131D01*
X26288191Y-39948335D01*
X26593999Y-39948335D01*
X26899806Y-39948335D01*
X26899806Y-40272131D01*
G37*
G36*
X16574310Y-48025247D02*
G01*
X16574310Y-48331054D01*
X16268503Y-48331054D01*
X15962696Y-48331054D01*
X15962696Y-48025247D01*
X15962696Y-47719440D01*
X16268503Y-47719440D01*
X16574310Y-47719440D01*
X16574310Y-48025247D01*
G37*
G36*
X29490174Y-35774964D02*
G01*
X29490174Y-36746352D01*
X28518786Y-36746352D01*
X27547398Y-36746352D01*
X27547398Y-35774964D01*
X27547398Y-34803576D01*
X28518786Y-34803576D01*
X29490174Y-34803576D01*
X29490174Y-35774964D01*
G37*
G36*
X15315103Y-35774964D02*
G01*
X15315103Y-36746352D01*
X14343715Y-36746352D01*
X13372327Y-36746352D01*
X13372327Y-35774964D01*
X13372327Y-34803576D01*
X14343715Y-34803576D01*
X15315103Y-34803576D01*
X15315103Y-35774964D01*
G37*
G36*
X91544408Y-43815745D02*
G01*
X91814502Y-44286907D01*
X92114723Y-44814583D01*
X92388478Y-45300099D01*
X92631605Y-45735886D01*
X92839943Y-46114375D01*
X93009332Y-46427996D01*
X93135610Y-46669181D01*
X93214616Y-46830361D01*
X93242189Y-46903966D01*
X93228852Y-47007315D01*
X93178487Y-47110582D01*
X93172167Y-47113682D01*
X93080490Y-47125796D01*
X92890372Y-47136740D01*
X92611279Y-47146519D01*
X92252673Y-47155137D01*
X91824021Y-47162599D01*
X91334786Y-47168911D01*
X90794432Y-47174078D01*
X90212424Y-47178105D01*
X89598226Y-47180997D01*
X88961303Y-47182758D01*
X88311120Y-47183394D01*
X87657139Y-47182911D01*
X87008827Y-47181312D01*
X86375647Y-47178603D01*
X85767064Y-47174790D01*
X85192541Y-47169876D01*
X84661545Y-47163868D01*
X84183538Y-47156770D01*
X83767985Y-47148587D01*
X83424351Y-47139325D01*
X83162100Y-47128988D01*
X82990697Y-47117581D01*
X82919606Y-47105110D01*
X82861408Y-47036138D01*
X82840203Y-46873268D01*
X82849867Y-46821895D01*
X82898599Y-46730077D01*
X83004423Y-46638104D01*
X83189290Y-46524015D01*
X83787620Y-46173171D01*
X84718574Y-45584455D01*
X85564577Y-44988027D01*
X86340958Y-44370565D01*
X87063043Y-43718747D01*
X87746159Y-43019250D01*
X88405632Y-42258751D01*
X89056791Y-41423930D01*
X89176634Y-41263888D01*
X89317921Y-41082596D01*
X89421101Y-40966906D01*
X89501947Y-40902276D01*
X89576233Y-40874162D01*
X89659730Y-40868023D01*
X89849043Y-40868023D01*
X91544408Y-43815745D01*
G37*
G36*
X75822883Y-16528652D02*
G01*
X75836043Y-16546137D01*
X75901589Y-16650031D01*
X76017160Y-16841718D01*
X76179835Y-17116106D01*
X76386695Y-17468107D01*
X76634821Y-17892630D01*
X76921292Y-18384586D01*
X77243189Y-18938885D01*
X77597592Y-19550438D01*
X77981583Y-20214153D01*
X78392240Y-20924943D01*
X78826646Y-21677716D01*
X79281879Y-22467383D01*
X79755020Y-23288854D01*
X80243150Y-24137040D01*
X80743349Y-25006850D01*
X81252698Y-25893195D01*
X81768276Y-26790985D01*
X82287165Y-27695131D01*
X82806444Y-28600542D01*
X83323195Y-29502128D01*
X83834496Y-30394800D01*
X84337429Y-31273468D01*
X84829075Y-32133043D01*
X85306513Y-32968434D01*
X85766823Y-33774551D01*
X86207087Y-34546305D01*
X86624385Y-35278607D01*
X87015796Y-35966365D01*
X87378402Y-36604491D01*
X87709283Y-37187895D01*
X88005519Y-37711487D01*
X88264190Y-38170176D01*
X88482377Y-38558874D01*
X88657161Y-38872490D01*
X88785621Y-39105935D01*
X88864838Y-39254119D01*
X88891893Y-39311951D01*
X88891028Y-39324633D01*
X88847542Y-39450939D01*
X88744802Y-39647365D01*
X88591712Y-39900667D01*
X88397178Y-40197600D01*
X88170103Y-40524919D01*
X87919394Y-40869379D01*
X87653953Y-41217735D01*
X87382687Y-41556743D01*
X87150455Y-41827480D01*
X86785369Y-42223148D01*
X86378541Y-42637819D01*
X85956725Y-43045128D01*
X85546673Y-43418712D01*
X85175140Y-43732204D01*
X84222220Y-44438792D01*
X83109978Y-45136053D01*
X81950589Y-45735337D01*
X80748761Y-46234714D01*
X79509200Y-46632251D01*
X78236614Y-46926016D01*
X76935710Y-47114078D01*
X76821672Y-47125294D01*
X76394260Y-47158034D01*
X76029334Y-47170705D01*
X75738392Y-47163487D01*
X75532934Y-47136564D01*
X75424462Y-47090118D01*
X75417063Y-47077765D01*
X75408794Y-47048499D01*
X75401115Y-46999849D01*
X75394005Y-46928030D01*
X75387441Y-46829260D01*
X75381402Y-46699753D01*
X75375867Y-46535727D01*
X75370814Y-46333398D01*
X75366223Y-46088981D01*
X75362070Y-45798694D01*
X75358336Y-45458751D01*
X75354998Y-45065370D01*
X75352035Y-44614767D01*
X75349426Y-44103158D01*
X75347149Y-43526759D01*
X75345183Y-42881786D01*
X75343505Y-42164456D01*
X75342096Y-41370985D01*
X75340932Y-40497589D01*
X75339994Y-39540484D01*
X75339258Y-38495886D01*
X75338705Y-37360012D01*
X75338312Y-36129079D01*
X75338057Y-34799301D01*
X75337920Y-33366895D01*
X75337880Y-31828079D01*
X75337881Y-30889599D01*
X75337904Y-29425028D01*
X75337975Y-28064454D01*
X75338122Y-26804015D01*
X75338374Y-25639851D01*
X75338758Y-24568099D01*
X75339302Y-23584899D01*
X75340034Y-22686388D01*
X75340981Y-21868706D01*
X75342171Y-21127990D01*
X75343633Y-20460380D01*
X75345395Y-19862015D01*
X75347483Y-19329032D01*
X75349926Y-18857570D01*
X75352751Y-18443768D01*
X75355987Y-18083764D01*
X75359661Y-17773698D01*
X75363802Y-17509707D01*
X75368436Y-17287930D01*
X75373593Y-17104506D01*
X75379299Y-16955573D01*
X75385582Y-16837270D01*
X75392471Y-16745736D01*
X75399993Y-16677108D01*
X75408176Y-16627526D01*
X75417048Y-16593129D01*
X75426636Y-16570054D01*
X75436969Y-16554440D01*
X75448075Y-16542426D01*
X75551067Y-16461254D01*
X75680181Y-16443191D01*
X75822883Y-16528652D01*
G37*
G36*
X73862017Y-16474315D02*
G01*
X73890820Y-16485347D01*
X73919253Y-16502850D01*
X73949572Y-16522998D01*
X73957918Y-16531828D01*
X73966789Y-16552361D01*
X73975040Y-16587728D01*
X73982699Y-16641743D01*
X73989792Y-16718221D01*
X73996346Y-16820977D01*
X74002388Y-16953825D01*
X74007945Y-17120579D01*
X74013043Y-17325054D01*
X74017709Y-17571064D01*
X74021971Y-17862424D01*
X74025854Y-18202948D01*
X74029386Y-18596450D01*
X74032594Y-19046746D01*
X74035504Y-19557649D01*
X74038143Y-20132974D01*
X74040537Y-20776535D01*
X74042715Y-21492147D01*
X74044702Y-22283624D01*
X74046526Y-23154781D01*
X74048212Y-24109432D01*
X74049789Y-25151392D01*
X74051282Y-26284474D01*
X74052719Y-27512494D01*
X74054126Y-28839266D01*
X74055530Y-30268605D01*
X74056959Y-31804324D01*
X74057362Y-32248421D01*
X74058693Y-33752282D01*
X74059857Y-35150860D01*
X74060835Y-36447982D01*
X74061604Y-37647480D01*
X74062145Y-38753183D01*
X74062436Y-39768921D01*
X74062458Y-40698523D01*
X74062188Y-41545820D01*
X74061608Y-42314640D01*
X74060695Y-43008814D01*
X74059429Y-43632172D01*
X74057790Y-44188543D01*
X74055757Y-44681756D01*
X74053309Y-45115643D01*
X74050425Y-45494032D01*
X74047085Y-45820754D01*
X74043268Y-46099637D01*
X74038953Y-46334512D01*
X74034120Y-46529209D01*
X74028748Y-46687557D01*
X74022816Y-46813386D01*
X74016304Y-46910526D01*
X74009191Y-46982806D01*
X74001455Y-47034057D01*
X73993078Y-47068108D01*
X73984037Y-47088789D01*
X73974312Y-47099929D01*
X73960229Y-47110172D01*
X73799443Y-47171418D01*
X73651237Y-47134533D01*
X73626837Y-47112579D01*
X73529793Y-47016268D01*
X73365807Y-46849389D01*
X73140183Y-46617499D01*
X72858225Y-46326160D01*
X72525239Y-45980930D01*
X72146528Y-45587367D01*
X71727397Y-45151033D01*
X71273149Y-44677485D01*
X70789090Y-44172283D01*
X70280523Y-43640986D01*
X69752753Y-43089153D01*
X69211085Y-42522345D01*
X68660822Y-41946119D01*
X68107268Y-41366036D01*
X67555729Y-40787654D01*
X67011508Y-40216533D01*
X66479910Y-39658232D01*
X65966239Y-39118310D01*
X65475799Y-38602327D01*
X65013895Y-38115841D01*
X64585831Y-37664413D01*
X64196911Y-37253601D01*
X63852440Y-36888964D01*
X63557722Y-36576062D01*
X63318061Y-36320454D01*
X63138762Y-36127700D01*
X63025128Y-36003358D01*
X62982465Y-35952988D01*
X62981790Y-35951356D01*
X62981054Y-35926162D01*
X62992342Y-35881361D01*
X63017725Y-35813117D01*
X63059276Y-35717590D01*
X63119066Y-35590943D01*
X63199166Y-35429339D01*
X63301648Y-35228940D01*
X63428583Y-34985908D01*
X63582044Y-34696405D01*
X63764101Y-34356594D01*
X63976825Y-33962636D01*
X64222290Y-33510694D01*
X64502566Y-32996931D01*
X64819724Y-32417508D01*
X65175837Y-31768588D01*
X65572975Y-31046332D01*
X66013211Y-30246904D01*
X66498615Y-29366466D01*
X67031260Y-28401179D01*
X67613217Y-27347206D01*
X68246558Y-26200710D01*
X68570369Y-25614623D01*
X69177867Y-24515062D01*
X69735381Y-23506165D01*
X70245166Y-22584106D01*
X70709477Y-21745059D01*
X71130569Y-20985196D01*
X71510698Y-20300689D01*
X71852119Y-19687713D01*
X72157087Y-19142440D01*
X72427858Y-18661043D01*
X72666686Y-18239695D01*
X72875827Y-17874569D01*
X73057536Y-17561838D01*
X73214068Y-17297675D01*
X73347679Y-17078253D01*
X73460623Y-16899745D01*
X73555156Y-16758324D01*
X73633534Y-16650163D01*
X73698011Y-16571435D01*
X73750842Y-16518314D01*
X73794284Y-16486971D01*
X73830591Y-16473580D01*
X73862017Y-16474315D01*
G37*
G36*
X62406959Y-37275013D02*
G01*
X62440444Y-37305655D01*
X62545461Y-37410360D01*
X62715900Y-37583551D01*
X62945961Y-37819190D01*
X63229840Y-38111240D01*
X63561737Y-38453664D01*
X63935849Y-38840425D01*
X64346374Y-39265487D01*
X64787511Y-39722812D01*
X65253456Y-40206364D01*
X65738410Y-40710105D01*
X66236568Y-41227998D01*
X66742130Y-41754007D01*
X67249294Y-42282094D01*
X67752257Y-42806223D01*
X68245217Y-43320357D01*
X68722373Y-43818458D01*
X69177923Y-44294490D01*
X69606065Y-44742415D01*
X70000996Y-45156197D01*
X70356915Y-45529799D01*
X70668020Y-45857183D01*
X70928509Y-46132314D01*
X71132580Y-46349153D01*
X71274431Y-46501664D01*
X71372926Y-46616120D01*
X71502388Y-46819352D01*
X71534263Y-46982641D01*
X71470027Y-47110582D01*
X71460282Y-47115275D01*
X71402632Y-47124856D01*
X71291588Y-47133480D01*
X71122780Y-47141185D01*
X70891839Y-47148011D01*
X70594395Y-47153998D01*
X70226081Y-47159187D01*
X69782526Y-47163616D01*
X69259361Y-47167326D01*
X68652217Y-47170356D01*
X67956724Y-47172745D01*
X67168515Y-47174535D01*
X66283218Y-47175764D01*
X65296466Y-47176472D01*
X64203889Y-47176700D01*
X63779476Y-47176720D01*
X62769654Y-47176880D01*
X61862458Y-47177007D01*
X61052448Y-47176867D01*
X60334185Y-47176223D01*
X59702228Y-47174840D01*
X59151139Y-47172482D01*
X58675477Y-47168914D01*
X58269803Y-47163901D01*
X57928677Y-47157207D01*
X57646660Y-47148596D01*
X57418312Y-47137833D01*
X57238192Y-47124682D01*
X57100863Y-47108907D01*
X57000883Y-47090274D01*
X56932814Y-47068547D01*
X56891215Y-47043490D01*
X56870647Y-47014867D01*
X56865671Y-46982444D01*
X56870846Y-46945984D01*
X56880733Y-46905252D01*
X56889892Y-46860013D01*
X56895545Y-46843271D01*
X56945533Y-46737144D01*
X57043850Y-46544285D01*
X57186808Y-46271527D01*
X57370719Y-45925704D01*
X57591895Y-45513648D01*
X57846648Y-45042194D01*
X58131291Y-44518173D01*
X58442134Y-43948421D01*
X58775492Y-43339769D01*
X59127674Y-42699051D01*
X59494995Y-42033100D01*
X59941297Y-41226427D01*
X60370186Y-40453834D01*
X60749855Y-39772989D01*
X61081868Y-39181163D01*
X61367786Y-38675625D01*
X61609171Y-38253647D01*
X61807585Y-37912498D01*
X61964590Y-37649451D01*
X62081748Y-37461774D01*
X62160622Y-37346739D01*
X62202773Y-37301616D01*
X62298273Y-37272736D01*
X62406959Y-37275013D01*
G37*
G36*
X77668398Y-15888676D02*
G01*
X78029776Y-15939785D01*
X78822479Y-16097650D01*
X79983606Y-16408932D01*
X81121204Y-16807485D01*
X82212960Y-17285192D01*
X83236563Y-17833937D01*
X83390639Y-17926292D01*
X84501270Y-18662739D01*
X85534320Y-19475858D01*
X86487350Y-20361914D01*
X87357923Y-21317174D01*
X88143601Y-22337906D01*
X88841946Y-23420374D01*
X89450520Y-24560847D01*
X89966884Y-25755590D01*
X90388602Y-27000871D01*
X90713234Y-28292955D01*
X90938344Y-29628110D01*
X90956991Y-29799633D01*
X90983858Y-30187874D01*
X91000983Y-30646680D01*
X91008555Y-31150621D01*
X91006765Y-31674271D01*
X90995802Y-32192201D01*
X90975856Y-32678983D01*
X90947116Y-33109190D01*
X90909773Y-33457394D01*
X90858250Y-33797842D01*
X90768195Y-34303618D01*
X90662961Y-34814617D01*
X90546224Y-35318176D01*
X90421657Y-35801634D01*
X90292937Y-36252330D01*
X90163739Y-36657602D01*
X90037738Y-37004789D01*
X89918610Y-37281228D01*
X89810029Y-37474258D01*
X89715670Y-37571218D01*
X89615508Y-37602190D01*
X89482720Y-37594858D01*
X89448113Y-37551853D01*
X89358229Y-37413473D01*
X89214636Y-37180322D01*
X89017668Y-36852974D01*
X88767662Y-36432007D01*
X88464952Y-35917995D01*
X88109876Y-35311514D01*
X87702768Y-34613141D01*
X87243963Y-33823451D01*
X86733799Y-32943020D01*
X86172609Y-31972424D01*
X85560730Y-30912239D01*
X84898497Y-29763040D01*
X84186247Y-28525403D01*
X83424314Y-27199905D01*
X83399134Y-27156078D01*
X82829472Y-26164433D01*
X82273112Y-25195741D01*
X81732654Y-24254538D01*
X81210699Y-23345362D01*
X80709848Y-22472748D01*
X80232703Y-21641234D01*
X79781863Y-20855355D01*
X79359929Y-20119648D01*
X78969503Y-19438649D01*
X78613186Y-18816896D01*
X78293577Y-18258925D01*
X78013279Y-17769271D01*
X77774891Y-17352472D01*
X77581015Y-17013064D01*
X77434252Y-16755583D01*
X77337202Y-16584567D01*
X77292467Y-16504551D01*
X77213062Y-16345211D01*
X77143497Y-16143966D01*
X77148375Y-16002188D01*
X77233569Y-15915380D01*
X77404953Y-15879042D01*
X77668398Y-15888676D01*
G37*
D14*
%TO.C,LeftShoulder1*%
X125750000Y-20000000D02*
X125750000Y-18500000D01*
X127000000Y-16000000D02*
X131500000Y-16000000D01*
X131500000Y-22500000D02*
X127000000Y-22500000D01*
X132750000Y-18500000D02*
X132750000Y-20000000D01*
%TO.C,RightShoulder1*%
X17750000Y-20000000D02*
X17750000Y-18500000D01*
X19000000Y-16000000D02*
X23500000Y-16000000D01*
X23500000Y-22500000D02*
X19000000Y-22500000D01*
X24750000Y-18500000D02*
X24750000Y-20000000D01*
D15*
%TO.C,U1*%
X112934750Y-36195000D02*
X112934750Y-59055000D01*
X112934750Y-59055000D02*
X149002750Y-59055000D01*
X149002750Y-36195000D02*
X112934750Y-36195000D01*
X149002750Y-59055000D02*
X149002750Y-36195000D01*
D16*
X136275750Y-59655000D02*
G75*
G02*
X136075750Y-59655000I-100000J0D01*
G01*
X136075750Y-59655000D02*
G75*
G02*
X136275750Y-59655000I100000J0D01*
G01*
%TD*%
M02*
