%TF.GenerationSoftware,KiCad,Pcbnew,9.0.2*%
%TF.CreationDate,2025-06-30T23:43:09-04:00*%
%TF.ProjectId,GamePad_Zero,47616d65-5061-4645-9f5a-65726f2e6b69,rev?*%
%TF.SameCoordinates,Original*%
%TF.FileFunction,Copper,L2,Bot*%
%TF.FilePolarity,Positive*%
%FSLAX46Y46*%
G04 Gerber Fmt 4.6, Leading zero omitted, Abs format (unit mm)*
G04 Created by KiCad (PCBNEW 9.0.2) date 2025-06-30 23:43:09*
%MOMM*%
%LPD*%
G01*
G04 APERTURE LIST*
%TA.AperFunction,ComponentPad*%
%ADD10C,1.508000*%
%TD*%
%TA.AperFunction,ComponentPad*%
%ADD11R,1.508000X1.508000*%
%TD*%
%TA.AperFunction,ComponentPad*%
%ADD12C,2.000000*%
%TD*%
%TA.AperFunction,ComponentPad*%
%ADD13R,1.408000X1.408000*%
%TD*%
%TA.AperFunction,ComponentPad*%
%ADD14C,1.408000*%
%TD*%
%TA.AperFunction,ComponentPad*%
%ADD15C,3.516000*%
%TD*%
%TA.AperFunction,ViaPad*%
%ADD16C,0.600000*%
%TD*%
%TA.AperFunction,Conductor*%
%ADD17C,0.200000*%
%TD*%
G04 APERTURE END LIST*
D10*
%TO.P,J1,40,Pin_40*%
%TO.N,Net-(J1-Pin_40)*%
X99130000Y-3898750D03*
%TO.P,J1,39,Pin_39*%
%TO.N,unconnected-(J1-Pin_39-Pad39)*%
X99130000Y-6438750D03*
%TO.P,J1,38,Pin_38*%
%TO.N,Net-(J1-Pin_38)*%
X96590000Y-3898750D03*
%TO.P,J1,37,Pin_37*%
%TO.N,unconnected-(J1-Pin_37-Pad37)*%
X96590000Y-6438750D03*
%TO.P,J1,36,Pin_36*%
%TO.N,Net-(J1-Pin_36)*%
X94050000Y-3898750D03*
%TO.P,J1,35,Pin_35*%
%TO.N,Net-(J1-Pin_35)*%
X94050000Y-6438750D03*
%TO.P,J1,34,Pin_34*%
%TO.N,unconnected-(J1-Pin_34-Pad34)*%
X91510000Y-3898750D03*
%TO.P,J1,33,Pin_33*%
%TO.N,Net-(J1-Pin_33)*%
X91510000Y-6438750D03*
%TO.P,J1,32,Pin_32*%
%TO.N,Net-(J1-Pin_32)*%
X88970000Y-3898750D03*
%TO.P,J1,31,Pin_31*%
%TO.N,Net-(J1-Pin_31)*%
X88970000Y-6438750D03*
%TO.P,J1,30,Pin_30*%
%TO.N,unconnected-(J1-Pin_30-Pad30)*%
X86430000Y-3898750D03*
%TO.P,J1,29,Pin_29*%
%TO.N,Net-(J1-Pin_29)*%
X86430000Y-6438750D03*
%TO.P,J1,28,Pin_28*%
%TO.N,unconnected-(J1-Pin_28-Pad28)*%
X83890000Y-3898750D03*
%TO.P,J1,27,Pin_27*%
%TO.N,unconnected-(J1-Pin_27-Pad27)*%
X83890000Y-6438750D03*
%TO.P,J1,26,Pin_26*%
%TO.N,unconnected-(J1-Pin_26-Pad26)*%
X81350000Y-3898750D03*
%TO.P,J1,25,Pin_25*%
%TO.N,unconnected-(J1-Pin_25-Pad25)*%
X81350000Y-6438750D03*
%TO.P,J1,24,Pin_24*%
%TO.N,unconnected-(J1-Pin_24-Pad24)*%
X78810000Y-3898750D03*
%TO.P,J1,23,Pin_23*%
%TO.N,unconnected-(J1-Pin_23-Pad23)*%
X78810000Y-6438750D03*
%TO.P,J1,22,Pin_22*%
%TO.N,unconnected-(J1-Pin_22-Pad22)*%
X76270000Y-3898750D03*
%TO.P,J1,21,Pin_21*%
%TO.N,unconnected-(J1-Pin_21-Pad21)*%
X76270000Y-6438750D03*
%TO.P,J1,20,Pin_20*%
%TO.N,unconnected-(J1-Pin_20-Pad20)*%
X73730000Y-3898750D03*
%TO.P,J1,19,Pin_19*%
%TO.N,unconnected-(J1-Pin_19-Pad19)*%
X73730000Y-6438750D03*
%TO.P,J1,18,Pin_18*%
%TO.N,Net-(J1-Pin_18)*%
X71190000Y-3898750D03*
%TO.P,J1,17,Pin_17*%
%TO.N,unconnected-(J1-Pin_17-Pad17)*%
X71190000Y-6438750D03*
%TO.P,J1,16,Pin_16*%
%TO.N,unconnected-(J1-Pin_16-Pad16)*%
X68650000Y-3898750D03*
%TO.P,J1,15,Pin_15*%
%TO.N,unconnected-(J1-Pin_15-Pad15)*%
X68650000Y-6438750D03*
%TO.P,J1,14,Pin_14*%
%TO.N,unconnected-(J1-Pin_14-Pad14)*%
X66110000Y-3898750D03*
%TO.P,J1,13,Pin_13*%
%TO.N,unconnected-(J1-Pin_13-Pad13)*%
X66110000Y-6438750D03*
%TO.P,J1,12,Pin_12*%
%TO.N,Net-(J1-Pin_12)*%
X63570000Y-3898750D03*
%TO.P,J1,11,Pin_11*%
%TO.N,unconnected-(J1-Pin_11-Pad11)*%
X63570000Y-6438750D03*
%TO.P,J1,10,Pin_10*%
%TO.N,unconnected-(J1-Pin_10-Pad10)*%
X61030000Y-3898750D03*
%TO.P,J1,9,Pin_9*%
%TO.N,unconnected-(J1-Pin_9-Pad9)*%
X61030000Y-6438750D03*
%TO.P,J1,8,Pin_8*%
%TO.N,unconnected-(J1-Pin_8-Pad8)*%
X58490000Y-3898750D03*
%TO.P,J1,7,Pin_7*%
%TO.N,unconnected-(J1-Pin_7-Pad7)*%
X58490000Y-6438750D03*
%TO.P,J1,6,Pin_6*%
%TO.N,Net-(J1-Pin_6)*%
X55950000Y-3898750D03*
%TO.P,J1,5,Pin_5*%
%TO.N,unconnected-(J1-Pin_5-Pad5)*%
X55950000Y-6438750D03*
%TO.P,J1,4,Pin_4*%
%TO.N,unconnected-(J1-Pin_4-Pad4)*%
X53410000Y-3898750D03*
%TO.P,J1,3,Pin_3*%
%TO.N,unconnected-(J1-Pin_3-Pad3)*%
X53410000Y-6438750D03*
%TO.P,J1,2,Pin_2*%
%TO.N,Net-(J1-Pin_2)*%
X50870000Y-3898750D03*
D11*
%TO.P,J1,1,Pin_1*%
%TO.N,unconnected-(J1-Pin_1-Pad1)*%
X50870000Y-6438750D03*
%TD*%
D12*
%TO.P,y1,1,1*%
%TO.N,Net-(J1-Pin_35)*%
X116000000Y-17000000D03*
X122500000Y-17000000D03*
%TO.P,y1,2,2*%
%TO.N,GND*%
X116000000Y-21500000D03*
X122500000Y-21500000D03*
%TD*%
%TO.P,b1,1,1*%
%TO.N,Net-(J1-Pin_33)*%
X126000000Y-27000000D03*
X132500000Y-27000000D03*
%TO.P,b1,2,2*%
%TO.N,GND*%
X126000000Y-31500000D03*
X132500000Y-31500000D03*
%TD*%
%TO.P,x1,1,1*%
%TO.N,Net-(J1-Pin_36)*%
X126000000Y-7000000D03*
X132500000Y-7000000D03*
%TO.P,x1,2,2*%
%TO.N,GND*%
X126000000Y-11500000D03*
X132500000Y-11500000D03*
%TD*%
%TO.P,Right1,1,1*%
%TO.N,GND*%
X28000000Y-17000000D03*
X34500000Y-17000000D03*
%TO.P,Right1,2,2*%
%TO.N,Net-(J1-Pin_18)*%
X28000000Y-21500000D03*
X34500000Y-21500000D03*
%TD*%
%TO.P,a1,1,1*%
%TO.N,Net-(J1-Pin_32)*%
X136000000Y-17000000D03*
X142500000Y-17000000D03*
%TO.P,a1,2,2*%
%TO.N,GND*%
X136000000Y-21500000D03*
X142500000Y-21500000D03*
%TD*%
%TO.P,Down1,1,1*%
%TO.N,GND*%
X18000000Y-27000000D03*
X24500000Y-27000000D03*
%TO.P,Down1,2,2*%
%TO.N,Net-(J1-Pin_29)*%
X18000000Y-31500000D03*
X24500000Y-31500000D03*
%TD*%
D13*
%TO.P,SW1,1,A*%
%TO.N,Net-(SW1-A)*%
X18812500Y-55000000D03*
D14*
%TO.P,SW1,2,B*%
%TO.N,Net-(J1-Pin_6)*%
X21312500Y-55000000D03*
%TO.P,SW1,3,C*%
%TO.N,unconnected-(SW1-C-Pad3)*%
X23812500Y-55000000D03*
%TD*%
D12*
%TO.P,Left1,1,1*%
%TO.N,GND*%
X8000000Y-17000000D03*
X14500000Y-17000000D03*
%TO.P,Left1,2,2*%
%TO.N,Net-(J1-Pin_12)*%
X8000000Y-21500000D03*
X14500000Y-21500000D03*
%TD*%
%TO.P,Up1,1,1*%
%TO.N,GND*%
X18000000Y-7000000D03*
X24500000Y-7000000D03*
%TO.P,Up1,2,2*%
%TO.N,Net-(J1-Pin_31)*%
X18000000Y-11500000D03*
X24500000Y-11500000D03*
%TD*%
%TO.P,LeftShoulder1,1,1*%
%TO.N,GND*%
X132500000Y-17000000D03*
X126000000Y-17000000D03*
%TO.P,LeftShoulder1,2,2*%
%TO.N,Net-(J1-Pin_38)*%
X132500000Y-21500000D03*
X126000000Y-21500000D03*
%TD*%
%TO.P,RightShoulder1,1,1*%
%TO.N,Net-(J1-Pin_40)*%
X24500000Y-17000000D03*
X18000000Y-17000000D03*
%TO.P,RightShoulder1,2,2*%
%TO.N,GND*%
X24500000Y-21500000D03*
X18000000Y-21500000D03*
%TD*%
D11*
%TO.P,U1,1,VBUS*%
%TO.N,unconnected-(U1-VBUS-Pad1)*%
X136175750Y-57785000D03*
D10*
%TO.P,U1,2,VLIPO*%
%TO.N,unconnected-(U1-VLIPO-Pad2)*%
X133635750Y-57785000D03*
%TO.P,U1,3,VBAT*%
%TO.N,unconnected-(U1-VBAT-Pad3)*%
X131095750Y-57785000D03*
%TO.P,U1,4,EN*%
%TO.N,Net-(SW1-A)*%
X128555750Y-57785000D03*
%TO.P,U1,5,GND*%
%TO.N,Net-(J1-Pin_6)*%
X126015750Y-57785000D03*
%TO.P,U1,6,LBO*%
%TO.N,unconnected-(U1-LBO-Pad6)*%
X123475750Y-57785000D03*
%TO.P,U1,7,GND*%
%TO.N,Net-(J1-Pin_6)*%
X120935750Y-57785000D03*
%TO.P,U1,8,5V*%
%TO.N,Net-(J1-Pin_2)*%
X118395750Y-57785000D03*
D15*
%TO.P,U1,P1*%
%TO.N,N/C*%
X146462750Y-56515000D03*
%TO.P,U1,P2*%
X146462750Y-38735000D03*
%TD*%
D16*
%TO.N,Net-(J1-Pin_18)*%
X30381250Y-25618750D03*
%TD*%
D17*
%TO.N,GND*%
X14500000Y-17000000D02*
X8000000Y-17000000D01*
X136000000Y-20500000D02*
X136000000Y-21500000D01*
X14500000Y-18000000D02*
X14500000Y-17000000D01*
X18000000Y-21500000D02*
X18000000Y-27000000D01*
X18000000Y-27000000D02*
X24500000Y-27000000D01*
X132500000Y-17000000D02*
X136000000Y-20500000D01*
X28000000Y-10500000D02*
X24500000Y-7000000D01*
X122500000Y-21500000D02*
X116000000Y-21500000D01*
X132500000Y-31500000D02*
X136000000Y-28000000D01*
X18000000Y-21500000D02*
X14500000Y-18000000D01*
X122500000Y-21500000D02*
X126000000Y-18000000D01*
X132500000Y-31500000D02*
X126000000Y-31500000D01*
X28000000Y-17000000D02*
X34500000Y-17000000D01*
X132500000Y-17000000D02*
X126000000Y-17000000D01*
X126000000Y-18000000D02*
X126000000Y-17000000D01*
X18000000Y-7000000D02*
X24500000Y-7000000D01*
X136000000Y-28000000D02*
X136000000Y-21500000D01*
X28000000Y-18000000D02*
X28000000Y-17000000D01*
X24500000Y-21500000D02*
X28000000Y-18000000D01*
X28000000Y-17000000D02*
X28000000Y-10500000D01*
X132500000Y-11500000D02*
X132500000Y-17000000D01*
X126000000Y-11500000D02*
X126000000Y-17000000D01*
X142500000Y-21500000D02*
X136000000Y-21500000D01*
X24500000Y-27000000D02*
X24500000Y-21500000D01*
%TO.N,Net-(J1-Pin_32)*%
X90827000Y-2041750D02*
X88970000Y-3898750D01*
X142500000Y-17000000D02*
X136000000Y-17000000D01*
X136000000Y-8093008D02*
X129948742Y-2041750D01*
X129948742Y-2041750D02*
X90827000Y-2041750D01*
X136000000Y-17000000D02*
X136000000Y-8093008D01*
%TO.N,Net-(J1-Pin_33)*%
X126000000Y-27000000D02*
X112071250Y-27000000D01*
X132500000Y-27000000D02*
X126000000Y-27000000D01*
X112071250Y-27000000D02*
X91510000Y-6438750D01*
%TO.N,Net-(J1-Pin_29)*%
X61368750Y-31500000D02*
X86430000Y-6438750D01*
X24500000Y-31500000D02*
X61368750Y-31500000D01*
X18000000Y-31500000D02*
X24500000Y-31500000D01*
%TO.N,Net-(J1-Pin_18)*%
X34500000Y-21500000D02*
X30381250Y-25618750D01*
X6699000Y-22038892D02*
X6699000Y-15894008D01*
X21013758Y-1579250D02*
X68870500Y-1579250D01*
X30381250Y-25618750D02*
X27298000Y-28702000D01*
X13362108Y-28702000D02*
X6699000Y-22038892D01*
X27298000Y-28702000D02*
X13362108Y-28702000D01*
X6699000Y-15894008D02*
X21013758Y-1579250D01*
X68870500Y-1579250D02*
X71190000Y-3898750D01*
%TO.N,Net-(J1-Pin_35)*%
X133038892Y-8301000D02*
X133801000Y-7538892D01*
X92594000Y-3295654D02*
X92594000Y-4982750D01*
X129782642Y-2442750D02*
X93446904Y-2442750D01*
X133801000Y-7538892D02*
X133801000Y-6461108D01*
X133801000Y-6461108D02*
X129782642Y-2442750D01*
X124699000Y-8301000D02*
X133038892Y-8301000D01*
X93446904Y-2442750D02*
X92594000Y-3295654D01*
X116000000Y-17000000D02*
X124699000Y-8301000D01*
X92594000Y-4982750D02*
X94050000Y-6438750D01*
X116000000Y-17000000D02*
X122500000Y-17000000D01*
%TO.N,Net-(J1-Pin_40)*%
X18000000Y-17000000D02*
X24500000Y-17000000D01*
%TO.N,Net-(J1-Pin_36)*%
X95535000Y-5383750D02*
X94050000Y-3898750D01*
X101183246Y-7000000D02*
X99566996Y-5383750D01*
X126000000Y-7000000D02*
X132500000Y-7000000D01*
X126000000Y-7000000D02*
X101183246Y-7000000D01*
X99566996Y-5383750D02*
X95535000Y-5383750D01*
%TO.N,Net-(J1-Pin_38)*%
X92995000Y-3461754D02*
X93613004Y-2843750D01*
X132500000Y-21500000D02*
X126000000Y-21500000D01*
X92995000Y-4335746D02*
X92995000Y-3461754D01*
X126000000Y-21500000D02*
X124699000Y-22801000D01*
X95535000Y-6875746D02*
X95535000Y-6001754D01*
X95535000Y-6001754D02*
X94486996Y-4953750D01*
X124699000Y-22801000D02*
X111460254Y-22801000D01*
X111460254Y-22801000D02*
X95535000Y-6875746D01*
X95535000Y-2843750D02*
X96590000Y-3898750D01*
X93613004Y-4953750D02*
X92995000Y-4335746D01*
X94486996Y-4953750D02*
X93613004Y-4953750D01*
X93613004Y-2843750D02*
X95535000Y-2843750D01*
%TO.N,Net-(J1-Pin_12)*%
X17461108Y-28301000D02*
X25308683Y-28301000D01*
X14500000Y-25339892D02*
X17461108Y-28301000D01*
X47726000Y-5883683D02*
X47726000Y-5316583D01*
X47726000Y-5316583D02*
X50661333Y-2381250D01*
X62052500Y-2381250D02*
X63570000Y-3898750D01*
X50661333Y-2381250D02*
X62052500Y-2381250D01*
X14500000Y-21500000D02*
X14500000Y-25339892D01*
X25308683Y-28301000D02*
X47726000Y-5883683D01*
X8000000Y-21500000D02*
X14500000Y-21500000D01*
%TO.N,Net-(J1-Pin_31)*%
X65055000Y-4765746D02*
X65673004Y-5383750D01*
X65055000Y-3891754D02*
X65055000Y-4765746D01*
X18000000Y-11500000D02*
X24500000Y-11500000D01*
X16699000Y-10199000D02*
X16699000Y-6461108D01*
X65673004Y-5383750D02*
X87915000Y-5383750D01*
X87915000Y-5383750D02*
X88970000Y-6438750D01*
X18000000Y-11500000D02*
X16699000Y-10199000D01*
X16699000Y-6461108D02*
X21179858Y-1980250D01*
X63143496Y-1980250D02*
X65055000Y-3891754D01*
X21179858Y-1980250D02*
X63143496Y-1980250D01*
%TO.N,Net-(SW1-A)*%
X20542500Y-56730000D02*
X127500750Y-56730000D01*
X18812500Y-55000000D02*
X20542500Y-56730000D01*
X127500750Y-56730000D02*
X128555750Y-57785000D01*
%TD*%
M02*
