%TF.GenerationSoftware,KiCad,Pcbnew,9.0.2*%
%TF.CreationDate,2025-06-30T23:43:09-04:00*%
%TF.ProjectId,GamePad_Zero,47616d65-5061-4645-9f5a-65726f2e6b69,rev?*%
%TF.SameCoordinates,Original*%
%TF.FileFunction,Legend,Top*%
%TF.FilePolarity,Positive*%
%FSLAX46Y46*%
G04 Gerber Fmt 4.6, Leading zero omitted, Abs format (unit mm)*
G04 Created by KiCad (PCBNEW 9.0.2) date 2025-06-30 23:43:09*
%MOMM*%
%LPD*%
G01*
G04 APERTURE LIST*
%ADD10C,0.100000*%
%ADD11C,0.150000*%
%ADD12C,0.300000*%
%ADD13C,0.200000*%
%ADD14C,0.127000*%
%ADD15C,0.000000*%
%ADD16C,0.120000*%
G04 APERTURE END LIST*
D10*
X42224487Y-954605D02*
X107224487Y-954605D01*
X107224487Y-57954605D01*
X42224487Y-57954605D01*
X42224487Y-954605D01*
G36*
X117585037Y-47505066D02*
G01*
X117689821Y-47513539D01*
X117788938Y-47533276D01*
X117885709Y-47564958D01*
X117976388Y-47607372D01*
X118065863Y-47663275D01*
X118148488Y-47729619D01*
X118229763Y-47811736D01*
X118303100Y-47903942D01*
X118373374Y-48013637D01*
X118434389Y-48132575D01*
X118489329Y-48268338D01*
X118533701Y-48411557D01*
X118568705Y-48567074D01*
X118592221Y-48727154D01*
X118604300Y-48891433D01*
X118604682Y-49056662D01*
X118571731Y-49374791D01*
X118499130Y-49661309D01*
X118394818Y-49904700D01*
X118266096Y-50101233D01*
X118117970Y-50251901D01*
X117952561Y-50359234D01*
X117769262Y-50424772D01*
X117670127Y-50441652D01*
X117565437Y-50447414D01*
X116939687Y-50447414D01*
X116939687Y-50069509D01*
X117359540Y-50069509D01*
X117565437Y-50069509D01*
X117610519Y-50067578D01*
X117687351Y-50054766D01*
X117759073Y-50030611D01*
X117830775Y-49992692D01*
X117896524Y-49943433D01*
X117962691Y-49876485D01*
X118021493Y-49798052D01*
X118078479Y-49698500D01*
X118126280Y-49588172D01*
X118167909Y-49457903D01*
X118198642Y-49319500D01*
X118219018Y-49169906D01*
X118227675Y-49016882D01*
X118210678Y-48717430D01*
X118154128Y-48453016D01*
X118068557Y-48239900D01*
X117963277Y-48080641D01*
X117843711Y-47970843D01*
X117710716Y-47905376D01*
X117638335Y-47888609D01*
X117561224Y-47882864D01*
X117359540Y-47882864D01*
X117359540Y-50069509D01*
X116939687Y-50069509D01*
X116939687Y-47504776D01*
X117561224Y-47504776D01*
X117585037Y-47505066D01*
G37*
G36*
X120053416Y-47882864D02*
G01*
X120053416Y-47504776D01*
X118856504Y-47504776D01*
X118856504Y-50447414D01*
X120053416Y-50447414D01*
X120053416Y-50069509D01*
X119276358Y-50069509D01*
X119276358Y-49406939D01*
X119822424Y-49406939D01*
X119822424Y-49028851D01*
X119276358Y-49028851D01*
X119276358Y-47882864D01*
X120053416Y-47882864D01*
G37*
G36*
X121586285Y-49634451D02*
G01*
X121564436Y-49405101D01*
X121500553Y-49189452D01*
X121393967Y-48979128D01*
X121238486Y-48761385D01*
X121100340Y-48598065D01*
X120999194Y-48479425D01*
X120915958Y-48368396D01*
X120859508Y-48262186D01*
X120838718Y-48158003D01*
X120844409Y-48094322D01*
X120860800Y-48037459D01*
X120921918Y-47944988D01*
X121017638Y-47881821D01*
X121144051Y-47854088D01*
X121216502Y-47856370D01*
X121291642Y-47870598D01*
X121338439Y-47885428D01*
X121338439Y-47507523D01*
X121237507Y-47488244D01*
X121137813Y-47480824D01*
X121039787Y-47485074D01*
X120945252Y-47500822D01*
X120856282Y-47527449D01*
X120772910Y-47564808D01*
X120698203Y-47611209D01*
X120630819Y-47667290D01*
X120573645Y-47730400D01*
X120525128Y-47802101D01*
X120487199Y-47879635D01*
X120459077Y-47964855D01*
X120441800Y-48055818D01*
X120435544Y-48153820D01*
X120435534Y-48158003D01*
X120457388Y-48330308D01*
X120521978Y-48494250D01*
X120635716Y-48666896D01*
X120797347Y-48856780D01*
X120939498Y-49021754D01*
X121064525Y-49199336D01*
X121114688Y-49296147D01*
X121153454Y-49400058D01*
X121178454Y-49512388D01*
X121187314Y-49634451D01*
X121181599Y-49726496D01*
X121165044Y-49806440D01*
X121139854Y-49872174D01*
X121106313Y-49927864D01*
X121017410Y-50011071D01*
X120896783Y-50062356D01*
X120738354Y-50080352D01*
X120537948Y-50057796D01*
X120347241Y-50003563D01*
X120347241Y-50402351D01*
X120475248Y-50438140D01*
X120599636Y-50460959D01*
X120718582Y-50471099D01*
X120832673Y-50469164D01*
X120939544Y-50455788D01*
X121040466Y-50431340D01*
X121132964Y-50396950D01*
X121218576Y-50352513D01*
X121295218Y-50299508D01*
X121364144Y-50237404D01*
X121423967Y-50167589D01*
X121475247Y-50089463D01*
X121517238Y-50003818D01*
X121549757Y-49910468D01*
X121572348Y-49809308D01*
X121584365Y-49700900D01*
X121586285Y-49634451D01*
G37*
G36*
X121962174Y-50447414D02*
G01*
X122382211Y-50447414D01*
X122382211Y-47507523D01*
X121962174Y-47507523D01*
X121962174Y-50447414D01*
G37*
G36*
X124498148Y-49087469D02*
G01*
X123813596Y-49087469D01*
X123813596Y-49406756D01*
X124120243Y-49406756D01*
X124120243Y-50038551D01*
X124050012Y-50066867D01*
X123974935Y-50083578D01*
X123897677Y-50088743D01*
X123808707Y-50082996D01*
X123725202Y-50066219D01*
X123572675Y-50001214D01*
X123437283Y-49894227D01*
X123319238Y-49742617D01*
X123222549Y-49543650D01*
X123154739Y-49298921D01*
X123125017Y-49019373D01*
X123124831Y-49011998D01*
X123127477Y-48869533D01*
X123141807Y-48728656D01*
X123167337Y-48593409D01*
X123204161Y-48463814D01*
X123249308Y-48348388D01*
X123304488Y-48241553D01*
X123364073Y-48152356D01*
X123432104Y-48073221D01*
X123501745Y-48010760D01*
X123578427Y-47958873D01*
X123656033Y-47921015D01*
X123739701Y-47894012D01*
X123897677Y-47875353D01*
X123988263Y-47881142D01*
X124073316Y-47898213D01*
X124151779Y-47925769D01*
X124224381Y-47963509D01*
X124284008Y-48005412D01*
X124515001Y-47686309D01*
X124422690Y-47626723D01*
X124323344Y-47577213D01*
X124221149Y-47539744D01*
X124112434Y-47512850D01*
X123897677Y-47493052D01*
X123779486Y-47498814D01*
X123667502Y-47515699D01*
X123460742Y-47581058D01*
X123275218Y-47687081D01*
X123110309Y-47833746D01*
X122967577Y-48021940D01*
X122851018Y-48251651D01*
X122766695Y-48519624D01*
X122721513Y-48817078D01*
X122717434Y-49066587D01*
X122729743Y-49222946D01*
X122753738Y-49376827D01*
X122788542Y-49523601D01*
X122834528Y-49665081D01*
X122888946Y-49794069D01*
X122953571Y-49915633D01*
X123023797Y-50022250D01*
X123103071Y-50120098D01*
X123185751Y-50203061D01*
X123276400Y-50276485D01*
X123369466Y-50336362D01*
X123469652Y-50386183D01*
X123572495Y-50423855D01*
X123681888Y-50450927D01*
X123897677Y-50470861D01*
X124097584Y-50448308D01*
X124299767Y-50379691D01*
X124490750Y-50266480D01*
X124498148Y-50260934D01*
X124498148Y-49087469D01*
G37*
G36*
X125803504Y-47507523D02*
G01*
X125803504Y-49040575D01*
X124925695Y-47507523D01*
X124850224Y-47507523D01*
X124850224Y-50447414D01*
X125270077Y-50447414D01*
X125270077Y-48914545D01*
X126147886Y-50447414D01*
X126223540Y-50447414D01*
X126223540Y-47507523D01*
X125803504Y-47507523D01*
G37*
G36*
X127755859Y-47882864D02*
G01*
X127755859Y-47504776D01*
X126558947Y-47504776D01*
X126558947Y-50447414D01*
X127755859Y-50447414D01*
X127755859Y-50069509D01*
X126978800Y-50069509D01*
X126978800Y-49406939D01*
X127524866Y-49406939D01*
X127524866Y-49028851D01*
X126978800Y-49028851D01*
X126978800Y-47882864D01*
X127755859Y-47882864D01*
G37*
G36*
X128737165Y-47505066D02*
G01*
X128841949Y-47513539D01*
X128941067Y-47533276D01*
X129037838Y-47564958D01*
X129128516Y-47607372D01*
X129217991Y-47663275D01*
X129300616Y-47729619D01*
X129381892Y-47811736D01*
X129455229Y-47903942D01*
X129525503Y-48013637D01*
X129586517Y-48132575D01*
X129641457Y-48268338D01*
X129685829Y-48411557D01*
X129720834Y-48567074D01*
X129744349Y-48727154D01*
X129756428Y-48891433D01*
X129756810Y-49056662D01*
X129723860Y-49374791D01*
X129651258Y-49661309D01*
X129546946Y-49904700D01*
X129418224Y-50101233D01*
X129270099Y-50251901D01*
X129104689Y-50359234D01*
X128921390Y-50424772D01*
X128822255Y-50441652D01*
X128717565Y-50447414D01*
X128091815Y-50447414D01*
X128091815Y-50069509D01*
X128511668Y-50069509D01*
X128717565Y-50069509D01*
X128762648Y-50067578D01*
X128839479Y-50054766D01*
X128911202Y-50030611D01*
X128982903Y-49992692D01*
X129048653Y-49943433D01*
X129114819Y-49876485D01*
X129173621Y-49798052D01*
X129230608Y-49698500D01*
X129278409Y-49588172D01*
X129320037Y-49457903D01*
X129350771Y-49319500D01*
X129371146Y-49169906D01*
X129379804Y-49016882D01*
X129362807Y-48717430D01*
X129306256Y-48453016D01*
X129220685Y-48239900D01*
X129115405Y-48080641D01*
X128995840Y-47970843D01*
X128862845Y-47905376D01*
X128790463Y-47888609D01*
X128713352Y-47882864D01*
X128511668Y-47882864D01*
X128511668Y-50069509D01*
X128091815Y-50069509D01*
X128091815Y-47504776D01*
X128713352Y-47504776D01*
X128737165Y-47505066D01*
G37*
G36*
X131725369Y-47526737D02*
G01*
X131839803Y-47554022D01*
X131945373Y-47591125D01*
X132044386Y-47638516D01*
X132134081Y-47694533D01*
X132217044Y-47760633D01*
X132290035Y-47834100D01*
X132355198Y-47917060D01*
X132409630Y-48005869D01*
X132454477Y-48102350D01*
X132487933Y-48202763D01*
X132510220Y-48307389D01*
X132520794Y-48413669D01*
X132507039Y-48625002D01*
X132448981Y-48824001D01*
X132350928Y-49001199D01*
X132217077Y-49150667D01*
X132341566Y-49262087D01*
X132396401Y-49335449D01*
X132440576Y-49415020D01*
X132475159Y-49502775D01*
X132498243Y-49594293D01*
X132509871Y-49688852D01*
X132509804Y-49784186D01*
X132475924Y-49966827D01*
X132401718Y-50128325D01*
X132293059Y-50260822D01*
X132153723Y-50360435D01*
X132073250Y-50396873D01*
X131984608Y-50424109D01*
X131888531Y-50441168D01*
X131784400Y-50447414D01*
X131057900Y-50447414D01*
X131057900Y-50069509D01*
X131477754Y-50069509D01*
X131780187Y-50069509D01*
X131854381Y-50063576D01*
X131920421Y-50046481D01*
X131977542Y-50019633D01*
X132028549Y-49981921D01*
X132069447Y-49936462D01*
X132101813Y-49881607D01*
X132122778Y-49821977D01*
X132130346Y-49695268D01*
X132094070Y-49579233D01*
X132021348Y-49488169D01*
X131916814Y-49428689D01*
X131852663Y-49412589D01*
X131780187Y-49406939D01*
X131477754Y-49406939D01*
X131477754Y-50069509D01*
X131057900Y-50069509D01*
X131057900Y-49028851D01*
X131477754Y-49028851D01*
X131568025Y-49024693D01*
X131666623Y-49009533D01*
X131755944Y-48984222D01*
X131837875Y-48948791D01*
X131910058Y-48904828D01*
X131974612Y-48851383D01*
X132028685Y-48791126D01*
X132073678Y-48722752D01*
X132107405Y-48649691D01*
X132130188Y-48571783D01*
X132141265Y-48491820D01*
X132128566Y-48332589D01*
X132072077Y-48186098D01*
X131976453Y-48062111D01*
X131845137Y-47966742D01*
X131766744Y-47931427D01*
X131679187Y-47905020D01*
X131583004Y-47888564D01*
X131477754Y-47882864D01*
X131477754Y-49028851D01*
X131057900Y-49028851D01*
X131057900Y-47504776D01*
X131477754Y-47504776D01*
X131725369Y-47526737D01*
G37*
G36*
X134287584Y-47504776D02*
G01*
X133733275Y-48886702D01*
X133162113Y-47504776D01*
X132729437Y-47504776D01*
X133527378Y-49403275D01*
X133527378Y-50440636D01*
X133947415Y-50440636D01*
X133947415Y-49403275D01*
X134720260Y-47504776D01*
X134287584Y-47504776D01*
G37*
G36*
X118699334Y-55487047D02*
G01*
X118275267Y-55487047D01*
X118157665Y-55100533D01*
X117430981Y-55100533D01*
X117321804Y-55487047D01*
X116897555Y-55487047D01*
X117117069Y-54722628D01*
X117540158Y-54722628D01*
X118040062Y-54722628D01*
X117779577Y-53870098D01*
X117540158Y-54722628D01*
X117117069Y-54722628D01*
X117741841Y-52546974D01*
X117817495Y-52546974D01*
X118699334Y-55487047D01*
G37*
G36*
X119502261Y-52551447D02*
G01*
X119618261Y-52569351D01*
X119726361Y-52597774D01*
X119829112Y-52637113D01*
X119923543Y-52685954D01*
X120012950Y-52745987D01*
X120093355Y-52814537D01*
X120167994Y-52894576D01*
X120232739Y-52981947D01*
X120289890Y-53080082D01*
X120336212Y-53183916D01*
X120372658Y-53295762D01*
X120397580Y-53411101D01*
X120411044Y-53529629D01*
X120412792Y-53649037D01*
X120382022Y-53881413D01*
X120309303Y-54094446D01*
X120200269Y-54279200D01*
X120059840Y-54431084D01*
X119890934Y-54547872D01*
X120386625Y-55484483D01*
X119933066Y-55484483D01*
X119496176Y-54665475D01*
X119370147Y-54669688D01*
X119370147Y-55484483D01*
X118950294Y-55484483D01*
X118950294Y-54291601D01*
X119370147Y-54291601D01*
X119549294Y-54270972D01*
X119634396Y-54244007D01*
X119711305Y-54207221D01*
X119783427Y-54158967D01*
X119846466Y-54102084D01*
X119903534Y-54033431D01*
X119950330Y-53957728D01*
X119988433Y-53872123D01*
X120015198Y-53781892D01*
X120030786Y-53687077D01*
X120034654Y-53590851D01*
X120008337Y-53405031D01*
X119941661Y-53240865D01*
X119841503Y-53107281D01*
X119712497Y-53007922D01*
X119555873Y-52945130D01*
X119466805Y-52928578D01*
X119370147Y-52922864D01*
X119370147Y-54291601D01*
X118950294Y-54291601D01*
X118950294Y-52544776D01*
X119370147Y-52544776D01*
X119502261Y-52551447D01*
G37*
G36*
X121927919Y-52544776D02*
G01*
X121373610Y-53926702D01*
X120802448Y-52544776D01*
X120369772Y-52544776D01*
X121167713Y-54443275D01*
X121167713Y-55480636D01*
X121587750Y-55480636D01*
X121587750Y-54443275D01*
X122360595Y-52544776D01*
X121927919Y-52544776D01*
G37*
G36*
X123951532Y-55487047D02*
G01*
X123527466Y-55487047D01*
X123409863Y-55100533D01*
X122683179Y-55100533D01*
X122574003Y-55487047D01*
X122149753Y-55487047D01*
X122369267Y-54722628D01*
X122792356Y-54722628D01*
X123292260Y-54722628D01*
X123031775Y-53870098D01*
X122792356Y-54722628D01*
X122369267Y-54722628D01*
X122994039Y-52546974D01*
X123069693Y-52546974D01*
X123951532Y-55487047D01*
G37*
G36*
X126808990Y-54973588D02*
G01*
X126734729Y-55028794D01*
X126653732Y-55073006D01*
X126573264Y-55102941D01*
X126486724Y-55121804D01*
X126388954Y-55128743D01*
X126300058Y-55122997D01*
X126216618Y-55106220D01*
X126064167Y-55041211D01*
X125928793Y-54934195D01*
X125810717Y-54782521D01*
X125713966Y-54583456D01*
X125646083Y-54338639D01*
X125616302Y-54059115D01*
X125616108Y-54051449D01*
X125618754Y-53909033D01*
X125633084Y-53768210D01*
X125658614Y-53633026D01*
X125695436Y-53503495D01*
X125740582Y-53388129D01*
X125795760Y-53281350D01*
X125855347Y-53192198D01*
X125923379Y-53113105D01*
X125993028Y-53050673D01*
X126069720Y-52998813D01*
X126147343Y-52960973D01*
X126231031Y-52933987D01*
X126388954Y-52915353D01*
X126479540Y-52921140D01*
X126564593Y-52938201D01*
X126643117Y-52965753D01*
X126715769Y-53003476D01*
X126775285Y-53045229D01*
X127006278Y-52726309D01*
X126913967Y-52666723D01*
X126814621Y-52617213D01*
X126712426Y-52579744D01*
X126603711Y-52552850D01*
X126388954Y-52533052D01*
X126270737Y-52538814D01*
X126158729Y-52555699D01*
X125951932Y-52621056D01*
X125766384Y-52727073D01*
X125601465Y-52873720D01*
X125458738Y-53061883D01*
X125342198Y-53291540D01*
X125257907Y-53559431D01*
X125212766Y-53856772D01*
X125208711Y-54105854D01*
X125221021Y-54262230D01*
X125245018Y-54416149D01*
X125279827Y-54562989D01*
X125325823Y-54704545D01*
X125380253Y-54833613D01*
X125444892Y-54955260D01*
X125515129Y-55061948D01*
X125594415Y-55159866D01*
X125677097Y-55242881D01*
X125767746Y-55316354D01*
X125860799Y-55376265D01*
X125960968Y-55426117D01*
X126063778Y-55463809D01*
X126173133Y-55490900D01*
X126388954Y-55510861D01*
X126506184Y-55505111D01*
X126617262Y-55488308D01*
X126823563Y-55423078D01*
X127009579Y-55317117D01*
X127031557Y-55300934D01*
X126808990Y-54973588D01*
G37*
G36*
X128395714Y-52544409D02*
G01*
X128395714Y-54068851D01*
X127702736Y-54068851D01*
X127702736Y-52544409D01*
X127282883Y-52544409D01*
X127282883Y-55484299D01*
X127702736Y-55484299D01*
X127702736Y-54446939D01*
X128395714Y-54446939D01*
X128395714Y-55484299D01*
X128815751Y-55484299D01*
X128815751Y-52544409D01*
X128395714Y-52544409D01*
G37*
G36*
X130909523Y-55487047D02*
G01*
X130485456Y-55487047D01*
X130367853Y-55100533D01*
X129641169Y-55100533D01*
X129531993Y-55487047D01*
X129107743Y-55487047D01*
X129327258Y-54722628D01*
X129750346Y-54722628D01*
X130250250Y-54722628D01*
X129989765Y-53870098D01*
X129750346Y-54722628D01*
X129327258Y-54722628D01*
X129952030Y-52546974D01*
X130027684Y-52546974D01*
X130909523Y-55487047D01*
G37*
G36*
X132555780Y-52547523D02*
G01*
X132102221Y-52547523D01*
X131539303Y-53605950D01*
X131539303Y-52547523D01*
X131119449Y-52547523D01*
X131119449Y-55487414D01*
X131539303Y-55487414D01*
X131539303Y-54298928D01*
X132102221Y-55487414D01*
X132555780Y-55487414D01*
X131820854Y-53933479D01*
X132555780Y-52547523D01*
G37*
G36*
X133359623Y-52551447D02*
G01*
X133475623Y-52569351D01*
X133583723Y-52597774D01*
X133686475Y-52637113D01*
X133780905Y-52685954D01*
X133870312Y-52745987D01*
X133950717Y-52814537D01*
X134025357Y-52894576D01*
X134090101Y-52981947D01*
X134147252Y-53080082D01*
X134193574Y-53183916D01*
X134230020Y-53295762D01*
X134254942Y-53411101D01*
X134268406Y-53529629D01*
X134270154Y-53649037D01*
X134239384Y-53881413D01*
X134166665Y-54094446D01*
X134057631Y-54279200D01*
X133917202Y-54431084D01*
X133748296Y-54547872D01*
X134243987Y-55484483D01*
X133790428Y-55484483D01*
X133353539Y-54665475D01*
X133227509Y-54669688D01*
X133227509Y-55484483D01*
X132807656Y-55484483D01*
X132807656Y-54291601D01*
X133227509Y-54291601D01*
X133406656Y-54270972D01*
X133491758Y-54244007D01*
X133568667Y-54207221D01*
X133640789Y-54158967D01*
X133703828Y-54102084D01*
X133760896Y-54033431D01*
X133807693Y-53957728D01*
X133845795Y-53872123D01*
X133872560Y-53781892D01*
X133888148Y-53687077D01*
X133892016Y-53590851D01*
X133865699Y-53405031D01*
X133799024Y-53240865D01*
X133698865Y-53107281D01*
X133569859Y-53007922D01*
X133413235Y-52945130D01*
X133324168Y-52928578D01*
X133227509Y-52922864D01*
X133227509Y-54291601D01*
X132807656Y-54291601D01*
X132807656Y-52544776D01*
X133227509Y-52544776D01*
X133359623Y-52551447D01*
G37*
G36*
X136237924Y-55487047D02*
G01*
X135813858Y-55487047D01*
X135696255Y-55100533D01*
X134969571Y-55100533D01*
X134860395Y-55487047D01*
X134436145Y-55487047D01*
X134655659Y-54722628D01*
X135078748Y-54722628D01*
X135578652Y-54722628D01*
X135318167Y-53870098D01*
X135078748Y-54722628D01*
X134655659Y-54722628D01*
X135280431Y-52546974D01*
X135356086Y-52546974D01*
X136237924Y-55487047D01*
G37*
G36*
X137197386Y-52566737D02*
G01*
X137311820Y-52594022D01*
X137417389Y-52631125D01*
X137516403Y-52678516D01*
X137606098Y-52734533D01*
X137689061Y-52800633D01*
X137762052Y-52874100D01*
X137827215Y-52957060D01*
X137881647Y-53045869D01*
X137926494Y-53142350D01*
X137959950Y-53242763D01*
X137982237Y-53347389D01*
X137992811Y-53453669D01*
X137979056Y-53665002D01*
X137920998Y-53864001D01*
X137822945Y-54041199D01*
X137689093Y-54190667D01*
X137813583Y-54302087D01*
X137868418Y-54375449D01*
X137912593Y-54455020D01*
X137947176Y-54542775D01*
X137970259Y-54634293D01*
X137981888Y-54728852D01*
X137981821Y-54824186D01*
X137947941Y-55006827D01*
X137873735Y-55168325D01*
X137765076Y-55300822D01*
X137625739Y-55400435D01*
X137545267Y-55436873D01*
X137456625Y-55464109D01*
X137360548Y-55481168D01*
X137256417Y-55487414D01*
X136529917Y-55487414D01*
X136529917Y-55109509D01*
X136949770Y-55109509D01*
X137252204Y-55109509D01*
X137326398Y-55103576D01*
X137392438Y-55086481D01*
X137449559Y-55059633D01*
X137500565Y-55021921D01*
X137541463Y-54976462D01*
X137573829Y-54921607D01*
X137594794Y-54861977D01*
X137602363Y-54735268D01*
X137566087Y-54619233D01*
X137493365Y-54528169D01*
X137388831Y-54468689D01*
X137324679Y-54452589D01*
X137252204Y-54446939D01*
X136949770Y-54446939D01*
X136949770Y-55109509D01*
X136529917Y-55109509D01*
X136529917Y-54068851D01*
X136949770Y-54068851D01*
X137040041Y-54064693D01*
X137138640Y-54049533D01*
X137227960Y-54024222D01*
X137309892Y-53988791D01*
X137382074Y-53944828D01*
X137446629Y-53891383D01*
X137500702Y-53831126D01*
X137545695Y-53762752D01*
X137579422Y-53689691D01*
X137602205Y-53611783D01*
X137613282Y-53531820D01*
X137600583Y-53372589D01*
X137544094Y-53226098D01*
X137448470Y-53102111D01*
X137317154Y-53006742D01*
X137238760Y-52971427D01*
X137151204Y-52945020D01*
X137055020Y-52928564D01*
X136949770Y-52922864D01*
X136949770Y-54068851D01*
X136529917Y-54068851D01*
X136529917Y-52544776D01*
X136949770Y-52544776D01*
X137197386Y-52566737D01*
G37*
G36*
X139875189Y-55487047D02*
G01*
X139451122Y-55487047D01*
X139333519Y-55100533D01*
X138606836Y-55100533D01*
X138497659Y-55487047D01*
X138073409Y-55487047D01*
X138292924Y-54722628D01*
X138716012Y-54722628D01*
X139215916Y-54722628D01*
X138955431Y-53870098D01*
X138716012Y-54722628D01*
X138292924Y-54722628D01*
X138917696Y-52546974D01*
X138993350Y-52546974D01*
X139875189Y-55487047D01*
G37*
G36*
X140678116Y-52551447D02*
G01*
X140794115Y-52569351D01*
X140902216Y-52597774D01*
X141004967Y-52637113D01*
X141099398Y-52685954D01*
X141188805Y-52745987D01*
X141269209Y-52814537D01*
X141343849Y-52894576D01*
X141408594Y-52981947D01*
X141465745Y-53080082D01*
X141512067Y-53183916D01*
X141548513Y-53295762D01*
X141573435Y-53411101D01*
X141586899Y-53529629D01*
X141588647Y-53649037D01*
X141557877Y-53881413D01*
X141485158Y-54094446D01*
X141376124Y-54279200D01*
X141235694Y-54431084D01*
X141066789Y-54547872D01*
X141562480Y-55484483D01*
X141108921Y-55484483D01*
X140672031Y-54665475D01*
X140546002Y-54669688D01*
X140546002Y-55484483D01*
X140126148Y-55484483D01*
X140126148Y-54291601D01*
X140546002Y-54291601D01*
X140725149Y-54270972D01*
X140810251Y-54244007D01*
X140887160Y-54207221D01*
X140959282Y-54158967D01*
X141022320Y-54102084D01*
X141079388Y-54033431D01*
X141126185Y-53957728D01*
X141164288Y-53872123D01*
X141191053Y-53781892D01*
X141206641Y-53687077D01*
X141210509Y-53590851D01*
X141184191Y-53405031D01*
X141117516Y-53240865D01*
X141017357Y-53107281D01*
X140888352Y-53007922D01*
X140731728Y-52945130D01*
X140642660Y-52928578D01*
X140546002Y-52922864D01*
X140546002Y-54291601D01*
X140126148Y-54291601D01*
X140126148Y-52544776D01*
X140546002Y-52544776D01*
X140678116Y-52551447D01*
G37*
G36*
X143124840Y-52542028D02*
G01*
X141755737Y-52542028D01*
X141755737Y-52919933D01*
X142230178Y-52919933D01*
X142230178Y-55481918D01*
X142650215Y-55481918D01*
X142650215Y-52919933D01*
X143124840Y-52919933D01*
X143124840Y-52542028D01*
G37*
G36*
X143501463Y-55487414D02*
G01*
X143921499Y-55487414D01*
X143921499Y-52547523D01*
X143501463Y-52547523D01*
X143501463Y-55487414D01*
G37*
G36*
X8963603Y-39141050D02*
G01*
X8934471Y-38835250D01*
X8849294Y-38547718D01*
X8707179Y-38267286D01*
X8499872Y-37976961D01*
X8315676Y-37759202D01*
X8180816Y-37601015D01*
X8069835Y-37452976D01*
X7994567Y-37311363D01*
X7966848Y-37172452D01*
X7974436Y-37087545D01*
X7996290Y-37011727D01*
X8077780Y-36888432D01*
X8205407Y-36804209D01*
X8373958Y-36767232D01*
X8470560Y-36770274D01*
X8570747Y-36789246D01*
X8633142Y-36809019D01*
X8633142Y-36305146D01*
X8498566Y-36279440D01*
X8365641Y-36269547D01*
X8234940Y-36275213D01*
X8108892Y-36296211D01*
X7990267Y-36331713D01*
X7879103Y-36381525D01*
X7779494Y-36443394D01*
X7689649Y-36518168D01*
X7613417Y-36602315D01*
X7548728Y-36697916D01*
X7498156Y-36801295D01*
X7460660Y-36914921D01*
X7437624Y-37036206D01*
X7429283Y-37166875D01*
X7429269Y-37172452D01*
X7458407Y-37402192D01*
X7544527Y-37620781D01*
X7696178Y-37850976D01*
X7911686Y-38104155D01*
X8101221Y-38324120D01*
X8267923Y-38560897D01*
X8334807Y-38689977D01*
X8386496Y-38828526D01*
X8419829Y-38978298D01*
X8431642Y-39141050D01*
X8424023Y-39263776D01*
X8401949Y-39370368D01*
X8368362Y-39458014D01*
X8323641Y-39532266D01*
X8205103Y-39643209D01*
X8044267Y-39711590D01*
X7833029Y-39735584D01*
X7565821Y-39705510D01*
X7311544Y-39633199D01*
X7311544Y-40164916D01*
X7482221Y-40212635D01*
X7648071Y-40243060D01*
X7806667Y-40256580D01*
X7958787Y-40254000D01*
X8101282Y-40236165D01*
X8235845Y-40203568D01*
X8359176Y-40157714D01*
X8473326Y-40098465D01*
X8575514Y-40027792D01*
X8667416Y-39944987D01*
X8747179Y-39851901D01*
X8815553Y-39747732D01*
X8871541Y-39633539D01*
X8914900Y-39509072D01*
X8945021Y-39374192D01*
X8961043Y-39229649D01*
X8963603Y-39141050D01*
G37*
G36*
X10211117Y-36327955D02*
G01*
X10358595Y-36363319D01*
X10495376Y-36412158D01*
X10625375Y-36475645D01*
X10743972Y-36551299D01*
X10855691Y-36642117D01*
X10954966Y-36743723D01*
X11045743Y-36860528D01*
X11122824Y-36986336D01*
X11188563Y-37125400D01*
X11239435Y-37270981D01*
X11276095Y-37424924D01*
X11297196Y-37582170D01*
X11292787Y-37898886D01*
X11228753Y-38200109D01*
X11111740Y-38469936D01*
X10949176Y-38699043D01*
X10746647Y-38882950D01*
X10506804Y-39019156D01*
X10373332Y-39068390D01*
X10229521Y-39104700D01*
X10076239Y-39127042D01*
X9912731Y-39134699D01*
X9912731Y-40221092D01*
X9352926Y-40221092D01*
X9352926Y-38630582D01*
X9912731Y-38630582D01*
X10151593Y-38603077D01*
X10265063Y-38567125D01*
X10367608Y-38518077D01*
X10463770Y-38453737D01*
X10547822Y-38377893D01*
X10623913Y-38286356D01*
X10686308Y-38185419D01*
X10737112Y-38071279D01*
X10772798Y-37950970D01*
X10793583Y-37824550D01*
X10798740Y-37696249D01*
X10763650Y-37448489D01*
X10674750Y-37229602D01*
X10541205Y-37051490D01*
X10369197Y-36919011D01*
X10160365Y-36835288D01*
X10041608Y-36813219D01*
X9912731Y-36805600D01*
X9912731Y-38630582D01*
X9352926Y-38630582D01*
X9352926Y-36301482D01*
X9912731Y-36301482D01*
X10211117Y-36327955D01*
G37*
G36*
X13118907Y-36300994D02*
G01*
X13118907Y-38333583D01*
X12194936Y-38333583D01*
X12194936Y-36300994D01*
X11635131Y-36300994D01*
X11635131Y-40220847D01*
X12194936Y-40220847D01*
X12194936Y-38837700D01*
X13118907Y-38837700D01*
X13118907Y-40220847D01*
X13678955Y-40220847D01*
X13678955Y-36300994D01*
X13118907Y-36300994D01*
G37*
G36*
X15720337Y-36805600D02*
G01*
X15720337Y-36301482D01*
X14124454Y-36301482D01*
X14124454Y-40225000D01*
X15720337Y-40225000D01*
X15720337Y-39721127D01*
X14684259Y-39721127D01*
X14684259Y-38837700D01*
X15412347Y-38837700D01*
X15412347Y-38333583D01*
X14684259Y-38333583D01*
X14684259Y-36805600D01*
X15720337Y-36805600D01*
G37*
G36*
X16904235Y-36310377D02*
G01*
X17058901Y-36334250D01*
X17203035Y-36372146D01*
X17340037Y-36424598D01*
X17465944Y-36489720D01*
X17585154Y-36569765D01*
X17692360Y-36661164D01*
X17791880Y-36767883D01*
X17878206Y-36884378D01*
X17954407Y-37015225D01*
X18016170Y-37153670D01*
X18064764Y-37302798D01*
X18097993Y-37456582D01*
X18115946Y-37614620D01*
X18118276Y-37773831D01*
X18077250Y-38083666D01*
X17980291Y-38367710D01*
X17834912Y-38614049D01*
X17647673Y-38816560D01*
X17422465Y-38972278D01*
X18083387Y-40221092D01*
X17478641Y-40221092D01*
X16896122Y-39129082D01*
X16728083Y-39134699D01*
X16728083Y-40221092D01*
X16168278Y-40221092D01*
X16168278Y-38630582D01*
X16728083Y-38630582D01*
X16966945Y-38603077D01*
X17080415Y-38567125D01*
X17182960Y-38518077D01*
X17279123Y-38453737D01*
X17363174Y-38377893D01*
X17439265Y-38286356D01*
X17501661Y-38185419D01*
X17552464Y-38071279D01*
X17588151Y-37950970D01*
X17608935Y-37824550D01*
X17614093Y-37696249D01*
X17579002Y-37448489D01*
X17490102Y-37229602D01*
X17356557Y-37051490D01*
X17184550Y-36919011D01*
X16975717Y-36835288D01*
X16856961Y-36813219D01*
X16728083Y-36805600D01*
X16728083Y-38630582D01*
X16168278Y-38630582D01*
X16168278Y-36301482D01*
X16728083Y-36301482D01*
X16904235Y-36310377D01*
G37*
G36*
X18620965Y-40225000D02*
G01*
X19181014Y-40225000D01*
X19181014Y-36305146D01*
X18620965Y-36305146D01*
X18620965Y-40225000D01*
G37*
G36*
X21761684Y-39539898D02*
G01*
X21662668Y-39613507D01*
X21554673Y-39672456D01*
X21447382Y-39712370D01*
X21331995Y-39737520D01*
X21201635Y-39746772D01*
X21083107Y-39739110D01*
X20971854Y-39716742D01*
X20768586Y-39630062D01*
X20588087Y-39487375D01*
X20430653Y-39285143D01*
X20301651Y-39019723D01*
X20211141Y-38693300D01*
X20171433Y-38320601D01*
X20171174Y-38310380D01*
X20174703Y-38120492D01*
X20193809Y-37932728D01*
X20227848Y-37752482D01*
X20276945Y-37579775D01*
X20337140Y-37425953D01*
X20410711Y-37283582D01*
X20490159Y-37164712D01*
X20580869Y-37059255D01*
X20673734Y-36976012D01*
X20775990Y-36906866D01*
X20879487Y-36856413D01*
X20991071Y-36820431D01*
X21201635Y-36795586D01*
X21322417Y-36803301D01*
X21435821Y-36826049D01*
X21540519Y-36862785D01*
X21637389Y-36913083D01*
X21716743Y-36968754D01*
X22024733Y-36543527D01*
X21901653Y-36464079D01*
X21769191Y-36398066D01*
X21632931Y-36348106D01*
X21487978Y-36312248D01*
X21201635Y-36285851D01*
X21044012Y-36293533D01*
X20894669Y-36316046D01*
X20618939Y-36403190D01*
X20371542Y-36544545D01*
X20151649Y-36740075D01*
X19961347Y-36990959D01*
X19805961Y-37297168D01*
X19693573Y-37654356D01*
X19633385Y-38050811D01*
X19627978Y-38382920D01*
X19644392Y-38591422D01*
X19676387Y-38796647D01*
X19722800Y-38992433D01*
X19784127Y-39181175D01*
X19856700Y-39353265D01*
X19942886Y-39515462D01*
X20036535Y-39657712D01*
X20142250Y-39788269D01*
X20252492Y-39898956D01*
X20373359Y-39996920D01*
X20497428Y-40076802D01*
X20630987Y-40143271D01*
X20768067Y-40193527D01*
X20913874Y-40229648D01*
X21201635Y-40256263D01*
X21357942Y-40248596D01*
X21506045Y-40226192D01*
X21781114Y-40139219D01*
X22029135Y-39997938D01*
X22058439Y-39976360D01*
X21761684Y-39539898D01*
G37*
G36*
X24626408Y-40224511D02*
G01*
X24060986Y-40224511D01*
X23904182Y-39709159D01*
X22935271Y-39709159D01*
X22789702Y-40224511D01*
X22224036Y-40224511D01*
X22516722Y-39205286D01*
X23080840Y-39205286D01*
X23747378Y-39205286D01*
X23400065Y-38068579D01*
X23080840Y-39205286D01*
X22516722Y-39205286D01*
X23349751Y-36304413D01*
X23450623Y-36304413D01*
X24626408Y-40224511D01*
G37*
G36*
X25575536Y-39721127D02*
G01*
X25575536Y-36305146D01*
X25015731Y-36305146D01*
X25015731Y-40225000D01*
X26611614Y-40225000D01*
X26611614Y-39721127D01*
X25575536Y-39721127D01*
G37*
G36*
X30480177Y-39539898D02*
G01*
X30381161Y-39613507D01*
X30273165Y-39672456D01*
X30165875Y-39712370D01*
X30050488Y-39737520D01*
X29920128Y-39746772D01*
X29801600Y-39739110D01*
X29690347Y-39716742D01*
X29487079Y-39630062D01*
X29306580Y-39487375D01*
X29149146Y-39285143D01*
X29020144Y-39019723D01*
X28929633Y-38693300D01*
X28889926Y-38320601D01*
X28889667Y-38310380D01*
X28893195Y-38120492D01*
X28912301Y-37932728D01*
X28946341Y-37752482D01*
X28995438Y-37579775D01*
X29055633Y-37425953D01*
X29129203Y-37283582D01*
X29208652Y-37164712D01*
X29299362Y-37059255D01*
X29392227Y-36976012D01*
X29494483Y-36906866D01*
X29597980Y-36856413D01*
X29709564Y-36820431D01*
X29920128Y-36795586D01*
X30040910Y-36803301D01*
X30154314Y-36826049D01*
X30259012Y-36862785D01*
X30355882Y-36913083D01*
X30435236Y-36968754D01*
X30743226Y-36543527D01*
X30620145Y-36464079D01*
X30487684Y-36398066D01*
X30351423Y-36348106D01*
X30206471Y-36312248D01*
X29920128Y-36285851D01*
X29762505Y-36293533D01*
X29613161Y-36316046D01*
X29337432Y-36403190D01*
X29090034Y-36544545D01*
X28870142Y-36740075D01*
X28679839Y-36990959D01*
X28524453Y-37297168D01*
X28412066Y-37654356D01*
X28351878Y-38050811D01*
X28346471Y-38382920D01*
X28362884Y-38591422D01*
X28394879Y-38796647D01*
X28441292Y-38992433D01*
X28502620Y-39181175D01*
X28575193Y-39353265D01*
X28661379Y-39515462D01*
X28755028Y-39657712D01*
X28860743Y-39788269D01*
X28970985Y-39898956D01*
X29091851Y-39996920D01*
X29215921Y-40076802D01*
X29349480Y-40143271D01*
X29486560Y-40193527D01*
X29632367Y-40229648D01*
X29920128Y-40256263D01*
X30076435Y-40248596D01*
X30224538Y-40226192D01*
X30499607Y-40139219D01*
X30747628Y-39997938D01*
X30776932Y-39976360D01*
X30480177Y-39539898D01*
G37*
G36*
X32245539Y-36263116D02*
G01*
X32361905Y-36294445D01*
X32474215Y-36340811D01*
X32582344Y-36402620D01*
X32685101Y-36479759D01*
X32783348Y-36573913D01*
X32874719Y-36684048D01*
X32960311Y-36813224D01*
X33037302Y-36959261D01*
X33106441Y-37126264D01*
X33165052Y-37311104D01*
X33213249Y-37518406D01*
X33248843Y-37744504D01*
X33271283Y-37994037D01*
X33278955Y-38263241D01*
X33256209Y-38715508D01*
X33180951Y-39151114D01*
X33062171Y-39507906D01*
X32908316Y-39791206D01*
X32726155Y-40006659D01*
X32626013Y-40090509D01*
X32520300Y-40159118D01*
X32408990Y-40212832D01*
X32293357Y-40251272D01*
X32171730Y-40274812D01*
X32046994Y-40282641D01*
X31860164Y-40265006D01*
X31632088Y-40189538D01*
X31524602Y-40129020D01*
X31422656Y-40053293D01*
X31325114Y-39960450D01*
X31234530Y-39851675D01*
X31149453Y-39723411D01*
X31073007Y-39578204D01*
X31004115Y-39411187D01*
X30945759Y-39226087D01*
X30897595Y-39017322D01*
X30862048Y-38789331D01*
X30839564Y-38536425D01*
X30831886Y-38263241D01*
X31391935Y-38263241D01*
X31392526Y-38339457D01*
X31403870Y-38593177D01*
X31428548Y-38819109D01*
X31464324Y-39014660D01*
X31510185Y-39185223D01*
X31563343Y-39328375D01*
X31623538Y-39449383D01*
X31687744Y-39546747D01*
X31756259Y-39624611D01*
X31826770Y-39682935D01*
X31899209Y-39723807D01*
X31973261Y-39748115D01*
X32046994Y-39756053D01*
X32062818Y-39755701D01*
X32137392Y-39744562D01*
X32212207Y-39717252D01*
X32287110Y-39672324D01*
X32359849Y-39609297D01*
X32430726Y-39525355D01*
X32496770Y-39420914D01*
X32557873Y-39292287D01*
X32611200Y-39140610D01*
X32655996Y-38962010D01*
X32689887Y-38757847D01*
X32711585Y-38524524D01*
X32719151Y-38263241D01*
X32718388Y-38178770D01*
X32706392Y-37930085D01*
X32681001Y-37708210D01*
X32644209Y-37514355D01*
X32597260Y-37345005D01*
X32542565Y-37201473D01*
X32480838Y-37080046D01*
X32414776Y-36981606D01*
X32344594Y-36902915D01*
X32272650Y-36843929D01*
X32199236Y-36802671D01*
X32125396Y-36778367D01*
X32052612Y-36770429D01*
X32037830Y-36770771D01*
X31965593Y-36782116D01*
X31892230Y-36810068D01*
X31818002Y-36856176D01*
X31745404Y-36920924D01*
X31674778Y-37006571D01*
X31608758Y-37113059D01*
X31548159Y-37242827D01*
X31495308Y-37395595D01*
X31451452Y-37573566D01*
X31418564Y-37776579D01*
X31398150Y-38006426D01*
X31391935Y-38263241D01*
X30831886Y-38263241D01*
X30853783Y-37815198D01*
X30927949Y-37376456D01*
X31045363Y-37018239D01*
X31197501Y-36734660D01*
X31377659Y-36519502D01*
X31476748Y-36435868D01*
X31581478Y-36367425D01*
X31691913Y-36313825D01*
X31806811Y-36275454D01*
X31928045Y-36251914D01*
X32052612Y-36244085D01*
X32245539Y-36263116D01*
G37*
G36*
X34871663Y-38539480D02*
G01*
X34496506Y-40225000D01*
X34048565Y-40225000D01*
X33443575Y-36305146D01*
X34009241Y-36305146D01*
X34345320Y-38466695D01*
X34871663Y-36467568D01*
X35398006Y-38466695D01*
X35734084Y-36305146D01*
X36299507Y-36305146D01*
X35694761Y-40225000D01*
X35246820Y-40225000D01*
X34871663Y-38539480D01*
G37*
G36*
X8225912Y-43047955D02*
G01*
X8373389Y-43083319D01*
X8510170Y-43132158D01*
X8640169Y-43195645D01*
X8758766Y-43271299D01*
X8870485Y-43362117D01*
X8969760Y-43463723D01*
X9060537Y-43580528D01*
X9137618Y-43706336D01*
X9203357Y-43845400D01*
X9254229Y-43990981D01*
X9290889Y-44144924D01*
X9311990Y-44302170D01*
X9307581Y-44618886D01*
X9243547Y-44920109D01*
X9126535Y-45189936D01*
X8963970Y-45419043D01*
X8761441Y-45602950D01*
X8521598Y-45739156D01*
X8388126Y-45788390D01*
X8244315Y-45824700D01*
X8091033Y-45847042D01*
X7927525Y-45854699D01*
X7927525Y-46941092D01*
X7367720Y-46941092D01*
X7367720Y-45350582D01*
X7927525Y-45350582D01*
X8166387Y-45323077D01*
X8279857Y-45287125D01*
X8382402Y-45238077D01*
X8478565Y-45173737D01*
X8562616Y-45097893D01*
X8638707Y-45006356D01*
X8701103Y-44905419D01*
X8751906Y-44791279D01*
X8787592Y-44670970D01*
X8808377Y-44544550D01*
X8813534Y-44416249D01*
X8778444Y-44168489D01*
X8689544Y-43949602D01*
X8555999Y-43771490D01*
X8383991Y-43639011D01*
X8175159Y-43555288D01*
X8056403Y-43533219D01*
X7927525Y-43525600D01*
X7927525Y-45350582D01*
X7367720Y-45350582D01*
X7367720Y-43021482D01*
X7927525Y-43021482D01*
X8225912Y-43047955D01*
G37*
G36*
X10385882Y-43030377D02*
G01*
X10540548Y-43054250D01*
X10684681Y-43092146D01*
X10821684Y-43144598D01*
X10947591Y-43209720D01*
X11066801Y-43289765D01*
X11174007Y-43381164D01*
X11273526Y-43487883D01*
X11359853Y-43604378D01*
X11436054Y-43735225D01*
X11497817Y-43873670D01*
X11546411Y-44022798D01*
X11579640Y-44176582D01*
X11597593Y-44334620D01*
X11599923Y-44493831D01*
X11558897Y-44803666D01*
X11461938Y-45087710D01*
X11316559Y-45334049D01*
X11129320Y-45536560D01*
X10904112Y-45692278D01*
X11565034Y-46941092D01*
X10960288Y-46941092D01*
X10377769Y-45849082D01*
X10209730Y-45854699D01*
X10209730Y-46941092D01*
X9649925Y-46941092D01*
X9649925Y-45350582D01*
X10209730Y-45350582D01*
X10448592Y-45323077D01*
X10562062Y-45287125D01*
X10664607Y-45238077D01*
X10760770Y-45173737D01*
X10844821Y-45097893D01*
X10920912Y-45006356D01*
X10983308Y-44905419D01*
X11034111Y-44791279D01*
X11069798Y-44670970D01*
X11090582Y-44544550D01*
X11095739Y-44416249D01*
X11060649Y-44168489D01*
X10971749Y-43949602D01*
X10838204Y-43771490D01*
X10666197Y-43639011D01*
X10457364Y-43555288D01*
X10338608Y-43533219D01*
X10209730Y-43525600D01*
X10209730Y-45350582D01*
X9649925Y-45350582D01*
X9649925Y-43021482D01*
X10209730Y-43021482D01*
X10385882Y-43030377D01*
G37*
G36*
X13233676Y-42983116D02*
G01*
X13350042Y-43014445D01*
X13462352Y-43060811D01*
X13570481Y-43122620D01*
X13673238Y-43199759D01*
X13771485Y-43293913D01*
X13862855Y-43404048D01*
X13948448Y-43533224D01*
X14025439Y-43679261D01*
X14094578Y-43846264D01*
X14153188Y-44031104D01*
X14201386Y-44238406D01*
X14236980Y-44464504D01*
X14259420Y-44714037D01*
X14267092Y-44983241D01*
X14244346Y-45435508D01*
X14169088Y-45871114D01*
X14050308Y-46227906D01*
X13896453Y-46511206D01*
X13714292Y-46726659D01*
X13614150Y-46810509D01*
X13508437Y-46879118D01*
X13397127Y-46932832D01*
X13281494Y-46971272D01*
X13159867Y-46994812D01*
X13035131Y-47002641D01*
X12848301Y-46985006D01*
X12620225Y-46909538D01*
X12512739Y-46849020D01*
X12410793Y-46773293D01*
X12313251Y-46680450D01*
X12222667Y-46571675D01*
X12137590Y-46443411D01*
X12061144Y-46298204D01*
X11992252Y-46131187D01*
X11933896Y-45946087D01*
X11885732Y-45737322D01*
X11850185Y-45509331D01*
X11827701Y-45256425D01*
X11820023Y-44983241D01*
X12380072Y-44983241D01*
X12380663Y-45059457D01*
X12392007Y-45313177D01*
X12416684Y-45539109D01*
X12452461Y-45734660D01*
X12498322Y-45905223D01*
X12551480Y-46048375D01*
X12611675Y-46169383D01*
X12675880Y-46266747D01*
X12744396Y-46344611D01*
X12814906Y-46402935D01*
X12887345Y-46443807D01*
X12961398Y-46468115D01*
X13035131Y-46476053D01*
X13050955Y-46475701D01*
X13125529Y-46464562D01*
X13200344Y-46437252D01*
X13275247Y-46392324D01*
X13347985Y-46329297D01*
X13418862Y-46245355D01*
X13484907Y-46140914D01*
X13546009Y-46012287D01*
X13599336Y-45860610D01*
X13644133Y-45682010D01*
X13678024Y-45477847D01*
X13699722Y-45244524D01*
X13707288Y-44983241D01*
X13706524Y-44898770D01*
X13694529Y-44650085D01*
X13669138Y-44428210D01*
X13632346Y-44234355D01*
X13585396Y-44065005D01*
X13530702Y-43921473D01*
X13468975Y-43800046D01*
X13402913Y-43701606D01*
X13332731Y-43622915D01*
X13260787Y-43563929D01*
X13187373Y-43522671D01*
X13113533Y-43498367D01*
X13040749Y-43490429D01*
X13025966Y-43490771D01*
X12953730Y-43502116D01*
X12880367Y-43530068D01*
X12806139Y-43576176D01*
X12733541Y-43640924D01*
X12662915Y-43726571D01*
X12596895Y-43833059D01*
X12536296Y-43962827D01*
X12483444Y-44115595D01*
X12439589Y-44293566D01*
X12406701Y-44496579D01*
X12386287Y-44726426D01*
X12380072Y-44983241D01*
X11820023Y-44983241D01*
X11841919Y-44535198D01*
X11916086Y-44096456D01*
X12033500Y-43738239D01*
X12185637Y-43454660D01*
X12365796Y-43239502D01*
X12464885Y-43155868D01*
X12569615Y-43087425D01*
X12680050Y-43033825D01*
X12794947Y-42995454D01*
X12916182Y-42971914D01*
X13040749Y-42964085D01*
X13233676Y-42983116D01*
G37*
G36*
X15461683Y-43021869D02*
G01*
X15601396Y-43033166D01*
X15733552Y-43059483D01*
X15862580Y-43101726D01*
X15983484Y-43158278D01*
X16102785Y-43232815D01*
X16212951Y-43321273D01*
X16321319Y-43430762D01*
X16419102Y-43553704D01*
X16512800Y-43699964D01*
X16594153Y-43858548D01*
X16667406Y-44039565D01*
X16726569Y-44230524D01*
X16773241Y-44437881D01*
X16804596Y-44651321D01*
X16820701Y-44870359D01*
X16821210Y-45090664D01*
X16777276Y-45514836D01*
X16680474Y-45896860D01*
X16541391Y-46221381D01*
X16369762Y-46483425D01*
X16172261Y-46684316D01*
X15951715Y-46827427D01*
X15707317Y-46914811D01*
X15575136Y-46937318D01*
X15435550Y-46945000D01*
X14601216Y-46945000D01*
X14601216Y-46441127D01*
X15161021Y-46441127D01*
X15435550Y-46441127D01*
X15495660Y-46438552D01*
X15598102Y-46421469D01*
X15693732Y-46389262D01*
X15789334Y-46338704D01*
X15877000Y-46273026D01*
X15965222Y-46183761D01*
X16043625Y-46079184D01*
X16119607Y-45946448D01*
X16183342Y-45799345D01*
X16238846Y-45625652D01*
X16279824Y-45441114D01*
X16306991Y-45241656D01*
X16318535Y-45037625D01*
X16295872Y-44638355D01*
X16220471Y-44285803D01*
X16106377Y-44001649D01*
X15966003Y-43789302D01*
X15806583Y-43642905D01*
X15629256Y-43555617D01*
X15532748Y-43533260D01*
X15429932Y-43525600D01*
X15161021Y-43525600D01*
X15161021Y-46441127D01*
X14601216Y-46441127D01*
X14601216Y-43021482D01*
X15429932Y-43021482D01*
X15461683Y-43021869D01*
G37*
G36*
X17156974Y-45358642D02*
G01*
X17164626Y-45597532D01*
X17186933Y-45816383D01*
X17222065Y-46011723D01*
X17269409Y-46188477D01*
X17326749Y-46343928D01*
X17394064Y-46482154D01*
X17469113Y-46601528D01*
X17552143Y-46704840D01*
X17641514Y-46791680D01*
X17737118Y-46863303D01*
X17944872Y-46962359D01*
X18172881Y-47003630D01*
X18220895Y-47004839D01*
X18342469Y-46996966D01*
X18461101Y-46973118D01*
X18571869Y-46934630D01*
X18678061Y-46880632D01*
X18776487Y-46812633D01*
X18868850Y-46729259D01*
X18953660Y-46631073D01*
X19030855Y-46517191D01*
X19099986Y-46386539D01*
X19159752Y-46239441D01*
X19209963Y-46073087D01*
X19248801Y-45889210D01*
X19275771Y-45683580D01*
X19289115Y-45459142D01*
X19290435Y-45358642D01*
X19290435Y-43029054D01*
X18730386Y-43029054D01*
X18730386Y-45464888D01*
X18722810Y-45665611D01*
X18701040Y-45841860D01*
X18667748Y-45989918D01*
X18623779Y-46116097D01*
X18572707Y-46217214D01*
X18514153Y-46299141D01*
X18451962Y-46360204D01*
X18384970Y-46404455D01*
X18315635Y-46431930D01*
X18243644Y-46444074D01*
X18220895Y-46444790D01*
X18148954Y-46436901D01*
X18078766Y-46412937D01*
X18012649Y-46373320D01*
X17950444Y-46317346D01*
X17840516Y-46151206D01*
X17758563Y-45902765D01*
X17732165Y-45742730D01*
X17718446Y-45560345D01*
X17716778Y-45464888D01*
X17716778Y-43029054D01*
X17156974Y-43029054D01*
X17156974Y-45358642D01*
G37*
G36*
X21757776Y-46259898D02*
G01*
X21658760Y-46333507D01*
X21550765Y-46392456D01*
X21443474Y-46432370D01*
X21328087Y-46457520D01*
X21197727Y-46466772D01*
X21079199Y-46459110D01*
X20967946Y-46436742D01*
X20764678Y-46350062D01*
X20584179Y-46207375D01*
X20426745Y-46005143D01*
X20297743Y-45739723D01*
X20207233Y-45413300D01*
X20167525Y-45040601D01*
X20167267Y-45030380D01*
X20170795Y-44840492D01*
X20189901Y-44652728D01*
X20223941Y-44472482D01*
X20273037Y-44299775D01*
X20333232Y-44145953D01*
X20406803Y-44003582D01*
X20486251Y-43884712D01*
X20576961Y-43779255D01*
X20669826Y-43696012D01*
X20772082Y-43626866D01*
X20875579Y-43576413D01*
X20987163Y-43540431D01*
X21197727Y-43515586D01*
X21318509Y-43523301D01*
X21431913Y-43546049D01*
X21536611Y-43582785D01*
X21633481Y-43633083D01*
X21712835Y-43688754D01*
X22020826Y-43263527D01*
X21897745Y-43184079D01*
X21765283Y-43118066D01*
X21629023Y-43068106D01*
X21484070Y-43032248D01*
X21197727Y-43005851D01*
X21040105Y-43013533D01*
X20890761Y-43036046D01*
X20615031Y-43123190D01*
X20367634Y-43264545D01*
X20147741Y-43460075D01*
X19957439Y-43710959D01*
X19802053Y-44017168D01*
X19689665Y-44374356D01*
X19629477Y-44770811D01*
X19624071Y-45102920D01*
X19640484Y-45311422D01*
X19672479Y-45516647D01*
X19718892Y-45712433D01*
X19780220Y-45901175D01*
X19852792Y-46073265D01*
X19938979Y-46235462D01*
X20032627Y-46377712D01*
X20138342Y-46508269D01*
X20248584Y-46618956D01*
X20369451Y-46716920D01*
X20493520Y-46796802D01*
X20627079Y-46863271D01*
X20764159Y-46913527D01*
X20909966Y-46949648D01*
X21197727Y-46976263D01*
X21354035Y-46968596D01*
X21502138Y-46946192D01*
X21777207Y-46859219D01*
X22025227Y-46717938D01*
X22054531Y-46696360D01*
X21757776Y-46259898D01*
G37*
G36*
X24156485Y-43017819D02*
G01*
X22331014Y-43017819D01*
X22331014Y-43521692D01*
X22963603Y-43521692D01*
X22963603Y-46937672D01*
X23523652Y-46937672D01*
X23523652Y-43521692D01*
X24156485Y-43521692D01*
X24156485Y-43017819D01*
G37*
G36*
X24658648Y-46945000D02*
G01*
X25218697Y-46945000D01*
X25218697Y-43025146D01*
X24658648Y-43025146D01*
X24658648Y-46945000D01*
G37*
G36*
X27079315Y-42983116D02*
G01*
X27195681Y-43014445D01*
X27307991Y-43060811D01*
X27416119Y-43122620D01*
X27518876Y-43199759D01*
X27617123Y-43293913D01*
X27708494Y-43404048D01*
X27794087Y-43533224D01*
X27871077Y-43679261D01*
X27940216Y-43846264D01*
X27998827Y-44031104D01*
X28047024Y-44238406D01*
X28082618Y-44464504D01*
X28105059Y-44714037D01*
X28112731Y-44983241D01*
X28089984Y-45435508D01*
X28014726Y-45871114D01*
X27895946Y-46227906D01*
X27742092Y-46511206D01*
X27559931Y-46726659D01*
X27459789Y-46810509D01*
X27354075Y-46879118D01*
X27242766Y-46932832D01*
X27127133Y-46971272D01*
X27005506Y-46994812D01*
X26880770Y-47002641D01*
X26693940Y-46985006D01*
X26465864Y-46909538D01*
X26358378Y-46849020D01*
X26256431Y-46773293D01*
X26158889Y-46680450D01*
X26068305Y-46571675D01*
X25983228Y-46443411D01*
X25906782Y-46298204D01*
X25837890Y-46131187D01*
X25779534Y-45946087D01*
X25731370Y-45737322D01*
X25695823Y-45509331D01*
X25673340Y-45256425D01*
X25665662Y-44983241D01*
X26225710Y-44983241D01*
X26226301Y-45059457D01*
X26237646Y-45313177D01*
X26262323Y-45539109D01*
X26298099Y-45734660D01*
X26343960Y-45905223D01*
X26397118Y-46048375D01*
X26457314Y-46169383D01*
X26521519Y-46266747D01*
X26590034Y-46344611D01*
X26660545Y-46402935D01*
X26732984Y-46443807D01*
X26807037Y-46468115D01*
X26880770Y-46476053D01*
X26896594Y-46475701D01*
X26971167Y-46464562D01*
X27045982Y-46437252D01*
X27120885Y-46392324D01*
X27193624Y-46329297D01*
X27264501Y-46245355D01*
X27330545Y-46140914D01*
X27391648Y-46012287D01*
X27444975Y-45860610D01*
X27489772Y-45682010D01*
X27523662Y-45477847D01*
X27545360Y-45244524D01*
X27552926Y-44983241D01*
X27552163Y-44898770D01*
X27540167Y-44650085D01*
X27514776Y-44428210D01*
X27477985Y-44234355D01*
X27431035Y-44065005D01*
X27376341Y-43921473D01*
X27314614Y-43800046D01*
X27248552Y-43701606D01*
X27178370Y-43622915D01*
X27106426Y-43563929D01*
X27033012Y-43522671D01*
X26959172Y-43498367D01*
X26886387Y-43490429D01*
X26871605Y-43490771D01*
X26799369Y-43502116D01*
X26726005Y-43530068D01*
X26651777Y-43576176D01*
X26579180Y-43640924D01*
X26508554Y-43726571D01*
X26442534Y-43833059D01*
X26381934Y-43962827D01*
X26329083Y-44115595D01*
X26285228Y-44293566D01*
X26252340Y-44496579D01*
X26231925Y-44726426D01*
X26225710Y-44983241D01*
X25665662Y-44983241D01*
X25687558Y-44535198D01*
X25761725Y-44096456D01*
X25879138Y-43738239D01*
X26031276Y-43454660D01*
X26211434Y-43239502D01*
X26310523Y-43155868D01*
X26415253Y-43087425D01*
X26525688Y-43033825D01*
X26640586Y-42995454D01*
X26761820Y-42971914D01*
X26886387Y-42964085D01*
X27079315Y-42983116D01*
G37*
G36*
X29717895Y-43025146D02*
G01*
X29717895Y-45069214D01*
X28547483Y-43025146D01*
X28446855Y-43025146D01*
X28446855Y-46945000D01*
X29006659Y-46945000D01*
X29006659Y-44901175D01*
X30177071Y-46945000D01*
X30277943Y-46945000D01*
X30277943Y-43025146D01*
X29717895Y-43025146D01*
G37*
G36*
X34145773Y-46259898D02*
G01*
X34046758Y-46333507D01*
X33938762Y-46392456D01*
X33831472Y-46432370D01*
X33716084Y-46457520D01*
X33585724Y-46466772D01*
X33467196Y-46459110D01*
X33355944Y-46436742D01*
X33152675Y-46350062D01*
X32972176Y-46207375D01*
X32814742Y-46005143D01*
X32685741Y-45739723D01*
X32595230Y-45413300D01*
X32555522Y-45040601D01*
X32555264Y-45030380D01*
X32558792Y-44840492D01*
X32577898Y-44652728D01*
X32611938Y-44472482D01*
X32661034Y-44299775D01*
X32721229Y-44145953D01*
X32794800Y-44003582D01*
X32874249Y-43884712D01*
X32964958Y-43779255D01*
X33057824Y-43696012D01*
X33160079Y-43626866D01*
X33263577Y-43576413D01*
X33375161Y-43540431D01*
X33585724Y-43515586D01*
X33706506Y-43523301D01*
X33819911Y-43546049D01*
X33924608Y-43582785D01*
X34021478Y-43633083D01*
X34100833Y-43688754D01*
X34408823Y-43263527D01*
X34285742Y-43184079D01*
X34153280Y-43118066D01*
X34017020Y-43068106D01*
X33872067Y-43032248D01*
X33585724Y-43005851D01*
X33428102Y-43013533D01*
X33278758Y-43036046D01*
X33003028Y-43123190D01*
X32755631Y-43264545D01*
X32535739Y-43460075D01*
X32345436Y-43710959D01*
X32190050Y-44017168D01*
X32077662Y-44374356D01*
X32017474Y-44770811D01*
X32012068Y-45102920D01*
X32028481Y-45311422D01*
X32060476Y-45516647D01*
X32106889Y-45712433D01*
X32168217Y-45901175D01*
X32240790Y-46073265D01*
X32326976Y-46235462D01*
X32420624Y-46377712D01*
X32526339Y-46508269D01*
X32636581Y-46618956D01*
X32757448Y-46716920D01*
X32881518Y-46796802D01*
X33015077Y-46863271D01*
X33152156Y-46913527D01*
X33297963Y-46949648D01*
X33585724Y-46976263D01*
X33742032Y-46968596D01*
X33890135Y-46946192D01*
X34165204Y-46859219D01*
X34413224Y-46717938D01*
X34442528Y-46696360D01*
X34145773Y-46259898D01*
G37*
G36*
X35911136Y-42983116D02*
G01*
X36027502Y-43014445D01*
X36139812Y-43060811D01*
X36247940Y-43122620D01*
X36350698Y-43199759D01*
X36448945Y-43293913D01*
X36540315Y-43404048D01*
X36625908Y-43533224D01*
X36702898Y-43679261D01*
X36772038Y-43846264D01*
X36830648Y-44031104D01*
X36878846Y-44238406D01*
X36914440Y-44464504D01*
X36936880Y-44714037D01*
X36944552Y-44983241D01*
X36921806Y-45435508D01*
X36846548Y-45871114D01*
X36727768Y-46227906D01*
X36573913Y-46511206D01*
X36391752Y-46726659D01*
X36291610Y-46810509D01*
X36185897Y-46879118D01*
X36074587Y-46932832D01*
X35958954Y-46971272D01*
X35837327Y-46994812D01*
X35712591Y-47002641D01*
X35525761Y-46985006D01*
X35297685Y-46909538D01*
X35190199Y-46849020D01*
X35088253Y-46773293D01*
X34990710Y-46680450D01*
X34900127Y-46571675D01*
X34815050Y-46443411D01*
X34738604Y-46298204D01*
X34669712Y-46131187D01*
X34611355Y-45946087D01*
X34563192Y-45737322D01*
X34527645Y-45509331D01*
X34505161Y-45256425D01*
X34497483Y-44983241D01*
X35057532Y-44983241D01*
X35058123Y-45059457D01*
X35069467Y-45313177D01*
X35094144Y-45539109D01*
X35129921Y-45734660D01*
X35175782Y-45905223D01*
X35228939Y-46048375D01*
X35289135Y-46169383D01*
X35353340Y-46266747D01*
X35421856Y-46344611D01*
X35492366Y-46402935D01*
X35564805Y-46443807D01*
X35638858Y-46468115D01*
X35712591Y-46476053D01*
X35728415Y-46475701D01*
X35802989Y-46464562D01*
X35877804Y-46437252D01*
X35952707Y-46392324D01*
X36025445Y-46329297D01*
X36096322Y-46245355D01*
X36162367Y-46140914D01*
X36223469Y-46012287D01*
X36276796Y-45860610D01*
X36321593Y-45682010D01*
X36355484Y-45477847D01*
X36377182Y-45244524D01*
X36384747Y-44983241D01*
X36383984Y-44898770D01*
X36371988Y-44650085D01*
X36346597Y-44428210D01*
X36309806Y-44234355D01*
X36262856Y-44065005D01*
X36208162Y-43921473D01*
X36146435Y-43800046D01*
X36080373Y-43701606D01*
X36010191Y-43622915D01*
X35938247Y-43563929D01*
X35864833Y-43522671D01*
X35790993Y-43498367D01*
X35718209Y-43490429D01*
X35703426Y-43490771D01*
X35631190Y-43502116D01*
X35557826Y-43530068D01*
X35483599Y-43576176D01*
X35411001Y-43640924D01*
X35340375Y-43726571D01*
X35274355Y-43833059D01*
X35213756Y-43962827D01*
X35160904Y-44115595D01*
X35117049Y-44293566D01*
X35084161Y-44496579D01*
X35063746Y-44726426D01*
X35057532Y-44983241D01*
X34497483Y-44983241D01*
X34519379Y-44535198D01*
X34593546Y-44096456D01*
X34710959Y-43738239D01*
X34863097Y-43454660D01*
X35043255Y-43239502D01*
X35142344Y-43155868D01*
X35247075Y-43087425D01*
X35357510Y-43033825D01*
X35472407Y-42995454D01*
X35593642Y-42971914D01*
X35718209Y-42964085D01*
X35911136Y-42983116D01*
G37*
G36*
X37278676Y-46413039D02*
G01*
X37278676Y-46945000D01*
X37810637Y-46945000D01*
X37810637Y-46413039D01*
X37278676Y-46413039D01*
G37*
G36*
X119879393Y-43037441D02*
G01*
X118738474Y-43037441D01*
X118738474Y-43569585D01*
X119249552Y-43569585D01*
X119249552Y-44622577D01*
X119132501Y-44669770D01*
X119007373Y-44697622D01*
X118878608Y-44706230D01*
X118730325Y-44696653D01*
X118591151Y-44668690D01*
X118336938Y-44560348D01*
X118111285Y-44382036D01*
X117914544Y-44129354D01*
X117753396Y-43797742D01*
X117640378Y-43389861D01*
X117590842Y-42923947D01*
X117590533Y-42911656D01*
X117594943Y-42674214D01*
X117618825Y-42439418D01*
X117661376Y-42214006D01*
X117722749Y-41998015D01*
X117797995Y-41805639D01*
X117889961Y-41627580D01*
X117989269Y-41478918D01*
X118102654Y-41347027D01*
X118218722Y-41242925D01*
X118346526Y-41156448D01*
X118475869Y-41093350D01*
X118615316Y-41048345D01*
X118878608Y-41017247D01*
X119029586Y-41026895D01*
X119171341Y-41055348D01*
X119302113Y-41101274D01*
X119423116Y-41164173D01*
X119522494Y-41234013D01*
X119907481Y-40702174D01*
X119753630Y-40602864D01*
X119588053Y-40520347D01*
X119417728Y-40457898D01*
X119236537Y-40413075D01*
X118878608Y-40380079D01*
X118681624Y-40389682D01*
X118494983Y-40417823D01*
X118150384Y-40526755D01*
X117841178Y-40703461D01*
X117566328Y-40947901D01*
X117328442Y-41261559D01*
X117134177Y-41644410D01*
X116993639Y-42091032D01*
X116918335Y-42586789D01*
X116911538Y-43002636D01*
X116932053Y-43263235D01*
X116972044Y-43519703D01*
X117030050Y-43764328D01*
X117106694Y-44000127D01*
X117197390Y-44215107D01*
X117305099Y-44417714D01*
X117422142Y-44595408D01*
X117554266Y-44758489D01*
X117692066Y-44896761D01*
X117843147Y-45019134D01*
X117998257Y-45118929D01*
X118165234Y-45201964D01*
X118336639Y-45264750D01*
X118518960Y-45309870D01*
X118878608Y-45343093D01*
X119211787Y-45305506D01*
X119548759Y-45191144D01*
X119867063Y-45002458D01*
X119879393Y-44993215D01*
X119879393Y-43037441D01*
G37*
G36*
X123257272Y-45303404D02*
G01*
X122550494Y-45303404D01*
X122354489Y-44659213D01*
X121143350Y-44659213D01*
X120961389Y-45303404D01*
X120254306Y-45303404D01*
X120620164Y-44029372D01*
X121325311Y-44029372D01*
X122158484Y-44029372D01*
X121724343Y-42608489D01*
X121325311Y-44029372D01*
X120620164Y-44029372D01*
X121661450Y-40403282D01*
X121787541Y-40403282D01*
X123257272Y-45303404D01*
G37*
G36*
X126193682Y-40404198D02*
G01*
X125311660Y-42259222D01*
X124443682Y-40404198D01*
X123743926Y-40404198D01*
X123743926Y-45304015D01*
X124443682Y-45304015D01*
X124443682Y-42049173D01*
X125311660Y-43610190D01*
X126193682Y-42035129D01*
X126193682Y-45304015D01*
X126893743Y-45304015D01*
X126893743Y-40404198D01*
X126193682Y-40404198D01*
G37*
G36*
X129446386Y-41029765D02*
G01*
X129446386Y-40399618D01*
X127451532Y-40399618D01*
X127451532Y-45304015D01*
X129446386Y-45304015D01*
X129446386Y-44674173D01*
X128151288Y-44674173D01*
X128151288Y-43569890D01*
X129061398Y-43569890D01*
X129061398Y-42939744D01*
X128151288Y-42939744D01*
X128151288Y-41029765D01*
X129446386Y-41029765D01*
G37*
G36*
X131079052Y-40432709D02*
G01*
X131263398Y-40476914D01*
X131434374Y-40537963D01*
X131596873Y-40617322D01*
X131745120Y-40711889D01*
X131884768Y-40825412D01*
X132008862Y-40952419D01*
X132122334Y-41098425D01*
X132218685Y-41255685D01*
X132300858Y-41429515D01*
X132364449Y-41611491D01*
X132410274Y-41803920D01*
X132436650Y-42000478D01*
X132431139Y-42396373D01*
X132351096Y-42772902D01*
X132204830Y-43110185D01*
X132001625Y-43396569D01*
X131748464Y-43626452D01*
X131448659Y-43796711D01*
X131281819Y-43858252D01*
X131102056Y-43903641D01*
X130910454Y-43931567D01*
X130706068Y-43941139D01*
X130706068Y-45299130D01*
X130006312Y-45299130D01*
X130006312Y-43310993D01*
X130706068Y-43310993D01*
X131004646Y-43276611D01*
X131146483Y-43231671D01*
X131274664Y-43170361D01*
X131394868Y-43089936D01*
X131499932Y-42995132D01*
X131595046Y-42880710D01*
X131673040Y-42754539D01*
X131736545Y-42611863D01*
X131781153Y-42461478D01*
X131807133Y-42303453D01*
X131813580Y-42143077D01*
X131769717Y-41833376D01*
X131658592Y-41559768D01*
X131491661Y-41337127D01*
X131276652Y-41171529D01*
X131015611Y-41066875D01*
X130867165Y-41039288D01*
X130706068Y-41029765D01*
X130706068Y-43310993D01*
X130006312Y-43310993D01*
X130006312Y-40399618D01*
X130706068Y-40399618D01*
X131079052Y-40432709D01*
G37*
G36*
X135234941Y-45303404D02*
G01*
X134528163Y-45303404D01*
X134332159Y-44659213D01*
X133121019Y-44659213D01*
X132939058Y-45303404D01*
X132231975Y-45303404D01*
X132597833Y-44029372D01*
X133302980Y-44029372D01*
X134136154Y-44029372D01*
X133702012Y-42608489D01*
X133302980Y-44029372D01*
X132597833Y-44029372D01*
X133639120Y-40403282D01*
X133765210Y-40403282D01*
X135234941Y-45303404D01*
G37*
G36*
X136797179Y-40400102D02*
G01*
X136971819Y-40414223D01*
X137137015Y-40447118D01*
X137298300Y-40499923D01*
X137449430Y-40570612D01*
X137598555Y-40663784D01*
X137736264Y-40774356D01*
X137871723Y-40911218D01*
X137993952Y-41064895D01*
X138111075Y-41247720D01*
X138212766Y-41445950D01*
X138304332Y-41672222D01*
X138378286Y-41910921D01*
X138436626Y-42170116D01*
X138475819Y-42436916D01*
X138495951Y-42710714D01*
X138496587Y-42986096D01*
X138441670Y-43516310D01*
X138320668Y-43993840D01*
X138146814Y-44399492D01*
X137932277Y-44727047D01*
X137685401Y-44978160D01*
X137409718Y-45157049D01*
X137104221Y-45266278D01*
X136938995Y-45294413D01*
X136764512Y-45304015D01*
X135721595Y-45304015D01*
X135721595Y-44674173D01*
X136421351Y-44674173D01*
X136764512Y-44674173D01*
X136839649Y-44670955D01*
X136967702Y-44649602D01*
X137087240Y-44609343D01*
X137206742Y-44546145D01*
X137316324Y-44464047D01*
X137426602Y-44352466D01*
X137524606Y-44221746D01*
X137619583Y-44055825D01*
X137699252Y-43871946D01*
X137768633Y-43654830D01*
X137819855Y-43424158D01*
X137853814Y-43174835D01*
X137868243Y-42919796D01*
X137839915Y-42420709D01*
X137745664Y-41980019D01*
X137603045Y-41624826D01*
X137427579Y-41359393D01*
X137228303Y-41176397D01*
X137006645Y-41067286D01*
X136886009Y-41039340D01*
X136757490Y-41029765D01*
X136421351Y-41029765D01*
X136421351Y-44674173D01*
X135721595Y-44674173D01*
X135721595Y-40399618D01*
X136757490Y-40399618D01*
X136797179Y-40400102D01*
G37*
G36*
X142128085Y-45304015D02*
G01*
X143597816Y-40404198D01*
X142891039Y-40404198D01*
X142064887Y-43099112D01*
X141301934Y-40404198D01*
X140594851Y-40404198D01*
X142001995Y-45304015D01*
X142128085Y-45304015D01*
G37*
G36*
X145834470Y-41476118D02*
G01*
X145824900Y-41292382D01*
X145796991Y-41124352D01*
X145752880Y-40974731D01*
X145693368Y-40840565D01*
X145620329Y-40723016D01*
X145534393Y-40620928D01*
X145327067Y-40463050D01*
X145075472Y-40368120D01*
X144826358Y-40341000D01*
X144562173Y-40378231D01*
X144327279Y-40486131D01*
X144225696Y-40564235D01*
X144138154Y-40655930D01*
X144066383Y-40759299D01*
X144011609Y-40873046D01*
X143975952Y-40992766D01*
X143959407Y-41119451D01*
X143958380Y-41160435D01*
X144441370Y-41405899D01*
X144450947Y-41302746D01*
X144478907Y-41209186D01*
X144522779Y-41129527D01*
X144581964Y-41063612D01*
X144651770Y-41015605D01*
X144733623Y-40984189D01*
X144840402Y-40971146D01*
X144935107Y-40980774D01*
X145015659Y-41009090D01*
X145129620Y-41109723D01*
X145198616Y-41276406D01*
X145218368Y-41476118D01*
X145181923Y-41673753D01*
X145045696Y-41984891D01*
X144772519Y-42467125D01*
X144488139Y-42963672D01*
X144220670Y-43506173D01*
X144109518Y-43790371D01*
X144022081Y-44080913D01*
X143964855Y-44376085D01*
X143944336Y-44674173D01*
X143944336Y-45304015D01*
X145820426Y-45304015D01*
X145820426Y-44674173D01*
X144581199Y-44674173D01*
X144617622Y-44335947D01*
X144732756Y-43956042D01*
X144944886Y-43500993D01*
X145231292Y-42995563D01*
X145454340Y-42606857D01*
X145647371Y-42223594D01*
X145783157Y-41846455D01*
X145821075Y-41660394D01*
X145834470Y-41476118D01*
G37*
X47500000Y-11668750D02*
X102500000Y-11668750D01*
X102500000Y-51668750D01*
X47500000Y-51668750D01*
X47500000Y-11668750D01*
D11*
X45097036Y1093645D02*
X45097036Y378010D01*
X45097036Y378010D02*
X45049327Y234883D01*
X45049327Y234883D02*
X44953909Y139465D01*
X44953909Y139465D02*
X44810782Y91755D01*
X44810782Y91755D02*
X44715364Y91755D01*
X46098926Y91755D02*
X45526418Y91755D01*
X45812672Y91755D02*
X45812672Y1093645D01*
X45812672Y1093645D02*
X45717254Y950518D01*
X45717254Y950518D02*
X45621836Y855100D01*
X45621836Y855100D02*
X45526418Y807391D01*
D12*
X73678572Y-30918507D02*
X73535715Y-30847078D01*
X73535715Y-30847078D02*
X73321429Y-30847078D01*
X73321429Y-30847078D02*
X73107143Y-30918507D01*
X73107143Y-30918507D02*
X72964286Y-31061364D01*
X72964286Y-31061364D02*
X72892857Y-31204221D01*
X72892857Y-31204221D02*
X72821429Y-31489935D01*
X72821429Y-31489935D02*
X72821429Y-31704221D01*
X72821429Y-31704221D02*
X72892857Y-31989935D01*
X72892857Y-31989935D02*
X72964286Y-32132792D01*
X72964286Y-32132792D02*
X73107143Y-32275650D01*
X73107143Y-32275650D02*
X73321429Y-32347078D01*
X73321429Y-32347078D02*
X73464286Y-32347078D01*
X73464286Y-32347078D02*
X73678572Y-32275650D01*
X73678572Y-32275650D02*
X73750000Y-32204221D01*
X73750000Y-32204221D02*
X73750000Y-31704221D01*
X73750000Y-31704221D02*
X73464286Y-31704221D01*
X74607143Y-30847078D02*
X74607143Y-31204221D01*
X74250000Y-31061364D02*
X74607143Y-31204221D01*
X74607143Y-31204221D02*
X74964286Y-31061364D01*
X74392857Y-31489935D02*
X74607143Y-31204221D01*
X74607143Y-31204221D02*
X74821429Y-31489935D01*
X75750000Y-30847078D02*
X75750000Y-31204221D01*
X75392857Y-31061364D02*
X75750000Y-31204221D01*
X75750000Y-31204221D02*
X76107143Y-31061364D01*
X75535714Y-31489935D02*
X75750000Y-31204221D01*
X75750000Y-31204221D02*
X75964286Y-31489935D01*
X76892857Y-30847078D02*
X76892857Y-31204221D01*
X76535714Y-31061364D02*
X76892857Y-31204221D01*
X76892857Y-31204221D02*
X77250000Y-31061364D01*
X76678571Y-31489935D02*
X76892857Y-31204221D01*
X76892857Y-31204221D02*
X77107143Y-31489935D01*
D11*
X118535714Y-14788152D02*
X118773809Y-15454819D01*
X119011904Y-14788152D02*
X118773809Y-15454819D01*
X118773809Y-15454819D02*
X118678571Y-15692914D01*
X118678571Y-15692914D02*
X118630952Y-15740533D01*
X118630952Y-15740533D02*
X118535714Y-15788152D01*
X119916666Y-15454819D02*
X119345238Y-15454819D01*
X119630952Y-15454819D02*
X119630952Y-14454819D01*
X119630952Y-14454819D02*
X119535714Y-14597676D01*
X119535714Y-14597676D02*
X119440476Y-14692914D01*
X119440476Y-14692914D02*
X119345238Y-14740533D01*
X128559524Y-25454819D02*
X128559524Y-24454819D01*
X128559524Y-24835771D02*
X128654762Y-24788152D01*
X128654762Y-24788152D02*
X128845238Y-24788152D01*
X128845238Y-24788152D02*
X128940476Y-24835771D01*
X128940476Y-24835771D02*
X128988095Y-24883390D01*
X128988095Y-24883390D02*
X129035714Y-24978628D01*
X129035714Y-24978628D02*
X129035714Y-25264342D01*
X129035714Y-25264342D02*
X128988095Y-25359580D01*
X128988095Y-25359580D02*
X128940476Y-25407200D01*
X128940476Y-25407200D02*
X128845238Y-25454819D01*
X128845238Y-25454819D02*
X128654762Y-25454819D01*
X128654762Y-25454819D02*
X128559524Y-25407200D01*
X129988095Y-25454819D02*
X129416667Y-25454819D01*
X129702381Y-25454819D02*
X129702381Y-24454819D01*
X129702381Y-24454819D02*
X129607143Y-24597676D01*
X129607143Y-24597676D02*
X129511905Y-24692914D01*
X129511905Y-24692914D02*
X129416667Y-24740533D01*
X128511905Y-5454819D02*
X129035714Y-4788152D01*
X128511905Y-4788152D02*
X129035714Y-5454819D01*
X129940476Y-5454819D02*
X129369048Y-5454819D01*
X129654762Y-5454819D02*
X129654762Y-4454819D01*
X129654762Y-4454819D02*
X129559524Y-4597676D01*
X129559524Y-4597676D02*
X129464286Y-4692914D01*
X129464286Y-4692914D02*
X129369048Y-4740533D01*
X29654761Y-15454819D02*
X29321428Y-14978628D01*
X29083333Y-15454819D02*
X29083333Y-14454819D01*
X29083333Y-14454819D02*
X29464285Y-14454819D01*
X29464285Y-14454819D02*
X29559523Y-14502438D01*
X29559523Y-14502438D02*
X29607142Y-14550057D01*
X29607142Y-14550057D02*
X29654761Y-14645295D01*
X29654761Y-14645295D02*
X29654761Y-14788152D01*
X29654761Y-14788152D02*
X29607142Y-14883390D01*
X29607142Y-14883390D02*
X29559523Y-14931009D01*
X29559523Y-14931009D02*
X29464285Y-14978628D01*
X29464285Y-14978628D02*
X29083333Y-14978628D01*
X30083333Y-15454819D02*
X30083333Y-14788152D01*
X30083333Y-14454819D02*
X30035714Y-14502438D01*
X30035714Y-14502438D02*
X30083333Y-14550057D01*
X30083333Y-14550057D02*
X30130952Y-14502438D01*
X30130952Y-14502438D02*
X30083333Y-14454819D01*
X30083333Y-14454819D02*
X30083333Y-14550057D01*
X30988094Y-14788152D02*
X30988094Y-15597676D01*
X30988094Y-15597676D02*
X30940475Y-15692914D01*
X30940475Y-15692914D02*
X30892856Y-15740533D01*
X30892856Y-15740533D02*
X30797618Y-15788152D01*
X30797618Y-15788152D02*
X30654761Y-15788152D01*
X30654761Y-15788152D02*
X30559523Y-15740533D01*
X30988094Y-15407200D02*
X30892856Y-15454819D01*
X30892856Y-15454819D02*
X30702380Y-15454819D01*
X30702380Y-15454819D02*
X30607142Y-15407200D01*
X30607142Y-15407200D02*
X30559523Y-15359580D01*
X30559523Y-15359580D02*
X30511904Y-15264342D01*
X30511904Y-15264342D02*
X30511904Y-14978628D01*
X30511904Y-14978628D02*
X30559523Y-14883390D01*
X30559523Y-14883390D02*
X30607142Y-14835771D01*
X30607142Y-14835771D02*
X30702380Y-14788152D01*
X30702380Y-14788152D02*
X30892856Y-14788152D01*
X30892856Y-14788152D02*
X30988094Y-14835771D01*
X31464285Y-15454819D02*
X31464285Y-14454819D01*
X31892856Y-15454819D02*
X31892856Y-14931009D01*
X31892856Y-14931009D02*
X31845237Y-14835771D01*
X31845237Y-14835771D02*
X31749999Y-14788152D01*
X31749999Y-14788152D02*
X31607142Y-14788152D01*
X31607142Y-14788152D02*
X31511904Y-14835771D01*
X31511904Y-14835771D02*
X31464285Y-14883390D01*
X32226190Y-14788152D02*
X32607142Y-14788152D01*
X32369047Y-14454819D02*
X32369047Y-15311961D01*
X32369047Y-15311961D02*
X32416666Y-15407200D01*
X32416666Y-15407200D02*
X32511904Y-15454819D01*
X32511904Y-15454819D02*
X32607142Y-15454819D01*
X33464285Y-15454819D02*
X32892857Y-15454819D01*
X33178571Y-15454819D02*
X33178571Y-14454819D01*
X33178571Y-14454819D02*
X33083333Y-14597676D01*
X33083333Y-14597676D02*
X32988095Y-14692914D01*
X32988095Y-14692914D02*
X32892857Y-14740533D01*
X144238095Y-2004819D02*
X144238095Y-1004819D01*
X144238095Y-1481009D02*
X144809523Y-1481009D01*
X144809523Y-2004819D02*
X144809523Y-1004819D01*
X145809523Y-2004819D02*
X145238095Y-2004819D01*
X145523809Y-2004819D02*
X145523809Y-1004819D01*
X145523809Y-1004819D02*
X145428571Y-1147676D01*
X145428571Y-1147676D02*
X145333333Y-1242914D01*
X145333333Y-1242914D02*
X145238095Y-1290533D01*
X4238095Y-2004819D02*
X4238095Y-1004819D01*
X4238095Y-1481009D02*
X4809523Y-1481009D01*
X4809523Y-2004819D02*
X4809523Y-1004819D01*
X5238095Y-1100057D02*
X5285714Y-1052438D01*
X5285714Y-1052438D02*
X5380952Y-1004819D01*
X5380952Y-1004819D02*
X5619047Y-1004819D01*
X5619047Y-1004819D02*
X5714285Y-1052438D01*
X5714285Y-1052438D02*
X5761904Y-1100057D01*
X5761904Y-1100057D02*
X5809523Y-1195295D01*
X5809523Y-1195295D02*
X5809523Y-1290533D01*
X5809523Y-1290533D02*
X5761904Y-1433390D01*
X5761904Y-1433390D02*
X5190476Y-2004819D01*
X5190476Y-2004819D02*
X5809523Y-2004819D01*
X138988095Y-15454819D02*
X138988095Y-14931009D01*
X138988095Y-14931009D02*
X138940476Y-14835771D01*
X138940476Y-14835771D02*
X138845238Y-14788152D01*
X138845238Y-14788152D02*
X138654762Y-14788152D01*
X138654762Y-14788152D02*
X138559524Y-14835771D01*
X138988095Y-15407200D02*
X138892857Y-15454819D01*
X138892857Y-15454819D02*
X138654762Y-15454819D01*
X138654762Y-15454819D02*
X138559524Y-15407200D01*
X138559524Y-15407200D02*
X138511905Y-15311961D01*
X138511905Y-15311961D02*
X138511905Y-15216723D01*
X138511905Y-15216723D02*
X138559524Y-15121485D01*
X138559524Y-15121485D02*
X138654762Y-15073866D01*
X138654762Y-15073866D02*
X138892857Y-15073866D01*
X138892857Y-15073866D02*
X138988095Y-15026247D01*
X139988095Y-15454819D02*
X139416667Y-15454819D01*
X139702381Y-15454819D02*
X139702381Y-14454819D01*
X139702381Y-14454819D02*
X139607143Y-14597676D01*
X139607143Y-14597676D02*
X139511905Y-14692914D01*
X139511905Y-14692914D02*
X139416667Y-14740533D01*
X19083333Y-25454819D02*
X19083333Y-24454819D01*
X19083333Y-24454819D02*
X19321428Y-24454819D01*
X19321428Y-24454819D02*
X19464285Y-24502438D01*
X19464285Y-24502438D02*
X19559523Y-24597676D01*
X19559523Y-24597676D02*
X19607142Y-24692914D01*
X19607142Y-24692914D02*
X19654761Y-24883390D01*
X19654761Y-24883390D02*
X19654761Y-25026247D01*
X19654761Y-25026247D02*
X19607142Y-25216723D01*
X19607142Y-25216723D02*
X19559523Y-25311961D01*
X19559523Y-25311961D02*
X19464285Y-25407200D01*
X19464285Y-25407200D02*
X19321428Y-25454819D01*
X19321428Y-25454819D02*
X19083333Y-25454819D01*
X20226190Y-25454819D02*
X20130952Y-25407200D01*
X20130952Y-25407200D02*
X20083333Y-25359580D01*
X20083333Y-25359580D02*
X20035714Y-25264342D01*
X20035714Y-25264342D02*
X20035714Y-24978628D01*
X20035714Y-24978628D02*
X20083333Y-24883390D01*
X20083333Y-24883390D02*
X20130952Y-24835771D01*
X20130952Y-24835771D02*
X20226190Y-24788152D01*
X20226190Y-24788152D02*
X20369047Y-24788152D01*
X20369047Y-24788152D02*
X20464285Y-24835771D01*
X20464285Y-24835771D02*
X20511904Y-24883390D01*
X20511904Y-24883390D02*
X20559523Y-24978628D01*
X20559523Y-24978628D02*
X20559523Y-25264342D01*
X20559523Y-25264342D02*
X20511904Y-25359580D01*
X20511904Y-25359580D02*
X20464285Y-25407200D01*
X20464285Y-25407200D02*
X20369047Y-25454819D01*
X20369047Y-25454819D02*
X20226190Y-25454819D01*
X20892857Y-24788152D02*
X21083333Y-25454819D01*
X21083333Y-25454819D02*
X21273809Y-24978628D01*
X21273809Y-24978628D02*
X21464285Y-25454819D01*
X21464285Y-25454819D02*
X21654761Y-24788152D01*
X22035714Y-24788152D02*
X22035714Y-25454819D01*
X22035714Y-24883390D02*
X22083333Y-24835771D01*
X22083333Y-24835771D02*
X22178571Y-24788152D01*
X22178571Y-24788152D02*
X22321428Y-24788152D01*
X22321428Y-24788152D02*
X22416666Y-24835771D01*
X22416666Y-24835771D02*
X22464285Y-24931009D01*
X22464285Y-24931009D02*
X22464285Y-25454819D01*
X23464285Y-25454819D02*
X22892857Y-25454819D01*
X23178571Y-25454819D02*
X23178571Y-24454819D01*
X23178571Y-24454819D02*
X23083333Y-24597676D01*
X23083333Y-24597676D02*
X22988095Y-24692914D01*
X22988095Y-24692914D02*
X22892857Y-24740533D01*
X16776166Y-52311400D02*
X16867595Y-52341876D01*
X16867595Y-52341876D02*
X17019976Y-52341876D01*
X17019976Y-52341876D02*
X17080928Y-52311400D01*
X17080928Y-52311400D02*
X17111404Y-52280923D01*
X17111404Y-52280923D02*
X17141881Y-52219971D01*
X17141881Y-52219971D02*
X17141881Y-52159019D01*
X17141881Y-52159019D02*
X17111404Y-52098066D01*
X17111404Y-52098066D02*
X17080928Y-52067590D01*
X17080928Y-52067590D02*
X17019976Y-52037114D01*
X17019976Y-52037114D02*
X16898071Y-52006638D01*
X16898071Y-52006638D02*
X16837119Y-51976161D01*
X16837119Y-51976161D02*
X16806642Y-51945685D01*
X16806642Y-51945685D02*
X16776166Y-51884733D01*
X16776166Y-51884733D02*
X16776166Y-51823780D01*
X16776166Y-51823780D02*
X16806642Y-51762828D01*
X16806642Y-51762828D02*
X16837119Y-51732352D01*
X16837119Y-51732352D02*
X16898071Y-51701876D01*
X16898071Y-51701876D02*
X17050452Y-51701876D01*
X17050452Y-51701876D02*
X17141881Y-51732352D01*
X17355214Y-51701876D02*
X17507595Y-52341876D01*
X17507595Y-52341876D02*
X17629500Y-51884733D01*
X17629500Y-51884733D02*
X17751405Y-52341876D01*
X17751405Y-52341876D02*
X17903786Y-51701876D01*
X18482834Y-52341876D02*
X18117119Y-52341876D01*
X18299976Y-52341876D02*
X18299976Y-51701876D01*
X18299976Y-51701876D02*
X18239024Y-51793304D01*
X18239024Y-51793304D02*
X18178072Y-51854257D01*
X18178072Y-51854257D02*
X18117119Y-51884733D01*
X10083332Y-15454819D02*
X9607142Y-15454819D01*
X9607142Y-15454819D02*
X9607142Y-14454819D01*
X10797618Y-15407200D02*
X10702380Y-15454819D01*
X10702380Y-15454819D02*
X10511904Y-15454819D01*
X10511904Y-15454819D02*
X10416666Y-15407200D01*
X10416666Y-15407200D02*
X10369047Y-15311961D01*
X10369047Y-15311961D02*
X10369047Y-14931009D01*
X10369047Y-14931009D02*
X10416666Y-14835771D01*
X10416666Y-14835771D02*
X10511904Y-14788152D01*
X10511904Y-14788152D02*
X10702380Y-14788152D01*
X10702380Y-14788152D02*
X10797618Y-14835771D01*
X10797618Y-14835771D02*
X10845237Y-14931009D01*
X10845237Y-14931009D02*
X10845237Y-15026247D01*
X10845237Y-15026247D02*
X10369047Y-15121485D01*
X11130952Y-14788152D02*
X11511904Y-14788152D01*
X11273809Y-15454819D02*
X11273809Y-14597676D01*
X11273809Y-14597676D02*
X11321428Y-14502438D01*
X11321428Y-14502438D02*
X11416666Y-14454819D01*
X11416666Y-14454819D02*
X11511904Y-14454819D01*
X11702381Y-14788152D02*
X12083333Y-14788152D01*
X11845238Y-14454819D02*
X11845238Y-15311961D01*
X11845238Y-15311961D02*
X11892857Y-15407200D01*
X11892857Y-15407200D02*
X11988095Y-15454819D01*
X11988095Y-15454819D02*
X12083333Y-15454819D01*
X12940476Y-15454819D02*
X12369048Y-15454819D01*
X12654762Y-15454819D02*
X12654762Y-14454819D01*
X12654762Y-14454819D02*
X12559524Y-14597676D01*
X12559524Y-14597676D02*
X12464286Y-14692914D01*
X12464286Y-14692914D02*
X12369048Y-14740533D01*
X20035714Y-4454819D02*
X20035714Y-5264342D01*
X20035714Y-5264342D02*
X20083333Y-5359580D01*
X20083333Y-5359580D02*
X20130952Y-5407200D01*
X20130952Y-5407200D02*
X20226190Y-5454819D01*
X20226190Y-5454819D02*
X20416666Y-5454819D01*
X20416666Y-5454819D02*
X20511904Y-5407200D01*
X20511904Y-5407200D02*
X20559523Y-5359580D01*
X20559523Y-5359580D02*
X20607142Y-5264342D01*
X20607142Y-5264342D02*
X20607142Y-4454819D01*
X21083333Y-4788152D02*
X21083333Y-5788152D01*
X21083333Y-4835771D02*
X21178571Y-4788152D01*
X21178571Y-4788152D02*
X21369047Y-4788152D01*
X21369047Y-4788152D02*
X21464285Y-4835771D01*
X21464285Y-4835771D02*
X21511904Y-4883390D01*
X21511904Y-4883390D02*
X21559523Y-4978628D01*
X21559523Y-4978628D02*
X21559523Y-5264342D01*
X21559523Y-5264342D02*
X21511904Y-5359580D01*
X21511904Y-5359580D02*
X21464285Y-5407200D01*
X21464285Y-5407200D02*
X21369047Y-5454819D01*
X21369047Y-5454819D02*
X21178571Y-5454819D01*
X21178571Y-5454819D02*
X21083333Y-5407200D01*
X22511904Y-5454819D02*
X21940476Y-5454819D01*
X22226190Y-5454819D02*
X22226190Y-4454819D01*
X22226190Y-4454819D02*
X22130952Y-4597676D01*
X22130952Y-4597676D02*
X22035714Y-4692914D01*
X22035714Y-4692914D02*
X21940476Y-4740533D01*
X4238095Y-52004819D02*
X4238095Y-51004819D01*
X4238095Y-51481009D02*
X4809523Y-51481009D01*
X4809523Y-52004819D02*
X4809523Y-51004819D01*
X5190476Y-51004819D02*
X5809523Y-51004819D01*
X5809523Y-51004819D02*
X5476190Y-51385771D01*
X5476190Y-51385771D02*
X5619047Y-51385771D01*
X5619047Y-51385771D02*
X5714285Y-51433390D01*
X5714285Y-51433390D02*
X5761904Y-51481009D01*
X5761904Y-51481009D02*
X5809523Y-51576247D01*
X5809523Y-51576247D02*
X5809523Y-51814342D01*
X5809523Y-51814342D02*
X5761904Y-51909580D01*
X5761904Y-51909580D02*
X5714285Y-51957200D01*
X5714285Y-51957200D02*
X5619047Y-52004819D01*
X5619047Y-52004819D02*
X5333333Y-52004819D01*
X5333333Y-52004819D02*
X5238095Y-51957200D01*
X5238095Y-51957200D02*
X5190476Y-51909580D01*
D13*
%TO.C,J1*%
X40810000Y-6438750D02*
G75*
G02*
X40610000Y-6438750I-100000J0D01*
G01*
X40610000Y-6438750D02*
G75*
G02*
X40810000Y-6438750I100000J0D01*
G01*
D14*
X107500000Y-28668750D02*
G75*
G02*
X104500000Y-31668750I-3000000J0D01*
G01*
X104500000Y-1668750D02*
G75*
G02*
X107500000Y-4668750I0J-3000000D01*
G01*
X45500000Y-31668750D02*
G75*
G02*
X42500000Y-28668750I1J3000001D01*
G01*
X42500000Y-4668750D02*
G75*
G02*
X45500000Y-1668750I3000001J-1D01*
G01*
X107500000Y-28668750D02*
X107500000Y-4668750D01*
X104500000Y-1668750D02*
X45500000Y-1668750D01*
X92000000Y-31668750D02*
X100350000Y-31668750D01*
X79400000Y-31668750D02*
X87750000Y-31668750D01*
X45500000Y-31668750D02*
X104500000Y-31668750D01*
X42500000Y-4668750D02*
X42500000Y-28668750D01*
D15*
%TO.C,G\u002A\u002A\u002A*%
G36*
X60486158Y-40903739D02*
G01*
X60560444Y-40931853D01*
X60641290Y-40996483D01*
X60744470Y-41112173D01*
X60885757Y-41293465D01*
X61005600Y-41453507D01*
X61656759Y-42288328D01*
X62316232Y-43048827D01*
X62999348Y-43748324D01*
X63721433Y-44400142D01*
X64497814Y-45017604D01*
X65343817Y-45614032D01*
X66274771Y-46202748D01*
X66873101Y-46553592D01*
X67057968Y-46667681D01*
X67163792Y-46759654D01*
X67212524Y-46851472D01*
X67222188Y-46902845D01*
X67200983Y-47065715D01*
X67142785Y-47134687D01*
X67071694Y-47147158D01*
X66900291Y-47158565D01*
X66638040Y-47168902D01*
X66294406Y-47178164D01*
X65878853Y-47186347D01*
X65400846Y-47193445D01*
X64869850Y-47199453D01*
X64295327Y-47204367D01*
X63686744Y-47208180D01*
X63053564Y-47210889D01*
X62405252Y-47212488D01*
X61751271Y-47212971D01*
X61101088Y-47212335D01*
X60464165Y-47210574D01*
X59849967Y-47207682D01*
X59267959Y-47203655D01*
X58727605Y-47198488D01*
X58238370Y-47192176D01*
X57809718Y-47184714D01*
X57451112Y-47176096D01*
X57172019Y-47166317D01*
X56981901Y-47155373D01*
X56890224Y-47143259D01*
X56883904Y-47140159D01*
X56833539Y-47036892D01*
X56820202Y-46933543D01*
X56847775Y-46859938D01*
X56926781Y-46698758D01*
X57053059Y-46457573D01*
X57222448Y-46143952D01*
X57430786Y-45765463D01*
X57673913Y-45329676D01*
X57947668Y-44844160D01*
X58247889Y-44316484D01*
X58517983Y-43845322D01*
X60213348Y-40897600D01*
X60402661Y-40897600D01*
X60486158Y-40903739D01*
G37*
G36*
X74511324Y-16490831D02*
G01*
X74614316Y-16572003D01*
X74625422Y-16584017D01*
X74635755Y-16599631D01*
X74645343Y-16622706D01*
X74654215Y-16657103D01*
X74662398Y-16706685D01*
X74669920Y-16775313D01*
X74676809Y-16866847D01*
X74683092Y-16985150D01*
X74688798Y-17134083D01*
X74693955Y-17317507D01*
X74698589Y-17539284D01*
X74702730Y-17803275D01*
X74706404Y-18113341D01*
X74709640Y-18473345D01*
X74712465Y-18887147D01*
X74714908Y-19358609D01*
X74716996Y-19891592D01*
X74718758Y-20489957D01*
X74720220Y-21157567D01*
X74721410Y-21898283D01*
X74722357Y-22715965D01*
X74723089Y-23614476D01*
X74723633Y-24597676D01*
X74724017Y-25669428D01*
X74724269Y-26833592D01*
X74724416Y-28094031D01*
X74724487Y-29454605D01*
X74724510Y-30919176D01*
X74724511Y-31857656D01*
X74724471Y-33396472D01*
X74724334Y-34828878D01*
X74724079Y-36158656D01*
X74723686Y-37389589D01*
X74723133Y-38525463D01*
X74722397Y-39570061D01*
X74721459Y-40527166D01*
X74720295Y-41400562D01*
X74718886Y-42194033D01*
X74717208Y-42911363D01*
X74715242Y-43556336D01*
X74712965Y-44132735D01*
X74710356Y-44644344D01*
X74707393Y-45094947D01*
X74704055Y-45488328D01*
X74700321Y-45828271D01*
X74696168Y-46118558D01*
X74691577Y-46362975D01*
X74686524Y-46565304D01*
X74680989Y-46729330D01*
X74674950Y-46858837D01*
X74668386Y-46957607D01*
X74661276Y-47029426D01*
X74653597Y-47078076D01*
X74645328Y-47107342D01*
X74637929Y-47119695D01*
X74529457Y-47166141D01*
X74323999Y-47193064D01*
X74033057Y-47200282D01*
X73668131Y-47187611D01*
X73240719Y-47154871D01*
X73126681Y-47143655D01*
X71825777Y-46955593D01*
X70553191Y-46661828D01*
X69313630Y-46264291D01*
X68111802Y-45764914D01*
X66952413Y-45165630D01*
X65840171Y-44468369D01*
X64887251Y-43761781D01*
X64515718Y-43448289D01*
X64105666Y-43074705D01*
X63683850Y-42667396D01*
X63277022Y-42252725D01*
X62911936Y-41857057D01*
X62679704Y-41586320D01*
X62408438Y-41247312D01*
X62142997Y-40898956D01*
X61892288Y-40554496D01*
X61665213Y-40227177D01*
X61470679Y-39930244D01*
X61317589Y-39676942D01*
X61214849Y-39480516D01*
X61171363Y-39354210D01*
X61170498Y-39341528D01*
X61197553Y-39283696D01*
X61276770Y-39135512D01*
X61405230Y-38902067D01*
X61580014Y-38588451D01*
X61798201Y-38199753D01*
X62056872Y-37741064D01*
X62353108Y-37217472D01*
X62683989Y-36634068D01*
X63046595Y-35995942D01*
X63438006Y-35308184D01*
X63855304Y-34575882D01*
X64295568Y-33804128D01*
X64755878Y-32998011D01*
X65233316Y-32162620D01*
X65724962Y-31303045D01*
X66227895Y-30424377D01*
X66739196Y-29531705D01*
X67255947Y-28630119D01*
X67775226Y-27724708D01*
X68294115Y-26820562D01*
X68809693Y-25922772D01*
X69319042Y-25036427D01*
X69819241Y-24166617D01*
X70307371Y-23318431D01*
X70780512Y-22496960D01*
X71235745Y-21707293D01*
X71670151Y-20954520D01*
X72080808Y-20243730D01*
X72464799Y-19580015D01*
X72819202Y-18968462D01*
X73141099Y-18414163D01*
X73427570Y-17922207D01*
X73675696Y-17497684D01*
X73882556Y-17145683D01*
X74045231Y-16871295D01*
X74160802Y-16679608D01*
X74226348Y-16575714D01*
X74239508Y-16558229D01*
X74382210Y-16472768D01*
X74511324Y-16490831D01*
G37*
G36*
X76268107Y-16516548D02*
G01*
X76311549Y-16547891D01*
X76364380Y-16601012D01*
X76428857Y-16679740D01*
X76507235Y-16787901D01*
X76601768Y-16929322D01*
X76714712Y-17107830D01*
X76848323Y-17327252D01*
X77004855Y-17591415D01*
X77186564Y-17904146D01*
X77395705Y-18269272D01*
X77634533Y-18690620D01*
X77905304Y-19172017D01*
X78210272Y-19717290D01*
X78551693Y-20330266D01*
X78931822Y-21014773D01*
X79352914Y-21774636D01*
X79817225Y-22613683D01*
X80327010Y-23535742D01*
X80884524Y-24544639D01*
X81492022Y-25644200D01*
X81815833Y-26230287D01*
X82449174Y-27376783D01*
X83031131Y-28430756D01*
X83563776Y-29396043D01*
X84049180Y-30276481D01*
X84489416Y-31075909D01*
X84886554Y-31798165D01*
X85242667Y-32447085D01*
X85559825Y-33026508D01*
X85840101Y-33540271D01*
X86085566Y-33992213D01*
X86298290Y-34386171D01*
X86480347Y-34725982D01*
X86633808Y-35015485D01*
X86760743Y-35258517D01*
X86863225Y-35458916D01*
X86943325Y-35620520D01*
X87003115Y-35747167D01*
X87044666Y-35842694D01*
X87070049Y-35910938D01*
X87081337Y-35955739D01*
X87080601Y-35980933D01*
X87079926Y-35982565D01*
X87037263Y-36032935D01*
X86923629Y-36157277D01*
X86744330Y-36350031D01*
X86504669Y-36605639D01*
X86209951Y-36918541D01*
X85865480Y-37283178D01*
X85476560Y-37693990D01*
X85048496Y-38145418D01*
X84586592Y-38631904D01*
X84096152Y-39147887D01*
X83582481Y-39687809D01*
X83050883Y-40246110D01*
X82506662Y-40817231D01*
X81955123Y-41395613D01*
X81401569Y-41975696D01*
X80851306Y-42551922D01*
X80309638Y-43118730D01*
X79781868Y-43670563D01*
X79273301Y-44201860D01*
X78789242Y-44707062D01*
X78334994Y-45180610D01*
X77915863Y-45616944D01*
X77537152Y-46010507D01*
X77204166Y-46355737D01*
X76922208Y-46647076D01*
X76696584Y-46878966D01*
X76532598Y-47045845D01*
X76435554Y-47142156D01*
X76411154Y-47164110D01*
X76262948Y-47200995D01*
X76102162Y-47139749D01*
X76088079Y-47129506D01*
X76078354Y-47118366D01*
X76069313Y-47097685D01*
X76060936Y-47063634D01*
X76053200Y-47012383D01*
X76046087Y-46940103D01*
X76039575Y-46842963D01*
X76033643Y-46717134D01*
X76028271Y-46558786D01*
X76023438Y-46364089D01*
X76019123Y-46129214D01*
X76015306Y-45850331D01*
X76011966Y-45523609D01*
X76009082Y-45145220D01*
X76006634Y-44711333D01*
X76004601Y-44218120D01*
X76002962Y-43661749D01*
X76001696Y-43038391D01*
X76000783Y-42344217D01*
X76000203Y-41575397D01*
X75999933Y-40728100D01*
X75999955Y-39798498D01*
X76000246Y-38782760D01*
X76000787Y-37677057D01*
X76001556Y-36477559D01*
X76002534Y-35180437D01*
X76003698Y-33781859D01*
X76005029Y-32277998D01*
X76005432Y-31833901D01*
X76006861Y-30298182D01*
X76008265Y-28868843D01*
X76009672Y-27542071D01*
X76011109Y-26314051D01*
X76012602Y-25180969D01*
X76014179Y-24139009D01*
X76015865Y-23184358D01*
X76017689Y-22313201D01*
X76019676Y-21521724D01*
X76021854Y-20806112D01*
X76024248Y-20162551D01*
X76026887Y-19587226D01*
X76029797Y-19076323D01*
X76033005Y-18626027D01*
X76036537Y-18232525D01*
X76040420Y-17892001D01*
X76044682Y-17600641D01*
X76049348Y-17354631D01*
X76054446Y-17150156D01*
X76060003Y-16983402D01*
X76066045Y-16850554D01*
X76072599Y-16747798D01*
X76079692Y-16671320D01*
X76087351Y-16617305D01*
X76095602Y-16581938D01*
X76104473Y-16561405D01*
X76112819Y-16552575D01*
X76143138Y-16532427D01*
X76171571Y-16514924D01*
X76200374Y-16503892D01*
X76231800Y-16503157D01*
X76268107Y-16516548D01*
G37*
G36*
X87859618Y-37331193D02*
G01*
X87901769Y-37376316D01*
X87980643Y-37491351D01*
X88097801Y-37679028D01*
X88254806Y-37942075D01*
X88453220Y-38283224D01*
X88694605Y-38705202D01*
X88980523Y-39210740D01*
X89312536Y-39802566D01*
X89692205Y-40483411D01*
X90121094Y-41256004D01*
X90567396Y-42062677D01*
X90934717Y-42728628D01*
X91286899Y-43369346D01*
X91620257Y-43977998D01*
X91931100Y-44547750D01*
X92215743Y-45071771D01*
X92470496Y-45543225D01*
X92691672Y-45955281D01*
X92875583Y-46301104D01*
X93018541Y-46573862D01*
X93116858Y-46766721D01*
X93166846Y-46872848D01*
X93172499Y-46889590D01*
X93181658Y-46934829D01*
X93191545Y-46975561D01*
X93196720Y-47012021D01*
X93191744Y-47044444D01*
X93171176Y-47073067D01*
X93129577Y-47098124D01*
X93061508Y-47119851D01*
X92961528Y-47138484D01*
X92824199Y-47154259D01*
X92644079Y-47167410D01*
X92415731Y-47178173D01*
X92133714Y-47186784D01*
X91792588Y-47193478D01*
X91386914Y-47198491D01*
X90911252Y-47202059D01*
X90360163Y-47204417D01*
X89728206Y-47205800D01*
X89009943Y-47206444D01*
X88199933Y-47206584D01*
X87292737Y-47206457D01*
X86282915Y-47206297D01*
X85858502Y-47206277D01*
X84765925Y-47206049D01*
X83779173Y-47205341D01*
X82893876Y-47204112D01*
X82105667Y-47202322D01*
X81410174Y-47199933D01*
X80803030Y-47196903D01*
X80279865Y-47193193D01*
X79836310Y-47188764D01*
X79467996Y-47183575D01*
X79170552Y-47177588D01*
X78939611Y-47170762D01*
X78770803Y-47163057D01*
X78659759Y-47154433D01*
X78602109Y-47144852D01*
X78592364Y-47140159D01*
X78528128Y-47012218D01*
X78560003Y-46848929D01*
X78689465Y-46645697D01*
X78787960Y-46531241D01*
X78929811Y-46378730D01*
X79133882Y-46161891D01*
X79394371Y-45886760D01*
X79705476Y-45559376D01*
X80061395Y-45185774D01*
X80456326Y-44771992D01*
X80884468Y-44324067D01*
X81340018Y-43848035D01*
X81817174Y-43349934D01*
X82310134Y-42835800D01*
X82813097Y-42311671D01*
X83320261Y-41783584D01*
X83825823Y-41257575D01*
X84323981Y-40739682D01*
X84808935Y-40235941D01*
X85274880Y-39752389D01*
X85716017Y-39295064D01*
X86126542Y-38870002D01*
X86500654Y-38483241D01*
X86832551Y-38140817D01*
X87116430Y-37848767D01*
X87346491Y-37613128D01*
X87516930Y-37439937D01*
X87621947Y-37335232D01*
X87655432Y-37304590D01*
X87764118Y-37302313D01*
X87859618Y-37331193D01*
G37*
G36*
X72828822Y-15944957D02*
G01*
X72914016Y-16031765D01*
X72918894Y-16173543D01*
X72849329Y-16374788D01*
X72769924Y-16534128D01*
X72725189Y-16614144D01*
X72628139Y-16785160D01*
X72481376Y-17042641D01*
X72287500Y-17382049D01*
X72049112Y-17798848D01*
X71768814Y-18288502D01*
X71449205Y-18846473D01*
X71092888Y-19468226D01*
X70702462Y-20149225D01*
X70280528Y-20884932D01*
X69829688Y-21670811D01*
X69352543Y-22502325D01*
X68851692Y-23374939D01*
X68329737Y-24284115D01*
X67789279Y-25225318D01*
X67232919Y-26194010D01*
X66663257Y-27185655D01*
X66638077Y-27229482D01*
X65876144Y-28554980D01*
X65163894Y-29792617D01*
X64501661Y-30941816D01*
X63889782Y-32002001D01*
X63328592Y-32972597D01*
X62818428Y-33853028D01*
X62359623Y-34642718D01*
X61952515Y-35341091D01*
X61597439Y-35947572D01*
X61294729Y-36461584D01*
X61044723Y-36882551D01*
X60847755Y-37209899D01*
X60704162Y-37443050D01*
X60614278Y-37581430D01*
X60579671Y-37624435D01*
X60446883Y-37631767D01*
X60346721Y-37600795D01*
X60252362Y-37503835D01*
X60143781Y-37310805D01*
X60024653Y-37034366D01*
X59898652Y-36687179D01*
X59769454Y-36281907D01*
X59640734Y-35831211D01*
X59516167Y-35347753D01*
X59399430Y-34844194D01*
X59294196Y-34333195D01*
X59204141Y-33827419D01*
X59152618Y-33486971D01*
X59115275Y-33138767D01*
X59086535Y-32708560D01*
X59066589Y-32221778D01*
X59055626Y-31703848D01*
X59053836Y-31180198D01*
X59061408Y-30676257D01*
X59078533Y-30217451D01*
X59105400Y-29829210D01*
X59124047Y-29657687D01*
X59349157Y-28322532D01*
X59673789Y-27030448D01*
X60095507Y-25785167D01*
X60611871Y-24590424D01*
X61220445Y-23449951D01*
X61918790Y-22367483D01*
X62704468Y-21346751D01*
X63575041Y-20391491D01*
X64528071Y-19505435D01*
X65561121Y-18692316D01*
X66671752Y-17955869D01*
X66825828Y-17863514D01*
X67849431Y-17314769D01*
X68941187Y-16837062D01*
X70078785Y-16438509D01*
X71239912Y-16127227D01*
X72032615Y-15969362D01*
X72393993Y-15918253D01*
X72657438Y-15908619D01*
X72828822Y-15944957D01*
G37*
D16*
%TO.C,y1*%
X115750000Y-18500000D02*
X115750000Y-20000000D01*
X117000000Y-22500000D02*
X121500000Y-22500000D01*
X121500000Y-16000000D02*
X117000000Y-16000000D01*
X122750000Y-20000000D02*
X122750000Y-18500000D01*
%TO.C,b1*%
X125750000Y-28500000D02*
X125750000Y-30000000D01*
X127000000Y-32500000D02*
X131500000Y-32500000D01*
X131500000Y-26000000D02*
X127000000Y-26000000D01*
X132750000Y-30000000D02*
X132750000Y-28500000D01*
%TO.C,x1*%
X125750000Y-8500000D02*
X125750000Y-10000000D01*
X127000000Y-12500000D02*
X131500000Y-12500000D01*
X131500000Y-6000000D02*
X127000000Y-6000000D01*
X132750000Y-10000000D02*
X132750000Y-8500000D01*
%TO.C,Right1*%
X27750000Y-18500000D02*
X27750000Y-20000000D01*
X29000000Y-22500000D02*
X33500000Y-22500000D01*
X33500000Y-16000000D02*
X29000000Y-16000000D01*
X34750000Y-20000000D02*
X34750000Y-18500000D01*
%TO.C,a1*%
X135750000Y-18500000D02*
X135750000Y-20000000D01*
X137000000Y-22500000D02*
X141500000Y-22500000D01*
X141500000Y-16000000D02*
X137000000Y-16000000D01*
X142750000Y-20000000D02*
X142750000Y-18500000D01*
%TO.C,Down1*%
X17750000Y-28500000D02*
X17750000Y-30000000D01*
X19000000Y-32500000D02*
X23500000Y-32500000D01*
X23500000Y-26000000D02*
X19000000Y-26000000D01*
X24750000Y-30000000D02*
X24750000Y-28500000D01*
D14*
%TO.C,SW1*%
X15512500Y-53000000D02*
X15512500Y-57000000D01*
X15512500Y-57000000D02*
X27112500Y-57000000D01*
X27112500Y-53000000D02*
X15512500Y-53000000D01*
X27112500Y-57000000D02*
X27112500Y-53000000D01*
D13*
X14912500Y-55000000D02*
G75*
G02*
X14712500Y-55000000I-100000J0D01*
G01*
X14712500Y-55000000D02*
G75*
G02*
X14912500Y-55000000I100000J0D01*
G01*
D16*
%TO.C,Left1*%
X7750000Y-18500000D02*
X7750000Y-20000000D01*
X9000000Y-22500000D02*
X13500000Y-22500000D01*
X13500000Y-16000000D02*
X9000000Y-16000000D01*
X14750000Y-20000000D02*
X14750000Y-18500000D01*
%TO.C,Up1*%
X17750000Y-8500000D02*
X17750000Y-10000000D01*
X19000000Y-12500000D02*
X23500000Y-12500000D01*
X23500000Y-6000000D02*
X19000000Y-6000000D01*
X24750000Y-10000000D02*
X24750000Y-8500000D01*
%TD*%
M02*
