%TF.GenerationSoftware,KiCad,Pcbnew,9.0.2*%
%TF.CreationDate,2025-06-30T23:43:06-04:00*%
%TF.ProjectId,GamePad_Zero,47616d65-5061-4645-9f5a-65726f2e6b69,rev?*%
%TF.SameCoordinates,Original*%
%TF.FileFunction,Drillmap*%
%TF.FilePolarity,Positive*%
%FSLAX45Y45*%
G04 Gerber Fmt 4.5, Leading zero omitted, Abs format (unit mm)*
G04 Created by KiCad (PCBNEW 9.0.2) date 2025-06-30 23:43:06*
%MOMM*%
%LPD*%
G01*
G04 APERTURE LIST*
%ADD10C,0.050000*%
%ADD11C,0.200000*%
%ADD12C,0.250000*%
%ADD13C,0.275000*%
G04 APERTURE END LIST*
D10*
X339125Y-6020625D02*
G75*
G02*
X39125Y-5720625I0J300000D01*
G01*
X39125Y-320625D02*
G75*
G02*
X339125Y-20625I300000J0D01*
G01*
X15039125Y-320625D02*
X15039125Y-5720625D01*
X14739125Y-6020625D02*
X339125Y-6020625D01*
X15039125Y-5720625D02*
G75*
G02*
X14739125Y-6020625I-300005J5D01*
G01*
X339125Y-20625D02*
X14739125Y-20625D01*
X39125Y-5720625D02*
X39125Y-320625D01*
X14739125Y-20625D02*
G75*
G02*
X15039125Y-320625I-5J-300005D01*
G01*
D11*
D12*
X375000Y-375000D02*
X625000Y-625000D01*
X625000Y-375000D02*
X375000Y-625000D01*
X375000Y-5375000D02*
X625000Y-5625000D01*
X625000Y-5375000D02*
X375000Y-5625000D01*
X14375000Y-375000D02*
X14625000Y-625000D01*
X14625000Y-375000D02*
X14375000Y-625000D01*
D13*
X4737500Y-516875D02*
G75*
G02*
X4462500Y-516875I-137500J0D01*
G01*
X4462500Y-516875D02*
G75*
G02*
X4737500Y-516875I137500J0D01*
G01*
X4737500Y-2816875D02*
G75*
G02*
X4462500Y-2816875I-137500J0D01*
G01*
X4462500Y-2816875D02*
G75*
G02*
X4737500Y-2816875I137500J0D01*
G01*
X10537500Y-516875D02*
G75*
G02*
X10262500Y-516875I-137500J0D01*
G01*
X10262500Y-516875D02*
G75*
G02*
X10537500Y-516875I137500J0D01*
G01*
X10537500Y-2816875D02*
G75*
G02*
X10262500Y-2816875I-137500J0D01*
G01*
X10262500Y-2816875D02*
G75*
G02*
X10537500Y-2816875I137500J0D01*
G01*
D11*
X297402Y-6334609D02*
X297402Y-6134609D01*
X297402Y-6134609D02*
X345021Y-6134609D01*
X345021Y-6134609D02*
X373592Y-6144133D01*
X373592Y-6144133D02*
X392640Y-6163180D01*
X392640Y-6163180D02*
X402164Y-6182228D01*
X402164Y-6182228D02*
X411687Y-6220323D01*
X411687Y-6220323D02*
X411687Y-6248894D01*
X411687Y-6248894D02*
X402164Y-6286990D01*
X402164Y-6286990D02*
X392640Y-6306037D01*
X392640Y-6306037D02*
X373592Y-6325085D01*
X373592Y-6325085D02*
X345021Y-6334609D01*
X345021Y-6334609D02*
X297402Y-6334609D01*
X497402Y-6334609D02*
X497402Y-6201275D01*
X497402Y-6239371D02*
X506926Y-6220323D01*
X506926Y-6220323D02*
X516449Y-6210799D01*
X516449Y-6210799D02*
X535497Y-6201275D01*
X535497Y-6201275D02*
X554545Y-6201275D01*
X621211Y-6334609D02*
X621211Y-6201275D01*
X621211Y-6134609D02*
X611688Y-6144133D01*
X611688Y-6144133D02*
X621211Y-6153656D01*
X621211Y-6153656D02*
X630735Y-6144133D01*
X630735Y-6144133D02*
X621211Y-6134609D01*
X621211Y-6134609D02*
X621211Y-6153656D01*
X745021Y-6334609D02*
X725973Y-6325085D01*
X725973Y-6325085D02*
X716449Y-6306037D01*
X716449Y-6306037D02*
X716449Y-6134609D01*
X849783Y-6334609D02*
X830735Y-6325085D01*
X830735Y-6325085D02*
X821211Y-6306037D01*
X821211Y-6306037D02*
X821211Y-6134609D01*
X1078354Y-6334609D02*
X1078354Y-6134609D01*
X1078354Y-6134609D02*
X1145021Y-6277466D01*
X1145021Y-6277466D02*
X1211688Y-6134609D01*
X1211688Y-6134609D02*
X1211688Y-6334609D01*
X1392640Y-6334609D02*
X1392640Y-6229847D01*
X1392640Y-6229847D02*
X1383116Y-6210799D01*
X1383116Y-6210799D02*
X1364069Y-6201275D01*
X1364069Y-6201275D02*
X1325973Y-6201275D01*
X1325973Y-6201275D02*
X1306926Y-6210799D01*
X1392640Y-6325085D02*
X1373592Y-6334609D01*
X1373592Y-6334609D02*
X1325973Y-6334609D01*
X1325973Y-6334609D02*
X1306926Y-6325085D01*
X1306926Y-6325085D02*
X1297402Y-6306037D01*
X1297402Y-6306037D02*
X1297402Y-6286990D01*
X1297402Y-6286990D02*
X1306926Y-6267942D01*
X1306926Y-6267942D02*
X1325973Y-6258418D01*
X1325973Y-6258418D02*
X1373592Y-6258418D01*
X1373592Y-6258418D02*
X1392640Y-6248894D01*
X1487878Y-6201275D02*
X1487878Y-6401275D01*
X1487878Y-6210799D02*
X1506926Y-6201275D01*
X1506926Y-6201275D02*
X1545021Y-6201275D01*
X1545021Y-6201275D02*
X1564068Y-6210799D01*
X1564068Y-6210799D02*
X1573592Y-6220323D01*
X1573592Y-6220323D02*
X1583116Y-6239371D01*
X1583116Y-6239371D02*
X1583116Y-6296513D01*
X1583116Y-6296513D02*
X1573592Y-6315561D01*
X1573592Y-6315561D02*
X1564068Y-6325085D01*
X1564068Y-6325085D02*
X1545021Y-6334609D01*
X1545021Y-6334609D02*
X1506926Y-6334609D01*
X1506926Y-6334609D02*
X1487878Y-6325085D01*
X1668830Y-6315561D02*
X1678354Y-6325085D01*
X1678354Y-6325085D02*
X1668830Y-6334609D01*
X1668830Y-6334609D02*
X1659307Y-6325085D01*
X1659307Y-6325085D02*
X1668830Y-6315561D01*
X1668830Y-6315561D02*
X1668830Y-6334609D01*
X1668830Y-6210799D02*
X1678354Y-6220323D01*
X1678354Y-6220323D02*
X1668830Y-6229847D01*
X1668830Y-6229847D02*
X1659307Y-6220323D01*
X1659307Y-6220323D02*
X1668830Y-6210799D01*
X1668830Y-6210799D02*
X1668830Y-6229847D01*
X-163375Y-6563125D02*
X36625Y-6763125D01*
X36625Y-6563125D02*
X-163375Y-6763125D01*
X287878Y-6573656D02*
X297402Y-6564133D01*
X297402Y-6564133D02*
X316449Y-6554609D01*
X316449Y-6554609D02*
X364068Y-6554609D01*
X364068Y-6554609D02*
X383116Y-6564133D01*
X383116Y-6564133D02*
X392640Y-6573656D01*
X392640Y-6573656D02*
X402164Y-6592704D01*
X402164Y-6592704D02*
X402164Y-6611752D01*
X402164Y-6611752D02*
X392640Y-6640323D01*
X392640Y-6640323D02*
X278354Y-6754609D01*
X278354Y-6754609D02*
X402164Y-6754609D01*
X487878Y-6735561D02*
X497402Y-6745085D01*
X497402Y-6745085D02*
X487878Y-6754609D01*
X487878Y-6754609D02*
X478354Y-6745085D01*
X478354Y-6745085D02*
X487878Y-6735561D01*
X487878Y-6735561D02*
X487878Y-6754609D01*
X678354Y-6554609D02*
X583116Y-6554609D01*
X583116Y-6554609D02*
X573592Y-6649847D01*
X573592Y-6649847D02*
X583116Y-6640323D01*
X583116Y-6640323D02*
X602164Y-6630799D01*
X602164Y-6630799D02*
X649783Y-6630799D01*
X649783Y-6630799D02*
X668830Y-6640323D01*
X668830Y-6640323D02*
X678354Y-6649847D01*
X678354Y-6649847D02*
X687878Y-6668894D01*
X687878Y-6668894D02*
X687878Y-6716513D01*
X687878Y-6716513D02*
X678354Y-6735561D01*
X678354Y-6735561D02*
X668830Y-6745085D01*
X668830Y-6745085D02*
X649783Y-6754609D01*
X649783Y-6754609D02*
X602164Y-6754609D01*
X602164Y-6754609D02*
X583116Y-6745085D01*
X583116Y-6745085D02*
X573592Y-6735561D01*
X811687Y-6554609D02*
X830735Y-6554609D01*
X830735Y-6554609D02*
X849783Y-6564133D01*
X849783Y-6564133D02*
X859307Y-6573656D01*
X859307Y-6573656D02*
X868830Y-6592704D01*
X868830Y-6592704D02*
X878354Y-6630799D01*
X878354Y-6630799D02*
X878354Y-6678418D01*
X878354Y-6678418D02*
X868830Y-6716513D01*
X868830Y-6716513D02*
X859307Y-6735561D01*
X859307Y-6735561D02*
X849783Y-6745085D01*
X849783Y-6745085D02*
X830735Y-6754609D01*
X830735Y-6754609D02*
X811687Y-6754609D01*
X811687Y-6754609D02*
X792640Y-6745085D01*
X792640Y-6745085D02*
X783116Y-6735561D01*
X783116Y-6735561D02*
X773592Y-6716513D01*
X773592Y-6716513D02*
X764068Y-6678418D01*
X764068Y-6678418D02*
X764068Y-6630799D01*
X764068Y-6630799D02*
X773592Y-6592704D01*
X773592Y-6592704D02*
X783116Y-6573656D01*
X783116Y-6573656D02*
X792640Y-6564133D01*
X792640Y-6564133D02*
X811687Y-6554609D01*
X1002164Y-6554609D02*
X1021211Y-6554609D01*
X1021211Y-6554609D02*
X1040259Y-6564133D01*
X1040259Y-6564133D02*
X1049783Y-6573656D01*
X1049783Y-6573656D02*
X1059307Y-6592704D01*
X1059307Y-6592704D02*
X1068830Y-6630799D01*
X1068830Y-6630799D02*
X1068830Y-6678418D01*
X1068830Y-6678418D02*
X1059307Y-6716513D01*
X1059307Y-6716513D02*
X1049783Y-6735561D01*
X1049783Y-6735561D02*
X1040259Y-6745085D01*
X1040259Y-6745085D02*
X1021211Y-6754609D01*
X1021211Y-6754609D02*
X1002164Y-6754609D01*
X1002164Y-6754609D02*
X983116Y-6745085D01*
X983116Y-6745085D02*
X973592Y-6735561D01*
X973592Y-6735561D02*
X964068Y-6716513D01*
X964068Y-6716513D02*
X954545Y-6678418D01*
X954545Y-6678418D02*
X954545Y-6630799D01*
X954545Y-6630799D02*
X964068Y-6592704D01*
X964068Y-6592704D02*
X973592Y-6573656D01*
X973592Y-6573656D02*
X983116Y-6564133D01*
X983116Y-6564133D02*
X1002164Y-6554609D01*
X1154545Y-6754609D02*
X1154545Y-6621275D01*
X1154545Y-6640323D02*
X1164069Y-6630799D01*
X1164069Y-6630799D02*
X1183116Y-6621275D01*
X1183116Y-6621275D02*
X1211688Y-6621275D01*
X1211688Y-6621275D02*
X1230735Y-6630799D01*
X1230735Y-6630799D02*
X1240259Y-6649847D01*
X1240259Y-6649847D02*
X1240259Y-6754609D01*
X1240259Y-6649847D02*
X1249783Y-6630799D01*
X1249783Y-6630799D02*
X1268830Y-6621275D01*
X1268830Y-6621275D02*
X1297402Y-6621275D01*
X1297402Y-6621275D02*
X1316450Y-6630799D01*
X1316450Y-6630799D02*
X1325973Y-6649847D01*
X1325973Y-6649847D02*
X1325973Y-6754609D01*
X1421211Y-6754609D02*
X1421211Y-6621275D01*
X1421211Y-6640323D02*
X1430735Y-6630799D01*
X1430735Y-6630799D02*
X1449783Y-6621275D01*
X1449783Y-6621275D02*
X1478354Y-6621275D01*
X1478354Y-6621275D02*
X1497402Y-6630799D01*
X1497402Y-6630799D02*
X1506926Y-6649847D01*
X1506926Y-6649847D02*
X1506926Y-6754609D01*
X1506926Y-6649847D02*
X1516449Y-6630799D01*
X1516449Y-6630799D02*
X1535497Y-6621275D01*
X1535497Y-6621275D02*
X1564068Y-6621275D01*
X1564068Y-6621275D02*
X1583116Y-6630799D01*
X1583116Y-6630799D02*
X1592640Y-6649847D01*
X1592640Y-6649847D02*
X1592640Y-6754609D01*
X1983116Y-6545085D02*
X1811688Y-6802228D01*
X2240259Y-6554609D02*
X2259307Y-6554609D01*
X2259307Y-6554609D02*
X2278354Y-6564133D01*
X2278354Y-6564133D02*
X2287878Y-6573656D01*
X2287878Y-6573656D02*
X2297402Y-6592704D01*
X2297402Y-6592704D02*
X2306926Y-6630799D01*
X2306926Y-6630799D02*
X2306926Y-6678418D01*
X2306926Y-6678418D02*
X2297402Y-6716513D01*
X2297402Y-6716513D02*
X2287878Y-6735561D01*
X2287878Y-6735561D02*
X2278354Y-6745085D01*
X2278354Y-6745085D02*
X2259307Y-6754609D01*
X2259307Y-6754609D02*
X2240259Y-6754609D01*
X2240259Y-6754609D02*
X2221212Y-6745085D01*
X2221212Y-6745085D02*
X2211688Y-6735561D01*
X2211688Y-6735561D02*
X2202164Y-6716513D01*
X2202164Y-6716513D02*
X2192640Y-6678418D01*
X2192640Y-6678418D02*
X2192640Y-6630799D01*
X2192640Y-6630799D02*
X2202164Y-6592704D01*
X2202164Y-6592704D02*
X2211688Y-6573656D01*
X2211688Y-6573656D02*
X2221212Y-6564133D01*
X2221212Y-6564133D02*
X2240259Y-6554609D01*
X2392640Y-6735561D02*
X2402164Y-6745085D01*
X2402164Y-6745085D02*
X2392640Y-6754609D01*
X2392640Y-6754609D02*
X2383116Y-6745085D01*
X2383116Y-6745085D02*
X2392640Y-6735561D01*
X2392640Y-6735561D02*
X2392640Y-6754609D01*
X2525973Y-6554609D02*
X2545021Y-6554609D01*
X2545021Y-6554609D02*
X2564069Y-6564133D01*
X2564069Y-6564133D02*
X2573593Y-6573656D01*
X2573593Y-6573656D02*
X2583116Y-6592704D01*
X2583116Y-6592704D02*
X2592640Y-6630799D01*
X2592640Y-6630799D02*
X2592640Y-6678418D01*
X2592640Y-6678418D02*
X2583116Y-6716513D01*
X2583116Y-6716513D02*
X2573593Y-6735561D01*
X2573593Y-6735561D02*
X2564069Y-6745085D01*
X2564069Y-6745085D02*
X2545021Y-6754609D01*
X2545021Y-6754609D02*
X2525973Y-6754609D01*
X2525973Y-6754609D02*
X2506926Y-6745085D01*
X2506926Y-6745085D02*
X2497402Y-6735561D01*
X2497402Y-6735561D02*
X2487878Y-6716513D01*
X2487878Y-6716513D02*
X2478354Y-6678418D01*
X2478354Y-6678418D02*
X2478354Y-6630799D01*
X2478354Y-6630799D02*
X2487878Y-6592704D01*
X2487878Y-6592704D02*
X2497402Y-6573656D01*
X2497402Y-6573656D02*
X2506926Y-6564133D01*
X2506926Y-6564133D02*
X2525973Y-6554609D01*
X2687878Y-6754609D02*
X2725973Y-6754609D01*
X2725973Y-6754609D02*
X2745021Y-6745085D01*
X2745021Y-6745085D02*
X2754545Y-6735561D01*
X2754545Y-6735561D02*
X2773593Y-6706990D01*
X2773593Y-6706990D02*
X2783116Y-6668894D01*
X2783116Y-6668894D02*
X2783116Y-6592704D01*
X2783116Y-6592704D02*
X2773593Y-6573656D01*
X2773593Y-6573656D02*
X2764069Y-6564133D01*
X2764069Y-6564133D02*
X2745021Y-6554609D01*
X2745021Y-6554609D02*
X2706926Y-6554609D01*
X2706926Y-6554609D02*
X2687878Y-6564133D01*
X2687878Y-6564133D02*
X2678354Y-6573656D01*
X2678354Y-6573656D02*
X2668831Y-6592704D01*
X2668831Y-6592704D02*
X2668831Y-6640323D01*
X2668831Y-6640323D02*
X2678354Y-6659371D01*
X2678354Y-6659371D02*
X2687878Y-6668894D01*
X2687878Y-6668894D02*
X2706926Y-6678418D01*
X2706926Y-6678418D02*
X2745021Y-6678418D01*
X2745021Y-6678418D02*
X2764069Y-6668894D01*
X2764069Y-6668894D02*
X2773593Y-6659371D01*
X2773593Y-6659371D02*
X2783116Y-6640323D01*
X2897402Y-6640323D02*
X2878354Y-6630799D01*
X2878354Y-6630799D02*
X2868831Y-6621275D01*
X2868831Y-6621275D02*
X2859307Y-6602228D01*
X2859307Y-6602228D02*
X2859307Y-6592704D01*
X2859307Y-6592704D02*
X2868831Y-6573656D01*
X2868831Y-6573656D02*
X2878354Y-6564133D01*
X2878354Y-6564133D02*
X2897402Y-6554609D01*
X2897402Y-6554609D02*
X2935497Y-6554609D01*
X2935497Y-6554609D02*
X2954545Y-6564133D01*
X2954545Y-6564133D02*
X2964069Y-6573656D01*
X2964069Y-6573656D02*
X2973592Y-6592704D01*
X2973592Y-6592704D02*
X2973592Y-6602228D01*
X2973592Y-6602228D02*
X2964069Y-6621275D01*
X2964069Y-6621275D02*
X2954545Y-6630799D01*
X2954545Y-6630799D02*
X2935497Y-6640323D01*
X2935497Y-6640323D02*
X2897402Y-6640323D01*
X2897402Y-6640323D02*
X2878354Y-6649847D01*
X2878354Y-6649847D02*
X2868831Y-6659371D01*
X2868831Y-6659371D02*
X2859307Y-6678418D01*
X2859307Y-6678418D02*
X2859307Y-6716513D01*
X2859307Y-6716513D02*
X2868831Y-6735561D01*
X2868831Y-6735561D02*
X2878354Y-6745085D01*
X2878354Y-6745085D02*
X2897402Y-6754609D01*
X2897402Y-6754609D02*
X2935497Y-6754609D01*
X2935497Y-6754609D02*
X2954545Y-6745085D01*
X2954545Y-6745085D02*
X2964069Y-6735561D01*
X2964069Y-6735561D02*
X2973592Y-6716513D01*
X2973592Y-6716513D02*
X2973592Y-6678418D01*
X2973592Y-6678418D02*
X2964069Y-6659371D01*
X2964069Y-6659371D02*
X2954545Y-6649847D01*
X2954545Y-6649847D02*
X2935497Y-6640323D01*
X3145021Y-6621275D02*
X3145021Y-6754609D01*
X3097402Y-6545085D02*
X3049783Y-6687942D01*
X3049783Y-6687942D02*
X3173592Y-6687942D01*
X3240259Y-6554609D02*
X3240259Y-6592704D01*
X3316450Y-6554609D02*
X3316450Y-6592704D01*
X3611688Y-6830799D02*
X3602164Y-6821275D01*
X3602164Y-6821275D02*
X3583116Y-6792704D01*
X3583116Y-6792704D02*
X3573593Y-6773656D01*
X3573593Y-6773656D02*
X3564069Y-6745085D01*
X3564069Y-6745085D02*
X3554545Y-6697466D01*
X3554545Y-6697466D02*
X3554545Y-6659371D01*
X3554545Y-6659371D02*
X3564069Y-6611752D01*
X3564069Y-6611752D02*
X3573593Y-6583180D01*
X3573593Y-6583180D02*
X3583116Y-6564133D01*
X3583116Y-6564133D02*
X3602164Y-6535561D01*
X3602164Y-6535561D02*
X3611688Y-6526037D01*
X3668831Y-6554609D02*
X3792640Y-6554609D01*
X3792640Y-6554609D02*
X3725973Y-6630799D01*
X3725973Y-6630799D02*
X3754545Y-6630799D01*
X3754545Y-6630799D02*
X3773593Y-6640323D01*
X3773593Y-6640323D02*
X3783116Y-6649847D01*
X3783116Y-6649847D02*
X3792640Y-6668894D01*
X3792640Y-6668894D02*
X3792640Y-6716513D01*
X3792640Y-6716513D02*
X3783116Y-6735561D01*
X3783116Y-6735561D02*
X3773593Y-6745085D01*
X3773593Y-6745085D02*
X3754545Y-6754609D01*
X3754545Y-6754609D02*
X3697402Y-6754609D01*
X3697402Y-6754609D02*
X3678354Y-6745085D01*
X3678354Y-6745085D02*
X3668831Y-6735561D01*
X4030735Y-6754609D02*
X4030735Y-6554609D01*
X4116450Y-6754609D02*
X4116450Y-6649847D01*
X4116450Y-6649847D02*
X4106926Y-6630799D01*
X4106926Y-6630799D02*
X4087878Y-6621275D01*
X4087878Y-6621275D02*
X4059307Y-6621275D01*
X4059307Y-6621275D02*
X4040259Y-6630799D01*
X4040259Y-6630799D02*
X4030735Y-6640323D01*
X4240259Y-6754609D02*
X4221212Y-6745085D01*
X4221212Y-6745085D02*
X4211688Y-6735561D01*
X4211688Y-6735561D02*
X4202164Y-6716513D01*
X4202164Y-6716513D02*
X4202164Y-6659371D01*
X4202164Y-6659371D02*
X4211688Y-6640323D01*
X4211688Y-6640323D02*
X4221212Y-6630799D01*
X4221212Y-6630799D02*
X4240259Y-6621275D01*
X4240259Y-6621275D02*
X4268831Y-6621275D01*
X4268831Y-6621275D02*
X4287878Y-6630799D01*
X4287878Y-6630799D02*
X4297402Y-6640323D01*
X4297402Y-6640323D02*
X4306926Y-6659371D01*
X4306926Y-6659371D02*
X4306926Y-6716513D01*
X4306926Y-6716513D02*
X4297402Y-6735561D01*
X4297402Y-6735561D02*
X4287878Y-6745085D01*
X4287878Y-6745085D02*
X4268831Y-6754609D01*
X4268831Y-6754609D02*
X4240259Y-6754609D01*
X4421212Y-6754609D02*
X4402164Y-6745085D01*
X4402164Y-6745085D02*
X4392640Y-6726037D01*
X4392640Y-6726037D02*
X4392640Y-6554609D01*
X4573593Y-6745085D02*
X4554545Y-6754609D01*
X4554545Y-6754609D02*
X4516450Y-6754609D01*
X4516450Y-6754609D02*
X4497402Y-6745085D01*
X4497402Y-6745085D02*
X4487878Y-6726037D01*
X4487878Y-6726037D02*
X4487878Y-6649847D01*
X4487878Y-6649847D02*
X4497402Y-6630799D01*
X4497402Y-6630799D02*
X4516450Y-6621275D01*
X4516450Y-6621275D02*
X4554545Y-6621275D01*
X4554545Y-6621275D02*
X4573593Y-6630799D01*
X4573593Y-6630799D02*
X4583117Y-6649847D01*
X4583117Y-6649847D02*
X4583117Y-6668894D01*
X4583117Y-6668894D02*
X4487878Y-6687942D01*
X4659307Y-6745085D02*
X4678355Y-6754609D01*
X4678355Y-6754609D02*
X4716450Y-6754609D01*
X4716450Y-6754609D02*
X4735498Y-6745085D01*
X4735498Y-6745085D02*
X4745021Y-6726037D01*
X4745021Y-6726037D02*
X4745021Y-6716513D01*
X4745021Y-6716513D02*
X4735498Y-6697466D01*
X4735498Y-6697466D02*
X4716450Y-6687942D01*
X4716450Y-6687942D02*
X4687878Y-6687942D01*
X4687878Y-6687942D02*
X4668831Y-6678418D01*
X4668831Y-6678418D02*
X4659307Y-6659371D01*
X4659307Y-6659371D02*
X4659307Y-6649847D01*
X4659307Y-6649847D02*
X4668831Y-6630799D01*
X4668831Y-6630799D02*
X4687878Y-6621275D01*
X4687878Y-6621275D02*
X4716450Y-6621275D01*
X4716450Y-6621275D02*
X4735498Y-6630799D01*
X4811688Y-6830799D02*
X4821212Y-6821275D01*
X4821212Y-6821275D02*
X4840259Y-6792704D01*
X4840259Y-6792704D02*
X4849783Y-6773656D01*
X4849783Y-6773656D02*
X4859307Y-6745085D01*
X4859307Y-6745085D02*
X4868831Y-6697466D01*
X4868831Y-6697466D02*
X4868831Y-6659371D01*
X4868831Y-6659371D02*
X4859307Y-6611752D01*
X4859307Y-6611752D02*
X4849783Y-6583180D01*
X4849783Y-6583180D02*
X4840259Y-6564133D01*
X4840259Y-6564133D02*
X4821212Y-6535561D01*
X4821212Y-6535561D02*
X4811688Y-6526037D01*
X5173593Y-6830799D02*
X5164069Y-6821275D01*
X5164069Y-6821275D02*
X5145021Y-6792704D01*
X5145021Y-6792704D02*
X5135498Y-6773656D01*
X5135498Y-6773656D02*
X5125974Y-6745085D01*
X5125974Y-6745085D02*
X5116450Y-6697466D01*
X5116450Y-6697466D02*
X5116450Y-6659371D01*
X5116450Y-6659371D02*
X5125974Y-6611752D01*
X5125974Y-6611752D02*
X5135498Y-6583180D01*
X5135498Y-6583180D02*
X5145021Y-6564133D01*
X5145021Y-6564133D02*
X5164069Y-6535561D01*
X5164069Y-6535561D02*
X5173593Y-6526037D01*
X5249783Y-6621275D02*
X5249783Y-6754609D01*
X5249783Y-6640323D02*
X5259307Y-6630799D01*
X5259307Y-6630799D02*
X5278355Y-6621275D01*
X5278355Y-6621275D02*
X5306926Y-6621275D01*
X5306926Y-6621275D02*
X5325974Y-6630799D01*
X5325974Y-6630799D02*
X5335498Y-6649847D01*
X5335498Y-6649847D02*
X5335498Y-6754609D01*
X5459307Y-6754609D02*
X5440259Y-6745085D01*
X5440259Y-6745085D02*
X5430736Y-6735561D01*
X5430736Y-6735561D02*
X5421212Y-6716513D01*
X5421212Y-6716513D02*
X5421212Y-6659371D01*
X5421212Y-6659371D02*
X5430736Y-6640323D01*
X5430736Y-6640323D02*
X5440259Y-6630799D01*
X5440259Y-6630799D02*
X5459307Y-6621275D01*
X5459307Y-6621275D02*
X5487879Y-6621275D01*
X5487879Y-6621275D02*
X5506926Y-6630799D01*
X5506926Y-6630799D02*
X5516450Y-6640323D01*
X5516450Y-6640323D02*
X5525974Y-6659371D01*
X5525974Y-6659371D02*
X5525974Y-6716513D01*
X5525974Y-6716513D02*
X5516450Y-6735561D01*
X5516450Y-6735561D02*
X5506926Y-6745085D01*
X5506926Y-6745085D02*
X5487879Y-6754609D01*
X5487879Y-6754609D02*
X5459307Y-6754609D01*
X5583117Y-6621275D02*
X5659307Y-6621275D01*
X5611688Y-6554609D02*
X5611688Y-6726037D01*
X5611688Y-6726037D02*
X5621212Y-6745085D01*
X5621212Y-6745085D02*
X5640259Y-6754609D01*
X5640259Y-6754609D02*
X5659307Y-6754609D01*
X5878355Y-6621275D02*
X5878355Y-6821275D01*
X5878355Y-6630799D02*
X5897402Y-6621275D01*
X5897402Y-6621275D02*
X5935498Y-6621275D01*
X5935498Y-6621275D02*
X5954545Y-6630799D01*
X5954545Y-6630799D02*
X5964069Y-6640323D01*
X5964069Y-6640323D02*
X5973593Y-6659371D01*
X5973593Y-6659371D02*
X5973593Y-6716513D01*
X5973593Y-6716513D02*
X5964069Y-6735561D01*
X5964069Y-6735561D02*
X5954545Y-6745085D01*
X5954545Y-6745085D02*
X5935498Y-6754609D01*
X5935498Y-6754609D02*
X5897402Y-6754609D01*
X5897402Y-6754609D02*
X5878355Y-6745085D01*
X6087878Y-6754609D02*
X6068831Y-6745085D01*
X6068831Y-6745085D02*
X6059307Y-6726037D01*
X6059307Y-6726037D02*
X6059307Y-6554609D01*
X6249783Y-6754609D02*
X6249783Y-6649847D01*
X6249783Y-6649847D02*
X6240259Y-6630799D01*
X6240259Y-6630799D02*
X6221212Y-6621275D01*
X6221212Y-6621275D02*
X6183117Y-6621275D01*
X6183117Y-6621275D02*
X6164069Y-6630799D01*
X6249783Y-6745085D02*
X6230736Y-6754609D01*
X6230736Y-6754609D02*
X6183117Y-6754609D01*
X6183117Y-6754609D02*
X6164069Y-6745085D01*
X6164069Y-6745085D02*
X6154545Y-6726037D01*
X6154545Y-6726037D02*
X6154545Y-6706990D01*
X6154545Y-6706990D02*
X6164069Y-6687942D01*
X6164069Y-6687942D02*
X6183117Y-6678418D01*
X6183117Y-6678418D02*
X6230736Y-6678418D01*
X6230736Y-6678418D02*
X6249783Y-6668894D01*
X6316450Y-6621275D02*
X6392640Y-6621275D01*
X6345021Y-6554609D02*
X6345021Y-6726037D01*
X6345021Y-6726037D02*
X6354545Y-6745085D01*
X6354545Y-6745085D02*
X6373593Y-6754609D01*
X6373593Y-6754609D02*
X6392640Y-6754609D01*
X6535498Y-6745085D02*
X6516450Y-6754609D01*
X6516450Y-6754609D02*
X6478355Y-6754609D01*
X6478355Y-6754609D02*
X6459307Y-6745085D01*
X6459307Y-6745085D02*
X6449783Y-6726037D01*
X6449783Y-6726037D02*
X6449783Y-6649847D01*
X6449783Y-6649847D02*
X6459307Y-6630799D01*
X6459307Y-6630799D02*
X6478355Y-6621275D01*
X6478355Y-6621275D02*
X6516450Y-6621275D01*
X6516450Y-6621275D02*
X6535498Y-6630799D01*
X6535498Y-6630799D02*
X6545021Y-6649847D01*
X6545021Y-6649847D02*
X6545021Y-6668894D01*
X6545021Y-6668894D02*
X6449783Y-6687942D01*
X6716450Y-6754609D02*
X6716450Y-6554609D01*
X6716450Y-6745085D02*
X6697402Y-6754609D01*
X6697402Y-6754609D02*
X6659307Y-6754609D01*
X6659307Y-6754609D02*
X6640259Y-6745085D01*
X6640259Y-6745085D02*
X6630736Y-6735561D01*
X6630736Y-6735561D02*
X6621212Y-6716513D01*
X6621212Y-6716513D02*
X6621212Y-6659371D01*
X6621212Y-6659371D02*
X6630736Y-6640323D01*
X6630736Y-6640323D02*
X6640259Y-6630799D01*
X6640259Y-6630799D02*
X6659307Y-6621275D01*
X6659307Y-6621275D02*
X6697402Y-6621275D01*
X6697402Y-6621275D02*
X6716450Y-6630799D01*
X6792640Y-6830799D02*
X6802164Y-6821275D01*
X6802164Y-6821275D02*
X6821212Y-6792704D01*
X6821212Y-6792704D02*
X6830736Y-6773656D01*
X6830736Y-6773656D02*
X6840259Y-6745085D01*
X6840259Y-6745085D02*
X6849783Y-6697466D01*
X6849783Y-6697466D02*
X6849783Y-6659371D01*
X6849783Y-6659371D02*
X6840259Y-6611752D01*
X6840259Y-6611752D02*
X6830736Y-6583180D01*
X6830736Y-6583180D02*
X6821212Y-6564133D01*
X6821212Y-6564133D02*
X6802164Y-6535561D01*
X6802164Y-6535561D02*
X6792640Y-6526037D01*
X36625Y-6983125D02*
G75*
G02*
X-163375Y-6983125I-100000J0D01*
G01*
X-163375Y-6983125D02*
G75*
G02*
X36625Y-6983125I100000J0D01*
G01*
X287878Y-6893656D02*
X297402Y-6884133D01*
X297402Y-6884133D02*
X316449Y-6874609D01*
X316449Y-6874609D02*
X364068Y-6874609D01*
X364068Y-6874609D02*
X383116Y-6884133D01*
X383116Y-6884133D02*
X392640Y-6893656D01*
X392640Y-6893656D02*
X402164Y-6912704D01*
X402164Y-6912704D02*
X402164Y-6931752D01*
X402164Y-6931752D02*
X392640Y-6960323D01*
X392640Y-6960323D02*
X278354Y-7074609D01*
X278354Y-7074609D02*
X402164Y-7074609D01*
X487878Y-7055561D02*
X497402Y-7065085D01*
X497402Y-7065085D02*
X487878Y-7074609D01*
X487878Y-7074609D02*
X478354Y-7065085D01*
X478354Y-7065085D02*
X487878Y-7055561D01*
X487878Y-7055561D02*
X487878Y-7074609D01*
X564069Y-6874609D02*
X697402Y-6874609D01*
X697402Y-6874609D02*
X611688Y-7074609D01*
X868830Y-6874609D02*
X773592Y-6874609D01*
X773592Y-6874609D02*
X764068Y-6969847D01*
X764068Y-6969847D02*
X773592Y-6960323D01*
X773592Y-6960323D02*
X792640Y-6950799D01*
X792640Y-6950799D02*
X840259Y-6950799D01*
X840259Y-6950799D02*
X859307Y-6960323D01*
X859307Y-6960323D02*
X868830Y-6969847D01*
X868830Y-6969847D02*
X878354Y-6988894D01*
X878354Y-6988894D02*
X878354Y-7036513D01*
X878354Y-7036513D02*
X868830Y-7055561D01*
X868830Y-7055561D02*
X859307Y-7065085D01*
X859307Y-7065085D02*
X840259Y-7074609D01*
X840259Y-7074609D02*
X792640Y-7074609D01*
X792640Y-7074609D02*
X773592Y-7065085D01*
X773592Y-7065085D02*
X764068Y-7055561D01*
X1002164Y-6874609D02*
X1021211Y-6874609D01*
X1021211Y-6874609D02*
X1040259Y-6884133D01*
X1040259Y-6884133D02*
X1049783Y-6893656D01*
X1049783Y-6893656D02*
X1059307Y-6912704D01*
X1059307Y-6912704D02*
X1068830Y-6950799D01*
X1068830Y-6950799D02*
X1068830Y-6998418D01*
X1068830Y-6998418D02*
X1059307Y-7036513D01*
X1059307Y-7036513D02*
X1049783Y-7055561D01*
X1049783Y-7055561D02*
X1040259Y-7065085D01*
X1040259Y-7065085D02*
X1021211Y-7074609D01*
X1021211Y-7074609D02*
X1002164Y-7074609D01*
X1002164Y-7074609D02*
X983116Y-7065085D01*
X983116Y-7065085D02*
X973592Y-7055561D01*
X973592Y-7055561D02*
X964068Y-7036513D01*
X964068Y-7036513D02*
X954545Y-6998418D01*
X954545Y-6998418D02*
X954545Y-6950799D01*
X954545Y-6950799D02*
X964068Y-6912704D01*
X964068Y-6912704D02*
X973592Y-6893656D01*
X973592Y-6893656D02*
X983116Y-6884133D01*
X983116Y-6884133D02*
X1002164Y-6874609D01*
X1154545Y-7074609D02*
X1154545Y-6941275D01*
X1154545Y-6960323D02*
X1164069Y-6950799D01*
X1164069Y-6950799D02*
X1183116Y-6941275D01*
X1183116Y-6941275D02*
X1211688Y-6941275D01*
X1211688Y-6941275D02*
X1230735Y-6950799D01*
X1230735Y-6950799D02*
X1240259Y-6969847D01*
X1240259Y-6969847D02*
X1240259Y-7074609D01*
X1240259Y-6969847D02*
X1249783Y-6950799D01*
X1249783Y-6950799D02*
X1268830Y-6941275D01*
X1268830Y-6941275D02*
X1297402Y-6941275D01*
X1297402Y-6941275D02*
X1316450Y-6950799D01*
X1316450Y-6950799D02*
X1325973Y-6969847D01*
X1325973Y-6969847D02*
X1325973Y-7074609D01*
X1421211Y-7074609D02*
X1421211Y-6941275D01*
X1421211Y-6960323D02*
X1430735Y-6950799D01*
X1430735Y-6950799D02*
X1449783Y-6941275D01*
X1449783Y-6941275D02*
X1478354Y-6941275D01*
X1478354Y-6941275D02*
X1497402Y-6950799D01*
X1497402Y-6950799D02*
X1506926Y-6969847D01*
X1506926Y-6969847D02*
X1506926Y-7074609D01*
X1506926Y-6969847D02*
X1516449Y-6950799D01*
X1516449Y-6950799D02*
X1535497Y-6941275D01*
X1535497Y-6941275D02*
X1564068Y-6941275D01*
X1564068Y-6941275D02*
X1583116Y-6950799D01*
X1583116Y-6950799D02*
X1592640Y-6969847D01*
X1592640Y-6969847D02*
X1592640Y-7074609D01*
X1983116Y-6865085D02*
X1811688Y-7122228D01*
X2240259Y-6874609D02*
X2259307Y-6874609D01*
X2259307Y-6874609D02*
X2278354Y-6884133D01*
X2278354Y-6884133D02*
X2287878Y-6893656D01*
X2287878Y-6893656D02*
X2297402Y-6912704D01*
X2297402Y-6912704D02*
X2306926Y-6950799D01*
X2306926Y-6950799D02*
X2306926Y-6998418D01*
X2306926Y-6998418D02*
X2297402Y-7036513D01*
X2297402Y-7036513D02*
X2287878Y-7055561D01*
X2287878Y-7055561D02*
X2278354Y-7065085D01*
X2278354Y-7065085D02*
X2259307Y-7074609D01*
X2259307Y-7074609D02*
X2240259Y-7074609D01*
X2240259Y-7074609D02*
X2221212Y-7065085D01*
X2221212Y-7065085D02*
X2211688Y-7055561D01*
X2211688Y-7055561D02*
X2202164Y-7036513D01*
X2202164Y-7036513D02*
X2192640Y-6998418D01*
X2192640Y-6998418D02*
X2192640Y-6950799D01*
X2192640Y-6950799D02*
X2202164Y-6912704D01*
X2202164Y-6912704D02*
X2211688Y-6893656D01*
X2211688Y-6893656D02*
X2221212Y-6884133D01*
X2221212Y-6884133D02*
X2240259Y-6874609D01*
X2392640Y-7055561D02*
X2402164Y-7065085D01*
X2402164Y-7065085D02*
X2392640Y-7074609D01*
X2392640Y-7074609D02*
X2383116Y-7065085D01*
X2383116Y-7065085D02*
X2392640Y-7055561D01*
X2392640Y-7055561D02*
X2392640Y-7074609D01*
X2592640Y-7074609D02*
X2478354Y-7074609D01*
X2535497Y-7074609D02*
X2535497Y-6874609D01*
X2535497Y-6874609D02*
X2516450Y-6903180D01*
X2516450Y-6903180D02*
X2497402Y-6922228D01*
X2497402Y-6922228D02*
X2478354Y-6931752D01*
X2716450Y-6874609D02*
X2735497Y-6874609D01*
X2735497Y-6874609D02*
X2754545Y-6884133D01*
X2754545Y-6884133D02*
X2764069Y-6893656D01*
X2764069Y-6893656D02*
X2773593Y-6912704D01*
X2773593Y-6912704D02*
X2783116Y-6950799D01*
X2783116Y-6950799D02*
X2783116Y-6998418D01*
X2783116Y-6998418D02*
X2773593Y-7036513D01*
X2773593Y-7036513D02*
X2764069Y-7055561D01*
X2764069Y-7055561D02*
X2754545Y-7065085D01*
X2754545Y-7065085D02*
X2735497Y-7074609D01*
X2735497Y-7074609D02*
X2716450Y-7074609D01*
X2716450Y-7074609D02*
X2697402Y-7065085D01*
X2697402Y-7065085D02*
X2687878Y-7055561D01*
X2687878Y-7055561D02*
X2678354Y-7036513D01*
X2678354Y-7036513D02*
X2668831Y-6998418D01*
X2668831Y-6998418D02*
X2668831Y-6950799D01*
X2668831Y-6950799D02*
X2678354Y-6912704D01*
X2678354Y-6912704D02*
X2687878Y-6893656D01*
X2687878Y-6893656D02*
X2697402Y-6884133D01*
X2697402Y-6884133D02*
X2716450Y-6874609D01*
X2897402Y-6960323D02*
X2878354Y-6950799D01*
X2878354Y-6950799D02*
X2868831Y-6941275D01*
X2868831Y-6941275D02*
X2859307Y-6922228D01*
X2859307Y-6922228D02*
X2859307Y-6912704D01*
X2859307Y-6912704D02*
X2868831Y-6893656D01*
X2868831Y-6893656D02*
X2878354Y-6884133D01*
X2878354Y-6884133D02*
X2897402Y-6874609D01*
X2897402Y-6874609D02*
X2935497Y-6874609D01*
X2935497Y-6874609D02*
X2954545Y-6884133D01*
X2954545Y-6884133D02*
X2964069Y-6893656D01*
X2964069Y-6893656D02*
X2973592Y-6912704D01*
X2973592Y-6912704D02*
X2973592Y-6922228D01*
X2973592Y-6922228D02*
X2964069Y-6941275D01*
X2964069Y-6941275D02*
X2954545Y-6950799D01*
X2954545Y-6950799D02*
X2935497Y-6960323D01*
X2935497Y-6960323D02*
X2897402Y-6960323D01*
X2897402Y-6960323D02*
X2878354Y-6969847D01*
X2878354Y-6969847D02*
X2868831Y-6979371D01*
X2868831Y-6979371D02*
X2859307Y-6998418D01*
X2859307Y-6998418D02*
X2859307Y-7036513D01*
X2859307Y-7036513D02*
X2868831Y-7055561D01*
X2868831Y-7055561D02*
X2878354Y-7065085D01*
X2878354Y-7065085D02*
X2897402Y-7074609D01*
X2897402Y-7074609D02*
X2935497Y-7074609D01*
X2935497Y-7074609D02*
X2954545Y-7065085D01*
X2954545Y-7065085D02*
X2964069Y-7055561D01*
X2964069Y-7055561D02*
X2973592Y-7036513D01*
X2973592Y-7036513D02*
X2973592Y-6998418D01*
X2973592Y-6998418D02*
X2964069Y-6979371D01*
X2964069Y-6979371D02*
X2954545Y-6969847D01*
X2954545Y-6969847D02*
X2935497Y-6960323D01*
X3040259Y-6874609D02*
X3164069Y-6874609D01*
X3164069Y-6874609D02*
X3097402Y-6950799D01*
X3097402Y-6950799D02*
X3125973Y-6950799D01*
X3125973Y-6950799D02*
X3145021Y-6960323D01*
X3145021Y-6960323D02*
X3154545Y-6969847D01*
X3154545Y-6969847D02*
X3164069Y-6988894D01*
X3164069Y-6988894D02*
X3164069Y-7036513D01*
X3164069Y-7036513D02*
X3154545Y-7055561D01*
X3154545Y-7055561D02*
X3145021Y-7065085D01*
X3145021Y-7065085D02*
X3125973Y-7074609D01*
X3125973Y-7074609D02*
X3068831Y-7074609D01*
X3068831Y-7074609D02*
X3049783Y-7065085D01*
X3049783Y-7065085D02*
X3040259Y-7055561D01*
X3240259Y-6874609D02*
X3240259Y-6912704D01*
X3316450Y-6874609D02*
X3316450Y-6912704D01*
X3611688Y-7150799D02*
X3602164Y-7141275D01*
X3602164Y-7141275D02*
X3583116Y-7112704D01*
X3583116Y-7112704D02*
X3573593Y-7093656D01*
X3573593Y-7093656D02*
X3564069Y-7065085D01*
X3564069Y-7065085D02*
X3554545Y-7017466D01*
X3554545Y-7017466D02*
X3554545Y-6979371D01*
X3554545Y-6979371D02*
X3564069Y-6931752D01*
X3564069Y-6931752D02*
X3573593Y-6903180D01*
X3573593Y-6903180D02*
X3583116Y-6884133D01*
X3583116Y-6884133D02*
X3602164Y-6855561D01*
X3602164Y-6855561D02*
X3611688Y-6846037D01*
X3773593Y-6941275D02*
X3773593Y-7074609D01*
X3725973Y-6865085D02*
X3678354Y-7007942D01*
X3678354Y-7007942D02*
X3802164Y-7007942D01*
X4030735Y-7074609D02*
X4030735Y-6874609D01*
X4116450Y-7074609D02*
X4116450Y-6969847D01*
X4116450Y-6969847D02*
X4106926Y-6950799D01*
X4106926Y-6950799D02*
X4087878Y-6941275D01*
X4087878Y-6941275D02*
X4059307Y-6941275D01*
X4059307Y-6941275D02*
X4040259Y-6950799D01*
X4040259Y-6950799D02*
X4030735Y-6960323D01*
X4240259Y-7074609D02*
X4221212Y-7065085D01*
X4221212Y-7065085D02*
X4211688Y-7055561D01*
X4211688Y-7055561D02*
X4202164Y-7036513D01*
X4202164Y-7036513D02*
X4202164Y-6979371D01*
X4202164Y-6979371D02*
X4211688Y-6960323D01*
X4211688Y-6960323D02*
X4221212Y-6950799D01*
X4221212Y-6950799D02*
X4240259Y-6941275D01*
X4240259Y-6941275D02*
X4268831Y-6941275D01*
X4268831Y-6941275D02*
X4287878Y-6950799D01*
X4287878Y-6950799D02*
X4297402Y-6960323D01*
X4297402Y-6960323D02*
X4306926Y-6979371D01*
X4306926Y-6979371D02*
X4306926Y-7036513D01*
X4306926Y-7036513D02*
X4297402Y-7055561D01*
X4297402Y-7055561D02*
X4287878Y-7065085D01*
X4287878Y-7065085D02*
X4268831Y-7074609D01*
X4268831Y-7074609D02*
X4240259Y-7074609D01*
X4421212Y-7074609D02*
X4402164Y-7065085D01*
X4402164Y-7065085D02*
X4392640Y-7046037D01*
X4392640Y-7046037D02*
X4392640Y-6874609D01*
X4573593Y-7065085D02*
X4554545Y-7074609D01*
X4554545Y-7074609D02*
X4516450Y-7074609D01*
X4516450Y-7074609D02*
X4497402Y-7065085D01*
X4497402Y-7065085D02*
X4487878Y-7046037D01*
X4487878Y-7046037D02*
X4487878Y-6969847D01*
X4487878Y-6969847D02*
X4497402Y-6950799D01*
X4497402Y-6950799D02*
X4516450Y-6941275D01*
X4516450Y-6941275D02*
X4554545Y-6941275D01*
X4554545Y-6941275D02*
X4573593Y-6950799D01*
X4573593Y-6950799D02*
X4583117Y-6969847D01*
X4583117Y-6969847D02*
X4583117Y-6988894D01*
X4583117Y-6988894D02*
X4487878Y-7007942D01*
X4659307Y-7065085D02*
X4678355Y-7074609D01*
X4678355Y-7074609D02*
X4716450Y-7074609D01*
X4716450Y-7074609D02*
X4735498Y-7065085D01*
X4735498Y-7065085D02*
X4745021Y-7046037D01*
X4745021Y-7046037D02*
X4745021Y-7036513D01*
X4745021Y-7036513D02*
X4735498Y-7017466D01*
X4735498Y-7017466D02*
X4716450Y-7007942D01*
X4716450Y-7007942D02*
X4687878Y-7007942D01*
X4687878Y-7007942D02*
X4668831Y-6998418D01*
X4668831Y-6998418D02*
X4659307Y-6979371D01*
X4659307Y-6979371D02*
X4659307Y-6969847D01*
X4659307Y-6969847D02*
X4668831Y-6950799D01*
X4668831Y-6950799D02*
X4687878Y-6941275D01*
X4687878Y-6941275D02*
X4716450Y-6941275D01*
X4716450Y-6941275D02*
X4735498Y-6950799D01*
X4811688Y-7150799D02*
X4821212Y-7141275D01*
X4821212Y-7141275D02*
X4840259Y-7112704D01*
X4840259Y-7112704D02*
X4849783Y-7093656D01*
X4849783Y-7093656D02*
X4859307Y-7065085D01*
X4859307Y-7065085D02*
X4868831Y-7017466D01*
X4868831Y-7017466D02*
X4868831Y-6979371D01*
X4868831Y-6979371D02*
X4859307Y-6931752D01*
X4859307Y-6931752D02*
X4849783Y-6903180D01*
X4849783Y-6903180D02*
X4840259Y-6884133D01*
X4840259Y-6884133D02*
X4821212Y-6855561D01*
X4821212Y-6855561D02*
X4811688Y-6846037D01*
X5173593Y-7150799D02*
X5164069Y-7141275D01*
X5164069Y-7141275D02*
X5145021Y-7112704D01*
X5145021Y-7112704D02*
X5135498Y-7093656D01*
X5135498Y-7093656D02*
X5125974Y-7065085D01*
X5125974Y-7065085D02*
X5116450Y-7017466D01*
X5116450Y-7017466D02*
X5116450Y-6979371D01*
X5116450Y-6979371D02*
X5125974Y-6931752D01*
X5125974Y-6931752D02*
X5135498Y-6903180D01*
X5135498Y-6903180D02*
X5145021Y-6884133D01*
X5145021Y-6884133D02*
X5164069Y-6855561D01*
X5164069Y-6855561D02*
X5173593Y-6846037D01*
X5249783Y-6941275D02*
X5249783Y-7074609D01*
X5249783Y-6960323D02*
X5259307Y-6950799D01*
X5259307Y-6950799D02*
X5278355Y-6941275D01*
X5278355Y-6941275D02*
X5306926Y-6941275D01*
X5306926Y-6941275D02*
X5325974Y-6950799D01*
X5325974Y-6950799D02*
X5335498Y-6969847D01*
X5335498Y-6969847D02*
X5335498Y-7074609D01*
X5459307Y-7074609D02*
X5440259Y-7065085D01*
X5440259Y-7065085D02*
X5430736Y-7055561D01*
X5430736Y-7055561D02*
X5421212Y-7036513D01*
X5421212Y-7036513D02*
X5421212Y-6979371D01*
X5421212Y-6979371D02*
X5430736Y-6960323D01*
X5430736Y-6960323D02*
X5440259Y-6950799D01*
X5440259Y-6950799D02*
X5459307Y-6941275D01*
X5459307Y-6941275D02*
X5487879Y-6941275D01*
X5487879Y-6941275D02*
X5506926Y-6950799D01*
X5506926Y-6950799D02*
X5516450Y-6960323D01*
X5516450Y-6960323D02*
X5525974Y-6979371D01*
X5525974Y-6979371D02*
X5525974Y-7036513D01*
X5525974Y-7036513D02*
X5516450Y-7055561D01*
X5516450Y-7055561D02*
X5506926Y-7065085D01*
X5506926Y-7065085D02*
X5487879Y-7074609D01*
X5487879Y-7074609D02*
X5459307Y-7074609D01*
X5583117Y-6941275D02*
X5659307Y-6941275D01*
X5611688Y-6874609D02*
X5611688Y-7046037D01*
X5611688Y-7046037D02*
X5621212Y-7065085D01*
X5621212Y-7065085D02*
X5640259Y-7074609D01*
X5640259Y-7074609D02*
X5659307Y-7074609D01*
X5878355Y-6941275D02*
X5878355Y-7141275D01*
X5878355Y-6950799D02*
X5897402Y-6941275D01*
X5897402Y-6941275D02*
X5935498Y-6941275D01*
X5935498Y-6941275D02*
X5954545Y-6950799D01*
X5954545Y-6950799D02*
X5964069Y-6960323D01*
X5964069Y-6960323D02*
X5973593Y-6979371D01*
X5973593Y-6979371D02*
X5973593Y-7036513D01*
X5973593Y-7036513D02*
X5964069Y-7055561D01*
X5964069Y-7055561D02*
X5954545Y-7065085D01*
X5954545Y-7065085D02*
X5935498Y-7074609D01*
X5935498Y-7074609D02*
X5897402Y-7074609D01*
X5897402Y-7074609D02*
X5878355Y-7065085D01*
X6087878Y-7074609D02*
X6068831Y-7065085D01*
X6068831Y-7065085D02*
X6059307Y-7046037D01*
X6059307Y-7046037D02*
X6059307Y-6874609D01*
X6249783Y-7074609D02*
X6249783Y-6969847D01*
X6249783Y-6969847D02*
X6240259Y-6950799D01*
X6240259Y-6950799D02*
X6221212Y-6941275D01*
X6221212Y-6941275D02*
X6183117Y-6941275D01*
X6183117Y-6941275D02*
X6164069Y-6950799D01*
X6249783Y-7065085D02*
X6230736Y-7074609D01*
X6230736Y-7074609D02*
X6183117Y-7074609D01*
X6183117Y-7074609D02*
X6164069Y-7065085D01*
X6164069Y-7065085D02*
X6154545Y-7046037D01*
X6154545Y-7046037D02*
X6154545Y-7026990D01*
X6154545Y-7026990D02*
X6164069Y-7007942D01*
X6164069Y-7007942D02*
X6183117Y-6998418D01*
X6183117Y-6998418D02*
X6230736Y-6998418D01*
X6230736Y-6998418D02*
X6249783Y-6988894D01*
X6316450Y-6941275D02*
X6392640Y-6941275D01*
X6345021Y-6874609D02*
X6345021Y-7046037D01*
X6345021Y-7046037D02*
X6354545Y-7065085D01*
X6354545Y-7065085D02*
X6373593Y-7074609D01*
X6373593Y-7074609D02*
X6392640Y-7074609D01*
X6535498Y-7065085D02*
X6516450Y-7074609D01*
X6516450Y-7074609D02*
X6478355Y-7074609D01*
X6478355Y-7074609D02*
X6459307Y-7065085D01*
X6459307Y-7065085D02*
X6449783Y-7046037D01*
X6449783Y-7046037D02*
X6449783Y-6969847D01*
X6449783Y-6969847D02*
X6459307Y-6950799D01*
X6459307Y-6950799D02*
X6478355Y-6941275D01*
X6478355Y-6941275D02*
X6516450Y-6941275D01*
X6516450Y-6941275D02*
X6535498Y-6950799D01*
X6535498Y-6950799D02*
X6545021Y-6969847D01*
X6545021Y-6969847D02*
X6545021Y-6988894D01*
X6545021Y-6988894D02*
X6449783Y-7007942D01*
X6716450Y-7074609D02*
X6716450Y-6874609D01*
X6716450Y-7065085D02*
X6697402Y-7074609D01*
X6697402Y-7074609D02*
X6659307Y-7074609D01*
X6659307Y-7074609D02*
X6640259Y-7065085D01*
X6640259Y-7065085D02*
X6630736Y-7055561D01*
X6630736Y-7055561D02*
X6621212Y-7036513D01*
X6621212Y-7036513D02*
X6621212Y-6979371D01*
X6621212Y-6979371D02*
X6630736Y-6960323D01*
X6630736Y-6960323D02*
X6640259Y-6950799D01*
X6640259Y-6950799D02*
X6659307Y-6941275D01*
X6659307Y-6941275D02*
X6697402Y-6941275D01*
X6697402Y-6941275D02*
X6716450Y-6950799D01*
X6792640Y-7150799D02*
X6802164Y-7141275D01*
X6802164Y-7141275D02*
X6821212Y-7112704D01*
X6821212Y-7112704D02*
X6830736Y-7093656D01*
X6830736Y-7093656D02*
X6840259Y-7065085D01*
X6840259Y-7065085D02*
X6849783Y-7017466D01*
X6849783Y-7017466D02*
X6849783Y-6979371D01*
X6849783Y-6979371D02*
X6840259Y-6931752D01*
X6840259Y-6931752D02*
X6830736Y-6903180D01*
X6830736Y-6903180D02*
X6821212Y-6884133D01*
X6821212Y-6884133D02*
X6802164Y-6855561D01*
X6802164Y-6855561D02*
X6792640Y-6846037D01*
M02*
