M48
; DRILL file {KiCad 9.0.2} date 2025-06-30T23:43:06-0400
; FORMAT={-:-/ absolute / metric / decimal}
; #@! TF.CreationDate,2025-06-30T23:43:06-04:00
; #@! TF.GenerationSoftware,Kicad,Pcbnew,9.0.2
; #@! TF.FileFunction,Plated,1,2,PTH
FMAT,2
METRIC
; #@! TA.AperFunction,Plated,PTH,ViaDrill
T1C0.300
; #@! TA.AperFunction,Plated,PTH,ComponentDrill
T2C0.900
; #@! TA.AperFunction,Plated,PTH,ComponentDrill
T3C1.000
; #@! TA.AperFunction,Plated,PTH,ComponentDrill
T4C1.100
; #@! TA.AperFunction,Plated,PTH,ComponentDrill
T5C2.500
%
G90
G05
T1
X30.381Y-25.619
T2
X18.812Y-55.0
X21.312Y-55.0
X23.812Y-55.0
T3
X50.87Y-3.899
X50.87Y-6.439
X53.41Y-3.899
X53.41Y-6.439
X55.95Y-3.899
X55.95Y-6.439
X58.49Y-3.899
X58.49Y-6.439
X61.03Y-3.899
X61.03Y-6.439
X63.57Y-3.899
X63.57Y-6.439
X66.11Y-3.899
X66.11Y-6.439
X68.65Y-3.899
X68.65Y-6.439
X71.19Y-3.899
X71.19Y-6.439
X73.73Y-3.899
X73.73Y-6.439
X76.27Y-3.899
X76.27Y-6.439
X78.81Y-3.899
X78.81Y-6.439
X81.35Y-3.899
X81.35Y-6.439
X83.89Y-3.899
X83.89Y-6.439
X86.43Y-3.899
X86.43Y-6.439
X88.97Y-3.899
X88.97Y-6.439
X91.51Y-3.899
X91.51Y-6.439
X94.05Y-3.899
X94.05Y-6.439
X96.59Y-3.899
X96.59Y-6.439
X99.13Y-3.899
X99.13Y-6.439
X118.396Y-57.785
X120.936Y-57.785
X123.476Y-57.785
X126.016Y-57.785
X128.556Y-57.785
X131.096Y-57.785
X133.636Y-57.785
X136.176Y-57.785
T4
X8.0Y-17.0
X8.0Y-21.5
X14.5Y-17.0
X14.5Y-21.5
X18.0Y-7.0
X18.0Y-11.5
X18.0Y-17.0
X18.0Y-21.5
X18.0Y-27.0
X18.0Y-31.5
X24.5Y-7.0
X24.5Y-11.5
X24.5Y-17.0
X24.5Y-21.5
X24.5Y-27.0
X24.5Y-31.5
X28.0Y-17.0
X28.0Y-21.5
X34.5Y-17.0
X34.5Y-21.5
X116.0Y-17.0
X116.0Y-21.5
X122.5Y-17.0
X122.5Y-21.5
X126.0Y-7.0
X126.0Y-11.5
X126.0Y-17.0
X126.0Y-21.5
X126.0Y-27.0
X126.0Y-31.5
X132.5Y-7.0
X132.5Y-11.5
X132.5Y-17.0
X132.5Y-21.5
X132.5Y-27.0
X132.5Y-31.5
X136.0Y-17.0
X136.0Y-21.5
X142.5Y-17.0
X142.5Y-21.5
T5
X146.463Y-38.735
X146.463Y-56.515
M30
