%TF.GenerationSoftware,KiCad,Pcbnew,9.0.2*%
%TF.CreationDate,2025-06-30T23:43:09-04:00*%
%TF.ProjectId,GamePad_Zero,47616d65-5061-4645-9f5a-65726f2e6b69,rev?*%
%TF.SameCoordinates,Original*%
%TF.FileFunction,Copper,L1,Top*%
%TF.FilePolarity,Positive*%
%FSLAX46Y46*%
G04 Gerber Fmt 4.6, Leading zero omitted, Abs format (unit mm)*
G04 Created by KiCad (PCBNEW 9.0.2) date 2025-06-30 23:43:09*
%MOMM*%
%LPD*%
G01*
G04 APERTURE LIST*
%TA.AperFunction,ComponentPad*%
%ADD10C,1.508000*%
%TD*%
%TA.AperFunction,ComponentPad*%
%ADD11R,1.508000X1.508000*%
%TD*%
%TA.AperFunction,ComponentPad*%
%ADD12C,2.000000*%
%TD*%
%TA.AperFunction,ComponentPad*%
%ADD13R,1.408000X1.408000*%
%TD*%
%TA.AperFunction,ComponentPad*%
%ADD14C,1.408000*%
%TD*%
%TA.AperFunction,ComponentPad*%
%ADD15C,3.516000*%
%TD*%
%TA.AperFunction,ViaPad*%
%ADD16C,0.600000*%
%TD*%
%TA.AperFunction,Conductor*%
%ADD17C,0.200000*%
%TD*%
G04 APERTURE END LIST*
D10*
%TO.P,J1,40,Pin_40*%
%TO.N,Net-(J1-Pin_40)*%
X99130000Y-3898750D03*
%TO.P,J1,39,Pin_39*%
%TO.N,unconnected-(J1-Pin_39-Pad39)*%
X99130000Y-6438750D03*
%TO.P,J1,38,Pin_38*%
%TO.N,Net-(J1-Pin_38)*%
X96590000Y-3898750D03*
%TO.P,J1,37,Pin_37*%
%TO.N,unconnected-(J1-Pin_37-Pad37)*%
X96590000Y-6438750D03*
%TO.P,J1,36,Pin_36*%
%TO.N,Net-(J1-Pin_36)*%
X94050000Y-3898750D03*
%TO.P,J1,35,Pin_35*%
%TO.N,Net-(J1-Pin_35)*%
X94050000Y-6438750D03*
%TO.P,J1,34,Pin_34*%
%TO.N,unconnected-(J1-Pin_34-Pad34)*%
X91510000Y-3898750D03*
%TO.P,J1,33,Pin_33*%
%TO.N,Net-(J1-Pin_33)*%
X91510000Y-6438750D03*
%TO.P,J1,32,Pin_32*%
%TO.N,Net-(J1-Pin_32)*%
X88970000Y-3898750D03*
%TO.P,J1,31,Pin_31*%
%TO.N,Net-(J1-Pin_31)*%
X88970000Y-6438750D03*
%TO.P,J1,30,Pin_30*%
%TO.N,unconnected-(J1-Pin_30-Pad30)*%
X86430000Y-3898750D03*
%TO.P,J1,29,Pin_29*%
%TO.N,Net-(J1-Pin_29)*%
X86430000Y-6438750D03*
%TO.P,J1,28,Pin_28*%
%TO.N,unconnected-(J1-Pin_28-Pad28)*%
X83890000Y-3898750D03*
%TO.P,J1,27,Pin_27*%
%TO.N,unconnected-(J1-Pin_27-Pad27)*%
X83890000Y-6438750D03*
%TO.P,J1,26,Pin_26*%
%TO.N,unconnected-(J1-Pin_26-Pad26)*%
X81350000Y-3898750D03*
%TO.P,J1,25,Pin_25*%
%TO.N,unconnected-(J1-Pin_25-Pad25)*%
X81350000Y-6438750D03*
%TO.P,J1,24,Pin_24*%
%TO.N,unconnected-(J1-Pin_24-Pad24)*%
X78810000Y-3898750D03*
%TO.P,J1,23,Pin_23*%
%TO.N,unconnected-(J1-Pin_23-Pad23)*%
X78810000Y-6438750D03*
%TO.P,J1,22,Pin_22*%
%TO.N,unconnected-(J1-Pin_22-Pad22)*%
X76270000Y-3898750D03*
%TO.P,J1,21,Pin_21*%
%TO.N,unconnected-(J1-Pin_21-Pad21)*%
X76270000Y-6438750D03*
%TO.P,J1,20,Pin_20*%
%TO.N,unconnected-(J1-Pin_20-Pad20)*%
X73730000Y-3898750D03*
%TO.P,J1,19,Pin_19*%
%TO.N,unconnected-(J1-Pin_19-Pad19)*%
X73730000Y-6438750D03*
%TO.P,J1,18,Pin_18*%
%TO.N,Net-(J1-Pin_18)*%
X71190000Y-3898750D03*
%TO.P,J1,17,Pin_17*%
%TO.N,unconnected-(J1-Pin_17-Pad17)*%
X71190000Y-6438750D03*
%TO.P,J1,16,Pin_16*%
%TO.N,unconnected-(J1-Pin_16-Pad16)*%
X68650000Y-3898750D03*
%TO.P,J1,15,Pin_15*%
%TO.N,unconnected-(J1-Pin_15-Pad15)*%
X68650000Y-6438750D03*
%TO.P,J1,14,Pin_14*%
%TO.N,unconnected-(J1-Pin_14-Pad14)*%
X66110000Y-3898750D03*
%TO.P,J1,13,Pin_13*%
%TO.N,unconnected-(J1-Pin_13-Pad13)*%
X66110000Y-6438750D03*
%TO.P,J1,12,Pin_12*%
%TO.N,Net-(J1-Pin_12)*%
X63570000Y-3898750D03*
%TO.P,J1,11,Pin_11*%
%TO.N,unconnected-(J1-Pin_11-Pad11)*%
X63570000Y-6438750D03*
%TO.P,J1,10,Pin_10*%
%TO.N,unconnected-(J1-Pin_10-Pad10)*%
X61030000Y-3898750D03*
%TO.P,J1,9,Pin_9*%
%TO.N,unconnected-(J1-Pin_9-Pad9)*%
X61030000Y-6438750D03*
%TO.P,J1,8,Pin_8*%
%TO.N,unconnected-(J1-Pin_8-Pad8)*%
X58490000Y-3898750D03*
%TO.P,J1,7,Pin_7*%
%TO.N,unconnected-(J1-Pin_7-Pad7)*%
X58490000Y-6438750D03*
%TO.P,J1,6,Pin_6*%
%TO.N,Net-(J1-Pin_6)*%
X55950000Y-3898750D03*
%TO.P,J1,5,Pin_5*%
%TO.N,unconnected-(J1-Pin_5-Pad5)*%
X55950000Y-6438750D03*
%TO.P,J1,4,Pin_4*%
%TO.N,unconnected-(J1-Pin_4-Pad4)*%
X53410000Y-3898750D03*
%TO.P,J1,3,Pin_3*%
%TO.N,unconnected-(J1-Pin_3-Pad3)*%
X53410000Y-6438750D03*
%TO.P,J1,2,Pin_2*%
%TO.N,Net-(J1-Pin_2)*%
X50870000Y-3898750D03*
D11*
%TO.P,J1,1,Pin_1*%
%TO.N,unconnected-(J1-Pin_1-Pad1)*%
X50870000Y-6438750D03*
%TD*%
D12*
%TO.P,y1,1,1*%
%TO.N,Net-(J1-Pin_35)*%
X116000000Y-17000000D03*
X122500000Y-17000000D03*
%TO.P,y1,2,2*%
%TO.N,GND*%
X116000000Y-21500000D03*
X122500000Y-21500000D03*
%TD*%
%TO.P,b1,1,1*%
%TO.N,Net-(J1-Pin_33)*%
X126000000Y-27000000D03*
X132500000Y-27000000D03*
%TO.P,b1,2,2*%
%TO.N,GND*%
X126000000Y-31500000D03*
X132500000Y-31500000D03*
%TD*%
%TO.P,x1,1,1*%
%TO.N,Net-(J1-Pin_36)*%
X126000000Y-7000000D03*
X132500000Y-7000000D03*
%TO.P,x1,2,2*%
%TO.N,GND*%
X126000000Y-11500000D03*
X132500000Y-11500000D03*
%TD*%
%TO.P,Right1,1,1*%
%TO.N,GND*%
X28000000Y-17000000D03*
X34500000Y-17000000D03*
%TO.P,Right1,2,2*%
%TO.N,Net-(J1-Pin_18)*%
X28000000Y-21500000D03*
X34500000Y-21500000D03*
%TD*%
%TO.P,a1,1,1*%
%TO.N,Net-(J1-Pin_32)*%
X136000000Y-17000000D03*
X142500000Y-17000000D03*
%TO.P,a1,2,2*%
%TO.N,GND*%
X136000000Y-21500000D03*
X142500000Y-21500000D03*
%TD*%
%TO.P,Down1,1,1*%
%TO.N,GND*%
X18000000Y-27000000D03*
X24500000Y-27000000D03*
%TO.P,Down1,2,2*%
%TO.N,Net-(J1-Pin_29)*%
X18000000Y-31500000D03*
X24500000Y-31500000D03*
%TD*%
D13*
%TO.P,SW1,1,A*%
%TO.N,Net-(SW1-A)*%
X18812500Y-55000000D03*
D14*
%TO.P,SW1,2,B*%
%TO.N,Net-(J1-Pin_6)*%
X21312500Y-55000000D03*
%TO.P,SW1,3,C*%
%TO.N,unconnected-(SW1-C-Pad3)*%
X23812500Y-55000000D03*
%TD*%
D12*
%TO.P,Left1,1,1*%
%TO.N,GND*%
X8000000Y-17000000D03*
X14500000Y-17000000D03*
%TO.P,Left1,2,2*%
%TO.N,Net-(J1-Pin_12)*%
X8000000Y-21500000D03*
X14500000Y-21500000D03*
%TD*%
%TO.P,Up1,1,1*%
%TO.N,GND*%
X18000000Y-7000000D03*
X24500000Y-7000000D03*
%TO.P,Up1,2,2*%
%TO.N,Net-(J1-Pin_31)*%
X18000000Y-11500000D03*
X24500000Y-11500000D03*
%TD*%
%TO.P,LeftShoulder1,1,1*%
%TO.N,GND*%
X132500000Y-17000000D03*
X126000000Y-17000000D03*
%TO.P,LeftShoulder1,2,2*%
%TO.N,Net-(J1-Pin_38)*%
X132500000Y-21500000D03*
X126000000Y-21500000D03*
%TD*%
%TO.P,RightShoulder1,1,1*%
%TO.N,Net-(J1-Pin_40)*%
X24500000Y-17000000D03*
X18000000Y-17000000D03*
%TO.P,RightShoulder1,2,2*%
%TO.N,GND*%
X24500000Y-21500000D03*
X18000000Y-21500000D03*
%TD*%
D11*
%TO.P,U1,1,VBUS*%
%TO.N,unconnected-(U1-VBUS-Pad1)*%
X136175750Y-57785000D03*
D10*
%TO.P,U1,2,VLIPO*%
%TO.N,unconnected-(U1-VLIPO-Pad2)*%
X133635750Y-57785000D03*
%TO.P,U1,3,VBAT*%
%TO.N,unconnected-(U1-VBAT-Pad3)*%
X131095750Y-57785000D03*
%TO.P,U1,4,EN*%
%TO.N,Net-(SW1-A)*%
X128555750Y-57785000D03*
%TO.P,U1,5,GND*%
%TO.N,Net-(J1-Pin_6)*%
X126015750Y-57785000D03*
%TO.P,U1,6,LBO*%
%TO.N,unconnected-(U1-LBO-Pad6)*%
X123475750Y-57785000D03*
%TO.P,U1,7,GND*%
%TO.N,Net-(J1-Pin_6)*%
X120935750Y-57785000D03*
%TO.P,U1,8,5V*%
%TO.N,Net-(J1-Pin_2)*%
X118395750Y-57785000D03*
D15*
%TO.P,U1,P1*%
%TO.N,N/C*%
X146462750Y-56515000D03*
%TO.P,U1,P2*%
X146462750Y-38735000D03*
%TD*%
D16*
%TO.N,Net-(J1-Pin_18)*%
X30381250Y-25618750D03*
%TD*%
D17*
%TO.N,GND*%
X39000000Y-21500000D02*
X116000000Y-21500000D01*
X34500000Y-17000000D02*
X39000000Y-21500000D01*
%TO.N,Net-(J1-Pin_18)*%
X30381250Y-23881250D02*
X30381250Y-25618750D01*
X28000000Y-21500000D02*
X30381250Y-23881250D01*
%TO.N,Net-(J1-Pin_6)*%
X74288500Y-21901000D02*
X37561108Y-21901000D01*
X111227500Y-58840000D02*
X74288500Y-21901000D01*
X120935750Y-57785000D02*
X119880750Y-58840000D01*
X124960750Y-56730000D02*
X121990750Y-56730000D01*
X21312500Y-55000000D02*
X33199000Y-43113500D01*
X126015750Y-57785000D02*
X124960750Y-56730000D01*
X33199000Y-17538892D02*
X33199000Y-16461108D01*
X54276996Y-7493750D02*
X54895000Y-6875746D01*
X54895000Y-6875746D02*
X54895000Y-4953750D01*
X119880750Y-58840000D02*
X111227500Y-58840000D01*
X54895000Y-4953750D02*
X55950000Y-3898750D01*
X33199000Y-43113500D02*
X33199000Y-16461108D01*
X42166358Y-7493750D02*
X54276996Y-7493750D01*
X37561108Y-21901000D02*
X33199000Y-17538892D01*
X121990750Y-56730000D02*
X120935750Y-57785000D01*
X33199000Y-16461108D02*
X42166358Y-7493750D01*
%TO.N,Net-(J1-Pin_2)*%
X118395750Y-57785000D02*
X118395750Y-22055858D01*
X56386996Y-2843750D02*
X51925000Y-2843750D01*
X57623004Y-4953750D02*
X57005000Y-4335746D01*
X118395750Y-22055858D02*
X101293642Y-4953750D01*
X51925000Y-2843750D02*
X50870000Y-3898750D01*
X101293642Y-4953750D02*
X57623004Y-4953750D01*
X57005000Y-3461754D02*
X56386996Y-2843750D01*
X57005000Y-4335746D02*
X57005000Y-3461754D01*
%TO.N,Net-(J1-Pin_40)*%
X97674000Y-2442750D02*
X39057250Y-2442750D01*
X99130000Y-3898750D02*
X97674000Y-2442750D01*
X39057250Y-2442750D02*
X24500000Y-17000000D01*
%TD*%
M02*
