%TF.GenerationSoftware,KiCad,Pcbnew,9.0.2*%
%TF.CreationDate,2025-06-30T23:43:09-04:00*%
%TF.ProjectId,GamePad_Zero,47616d65-5061-4645-9f5a-65726f2e6b69,rev?*%
%TF.SameCoordinates,Original*%
%TF.FileFunction,Soldermask,Top*%
%TF.FilePolarity,Negative*%
%FSLAX46Y46*%
G04 Gerber Fmt 4.6, Leading zero omitted, Abs format (unit mm)*
G04 Created by KiCad (PCBNEW 9.0.2) date 2025-06-30 23:43:09*
%MOMM*%
%LPD*%
G01*
G04 APERTURE LIST*
G04 Aperture macros list*
%AMRoundRect*
0 Rectangle with rounded corners*
0 $1 Rounding radius*
0 $2 $3 $4 $5 $6 $7 $8 $9 X,Y pos of 4 corners*
0 Add a 4 corners polygon primitive as box body*
4,1,4,$2,$3,$4,$5,$6,$7,$8,$9,$2,$3,0*
0 Add four circle primitives for the rounded corners*
1,1,$1+$1,$2,$3*
1,1,$1+$1,$4,$5*
1,1,$1+$1,$6,$7*
1,1,$1+$1,$8,$9*
0 Add four rect primitives between the rounded corners*
20,1,$1+$1,$2,$3,$4,$5,0*
20,1,$1+$1,$4,$5,$6,$7,0*
20,1,$1+$1,$6,$7,$8,$9,0*
20,1,$1+$1,$8,$9,$2,$3,0*%
G04 Aperture macros list end*
%ADD10C,1.712000*%
%ADD11RoundRect,0.102000X-0.754000X-0.754000X0.754000X-0.754000X0.754000X0.754000X-0.754000X0.754000X0*%
%ADD12C,2.750000*%
%ADD13C,2.000000*%
%ADD14C,2.500000*%
%ADD15RoundRect,0.102000X-0.704000X-0.704000X0.704000X-0.704000X0.704000X0.704000X-0.704000X0.704000X0*%
%ADD16C,1.612000*%
%ADD17RoundRect,0.102000X0.754000X0.754000X-0.754000X0.754000X-0.754000X-0.754000X0.754000X-0.754000X0*%
%ADD18C,3.720000*%
G04 APERTURE END LIST*
D10*
%TO.C,J1*%
X99130000Y-3898750D03*
X99130000Y-6438750D03*
X96590000Y-3898750D03*
X96590000Y-6438750D03*
X94050000Y-3898750D03*
X94050000Y-6438750D03*
X91510000Y-3898750D03*
X91510000Y-6438750D03*
X88970000Y-3898750D03*
X88970000Y-6438750D03*
X86430000Y-3898750D03*
X86430000Y-6438750D03*
X83890000Y-3898750D03*
X83890000Y-6438750D03*
X81350000Y-3898750D03*
X81350000Y-6438750D03*
X78810000Y-3898750D03*
X78810000Y-6438750D03*
X76270000Y-3898750D03*
X76270000Y-6438750D03*
X73730000Y-3898750D03*
X73730000Y-6438750D03*
X71190000Y-3898750D03*
X71190000Y-6438750D03*
X68650000Y-3898750D03*
X68650000Y-6438750D03*
X66110000Y-3898750D03*
X66110000Y-6438750D03*
X63570000Y-3898750D03*
X63570000Y-6438750D03*
X61030000Y-3898750D03*
X61030000Y-6438750D03*
X58490000Y-3898750D03*
X58490000Y-6438750D03*
X55950000Y-3898750D03*
X55950000Y-6438750D03*
X53410000Y-3898750D03*
X53410000Y-6438750D03*
X50870000Y-3898750D03*
D11*
X50870000Y-6438750D03*
D12*
X104000000Y-28168750D03*
X104000000Y-5168750D03*
X46000000Y-28168750D03*
X46000000Y-5168750D03*
%TD*%
D13*
%TO.C,y1*%
X116000000Y-17000000D03*
X122500000Y-17000000D03*
X116000000Y-21500000D03*
X122500000Y-21500000D03*
%TD*%
%TO.C,b1*%
X126000000Y-27000000D03*
X132500000Y-27000000D03*
X126000000Y-31500000D03*
X132500000Y-31500000D03*
%TD*%
%TO.C,x1*%
X126000000Y-7000000D03*
X132500000Y-7000000D03*
X126000000Y-11500000D03*
X132500000Y-11500000D03*
%TD*%
%TO.C,Right1*%
X28000000Y-17000000D03*
X34500000Y-17000000D03*
X28000000Y-21500000D03*
X34500000Y-21500000D03*
%TD*%
D14*
%TO.C,H1*%
X145000000Y-5000000D03*
%TD*%
%TO.C,H2*%
X5000000Y-5000000D03*
%TD*%
D13*
%TO.C,a1*%
X136000000Y-17000000D03*
X142500000Y-17000000D03*
X136000000Y-21500000D03*
X142500000Y-21500000D03*
%TD*%
%TO.C,Down1*%
X18000000Y-27000000D03*
X24500000Y-27000000D03*
X18000000Y-31500000D03*
X24500000Y-31500000D03*
%TD*%
D15*
%TO.C,SW1*%
X18812500Y-55000000D03*
D16*
X21312500Y-55000000D03*
X23812500Y-55000000D03*
%TD*%
D13*
%TO.C,Left1*%
X8000000Y-17000000D03*
X14500000Y-17000000D03*
X8000000Y-21500000D03*
X14500000Y-21500000D03*
%TD*%
%TO.C,Up1*%
X18000000Y-7000000D03*
X24500000Y-7000000D03*
X18000000Y-11500000D03*
X24500000Y-11500000D03*
%TD*%
D14*
%TO.C,H3*%
X5000000Y-55000000D03*
%TD*%
D13*
%TO.C,LeftShoulder1*%
X132500000Y-17000000D03*
X126000000Y-17000000D03*
X132500000Y-21500000D03*
X126000000Y-21500000D03*
%TD*%
%TO.C,RightShoulder1*%
X24500000Y-17000000D03*
X18000000Y-17000000D03*
X24500000Y-21500000D03*
X18000000Y-21500000D03*
%TD*%
D17*
%TO.C,U1*%
X136175750Y-57785000D03*
D10*
X133635750Y-57785000D03*
X131095750Y-57785000D03*
X128555750Y-57785000D03*
X126015750Y-57785000D03*
X123475750Y-57785000D03*
X120935750Y-57785000D03*
X118395750Y-57785000D03*
D18*
X146462750Y-56515000D03*
X146462750Y-38735000D03*
%TD*%
M02*
