%TF.GenerationSoftware,KiCad,Pcbnew,9.0.2*%
%TF.CreationDate,2025-06-23T15:15:27-04:00*%
%TF.ProjectId,GamePad,47616d65-5061-4642-9e6b-696361645f70,rev?*%
%TF.SameCoordinates,Original*%
%TF.FileFunction,Copper,L2,Bot*%
%TF.FilePolarity,Positive*%
%FSLAX46Y46*%
G04 Gerber Fmt 4.6, Leading zero omitted, Abs format (unit mm)*
G04 Created by KiCad (PCBNEW 9.0.2) date 2025-06-23 15:15:27*
%MOMM*%
%LPD*%
G01*
G04 APERTURE LIST*
G04 Aperture macros list*
%AMOutline5P*
0 Free polygon, 5 corners , with rotation*
0 The origin of the aperture is its center*
0 number of corners: always 5*
0 $1 to $10 corner X, Y*
0 $11 Rotation angle, in degrees counterclockwise*
0 create outline with 5 corners*
4,1,5,$1,$2,$3,$4,$5,$6,$7,$8,$9,$10,$1,$2,$11*%
%AMOutline6P*
0 Free polygon, 6 corners , with rotation*
0 The origin of the aperture is its center*
0 number of corners: always 6*
0 $1 to $12 corner X, Y*
0 $13 Rotation angle, in degrees counterclockwise*
0 create outline with 6 corners*
4,1,6,$1,$2,$3,$4,$5,$6,$7,$8,$9,$10,$11,$12,$1,$2,$13*%
%AMOutline7P*
0 Free polygon, 7 corners , with rotation*
0 The origin of the aperture is its center*
0 number of corners: always 7*
0 $1 to $14 corner X, Y*
0 $15 Rotation angle, in degrees counterclockwise*
0 create outline with 7 corners*
4,1,7,$1,$2,$3,$4,$5,$6,$7,$8,$9,$10,$11,$12,$13,$14,$1,$2,$15*%
%AMOutline8P*
0 Free polygon, 8 corners , with rotation*
0 The origin of the aperture is its center*
0 number of corners: always 8*
0 $1 to $16 corner X, Y*
0 $17 Rotation angle, in degrees counterclockwise*
0 create outline with 8 corners*
4,1,8,$1,$2,$3,$4,$5,$6,$7,$8,$9,$10,$11,$12,$13,$14,$15,$16,$1,$2,$17*%
G04 Aperture macros list end*
%TA.AperFunction,ComponentPad*%
%ADD10O,3.048000X1.524000*%
%TD*%
%TA.AperFunction,ComponentPad*%
%ADD11Outline8P,-0.762000X0.315631X-0.315631X0.762000X0.315631X0.762000X0.762000X0.315631X0.762000X-0.315631X0.315631X-0.762000X-0.315631X-0.762000X-0.762000X-0.315631X0.000000*%
%TD*%
%TA.AperFunction,ComponentPad*%
%ADD12O,1.524000X3.048000*%
%TD*%
%TA.AperFunction,ViaPad*%
%ADD13C,0.600000*%
%TD*%
%TA.AperFunction,Conductor*%
%ADD14C,0.200000*%
%TD*%
G04 APERTURE END LIST*
D10*
%TO.P,Y0,1,S*%
%TO.N,Net-(Y0-S)*%
X72948800Y-166928800D03*
%TO.P,Y0,2,S1*%
%TO.N,unconnected-(Y0-S1-Pad2)*%
X79451200Y-166928800D03*
%TO.P,Y0,3,P*%
%TO.N,GND*%
X72948800Y-171450000D03*
%TO.P,Y0,4,P1*%
%TO.N,unconnected-(Y0-P1-Pad4)*%
X79451200Y-171450000D03*
%TD*%
%TO.P,X0,1,S*%
%TO.N,Net-(X0-S)*%
X80092550Y-159664400D03*
%TO.P,X0,2,S1*%
%TO.N,unconnected-(X0-S1-Pad2)*%
X86594950Y-159664400D03*
%TO.P,X0,3,P*%
%TO.N,GND*%
X80092550Y-164185600D03*
%TO.P,X0,4,P1*%
%TO.N,unconnected-(X0-P1-Pad4)*%
X86594950Y-164185600D03*
%TD*%
%TO.P,Up1,1,S*%
%TO.N,Net-(Up1-S)*%
X22942550Y-159664400D03*
%TO.P,Up1,2,S1*%
%TO.N,unconnected-(Up1-S1-Pad2)*%
X29444950Y-159664400D03*
%TO.P,Up1,3,P*%
%TO.N,GND*%
X22942550Y-164185600D03*
%TO.P,Up1,4,P1*%
%TO.N,unconnected-(Up1-P1-Pad4)*%
X29444950Y-164185600D03*
%TD*%
%TO.P,Start1,1,S*%
%TO.N,Net-(Start1-S)*%
X58661300Y-178714400D03*
%TO.P,Start1,2,S1*%
%TO.N,unconnected-(Start1-S1-Pad2)*%
X65163700Y-178714400D03*
%TO.P,Start1,3,P*%
%TO.N,GND*%
X58661300Y-183235600D03*
%TO.P,Start1,4,P1*%
%TO.N,unconnected-(Start1-P1-Pad4)*%
X65163700Y-183235600D03*
%TD*%
%TO.P,Select1,1,S*%
%TO.N,Net-(Select1-S)*%
X41992550Y-178714400D03*
%TO.P,Select1,2,S1*%
%TO.N,unconnected-(Select1-S1-Pad2)*%
X48494950Y-178714400D03*
%TO.P,Select1,3,P*%
%TO.N,GND*%
X41992550Y-183235600D03*
%TO.P,Select1,4,P1*%
%TO.N,unconnected-(Select1-P1-Pad4)*%
X48494950Y-183235600D03*
%TD*%
%TO.P,Right1,1,S*%
%TO.N,Net-(Right1-S)*%
X30086300Y-166808150D03*
%TO.P,Right1,2,S1*%
%TO.N,unconnected-(Right1-S1-Pad2)*%
X36588700Y-166808150D03*
%TO.P,Right1,3,P*%
%TO.N,GND*%
X30086300Y-171329350D03*
%TO.P,Right1,4,P1*%
%TO.N,unconnected-(Right1-P1-Pad4)*%
X36588700Y-171329350D03*
%TD*%
%TO.P,Left1,1,S*%
%TO.N,Net-(Left1-S)*%
X15798800Y-166928800D03*
%TO.P,Left1,2,S1*%
%TO.N,unconnected-(Left1-S1-Pad2)*%
X22301200Y-166928800D03*
%TO.P,Left1,3,P*%
%TO.N,GND*%
X15798800Y-171450000D03*
%TO.P,Left1,4,P1*%
%TO.N,unconnected-(Left1-P1-Pad4)*%
X22301200Y-171450000D03*
%TD*%
D11*
%TO.P,JP1,1,1*%
%TO.N,unconnected-(JP1-Pad1)*%
X29368750Y-190658750D03*
%TO.P,JP1,2,2*%
%TO.N,+5V*%
X29368750Y-188118750D03*
%TO.P,JP1,3,3*%
%TO.N,unconnected-(JP1-Pad3)*%
X31908750Y-190658750D03*
%TO.P,JP1,4,4*%
%TO.N,unconnected-(JP1-Pad4)*%
X31908750Y-188118750D03*
%TO.P,JP1,5,5*%
%TO.N,unconnected-(JP1-Pad5)*%
X34448750Y-190658750D03*
%TO.P,JP1,6,6*%
%TO.N,GND*%
X34448750Y-188118750D03*
%TO.P,JP1,7,7*%
%TO.N,Net-(Left1-S)*%
X36988750Y-190658750D03*
%TO.P,JP1,8,8*%
%TO.N,Net-(A0-S)*%
X36988750Y-188118750D03*
%TO.P,JP1,9,9*%
%TO.N,GND*%
X39528750Y-190658750D03*
%TO.P,JP1,10,10*%
%TO.N,Net-(B0-S)*%
X39528750Y-188118750D03*
%TO.P,JP1,11,11*%
%TO.N,unconnected-(JP1-Pad11)*%
X42068750Y-190658750D03*
%TO.P,JP1,12,12*%
%TO.N,Net-(Y0-S)*%
X42068750Y-188118750D03*
%TO.P,JP1,13,13*%
%TO.N,unconnected-(JP1-Pad13)*%
X44608750Y-190658750D03*
%TO.P,JP1,14,14*%
%TO.N,GND*%
X44608750Y-188118750D03*
%TO.P,JP1,15,15*%
%TO.N,unconnected-(JP1-Pad15)*%
X47148750Y-190658750D03*
%TO.P,JP1,16,16*%
%TO.N,unconnected-(JP1-Pad16)*%
X47148750Y-188118750D03*
%TO.P,JP1,17,17*%
%TO.N,unconnected-(JP1-Pad17)*%
X49688750Y-190658750D03*
%TO.P,JP1,18,18*%
%TO.N,Net-(D1-DIN)*%
X49688750Y-188118750D03*
%TO.P,JP1,19,19*%
%TO.N,unconnected-(JP1-Pad19)*%
X52228750Y-190658750D03*
%TO.P,JP1,20,20*%
%TO.N,GND*%
X52228750Y-188118750D03*
%TO.P,JP1,21,21*%
%TO.N,unconnected-(JP1-Pad21)*%
X54768750Y-190658750D03*
%TO.P,JP1,22,22*%
%TO.N,unconnected-(JP1-Pad22)*%
X54768750Y-188118750D03*
%TO.P,JP1,23,23*%
%TO.N,unconnected-(JP1-Pad23)*%
X57308750Y-190658750D03*
%TO.P,JP1,24,24*%
%TO.N,unconnected-(JP1-Pad24)*%
X57308750Y-188118750D03*
%TO.P,JP1,25,25*%
%TO.N,Net-(Up1-S)*%
X59848750Y-190658750D03*
%TO.P,JP1,26,26*%
%TO.N,unconnected-(JP1-Pad26)*%
X59848750Y-188118750D03*
%TO.P,JP1,27,27*%
%TO.N,unconnected-(JP1-Pad27)*%
X62388750Y-190658750D03*
%TO.P,JP1,28,28*%
%TO.N,unconnected-(JP1-Pad28)*%
X62388750Y-188118750D03*
%TO.P,JP1,29,29*%
%TO.N,Net-(Select1-S)*%
X64928750Y-190658750D03*
%TO.P,JP1,30,30*%
%TO.N,GND*%
X64928750Y-188118750D03*
%TO.P,JP1,31,31*%
%TO.N,Net-(Start1-S)*%
X67468750Y-190658750D03*
%TO.P,JP1,32,32*%
%TO.N,Net-(J1-Pin_1)*%
X67468750Y-188118750D03*
%TO.P,JP1,33,33*%
%TO.N,Net-(J1-Pin_2)*%
X70008750Y-190658750D03*
%TO.P,JP1,34,34*%
%TO.N,GND*%
X70008750Y-188118750D03*
%TO.P,JP1,35,35*%
%TO.N,Net-(Right1-S)*%
X72548750Y-190658750D03*
%TO.P,JP1,36,36*%
%TO.N,Net-(Up1-S)*%
X72548750Y-188118750D03*
%TO.P,JP1,37,37*%
%TO.N,Net-(Down1-S)*%
X75088750Y-190658750D03*
%TO.P,JP1,38,38*%
%TO.N,Net-(X0-S)*%
X75088750Y-188118750D03*
%TO.P,JP1,39,39*%
%TO.N,GND*%
X77628750Y-190658750D03*
%TO.P,JP1,40,40*%
%TO.N,unconnected-(JP1-Pad40)*%
X77628750Y-188118750D03*
%TD*%
D12*
%TO.P,J2,1,Pin_1*%
%TO.N,+5V*%
X17358394Y-190470574D03*
%TO.P,J2,2,Pin_2*%
%TO.N,GND*%
X19898394Y-190470574D03*
%TD*%
%TO.P,J1,1,Pin_1*%
%TO.N,Net-(J1-Pin_1)*%
X82638473Y-190470574D03*
%TO.P,J1,2,Pin_2*%
%TO.N,Net-(J1-Pin_2)*%
X85178473Y-190470574D03*
%TO.P,J1,3,Pin_3*%
%TO.N,GND*%
X87718473Y-190470574D03*
%TO.P,J1,4,Pin_4*%
X90258473Y-190470574D03*
%TD*%
D10*
%TO.P,Down1,1,S*%
%TO.N,Net-(Down1-S)*%
X22942550Y-173951900D03*
%TO.P,Down1,2,S1*%
%TO.N,unconnected-(Down1-S1-Pad2)*%
X29444950Y-173951900D03*
%TO.P,Down1,3,P*%
%TO.N,GND*%
X22942550Y-178473100D03*
%TO.P,Down1,4,P1*%
%TO.N,unconnected-(Down1-P1-Pad4)*%
X29444950Y-178473100D03*
%TD*%
%TO.P,B0,1,S*%
%TO.N,Net-(B0-S)*%
X80092550Y-173951900D03*
%TO.P,B0,2,S1*%
%TO.N,unconnected-(B0-S1-Pad2)*%
X86594950Y-173951900D03*
%TO.P,B0,3,P*%
%TO.N,GND*%
X80092550Y-178473100D03*
%TO.P,B0,4,P1*%
%TO.N,unconnected-(B0-P1-Pad4)*%
X86594950Y-178473100D03*
%TD*%
%TO.P,A0,1,S*%
%TO.N,Net-(A0-S)*%
X87236300Y-166808150D03*
%TO.P,A0,2,S1*%
%TO.N,unconnected-(A0-S1-Pad2)*%
X93738700Y-166808150D03*
%TO.P,A0,3,P*%
%TO.N,GND*%
X87236300Y-171329350D03*
%TO.P,A0,4,P1*%
%TO.N,unconnected-(A0-P1-Pad4)*%
X93738700Y-171329350D03*
%TD*%
D13*
%TO.N,Net-(Right1-S)*%
X78581250Y-195262500D03*
X23812500Y-190500000D03*
%TO.N,Net-(X0-S)*%
X76200000Y-183356250D03*
%TO.N,Net-(Y0-S)*%
X45243750Y-176212500D03*
X40481250Y-185737500D03*
%TO.N,+5V*%
X52387500Y-166687500D03*
X40481250Y-166687500D03*
%TO.N,GND*%
X66675000Y-166687500D03*
X57150000Y-166687500D03*
%TO.N,Net-(D2-DOUT)*%
X64293750Y-164306250D03*
X45243750Y-164306250D03*
%TD*%
D14*
%TO.N,Net-(Right1-S)*%
X23812500Y-190500000D02*
X28575000Y-195262500D01*
X28575000Y-195262500D02*
X78581250Y-195262500D01*
%TO.N,Net-(X0-S)*%
X76200000Y-187007500D02*
X76200000Y-183356250D01*
X75088750Y-188118750D02*
X76200000Y-187007500D01*
%TO.N,Net-(J1-Pin_2)*%
X85178473Y-190470574D02*
X87003473Y-188645574D01*
X87003473Y-188645574D02*
X90698782Y-188645574D01*
X90698782Y-188645574D02*
X91321473Y-189268265D01*
X91321473Y-189268265D02*
X91321473Y-191672883D01*
X91321473Y-191672883D02*
X90297782Y-192696574D01*
X90297782Y-192696574D02*
X72046574Y-192696574D01*
X72046574Y-192696574D02*
X70008750Y-190658750D01*
%TO.N,Net-(J1-Pin_1)*%
X82638473Y-190470574D02*
X82638473Y-178753714D01*
X78177400Y-177410100D02*
X67468750Y-188118750D01*
X82638473Y-178753714D02*
X81294859Y-177410100D01*
X81294859Y-177410100D02*
X78177400Y-177410100D01*
%TO.N,Net-(Y0-S)*%
X42068750Y-188118750D02*
X40481250Y-186531250D01*
X40481250Y-186531250D02*
X40481250Y-185737500D01*
X45243750Y-176212500D02*
X63665100Y-176212500D01*
X63665100Y-176212500D02*
X72948800Y-166928800D01*
%TO.N,Net-(B0-S)*%
X39528750Y-188118750D02*
X38465750Y-189181750D01*
X38465750Y-189181750D02*
X36548440Y-189181750D01*
X36548440Y-189181750D02*
X35925750Y-188559060D01*
X86922600Y-167871150D02*
X80841850Y-173951900D01*
X35925750Y-188559060D02*
X35925750Y-186469991D01*
X35925750Y-186469991D02*
X41821741Y-180574000D01*
X41821741Y-180574000D02*
X66508900Y-180574000D01*
X66508900Y-180574000D02*
X77626200Y-169456700D01*
X77626200Y-169456700D02*
X77626200Y-166488491D01*
X78369541Y-165745150D02*
X88438609Y-165745150D01*
X77626200Y-166488491D02*
X78369541Y-165745150D01*
X88438609Y-165745150D02*
X89061300Y-166367841D01*
X89061300Y-166367841D02*
X89061300Y-167248459D01*
X80841850Y-173951900D02*
X80092550Y-173951900D01*
X89061300Y-167248459D02*
X88438609Y-167871150D01*
X88438609Y-167871150D02*
X86922600Y-167871150D01*
%TO.N,Net-(A0-S)*%
X36988750Y-188118750D02*
X36988750Y-185974091D01*
X36988750Y-185974091D02*
X41987841Y-180975000D01*
X41987841Y-180975000D02*
X66675000Y-180975000D01*
X66675000Y-180975000D02*
X79658200Y-167991800D01*
X79658200Y-167991800D02*
X86052650Y-167991800D01*
X86052650Y-167991800D02*
X87236300Y-166808150D01*
%TO.N,GND*%
X87718473Y-190470574D02*
X90258473Y-190470574D01*
X77628750Y-190658750D02*
X79265574Y-192295574D01*
X79265574Y-192295574D02*
X85893473Y-192295574D01*
X85893473Y-192295574D02*
X87718473Y-190470574D01*
X77628750Y-190658750D02*
X80092550Y-188194950D01*
X80092550Y-188194950D02*
X80092550Y-178473100D01*
X70008750Y-188118750D02*
X71485750Y-189595750D01*
X71485750Y-189595750D02*
X76565750Y-189595750D01*
X76565750Y-189595750D02*
X77628750Y-190658750D01*
X64928750Y-188118750D02*
X66247000Y-189437000D01*
X66247000Y-189437000D02*
X68690500Y-189437000D01*
X68690500Y-189437000D02*
X70008750Y-188118750D01*
X58661300Y-183235600D02*
X60045600Y-183235600D01*
X60045600Y-183235600D02*
X64928750Y-188118750D01*
X52228750Y-188118750D02*
X57111900Y-183235600D01*
X57111900Y-183235600D02*
X58661300Y-183235600D01*
X44608750Y-188118750D02*
X45962940Y-189472940D01*
X45962940Y-189472940D02*
X50874560Y-189472940D01*
X50874560Y-189472940D02*
X52228750Y-188118750D01*
X44608750Y-188118750D02*
X41992550Y-185502550D01*
X41992550Y-185502550D02*
X41992550Y-183235600D01*
X39528750Y-190658750D02*
X41005750Y-189181750D01*
X41005750Y-189181750D02*
X43545750Y-189181750D01*
X43545750Y-189181750D02*
X44608750Y-188118750D01*
X34448750Y-188118750D02*
X35925750Y-189595750D01*
X35925750Y-189595750D02*
X38465750Y-189595750D01*
X38465750Y-189595750D02*
X39528750Y-190658750D01*
X19898394Y-190470574D02*
X21187218Y-189181750D01*
X21187218Y-189181750D02*
X33385750Y-189181750D01*
X33385750Y-189181750D02*
X34448750Y-188118750D01*
%TO.N,+5V*%
X40481250Y-166687500D02*
X52387500Y-166687500D01*
%TO.N,GND*%
X66675000Y-166687500D02*
X57150000Y-166687500D01*
%TO.N,Net-(D2-DOUT)*%
X45243750Y-164306250D02*
X64293750Y-164306250D01*
%TD*%
M02*
