%TF.GenerationSoftware,KiCad,Pcbnew,9.0.2*%
%TF.CreationDate,2025-06-23T15:15:27-04:00*%
%TF.ProjectId,GamePad,47616d65-5061-4642-9e6b-696361645f70,rev?*%
%TF.SameCoordinates,Original*%
%TF.FileFunction,Copper,L1,Top*%
%TF.FilePolarity,Positive*%
%FSLAX46Y46*%
G04 Gerber Fmt 4.6, Leading zero omitted, Abs format (unit mm)*
G04 Created by KiCad (PCBNEW 9.0.2) date 2025-06-23 15:15:27*
%MOMM*%
%LPD*%
G01*
G04 APERTURE LIST*
G04 Aperture macros list*
%AMOutline5P*
0 Free polygon, 5 corners , with rotation*
0 The origin of the aperture is its center*
0 number of corners: always 5*
0 $1 to $10 corner X, Y*
0 $11 Rotation angle, in degrees counterclockwise*
0 create outline with 5 corners*
4,1,5,$1,$2,$3,$4,$5,$6,$7,$8,$9,$10,$1,$2,$11*%
%AMOutline6P*
0 Free polygon, 6 corners , with rotation*
0 The origin of the aperture is its center*
0 number of corners: always 6*
0 $1 to $12 corner X, Y*
0 $13 Rotation angle, in degrees counterclockwise*
0 create outline with 6 corners*
4,1,6,$1,$2,$3,$4,$5,$6,$7,$8,$9,$10,$11,$12,$1,$2,$13*%
%AMOutline7P*
0 Free polygon, 7 corners , with rotation*
0 The origin of the aperture is its center*
0 number of corners: always 7*
0 $1 to $14 corner X, Y*
0 $15 Rotation angle, in degrees counterclockwise*
0 create outline with 7 corners*
4,1,7,$1,$2,$3,$4,$5,$6,$7,$8,$9,$10,$11,$12,$13,$14,$1,$2,$15*%
%AMOutline8P*
0 Free polygon, 8 corners , with rotation*
0 The origin of the aperture is its center*
0 number of corners: always 8*
0 $1 to $16 corner X, Y*
0 $17 Rotation angle, in degrees counterclockwise*
0 create outline with 8 corners*
4,1,8,$1,$2,$3,$4,$5,$6,$7,$8,$9,$10,$11,$12,$13,$14,$15,$16,$1,$2,$17*%
G04 Aperture macros list end*
%TA.AperFunction,ComponentPad*%
%ADD10O,3.048000X1.524000*%
%TD*%
%TA.AperFunction,ComponentPad*%
%ADD11Outline8P,-0.762000X0.315631X-0.315631X0.762000X0.315631X0.762000X0.762000X0.315631X0.762000X-0.315631X0.315631X-0.762000X-0.315631X-0.762000X-0.762000X-0.315631X0.000000*%
%TD*%
%TA.AperFunction,ComponentPad*%
%ADD12O,1.524000X3.048000*%
%TD*%
%TA.AperFunction,SMDPad,CuDef*%
%ADD13R,1.600000X0.850000*%
%TD*%
%TA.AperFunction,ViaPad*%
%ADD14C,0.600000*%
%TD*%
%TA.AperFunction,Conductor*%
%ADD15C,0.200000*%
%TD*%
G04 APERTURE END LIST*
D10*
%TO.P,Y0,1,S*%
%TO.N,Net-(Y0-S)*%
X72948800Y-166928800D03*
%TO.P,Y0,2,S1*%
%TO.N,unconnected-(Y0-S1-Pad2)*%
X79451200Y-166928800D03*
%TO.P,Y0,3,P*%
%TO.N,GND*%
X72948800Y-171450000D03*
%TO.P,Y0,4,P1*%
%TO.N,unconnected-(Y0-P1-Pad4)*%
X79451200Y-171450000D03*
%TD*%
%TO.P,X0,1,S*%
%TO.N,Net-(X0-S)*%
X80092550Y-159664400D03*
%TO.P,X0,2,S1*%
%TO.N,unconnected-(X0-S1-Pad2)*%
X86594950Y-159664400D03*
%TO.P,X0,3,P*%
%TO.N,GND*%
X80092550Y-164185600D03*
%TO.P,X0,4,P1*%
%TO.N,unconnected-(X0-P1-Pad4)*%
X86594950Y-164185600D03*
%TD*%
%TO.P,Up1,1,S*%
%TO.N,Net-(Up1-S)*%
X22942550Y-159664400D03*
%TO.P,Up1,2,S1*%
%TO.N,unconnected-(Up1-S1-Pad2)*%
X29444950Y-159664400D03*
%TO.P,Up1,3,P*%
%TO.N,GND*%
X22942550Y-164185600D03*
%TO.P,Up1,4,P1*%
%TO.N,unconnected-(Up1-P1-Pad4)*%
X29444950Y-164185600D03*
%TD*%
%TO.P,Start1,1,S*%
%TO.N,Net-(Start1-S)*%
X58661300Y-178714400D03*
%TO.P,Start1,2,S1*%
%TO.N,unconnected-(Start1-S1-Pad2)*%
X65163700Y-178714400D03*
%TO.P,Start1,3,P*%
%TO.N,GND*%
X58661300Y-183235600D03*
%TO.P,Start1,4,P1*%
%TO.N,unconnected-(Start1-P1-Pad4)*%
X65163700Y-183235600D03*
%TD*%
%TO.P,Select1,1,S*%
%TO.N,Net-(Select1-S)*%
X41992550Y-178714400D03*
%TO.P,Select1,2,S1*%
%TO.N,unconnected-(Select1-S1-Pad2)*%
X48494950Y-178714400D03*
%TO.P,Select1,3,P*%
%TO.N,GND*%
X41992550Y-183235600D03*
%TO.P,Select1,4,P1*%
%TO.N,unconnected-(Select1-P1-Pad4)*%
X48494950Y-183235600D03*
%TD*%
%TO.P,Right1,1,S*%
%TO.N,Net-(Right1-S)*%
X30086300Y-166808150D03*
%TO.P,Right1,2,S1*%
%TO.N,unconnected-(Right1-S1-Pad2)*%
X36588700Y-166808150D03*
%TO.P,Right1,3,P*%
%TO.N,GND*%
X30086300Y-171329350D03*
%TO.P,Right1,4,P1*%
%TO.N,unconnected-(Right1-P1-Pad4)*%
X36588700Y-171329350D03*
%TD*%
%TO.P,Left1,1,S*%
%TO.N,Net-(Left1-S)*%
X15798800Y-166928800D03*
%TO.P,Left1,2,S1*%
%TO.N,unconnected-(Left1-S1-Pad2)*%
X22301200Y-166928800D03*
%TO.P,Left1,3,P*%
%TO.N,GND*%
X15798800Y-171450000D03*
%TO.P,Left1,4,P1*%
%TO.N,unconnected-(Left1-P1-Pad4)*%
X22301200Y-171450000D03*
%TD*%
D11*
%TO.P,JP1,1,1*%
%TO.N,unconnected-(JP1-Pad1)*%
X29368750Y-190658750D03*
%TO.P,JP1,2,2*%
%TO.N,+5V*%
X29368750Y-188118750D03*
%TO.P,JP1,3,3*%
%TO.N,unconnected-(JP1-Pad3)*%
X31908750Y-190658750D03*
%TO.P,JP1,4,4*%
%TO.N,unconnected-(JP1-Pad4)*%
X31908750Y-188118750D03*
%TO.P,JP1,5,5*%
%TO.N,unconnected-(JP1-Pad5)*%
X34448750Y-190658750D03*
%TO.P,JP1,6,6*%
%TO.N,GND*%
X34448750Y-188118750D03*
%TO.P,JP1,7,7*%
%TO.N,Net-(Left1-S)*%
X36988750Y-190658750D03*
%TO.P,JP1,8,8*%
%TO.N,Net-(A0-S)*%
X36988750Y-188118750D03*
%TO.P,JP1,9,9*%
%TO.N,GND*%
X39528750Y-190658750D03*
%TO.P,JP1,10,10*%
%TO.N,Net-(B0-S)*%
X39528750Y-188118750D03*
%TO.P,JP1,11,11*%
%TO.N,unconnected-(JP1-Pad11)*%
X42068750Y-190658750D03*
%TO.P,JP1,12,12*%
%TO.N,Net-(Y0-S)*%
X42068750Y-188118750D03*
%TO.P,JP1,13,13*%
%TO.N,unconnected-(JP1-Pad13)*%
X44608750Y-190658750D03*
%TO.P,JP1,14,14*%
%TO.N,GND*%
X44608750Y-188118750D03*
%TO.P,JP1,15,15*%
%TO.N,unconnected-(JP1-Pad15)*%
X47148750Y-190658750D03*
%TO.P,JP1,16,16*%
%TO.N,unconnected-(JP1-Pad16)*%
X47148750Y-188118750D03*
%TO.P,JP1,17,17*%
%TO.N,unconnected-(JP1-Pad17)*%
X49688750Y-190658750D03*
%TO.P,JP1,18,18*%
%TO.N,Net-(D1-DIN)*%
X49688750Y-188118750D03*
%TO.P,JP1,19,19*%
%TO.N,unconnected-(JP1-Pad19)*%
X52228750Y-190658750D03*
%TO.P,JP1,20,20*%
%TO.N,GND*%
X52228750Y-188118750D03*
%TO.P,JP1,21,21*%
%TO.N,unconnected-(JP1-Pad21)*%
X54768750Y-190658750D03*
%TO.P,JP1,22,22*%
%TO.N,unconnected-(JP1-Pad22)*%
X54768750Y-188118750D03*
%TO.P,JP1,23,23*%
%TO.N,unconnected-(JP1-Pad23)*%
X57308750Y-190658750D03*
%TO.P,JP1,24,24*%
%TO.N,unconnected-(JP1-Pad24)*%
X57308750Y-188118750D03*
%TO.P,JP1,25,25*%
%TO.N,Net-(Up1-S)*%
X59848750Y-190658750D03*
%TO.P,JP1,26,26*%
%TO.N,unconnected-(JP1-Pad26)*%
X59848750Y-188118750D03*
%TO.P,JP1,27,27*%
%TO.N,unconnected-(JP1-Pad27)*%
X62388750Y-190658750D03*
%TO.P,JP1,28,28*%
%TO.N,unconnected-(JP1-Pad28)*%
X62388750Y-188118750D03*
%TO.P,JP1,29,29*%
%TO.N,Net-(Select1-S)*%
X64928750Y-190658750D03*
%TO.P,JP1,30,30*%
%TO.N,GND*%
X64928750Y-188118750D03*
%TO.P,JP1,31,31*%
%TO.N,Net-(Start1-S)*%
X67468750Y-190658750D03*
%TO.P,JP1,32,32*%
%TO.N,Net-(J1-Pin_1)*%
X67468750Y-188118750D03*
%TO.P,JP1,33,33*%
%TO.N,Net-(J1-Pin_2)*%
X70008750Y-190658750D03*
%TO.P,JP1,34,34*%
%TO.N,GND*%
X70008750Y-188118750D03*
%TO.P,JP1,35,35*%
%TO.N,Net-(Right1-S)*%
X72548750Y-190658750D03*
%TO.P,JP1,36,36*%
%TO.N,Net-(Up1-S)*%
X72548750Y-188118750D03*
%TO.P,JP1,37,37*%
%TO.N,Net-(Down1-S)*%
X75088750Y-190658750D03*
%TO.P,JP1,38,38*%
%TO.N,Net-(X0-S)*%
X75088750Y-188118750D03*
%TO.P,JP1,39,39*%
%TO.N,GND*%
X77628750Y-190658750D03*
%TO.P,JP1,40,40*%
%TO.N,unconnected-(JP1-Pad40)*%
X77628750Y-188118750D03*
%TD*%
D12*
%TO.P,J2,1,Pin_1*%
%TO.N,+5V*%
X17358394Y-190470574D03*
%TO.P,J2,2,Pin_2*%
%TO.N,GND*%
X19898394Y-190470574D03*
%TD*%
%TO.P,J1,1,Pin_1*%
%TO.N,Net-(J1-Pin_1)*%
X82638473Y-190470574D03*
%TO.P,J1,2,Pin_2*%
%TO.N,Net-(J1-Pin_2)*%
X85178473Y-190470574D03*
%TO.P,J1,3,Pin_3*%
%TO.N,GND*%
X87718473Y-190470574D03*
%TO.P,J1,4,Pin_4*%
X90258473Y-190470574D03*
%TD*%
D10*
%TO.P,Down1,1,S*%
%TO.N,Net-(Down1-S)*%
X22942550Y-173951900D03*
%TO.P,Down1,2,S1*%
%TO.N,unconnected-(Down1-S1-Pad2)*%
X29444950Y-173951900D03*
%TO.P,Down1,3,P*%
%TO.N,GND*%
X22942550Y-178473100D03*
%TO.P,Down1,4,P1*%
%TO.N,unconnected-(Down1-P1-Pad4)*%
X29444950Y-178473100D03*
%TD*%
D13*
%TO.P,D4,1,DOUT*%
%TO.N,unconnected-(D4-DOUT-Pad1)*%
X59560738Y-156700134D03*
%TO.P,D4,2,VSS*%
%TO.N,GND*%
X59560738Y-158450134D03*
%TO.P,D4,3,DIN*%
%TO.N,Net-(D3-DOUT)*%
X63060738Y-158450134D03*
%TO.P,D4,4,VDD*%
%TO.N,+5V*%
X63060738Y-156700134D03*
%TD*%
%TO.P,D3,1,DOUT*%
%TO.N,Net-(D3-DOUT)*%
X59531250Y-167318750D03*
%TO.P,D3,2,VSS*%
%TO.N,GND*%
X59531250Y-169068750D03*
%TO.P,D3,3,DIN*%
%TO.N,Net-(D2-DOUT)*%
X63031250Y-169068750D03*
%TO.P,D3,4,VDD*%
%TO.N,+5V*%
X63031250Y-167318750D03*
%TD*%
%TO.P,D2,1,DOUT*%
%TO.N,Net-(D2-DOUT)*%
X45243750Y-167318750D03*
%TO.P,D2,2,VSS*%
%TO.N,GND*%
X45243750Y-169068750D03*
%TO.P,D2,3,DIN*%
%TO.N,Net-(D1-DOUT)*%
X48743750Y-169068750D03*
%TO.P,D2,4,VDD*%
%TO.N,+5V*%
X48743750Y-167318750D03*
%TD*%
%TO.P,D1,1,DOUT*%
%TO.N,Net-(D1-DOUT)*%
X45397821Y-156913431D03*
%TO.P,D1,2,VSS*%
%TO.N,GND*%
X45397821Y-158663431D03*
%TO.P,D1,3,DIN*%
%TO.N,Net-(D1-DIN)*%
X48897821Y-158663431D03*
%TO.P,D1,4,VDD*%
%TO.N,+5V*%
X48897821Y-156913431D03*
%TD*%
D10*
%TO.P,B0,1,S*%
%TO.N,Net-(B0-S)*%
X80092550Y-173951900D03*
%TO.P,B0,2,S1*%
%TO.N,unconnected-(B0-S1-Pad2)*%
X86594950Y-173951900D03*
%TO.P,B0,3,P*%
%TO.N,GND*%
X80092550Y-178473100D03*
%TO.P,B0,4,P1*%
%TO.N,unconnected-(B0-P1-Pad4)*%
X86594950Y-178473100D03*
%TD*%
%TO.P,A0,1,S*%
%TO.N,Net-(A0-S)*%
X87236300Y-166808150D03*
%TO.P,A0,2,S1*%
%TO.N,unconnected-(A0-S1-Pad2)*%
X93738700Y-166808150D03*
%TO.P,A0,3,P*%
%TO.N,GND*%
X87236300Y-171329350D03*
%TO.P,A0,4,P1*%
%TO.N,unconnected-(A0-P1-Pad4)*%
X93738700Y-171329350D03*
%TD*%
D14*
%TO.N,Net-(Right1-S)*%
X78581250Y-195262500D03*
X23812500Y-190500000D03*
%TO.N,Net-(X0-S)*%
X76200000Y-183356250D03*
%TO.N,Net-(Y0-S)*%
X45243750Y-176212500D03*
X40481250Y-185737500D03*
%TO.N,+5V*%
X52387500Y-166687500D03*
X40481250Y-166687500D03*
%TO.N,GND*%
X66675000Y-166687500D03*
X57150000Y-166687500D03*
%TO.N,Net-(D2-DOUT)*%
X64293750Y-164306250D03*
X45243750Y-164306250D03*
%TD*%
D15*
%TO.N,Net-(Start1-S)*%
X58661300Y-178714400D02*
X60486300Y-180539400D01*
X74648440Y-189595750D02*
X75529060Y-189595750D01*
X76151750Y-191099060D02*
X75529060Y-191721750D01*
X68544750Y-189582750D02*
X67468750Y-190658750D01*
X60486300Y-180539400D02*
X66472710Y-180539400D01*
X66472710Y-180539400D02*
X73611750Y-187678440D01*
X74025750Y-190162850D02*
X73445650Y-189582750D01*
X73611750Y-187678440D02*
X73611750Y-188559060D01*
X73611750Y-188559060D02*
X74648440Y-189595750D01*
X75529060Y-189595750D02*
X76151750Y-190218440D01*
X76151750Y-190218440D02*
X76151750Y-191099060D01*
X75529060Y-191721750D02*
X74648440Y-191721750D01*
X74648440Y-191721750D02*
X74025750Y-191099060D01*
X74025750Y-191099060D02*
X74025750Y-190162850D01*
X73445650Y-189582750D02*
X68544750Y-189582750D01*
%TO.N,Net-(Select1-S)*%
X41992550Y-178714400D02*
X41992550Y-177752400D01*
X41992550Y-177752400D02*
X44133450Y-175611500D01*
X44133450Y-175611500D02*
X48838150Y-175611500D01*
X48838150Y-175611500D02*
X46669950Y-177779700D01*
X49082340Y-189582750D02*
X63852750Y-189582750D01*
X46669950Y-177779700D02*
X46669950Y-184196642D01*
X46669950Y-184196642D02*
X48224750Y-185751442D01*
X48224750Y-185751442D02*
X48224750Y-188725160D01*
X48224750Y-188725160D02*
X49082340Y-189582750D01*
X63852750Y-189582750D02*
X64928750Y-190658750D01*
%TO.N,Net-(Right1-S)*%
X30086300Y-166808150D02*
X31911300Y-168633150D01*
X31911300Y-168633150D02*
X31911300Y-182401200D01*
X31911300Y-182401200D02*
X23812500Y-190500000D01*
X78581250Y-195262500D02*
X77152500Y-195262500D01*
X77152500Y-195262500D02*
X72548750Y-190658750D01*
%TO.N,Net-(Up1-S)*%
X22942550Y-159664400D02*
X20230791Y-159664400D01*
X20230791Y-159664400D02*
X13572800Y-166322391D01*
X13572800Y-166322391D02*
X13572800Y-188950289D01*
X13572800Y-188950289D02*
X17503761Y-192881250D01*
X17503761Y-192881250D02*
X57626250Y-192881250D01*
X57626250Y-192881250D02*
X59848750Y-190658750D01*
%TO.N,GND*%
X80092550Y-178473100D02*
X80092550Y-180313643D01*
X80092550Y-180313643D02*
X76448943Y-183957250D01*
X76448943Y-183957250D02*
X75951057Y-183957250D01*
X75951057Y-183957250D02*
X72948800Y-180954993D01*
X72948800Y-180954993D02*
X72948800Y-171450000D01*
X87236300Y-171329350D02*
X86474300Y-171329350D01*
X86474300Y-171329350D02*
X80092550Y-177711100D01*
X80092550Y-177711100D02*
X80092550Y-178473100D01*
X80092550Y-164185600D02*
X87236300Y-171329350D01*
%TO.N,Net-(X0-S)*%
X76200000Y-183356250D02*
X76200000Y-165812841D01*
X76200000Y-165812841D02*
X80092550Y-161920291D01*
X80092550Y-161920291D02*
X80092550Y-159664400D01*
%TO.N,Net-(Y0-S)*%
X45243750Y-182249709D02*
X45243750Y-176212500D01*
X40481250Y-185737500D02*
X41755959Y-185737500D01*
X41755959Y-185737500D02*
X45243750Y-182249709D01*
%TO.N,Net-(Down1-S)*%
X22942550Y-173951900D02*
X24483441Y-172411009D01*
X13973800Y-166488491D02*
X17740691Y-162721600D01*
X17740691Y-162721600D02*
X37932393Y-162721600D01*
X47745650Y-173951900D02*
X52387500Y-178593750D01*
X24483441Y-172411009D02*
X24483441Y-167991800D01*
X24483441Y-167991800D02*
X14596491Y-167991800D01*
X37932393Y-162721600D02*
X41483250Y-166272457D01*
X73611750Y-189181750D02*
X75088750Y-190658750D01*
X14596491Y-167991800D02*
X13973800Y-167369109D01*
X13973800Y-167369109D02*
X13973800Y-166488491D01*
X41483250Y-166272457D02*
X41483250Y-173951900D01*
X41483250Y-173951900D02*
X47745650Y-173951900D01*
X52387500Y-178593750D02*
X52387500Y-182155792D01*
X52387500Y-182155792D02*
X48625750Y-185917542D01*
X48625750Y-185917542D02*
X48625750Y-188559060D01*
X48625750Y-188559060D02*
X49248440Y-189181750D01*
X49248440Y-189181750D02*
X73611750Y-189181750D01*
%TO.N,Net-(Left1-S)*%
X15798800Y-166928800D02*
X19605000Y-163122600D01*
X19605000Y-163122600D02*
X37766293Y-163122600D01*
X37766293Y-163122600D02*
X41082250Y-166438557D01*
X38051750Y-180002850D02*
X38051750Y-189595750D01*
X41082250Y-166438557D02*
X41082250Y-176972350D01*
X41082250Y-176972350D02*
X38051750Y-180002850D01*
X38051750Y-189595750D02*
X36988750Y-190658750D01*
%TO.N,+5V*%
X29368750Y-188118750D02*
X40481250Y-177006250D01*
X40481250Y-177006250D02*
X40481250Y-166687500D01*
X52387500Y-166687500D02*
X51756250Y-167318750D01*
X51756250Y-167318750D02*
X48743750Y-167318750D01*
X17358394Y-190470574D02*
X19183394Y-192295574D01*
X19183394Y-192295574D02*
X25191926Y-192295574D01*
X25191926Y-192295574D02*
X29368750Y-188118750D01*
%TO.N,GND*%
X30086300Y-171329350D02*
X22942550Y-164185600D01*
X22942550Y-178473100D02*
X22942550Y-178188991D01*
X22942550Y-178188991D02*
X29802191Y-171329350D01*
X29802191Y-171329350D02*
X30086300Y-171329350D01*
X22942550Y-178473100D02*
X22821900Y-178473100D01*
X22821900Y-178473100D02*
X15798800Y-171450000D01*
X19898394Y-190470574D02*
X19898394Y-181517256D01*
X19898394Y-181517256D02*
X22942550Y-178473100D01*
X68186300Y-166687500D02*
X66675000Y-166687500D01*
X60632250Y-159521646D02*
X60632250Y-166687500D01*
X72948800Y-171450000D02*
X68186300Y-166687500D01*
X57150000Y-166687500D02*
X57244750Y-166592750D01*
X57244750Y-166592750D02*
X60537500Y-166592750D01*
X60537500Y-166592750D02*
X60632250Y-166687500D01*
%TO.N,Net-(D3-DOUT)*%
X59531250Y-167318750D02*
X56253250Y-170596750D01*
X46104002Y-154380250D02*
X62567854Y-154380250D01*
X56253250Y-170596750D02*
X43810550Y-170596750D01*
X43810550Y-170596750D02*
X43340750Y-170126950D01*
X43340750Y-170126950D02*
X43340750Y-157143502D01*
X43340750Y-157143502D02*
X46104002Y-154380250D01*
X62567854Y-154380250D02*
X64293750Y-156106146D01*
X64293750Y-156106146D02*
X64293750Y-157217122D01*
X64293750Y-157217122D02*
X63060738Y-158450134D01*
%TO.N,Net-(D2-DOUT)*%
X64293750Y-164306250D02*
X64293750Y-167806250D01*
X64293750Y-167806250D02*
X63031250Y-169068750D01*
X45243750Y-167318750D02*
X45243750Y-164306250D01*
%TO.N,Net-(D1-DOUT)*%
X45397821Y-156913431D02*
X44397821Y-156913431D01*
X44397821Y-156913431D02*
X43741750Y-157569502D01*
X43741750Y-157569502D02*
X43741750Y-169960850D01*
X43741750Y-169960850D02*
X43976650Y-170195750D01*
X43976650Y-170195750D02*
X47616750Y-170195750D01*
X47616750Y-170195750D02*
X48743750Y-169068750D01*
%TO.N,Net-(D1-DIN)*%
X48897821Y-158663431D02*
X49837118Y-157724134D01*
X49837118Y-157724134D02*
X60661738Y-157724134D01*
X61033250Y-174077141D02*
X49688750Y-185421641D01*
X49688750Y-185421641D02*
X49688750Y-188118750D01*
X60661738Y-157724134D02*
X61033250Y-158095646D01*
X61033250Y-158095646D02*
X61033250Y-174077141D01*
%TO.N,+5V*%
X63060738Y-156700134D02*
X61912500Y-157848372D01*
X61912500Y-157848372D02*
X61912500Y-166200000D01*
X61912500Y-166200000D02*
X63031250Y-167318750D01*
X48897821Y-156913431D02*
X51030002Y-154781250D01*
X61141854Y-154781250D02*
X63060738Y-156700134D01*
X51030002Y-154781250D02*
X61141854Y-154781250D01*
X48743750Y-167318750D02*
X46267750Y-169794750D01*
X46267750Y-169794750D02*
X44142750Y-169794750D01*
X44142750Y-169794750D02*
X44142750Y-158091502D01*
X44142750Y-158091502D02*
X44296821Y-157937431D01*
X44296821Y-157937431D02*
X47873821Y-157937431D01*
X47873821Y-157937431D02*
X48897821Y-156913431D01*
%TO.N,GND*%
X59560738Y-158450134D02*
X60632250Y-159521646D01*
X60632250Y-166687500D02*
X60632250Y-167967750D01*
X60632250Y-167967750D02*
X59531250Y-169068750D01*
X45397821Y-158663431D02*
X46344750Y-159610360D01*
X46344750Y-159610360D02*
X58400512Y-159610360D01*
X58400512Y-159610360D02*
X59560738Y-158450134D01*
X45243750Y-169068750D02*
X46344750Y-167967750D01*
X46344750Y-167967750D02*
X46344750Y-159610360D01*
%TD*%
M02*
