M48
; DRILL file {KiCad 9.0.2} date 2025-06-23T15:15:25-0400
; FORMAT={-:-/ absolute / metric / decimal}
; #@! TF.CreationDate,2025-06-23T15:15:25-04:00
; #@! TF.GenerationSoftware,Kicad,Pcbnew,9.0.2
; #@! TF.FileFunction,Plated,1,2,PTH
FMAT,2
METRIC
; #@! TA.AperFunction,Plated,PTH,ViaDrill
T1C0.300
; #@! TA.AperFunction,Plated,PTH,ComponentDrill
T2C1.016
%
G90
G05
T1
X23.812Y-190.5
X40.481Y-166.688
X40.481Y-185.737
X45.244Y-164.306
X45.244Y-176.213
X52.387Y-166.688
X57.15Y-166.688
X64.294Y-164.306
X66.675Y-166.688
X76.2Y-183.356
X78.581Y-195.262
T2
X15.799Y-166.929
X15.799Y-171.45
X17.358Y-190.471
X19.898Y-190.471
X22.301Y-166.929
X22.301Y-171.45
X22.943Y-159.664
X22.943Y-164.186
X22.943Y-173.952
X22.943Y-178.473
X29.369Y-188.119
X29.369Y-190.659
X29.445Y-159.664
X29.445Y-164.186
X29.445Y-173.952
X29.445Y-178.473
X30.086Y-166.808
X30.086Y-171.329
X31.909Y-188.119
X31.909Y-190.659
X34.449Y-188.119
X34.449Y-190.659
X36.589Y-166.808
X36.589Y-171.329
X36.989Y-188.119
X36.989Y-190.659
X39.529Y-188.119
X39.529Y-190.659
X41.993Y-178.714
X41.993Y-183.236
X42.069Y-188.119
X42.069Y-190.659
X44.609Y-188.119
X44.609Y-190.659
X47.149Y-188.119
X47.149Y-190.659
X48.495Y-178.714
X48.495Y-183.236
X49.689Y-188.119
X49.689Y-190.659
X52.229Y-188.119
X52.229Y-190.659
X54.769Y-188.119
X54.769Y-190.659
X57.309Y-188.119
X57.309Y-190.659
X58.661Y-178.714
X58.661Y-183.236
X59.849Y-188.119
X59.849Y-190.659
X62.389Y-188.119
X62.389Y-190.659
X64.929Y-188.119
X64.929Y-190.659
X65.164Y-178.714
X65.164Y-183.236
X67.469Y-188.119
X67.469Y-190.659
X70.009Y-188.119
X70.009Y-190.659
X72.549Y-188.119
X72.549Y-190.659
X72.949Y-166.929
X72.949Y-171.45
X75.089Y-188.119
X75.089Y-190.659
X77.629Y-188.119
X77.629Y-190.659
X79.451Y-166.929
X79.451Y-171.45
X80.093Y-159.664
X80.093Y-164.186
X80.093Y-173.952
X80.093Y-178.473
X82.638Y-190.471
X85.178Y-190.471
X86.595Y-159.664
X86.595Y-164.186
X86.595Y-173.952
X86.595Y-178.473
X87.236Y-166.808
X87.236Y-171.329
X87.718Y-190.471
X90.258Y-190.471
X93.739Y-166.808
X93.739Y-171.329
M30
