M48
; DRILL file {KiCad 9.0.2} date 2025-06-21T15:19:25-0400
; FORMAT={-:-/ absolute / metric / decimal}
; #@! TF.CreationDate,2025-06-21T15:19:25-04:00
; #@! TF.GenerationSoftware,Kicad,Pcbnew,9.0.2
; #@! TF.FileFunction,Plated,1,2,PTH
FMAT,2
METRIC
; #@! TA.AperFunction,Plated,PTH,ViaDrill
T1C0.508
; #@! TA.AperFunction,Plated,PTH,ComponentDrill
T2C1.016
%
G90
G05
T1
X157.131Y-118.107
X164.675Y-125.371
X169.425Y-123.695
T2
X110.24Y-95.252
X110.24Y-101.755
X114.731Y-121.004
X114.762Y-95.252
X114.762Y-101.755
X117.271Y-121.004
X117.74Y-88.752
X117.74Y-95.255
X117.74Y-101.752
X117.74Y-108.255
X122.262Y-88.752
X122.262Y-95.255
X122.262Y-101.752
X122.262Y-108.255
X124.371Y-119.734
X124.371Y-122.274
X125.24Y-95.252
X125.24Y-101.755
X126.911Y-119.734
X126.911Y-122.274
X129.451Y-119.734
X129.451Y-122.274
X129.762Y-95.252
X129.762Y-101.755
X131.991Y-119.734
X131.991Y-122.274
X134.531Y-119.734
X134.531Y-122.274
X137.071Y-119.734
X137.071Y-122.274
X139.25Y-103.243
X139.25Y-107.764
X139.611Y-119.734
X139.611Y-122.274
X142.151Y-119.734
X142.151Y-122.274
X144.691Y-119.734
X144.691Y-122.274
X145.752Y-103.243
X145.752Y-107.764
X147.231Y-119.734
X147.231Y-122.274
X149.771Y-119.734
X149.771Y-122.274
X150.25Y-103.243
X150.25Y-107.764
X152.311Y-119.734
X152.311Y-122.274
X154.851Y-119.734
X154.851Y-122.274
X156.752Y-103.243
X156.752Y-107.764
X157.391Y-119.734
X157.391Y-122.274
X159.931Y-119.734
X159.931Y-122.274
X162.471Y-119.734
X162.471Y-122.274
X165.011Y-119.734
X165.011Y-122.274
X166.74Y-95.252
X166.74Y-101.755
X167.551Y-119.734
X167.551Y-122.274
X170.091Y-119.734
X170.091Y-122.274
X171.262Y-95.252
X171.262Y-101.755
X172.631Y-119.734
X172.631Y-122.274
X173.74Y-88.752
X173.74Y-95.255
X173.74Y-101.752
X173.74Y-108.255
X178.262Y-88.752
X178.262Y-95.255
X178.262Y-101.752
X178.262Y-108.255
X179.191Y-121.004
X180.74Y-95.252
X180.74Y-101.755
X181.731Y-121.004
X184.271Y-121.004
X185.262Y-95.252
X185.262Y-101.755
X186.811Y-121.004
M30
