%TF.GenerationSoftware,KiCad,Pcbnew,9.0.2*%
%TF.CreationDate,2025-06-21T15:19:28-04:00*%
%TF.ProjectId,PiGRRL-ButtonPCB,50694752-524c-42d4-9275-74746f6e5043,rev?*%
%TF.SameCoordinates,Original*%
%TF.FileFunction,Legend,Bot*%
%TF.FilePolarity,Positive*%
%FSLAX46Y46*%
G04 Gerber Fmt 4.6, Leading zero omitted, Abs format (unit mm)*
G04 Created by KiCad (PCBNEW 9.0.2) date 2025-06-21 15:19:28*
%MOMM*%
%LPD*%
G01*
G04 APERTURE LIST*
%ADD10C,0.114300*%
%ADD11C,0.152400*%
G04 APERTURE END LIST*
D10*
X154371510Y-117415579D02*
X154371510Y-115751879D01*
X154371510Y-116544117D02*
X153420825Y-116544117D01*
X153420825Y-117415579D02*
X153420825Y-115751879D01*
X152628586Y-116544117D02*
X152074020Y-116544117D01*
X151836348Y-117415579D02*
X152628586Y-117415579D01*
X152628586Y-117415579D02*
X152628586Y-115751879D01*
X152628586Y-115751879D02*
X151836348Y-115751879D01*
X151202558Y-116940236D02*
X150410320Y-116940236D01*
X151361006Y-117415579D02*
X150806439Y-115751879D01*
X150806439Y-115751879D02*
X150251873Y-117415579D01*
X149697305Y-117415579D02*
X149697305Y-115751879D01*
X149697305Y-115751879D02*
X149301186Y-115751879D01*
X149301186Y-115751879D02*
X149063515Y-115831103D01*
X149063515Y-115831103D02*
X148905067Y-115989551D01*
X148905067Y-115989551D02*
X148825844Y-116147998D01*
X148825844Y-116147998D02*
X148746620Y-116464894D01*
X148746620Y-116464894D02*
X148746620Y-116702565D01*
X148746620Y-116702565D02*
X148825844Y-117019460D01*
X148825844Y-117019460D02*
X148905067Y-117177908D01*
X148905067Y-117177908D02*
X149063515Y-117336356D01*
X149063515Y-117336356D02*
X149301186Y-117415579D01*
X149301186Y-117415579D02*
X149697305Y-117415579D01*
X148033605Y-116544117D02*
X147479039Y-116544117D01*
X147241367Y-117415579D02*
X148033605Y-117415579D01*
X148033605Y-117415579D02*
X148033605Y-115751879D01*
X148033605Y-115751879D02*
X147241367Y-115751879D01*
X145577668Y-117415579D02*
X146132234Y-116623341D01*
X146528353Y-117415579D02*
X146528353Y-115751879D01*
X146528353Y-115751879D02*
X145894563Y-115751879D01*
X145894563Y-115751879D02*
X145736115Y-115831103D01*
X145736115Y-115831103D02*
X145656892Y-115910327D01*
X145656892Y-115910327D02*
X145577668Y-116068775D01*
X145577668Y-116068775D02*
X145577668Y-116306446D01*
X145577668Y-116306446D02*
X145656892Y-116464894D01*
X145656892Y-116464894D02*
X145736115Y-116544117D01*
X145736115Y-116544117D02*
X145894563Y-116623341D01*
X145894563Y-116623341D02*
X146528353Y-116623341D01*
X144547758Y-115751879D02*
X144389311Y-115751879D01*
X144389311Y-115751879D02*
X144230863Y-115831103D01*
X144230863Y-115831103D02*
X144151639Y-115910327D01*
X144151639Y-115910327D02*
X144072415Y-116068775D01*
X144072415Y-116068775D02*
X143993192Y-116385670D01*
X143993192Y-116385670D02*
X143993192Y-116781789D01*
X143993192Y-116781789D02*
X144072415Y-117098684D01*
X144072415Y-117098684D02*
X144151639Y-117257132D01*
X144151639Y-117257132D02*
X144230863Y-117336356D01*
X144230863Y-117336356D02*
X144389311Y-117415579D01*
X144389311Y-117415579D02*
X144547758Y-117415579D01*
X144547758Y-117415579D02*
X144706206Y-117336356D01*
X144706206Y-117336356D02*
X144785430Y-117257132D01*
X144785430Y-117257132D02*
X144864653Y-117098684D01*
X144864653Y-117098684D02*
X144943877Y-116781789D01*
X144943877Y-116781789D02*
X144943877Y-116385670D01*
X144943877Y-116385670D02*
X144864653Y-116068775D01*
X144864653Y-116068775D02*
X144785430Y-115910327D01*
X144785430Y-115910327D02*
X144706206Y-115831103D01*
X144706206Y-115831103D02*
X144547758Y-115751879D01*
D11*
%TO.C,HEADER0*%
X173901100Y-122908600D02*
X173901100Y-119098600D01*
X171361100Y-119098600D02*
X171996100Y-118463600D01*
X173266100Y-118463600D02*
X171996100Y-118463600D01*
X173901100Y-119098600D02*
X173266100Y-118463600D01*
X173266100Y-123543600D02*
X173901100Y-122908600D01*
X173266100Y-123543600D02*
X171996100Y-123543600D01*
X171361100Y-122908600D02*
X171996100Y-123543600D01*
X171361100Y-122908600D02*
X171361100Y-119098600D01*
X168821100Y-122908600D02*
X168821100Y-119098600D01*
X166281100Y-122908600D02*
X166281100Y-119098600D01*
X163741100Y-122908600D02*
X163741100Y-119098600D01*
X161201100Y-122908600D02*
X161201100Y-119098600D01*
X158661100Y-122908600D02*
X158661100Y-119098600D01*
X156121100Y-122908600D02*
X156121100Y-119098600D01*
X153581100Y-122908600D02*
X153581100Y-119098600D01*
X151041100Y-122908600D02*
X151041100Y-119098600D01*
X148501100Y-122908600D02*
X148501100Y-119098600D01*
X145961100Y-122908600D02*
X145961100Y-119098600D01*
X143421100Y-122908600D02*
X143421100Y-119098600D01*
X140881100Y-122908600D02*
X140881100Y-119098600D01*
X138341100Y-122908600D02*
X138341100Y-119098600D01*
X135801100Y-122908600D02*
X135801100Y-119098600D01*
X133261100Y-122908600D02*
X133261100Y-119098600D01*
X130721100Y-122908600D02*
X130721100Y-119098600D01*
X128181100Y-122908600D02*
X128181100Y-119098600D01*
X125641100Y-122908600D02*
X125641100Y-119098600D01*
X138341100Y-119098600D02*
X138976100Y-118463600D01*
X140246100Y-118463600D02*
X138976100Y-118463600D01*
X140881100Y-119098600D02*
X140246100Y-118463600D01*
X140881100Y-119098600D02*
X141516100Y-118463600D01*
X142786100Y-118463600D02*
X141516100Y-118463600D01*
X143421100Y-119098600D02*
X142786100Y-118463600D01*
X143421100Y-119098600D02*
X144056100Y-118463600D01*
X145326100Y-118463600D02*
X144056100Y-118463600D01*
X145961100Y-119098600D02*
X145326100Y-118463600D01*
X145961100Y-119098600D02*
X146596100Y-118463600D01*
X147866100Y-118463600D02*
X146596100Y-118463600D01*
X148501100Y-119098600D02*
X147866100Y-118463600D01*
X148501100Y-119098600D02*
X149136100Y-118463600D01*
X150406100Y-118463600D02*
X149136100Y-118463600D01*
X151041100Y-119098600D02*
X150406100Y-118463600D01*
X151041100Y-119098600D02*
X151676100Y-118463600D01*
X152946100Y-118463600D02*
X151676100Y-118463600D01*
X153581100Y-119098600D02*
X152946100Y-118463600D01*
X153581100Y-119098600D02*
X154216100Y-118463600D01*
X155486100Y-118463600D02*
X154216100Y-118463600D01*
X156121100Y-119098600D02*
X155486100Y-118463600D01*
X156121100Y-119098600D02*
X156756100Y-118463600D01*
X158026100Y-118463600D02*
X156756100Y-118463600D01*
X158661100Y-119098600D02*
X158026100Y-118463600D01*
X159296100Y-118463600D02*
X158661100Y-119098600D01*
X159296100Y-118463600D02*
X160566100Y-118463600D01*
X161201100Y-119098600D02*
X160566100Y-118463600D01*
X161836100Y-118463600D02*
X161201100Y-119098600D01*
X161836100Y-118463600D02*
X163106100Y-118463600D01*
X163741100Y-119098600D02*
X163106100Y-118463600D01*
X163741100Y-119098600D02*
X164376100Y-118463600D01*
X165646100Y-118463600D02*
X164376100Y-118463600D01*
X166281100Y-119098600D02*
X165646100Y-118463600D01*
X166281100Y-119098600D02*
X166916100Y-118463600D01*
X168186100Y-118463600D02*
X166916100Y-118463600D01*
X168821100Y-119098600D02*
X168186100Y-118463600D01*
X168821100Y-119098600D02*
X169456100Y-118463600D01*
X170726100Y-118463600D02*
X169456100Y-118463600D01*
X171361100Y-119098600D02*
X170726100Y-118463600D01*
X170726100Y-123543600D02*
X171361100Y-122908600D01*
X170726100Y-123543600D02*
X169456100Y-123543600D01*
X168821100Y-122908600D02*
X169456100Y-123543600D01*
X168186100Y-123543600D02*
X168821100Y-122908600D01*
X168186100Y-123543600D02*
X166916100Y-123543600D01*
X166281100Y-122908600D02*
X166916100Y-123543600D01*
X165646100Y-123543600D02*
X166281100Y-122908600D01*
X165646100Y-123543600D02*
X164376100Y-123543600D01*
X163741100Y-122908600D02*
X164376100Y-123543600D01*
X163106100Y-123543600D02*
X163741100Y-122908600D01*
X163106100Y-123543600D02*
X161836100Y-123543600D01*
X161201100Y-122908600D02*
X161836100Y-123543600D01*
X160566100Y-123543600D02*
X161201100Y-122908600D01*
X160566100Y-123543600D02*
X159296100Y-123543600D01*
X158661100Y-122908600D02*
X159296100Y-123543600D01*
X158026100Y-123543600D02*
X158661100Y-122908600D01*
X158026100Y-123543600D02*
X156756100Y-123543600D01*
X156121100Y-122908600D02*
X156756100Y-123543600D01*
X155486100Y-123543600D02*
X156121100Y-122908600D01*
X155486100Y-123543600D02*
X154216100Y-123543600D01*
X153581100Y-122908600D02*
X154216100Y-123543600D01*
X153581100Y-122908600D02*
X152946100Y-123543600D01*
X151676100Y-123543600D02*
X152946100Y-123543600D01*
X151041100Y-122908600D02*
X151676100Y-123543600D01*
X150406100Y-123543600D02*
X151041100Y-122908600D01*
X149136100Y-123543600D02*
X150406100Y-123543600D01*
X148501100Y-122908600D02*
X149136100Y-123543600D01*
X147866100Y-123543600D02*
X148501100Y-122908600D01*
X146596100Y-123543600D02*
X147866100Y-123543600D01*
X145961100Y-122908600D02*
X146596100Y-123543600D01*
X145326100Y-123543600D02*
X145961100Y-122908600D01*
X144056100Y-123543600D02*
X145326100Y-123543600D01*
X143421100Y-122908600D02*
X144056100Y-123543600D01*
X142786100Y-123543600D02*
X143421100Y-122908600D01*
X141516100Y-123543600D02*
X142786100Y-123543600D01*
X140881100Y-122908600D02*
X141516100Y-123543600D01*
X140246100Y-123543600D02*
X140881100Y-122908600D01*
X138976100Y-123543600D02*
X140246100Y-123543600D01*
X138341100Y-122908600D02*
X138976100Y-123543600D01*
X137706100Y-123543600D02*
X138341100Y-122908600D01*
X136436100Y-123543600D02*
X137706100Y-123543600D01*
X135801100Y-122908600D02*
X136436100Y-123543600D01*
X135166100Y-123543600D02*
X135801100Y-122908600D01*
X133896100Y-123543600D02*
X135166100Y-123543600D01*
X133261100Y-122908600D02*
X133896100Y-123543600D01*
X132626100Y-123543600D02*
X133261100Y-122908600D01*
X131356100Y-123543600D02*
X132626100Y-123543600D01*
X130721100Y-122908600D02*
X131356100Y-123543600D01*
X130086100Y-123543600D02*
X130721100Y-122908600D01*
X128816100Y-123543600D02*
X130086100Y-123543600D01*
X128181100Y-122908600D02*
X128816100Y-123543600D01*
X127546100Y-123543600D02*
X128181100Y-122908600D01*
X126276100Y-123543600D02*
X127546100Y-123543600D01*
X125641100Y-122908600D02*
X126276100Y-123543600D01*
X125006100Y-123543600D02*
X125641100Y-122908600D01*
X123736100Y-123543600D02*
X125006100Y-123543600D01*
X123101100Y-122908600D02*
X123736100Y-123543600D01*
X123101100Y-119098600D02*
X123101100Y-122908600D01*
X137706100Y-118463600D02*
X138341100Y-119098600D01*
X136436100Y-118463600D02*
X137706100Y-118463600D01*
X135801100Y-119098600D02*
X136436100Y-118463600D01*
X135166100Y-118463600D02*
X135801100Y-119098600D01*
X133896100Y-118463600D02*
X135166100Y-118463600D01*
X133261100Y-119098600D02*
X133896100Y-118463600D01*
X132626100Y-118463600D02*
X133261100Y-119098600D01*
X131356100Y-118463600D02*
X132626100Y-118463600D01*
X130721100Y-119098600D02*
X131356100Y-118463600D01*
X130086100Y-118463600D02*
X130721100Y-119098600D01*
X128816100Y-118463600D02*
X130086100Y-118463600D01*
X128181100Y-119098600D02*
X128816100Y-118463600D01*
X127546100Y-118463600D02*
X128181100Y-119098600D01*
X126276100Y-118463600D02*
X127546100Y-118463600D01*
X125641100Y-119098600D02*
X126276100Y-118463600D01*
X125006100Y-118463600D02*
X125641100Y-119098600D01*
X123736100Y-118463600D02*
X125006100Y-118463600D01*
X123101100Y-119098600D02*
X123736100Y-118463600D01*
%TD*%
M02*
