%TF.GenerationSoftware,KiCad,Pcbnew,9.0.2*%
%TF.CreationDate,2025-06-21T15:19:25-04:00*%
%TF.ProjectId,PiGRRL-ButtonPCB,50694752-524c-42d4-9275-74746f6e5043,rev?*%
%TF.SameCoordinates,Original*%
%TF.FileFunction,Drillmap*%
%TF.FilePolarity,Positive*%
%FSLAX45Y45*%
G04 Gerber Fmt 4.5, Leading zero omitted, Abs format (unit mm)*
G04 Created by KiCad (PCBNEW 9.0.2) date 2025-06-21 15:19:25*
%MOMM*%
%LPD*%
G01*
G04 APERTURE LIST*
%ADD10C,0.406400*%
%ADD11C,0.200000*%
%ADD12C,0.250000*%
G04 APERTURE END LIST*
D10*
X19100110Y-8400360D02*
X19100110Y-12600360D01*
X19100110Y-12600360D02*
G75*
G02*
X18800110Y-12900360I-300000J0D01*
G01*
X18800110Y-12900360D02*
X10900110Y-12900360D01*
X10900110Y-12900360D02*
G75*
G02*
X10600110Y-12600360I0J300000D01*
G01*
X10600110Y-12600360D02*
X10600110Y-8400360D01*
X10600110Y-8400360D02*
G75*
G02*
X10900110Y-8100360I300000J0D01*
G01*
X10900110Y-8100360D02*
X18800110Y-8100360D01*
X18800110Y-8100360D02*
G75*
G02*
X19100110Y-8400360I0J-300000D01*
G01*
D11*
D12*
X10825110Y-8325360D02*
X11075110Y-8575360D01*
X11075110Y-8325360D02*
X10825110Y-8575360D01*
X10825110Y-12425360D02*
X11075110Y-12675360D01*
X11075110Y-12425360D02*
X10825110Y-12675360D01*
X18625110Y-8325360D02*
X18875110Y-8575360D01*
X18875110Y-8325360D02*
X18625110Y-8575360D01*
X18625110Y-12425360D02*
X18875110Y-12675360D01*
X18875110Y-12425360D02*
X18625110Y-12675360D01*
D11*
X10840567Y-13232164D02*
X10840567Y-13032164D01*
X10840567Y-13032164D02*
X10888186Y-13032164D01*
X10888186Y-13032164D02*
X10916757Y-13041688D01*
X10916757Y-13041688D02*
X10935805Y-13060735D01*
X10935805Y-13060735D02*
X10945329Y-13079783D01*
X10945329Y-13079783D02*
X10954853Y-13117878D01*
X10954853Y-13117878D02*
X10954853Y-13146449D01*
X10954853Y-13146449D02*
X10945329Y-13184545D01*
X10945329Y-13184545D02*
X10935805Y-13203592D01*
X10935805Y-13203592D02*
X10916757Y-13222640D01*
X10916757Y-13222640D02*
X10888186Y-13232164D01*
X10888186Y-13232164D02*
X10840567Y-13232164D01*
X11040567Y-13232164D02*
X11040567Y-13098830D01*
X11040567Y-13136926D02*
X11050091Y-13117878D01*
X11050091Y-13117878D02*
X11059614Y-13108354D01*
X11059614Y-13108354D02*
X11078662Y-13098830D01*
X11078662Y-13098830D02*
X11097710Y-13098830D01*
X11164376Y-13232164D02*
X11164376Y-13098830D01*
X11164376Y-13032164D02*
X11154853Y-13041688D01*
X11154853Y-13041688D02*
X11164376Y-13051211D01*
X11164376Y-13051211D02*
X11173900Y-13041688D01*
X11173900Y-13041688D02*
X11164376Y-13032164D01*
X11164376Y-13032164D02*
X11164376Y-13051211D01*
X11288186Y-13232164D02*
X11269138Y-13222640D01*
X11269138Y-13222640D02*
X11259614Y-13203592D01*
X11259614Y-13203592D02*
X11259614Y-13032164D01*
X11392948Y-13232164D02*
X11373900Y-13222640D01*
X11373900Y-13222640D02*
X11364376Y-13203592D01*
X11364376Y-13203592D02*
X11364376Y-13032164D01*
X11621519Y-13232164D02*
X11621519Y-13032164D01*
X11621519Y-13032164D02*
X11688186Y-13175021D01*
X11688186Y-13175021D02*
X11754852Y-13032164D01*
X11754852Y-13032164D02*
X11754852Y-13232164D01*
X11935805Y-13232164D02*
X11935805Y-13127402D01*
X11935805Y-13127402D02*
X11926281Y-13108354D01*
X11926281Y-13108354D02*
X11907233Y-13098830D01*
X11907233Y-13098830D02*
X11869138Y-13098830D01*
X11869138Y-13098830D02*
X11850091Y-13108354D01*
X11935805Y-13222640D02*
X11916757Y-13232164D01*
X11916757Y-13232164D02*
X11869138Y-13232164D01*
X11869138Y-13232164D02*
X11850091Y-13222640D01*
X11850091Y-13222640D02*
X11840567Y-13203592D01*
X11840567Y-13203592D02*
X11840567Y-13184545D01*
X11840567Y-13184545D02*
X11850091Y-13165497D01*
X11850091Y-13165497D02*
X11869138Y-13155973D01*
X11869138Y-13155973D02*
X11916757Y-13155973D01*
X11916757Y-13155973D02*
X11935805Y-13146449D01*
X12031043Y-13098830D02*
X12031043Y-13298830D01*
X12031043Y-13108354D02*
X12050091Y-13098830D01*
X12050091Y-13098830D02*
X12088186Y-13098830D01*
X12088186Y-13098830D02*
X12107233Y-13108354D01*
X12107233Y-13108354D02*
X12116757Y-13117878D01*
X12116757Y-13117878D02*
X12126281Y-13136926D01*
X12126281Y-13136926D02*
X12126281Y-13194068D01*
X12126281Y-13194068D02*
X12116757Y-13213116D01*
X12116757Y-13213116D02*
X12107233Y-13222640D01*
X12107233Y-13222640D02*
X12088186Y-13232164D01*
X12088186Y-13232164D02*
X12050091Y-13232164D01*
X12050091Y-13232164D02*
X12031043Y-13222640D01*
X12211995Y-13213116D02*
X12221519Y-13222640D01*
X12221519Y-13222640D02*
X12211995Y-13232164D01*
X12211995Y-13232164D02*
X12202472Y-13222640D01*
X12202472Y-13222640D02*
X12211995Y-13213116D01*
X12211995Y-13213116D02*
X12211995Y-13232164D01*
X12211995Y-13108354D02*
X12221519Y-13117878D01*
X12221519Y-13117878D02*
X12211995Y-13127402D01*
X12211995Y-13127402D02*
X12202472Y-13117878D01*
X12202472Y-13117878D02*
X12211995Y-13108354D01*
X12211995Y-13108354D02*
X12211995Y-13127402D01*
X10379790Y-13460680D02*
X10579790Y-13660680D01*
X10579790Y-13460680D02*
X10379790Y-13660680D01*
X10831043Y-13471211D02*
X10840567Y-13461688D01*
X10840567Y-13461688D02*
X10859614Y-13452164D01*
X10859614Y-13452164D02*
X10907234Y-13452164D01*
X10907234Y-13452164D02*
X10926281Y-13461688D01*
X10926281Y-13461688D02*
X10935805Y-13471211D01*
X10935805Y-13471211D02*
X10945329Y-13490259D01*
X10945329Y-13490259D02*
X10945329Y-13509307D01*
X10945329Y-13509307D02*
X10935805Y-13537878D01*
X10935805Y-13537878D02*
X10821519Y-13652164D01*
X10821519Y-13652164D02*
X10945329Y-13652164D01*
X11031043Y-13633116D02*
X11040567Y-13642640D01*
X11040567Y-13642640D02*
X11031043Y-13652164D01*
X11031043Y-13652164D02*
X11021519Y-13642640D01*
X11021519Y-13642640D02*
X11031043Y-13633116D01*
X11031043Y-13633116D02*
X11031043Y-13652164D01*
X11221519Y-13452164D02*
X11126281Y-13452164D01*
X11126281Y-13452164D02*
X11116757Y-13547402D01*
X11116757Y-13547402D02*
X11126281Y-13537878D01*
X11126281Y-13537878D02*
X11145329Y-13528354D01*
X11145329Y-13528354D02*
X11192948Y-13528354D01*
X11192948Y-13528354D02*
X11211995Y-13537878D01*
X11211995Y-13537878D02*
X11221519Y-13547402D01*
X11221519Y-13547402D02*
X11231043Y-13566449D01*
X11231043Y-13566449D02*
X11231043Y-13614068D01*
X11231043Y-13614068D02*
X11221519Y-13633116D01*
X11221519Y-13633116D02*
X11211995Y-13642640D01*
X11211995Y-13642640D02*
X11192948Y-13652164D01*
X11192948Y-13652164D02*
X11145329Y-13652164D01*
X11145329Y-13652164D02*
X11126281Y-13642640D01*
X11126281Y-13642640D02*
X11116757Y-13633116D01*
X11354852Y-13452164D02*
X11373900Y-13452164D01*
X11373900Y-13452164D02*
X11392948Y-13461688D01*
X11392948Y-13461688D02*
X11402472Y-13471211D01*
X11402472Y-13471211D02*
X11411995Y-13490259D01*
X11411995Y-13490259D02*
X11421519Y-13528354D01*
X11421519Y-13528354D02*
X11421519Y-13575973D01*
X11421519Y-13575973D02*
X11411995Y-13614068D01*
X11411995Y-13614068D02*
X11402472Y-13633116D01*
X11402472Y-13633116D02*
X11392948Y-13642640D01*
X11392948Y-13642640D02*
X11373900Y-13652164D01*
X11373900Y-13652164D02*
X11354852Y-13652164D01*
X11354852Y-13652164D02*
X11335805Y-13642640D01*
X11335805Y-13642640D02*
X11326281Y-13633116D01*
X11326281Y-13633116D02*
X11316757Y-13614068D01*
X11316757Y-13614068D02*
X11307233Y-13575973D01*
X11307233Y-13575973D02*
X11307233Y-13528354D01*
X11307233Y-13528354D02*
X11316757Y-13490259D01*
X11316757Y-13490259D02*
X11326281Y-13471211D01*
X11326281Y-13471211D02*
X11335805Y-13461688D01*
X11335805Y-13461688D02*
X11354852Y-13452164D01*
X11545329Y-13452164D02*
X11564376Y-13452164D01*
X11564376Y-13452164D02*
X11583424Y-13461688D01*
X11583424Y-13461688D02*
X11592948Y-13471211D01*
X11592948Y-13471211D02*
X11602472Y-13490259D01*
X11602472Y-13490259D02*
X11611995Y-13528354D01*
X11611995Y-13528354D02*
X11611995Y-13575973D01*
X11611995Y-13575973D02*
X11602472Y-13614068D01*
X11602472Y-13614068D02*
X11592948Y-13633116D01*
X11592948Y-13633116D02*
X11583424Y-13642640D01*
X11583424Y-13642640D02*
X11564376Y-13652164D01*
X11564376Y-13652164D02*
X11545329Y-13652164D01*
X11545329Y-13652164D02*
X11526281Y-13642640D01*
X11526281Y-13642640D02*
X11516757Y-13633116D01*
X11516757Y-13633116D02*
X11507233Y-13614068D01*
X11507233Y-13614068D02*
X11497710Y-13575973D01*
X11497710Y-13575973D02*
X11497710Y-13528354D01*
X11497710Y-13528354D02*
X11507233Y-13490259D01*
X11507233Y-13490259D02*
X11516757Y-13471211D01*
X11516757Y-13471211D02*
X11526281Y-13461688D01*
X11526281Y-13461688D02*
X11545329Y-13452164D01*
X11697710Y-13652164D02*
X11697710Y-13518830D01*
X11697710Y-13537878D02*
X11707233Y-13528354D01*
X11707233Y-13528354D02*
X11726281Y-13518830D01*
X11726281Y-13518830D02*
X11754853Y-13518830D01*
X11754853Y-13518830D02*
X11773900Y-13528354D01*
X11773900Y-13528354D02*
X11783424Y-13547402D01*
X11783424Y-13547402D02*
X11783424Y-13652164D01*
X11783424Y-13547402D02*
X11792948Y-13528354D01*
X11792948Y-13528354D02*
X11811995Y-13518830D01*
X11811995Y-13518830D02*
X11840567Y-13518830D01*
X11840567Y-13518830D02*
X11859614Y-13528354D01*
X11859614Y-13528354D02*
X11869138Y-13547402D01*
X11869138Y-13547402D02*
X11869138Y-13652164D01*
X11964376Y-13652164D02*
X11964376Y-13518830D01*
X11964376Y-13537878D02*
X11973900Y-13528354D01*
X11973900Y-13528354D02*
X11992948Y-13518830D01*
X11992948Y-13518830D02*
X12021519Y-13518830D01*
X12021519Y-13518830D02*
X12040567Y-13528354D01*
X12040567Y-13528354D02*
X12050091Y-13547402D01*
X12050091Y-13547402D02*
X12050091Y-13652164D01*
X12050091Y-13547402D02*
X12059614Y-13528354D01*
X12059614Y-13528354D02*
X12078662Y-13518830D01*
X12078662Y-13518830D02*
X12107233Y-13518830D01*
X12107233Y-13518830D02*
X12126281Y-13528354D01*
X12126281Y-13528354D02*
X12135805Y-13547402D01*
X12135805Y-13547402D02*
X12135805Y-13652164D01*
X12526281Y-13442640D02*
X12354853Y-13699783D01*
X12783424Y-13452164D02*
X12802472Y-13452164D01*
X12802472Y-13452164D02*
X12821519Y-13461688D01*
X12821519Y-13461688D02*
X12831043Y-13471211D01*
X12831043Y-13471211D02*
X12840567Y-13490259D01*
X12840567Y-13490259D02*
X12850091Y-13528354D01*
X12850091Y-13528354D02*
X12850091Y-13575973D01*
X12850091Y-13575973D02*
X12840567Y-13614068D01*
X12840567Y-13614068D02*
X12831043Y-13633116D01*
X12831043Y-13633116D02*
X12821519Y-13642640D01*
X12821519Y-13642640D02*
X12802472Y-13652164D01*
X12802472Y-13652164D02*
X12783424Y-13652164D01*
X12783424Y-13652164D02*
X12764376Y-13642640D01*
X12764376Y-13642640D02*
X12754853Y-13633116D01*
X12754853Y-13633116D02*
X12745329Y-13614068D01*
X12745329Y-13614068D02*
X12735805Y-13575973D01*
X12735805Y-13575973D02*
X12735805Y-13528354D01*
X12735805Y-13528354D02*
X12745329Y-13490259D01*
X12745329Y-13490259D02*
X12754853Y-13471211D01*
X12754853Y-13471211D02*
X12764376Y-13461688D01*
X12764376Y-13461688D02*
X12783424Y-13452164D01*
X12935805Y-13633116D02*
X12945329Y-13642640D01*
X12945329Y-13642640D02*
X12935805Y-13652164D01*
X12935805Y-13652164D02*
X12926281Y-13642640D01*
X12926281Y-13642640D02*
X12935805Y-13633116D01*
X12935805Y-13633116D02*
X12935805Y-13652164D01*
X13069138Y-13452164D02*
X13088186Y-13452164D01*
X13088186Y-13452164D02*
X13107234Y-13461688D01*
X13107234Y-13461688D02*
X13116757Y-13471211D01*
X13116757Y-13471211D02*
X13126281Y-13490259D01*
X13126281Y-13490259D02*
X13135805Y-13528354D01*
X13135805Y-13528354D02*
X13135805Y-13575973D01*
X13135805Y-13575973D02*
X13126281Y-13614068D01*
X13126281Y-13614068D02*
X13116757Y-13633116D01*
X13116757Y-13633116D02*
X13107234Y-13642640D01*
X13107234Y-13642640D02*
X13088186Y-13652164D01*
X13088186Y-13652164D02*
X13069138Y-13652164D01*
X13069138Y-13652164D02*
X13050091Y-13642640D01*
X13050091Y-13642640D02*
X13040567Y-13633116D01*
X13040567Y-13633116D02*
X13031043Y-13614068D01*
X13031043Y-13614068D02*
X13021519Y-13575973D01*
X13021519Y-13575973D02*
X13021519Y-13528354D01*
X13021519Y-13528354D02*
X13031043Y-13490259D01*
X13031043Y-13490259D02*
X13040567Y-13471211D01*
X13040567Y-13471211D02*
X13050091Y-13461688D01*
X13050091Y-13461688D02*
X13069138Y-13452164D01*
X13231043Y-13652164D02*
X13269138Y-13652164D01*
X13269138Y-13652164D02*
X13288186Y-13642640D01*
X13288186Y-13642640D02*
X13297710Y-13633116D01*
X13297710Y-13633116D02*
X13316757Y-13604545D01*
X13316757Y-13604545D02*
X13326281Y-13566449D01*
X13326281Y-13566449D02*
X13326281Y-13490259D01*
X13326281Y-13490259D02*
X13316757Y-13471211D01*
X13316757Y-13471211D02*
X13307234Y-13461688D01*
X13307234Y-13461688D02*
X13288186Y-13452164D01*
X13288186Y-13452164D02*
X13250091Y-13452164D01*
X13250091Y-13452164D02*
X13231043Y-13461688D01*
X13231043Y-13461688D02*
X13221519Y-13471211D01*
X13221519Y-13471211D02*
X13211996Y-13490259D01*
X13211996Y-13490259D02*
X13211996Y-13537878D01*
X13211996Y-13537878D02*
X13221519Y-13556926D01*
X13221519Y-13556926D02*
X13231043Y-13566449D01*
X13231043Y-13566449D02*
X13250091Y-13575973D01*
X13250091Y-13575973D02*
X13288186Y-13575973D01*
X13288186Y-13575973D02*
X13307234Y-13566449D01*
X13307234Y-13566449D02*
X13316757Y-13556926D01*
X13316757Y-13556926D02*
X13326281Y-13537878D01*
X13440567Y-13537878D02*
X13421519Y-13528354D01*
X13421519Y-13528354D02*
X13411996Y-13518830D01*
X13411996Y-13518830D02*
X13402472Y-13499783D01*
X13402472Y-13499783D02*
X13402472Y-13490259D01*
X13402472Y-13490259D02*
X13411996Y-13471211D01*
X13411996Y-13471211D02*
X13421519Y-13461688D01*
X13421519Y-13461688D02*
X13440567Y-13452164D01*
X13440567Y-13452164D02*
X13478662Y-13452164D01*
X13478662Y-13452164D02*
X13497710Y-13461688D01*
X13497710Y-13461688D02*
X13507234Y-13471211D01*
X13507234Y-13471211D02*
X13516757Y-13490259D01*
X13516757Y-13490259D02*
X13516757Y-13499783D01*
X13516757Y-13499783D02*
X13507234Y-13518830D01*
X13507234Y-13518830D02*
X13497710Y-13528354D01*
X13497710Y-13528354D02*
X13478662Y-13537878D01*
X13478662Y-13537878D02*
X13440567Y-13537878D01*
X13440567Y-13537878D02*
X13421519Y-13547402D01*
X13421519Y-13547402D02*
X13411996Y-13556926D01*
X13411996Y-13556926D02*
X13402472Y-13575973D01*
X13402472Y-13575973D02*
X13402472Y-13614068D01*
X13402472Y-13614068D02*
X13411996Y-13633116D01*
X13411996Y-13633116D02*
X13421519Y-13642640D01*
X13421519Y-13642640D02*
X13440567Y-13652164D01*
X13440567Y-13652164D02*
X13478662Y-13652164D01*
X13478662Y-13652164D02*
X13497710Y-13642640D01*
X13497710Y-13642640D02*
X13507234Y-13633116D01*
X13507234Y-13633116D02*
X13516757Y-13614068D01*
X13516757Y-13614068D02*
X13516757Y-13575973D01*
X13516757Y-13575973D02*
X13507234Y-13556926D01*
X13507234Y-13556926D02*
X13497710Y-13547402D01*
X13497710Y-13547402D02*
X13478662Y-13537878D01*
X13688186Y-13518830D02*
X13688186Y-13652164D01*
X13640567Y-13442640D02*
X13592948Y-13585497D01*
X13592948Y-13585497D02*
X13716757Y-13585497D01*
X13783424Y-13452164D02*
X13783424Y-13490259D01*
X13859615Y-13452164D02*
X13859615Y-13490259D01*
X14154853Y-13728354D02*
X14145329Y-13718830D01*
X14145329Y-13718830D02*
X14126281Y-13690259D01*
X14126281Y-13690259D02*
X14116758Y-13671211D01*
X14116758Y-13671211D02*
X14107234Y-13642640D01*
X14107234Y-13642640D02*
X14097710Y-13595021D01*
X14097710Y-13595021D02*
X14097710Y-13556926D01*
X14097710Y-13556926D02*
X14107234Y-13509307D01*
X14107234Y-13509307D02*
X14116758Y-13480735D01*
X14116758Y-13480735D02*
X14126281Y-13461688D01*
X14126281Y-13461688D02*
X14145329Y-13433116D01*
X14145329Y-13433116D02*
X14154853Y-13423592D01*
X14316758Y-13518830D02*
X14316758Y-13652164D01*
X14269138Y-13442640D02*
X14221519Y-13585497D01*
X14221519Y-13585497D02*
X14345329Y-13585497D01*
X14573900Y-13652164D02*
X14573900Y-13452164D01*
X14659615Y-13652164D02*
X14659615Y-13547402D01*
X14659615Y-13547402D02*
X14650091Y-13528354D01*
X14650091Y-13528354D02*
X14631043Y-13518830D01*
X14631043Y-13518830D02*
X14602472Y-13518830D01*
X14602472Y-13518830D02*
X14583424Y-13528354D01*
X14583424Y-13528354D02*
X14573900Y-13537878D01*
X14783424Y-13652164D02*
X14764377Y-13642640D01*
X14764377Y-13642640D02*
X14754853Y-13633116D01*
X14754853Y-13633116D02*
X14745329Y-13614068D01*
X14745329Y-13614068D02*
X14745329Y-13556926D01*
X14745329Y-13556926D02*
X14754853Y-13537878D01*
X14754853Y-13537878D02*
X14764377Y-13528354D01*
X14764377Y-13528354D02*
X14783424Y-13518830D01*
X14783424Y-13518830D02*
X14811996Y-13518830D01*
X14811996Y-13518830D02*
X14831043Y-13528354D01*
X14831043Y-13528354D02*
X14840567Y-13537878D01*
X14840567Y-13537878D02*
X14850091Y-13556926D01*
X14850091Y-13556926D02*
X14850091Y-13614068D01*
X14850091Y-13614068D02*
X14840567Y-13633116D01*
X14840567Y-13633116D02*
X14831043Y-13642640D01*
X14831043Y-13642640D02*
X14811996Y-13652164D01*
X14811996Y-13652164D02*
X14783424Y-13652164D01*
X14964377Y-13652164D02*
X14945329Y-13642640D01*
X14945329Y-13642640D02*
X14935805Y-13623592D01*
X14935805Y-13623592D02*
X14935805Y-13452164D01*
X15116758Y-13642640D02*
X15097710Y-13652164D01*
X15097710Y-13652164D02*
X15059615Y-13652164D01*
X15059615Y-13652164D02*
X15040567Y-13642640D01*
X15040567Y-13642640D02*
X15031043Y-13623592D01*
X15031043Y-13623592D02*
X15031043Y-13547402D01*
X15031043Y-13547402D02*
X15040567Y-13528354D01*
X15040567Y-13528354D02*
X15059615Y-13518830D01*
X15059615Y-13518830D02*
X15097710Y-13518830D01*
X15097710Y-13518830D02*
X15116758Y-13528354D01*
X15116758Y-13528354D02*
X15126281Y-13547402D01*
X15126281Y-13547402D02*
X15126281Y-13566449D01*
X15126281Y-13566449D02*
X15031043Y-13585497D01*
X15202472Y-13642640D02*
X15221520Y-13652164D01*
X15221520Y-13652164D02*
X15259615Y-13652164D01*
X15259615Y-13652164D02*
X15278662Y-13642640D01*
X15278662Y-13642640D02*
X15288186Y-13623592D01*
X15288186Y-13623592D02*
X15288186Y-13614068D01*
X15288186Y-13614068D02*
X15278662Y-13595021D01*
X15278662Y-13595021D02*
X15259615Y-13585497D01*
X15259615Y-13585497D02*
X15231043Y-13585497D01*
X15231043Y-13585497D02*
X15211996Y-13575973D01*
X15211996Y-13575973D02*
X15202472Y-13556926D01*
X15202472Y-13556926D02*
X15202472Y-13547402D01*
X15202472Y-13547402D02*
X15211996Y-13528354D01*
X15211996Y-13528354D02*
X15231043Y-13518830D01*
X15231043Y-13518830D02*
X15259615Y-13518830D01*
X15259615Y-13518830D02*
X15278662Y-13528354D01*
X15354853Y-13728354D02*
X15364377Y-13718830D01*
X15364377Y-13718830D02*
X15383424Y-13690259D01*
X15383424Y-13690259D02*
X15392948Y-13671211D01*
X15392948Y-13671211D02*
X15402472Y-13642640D01*
X15402472Y-13642640D02*
X15411996Y-13595021D01*
X15411996Y-13595021D02*
X15411996Y-13556926D01*
X15411996Y-13556926D02*
X15402472Y-13509307D01*
X15402472Y-13509307D02*
X15392948Y-13480735D01*
X15392948Y-13480735D02*
X15383424Y-13461688D01*
X15383424Y-13461688D02*
X15364377Y-13433116D01*
X15364377Y-13433116D02*
X15354853Y-13423592D01*
X15716758Y-13728354D02*
X15707234Y-13718830D01*
X15707234Y-13718830D02*
X15688186Y-13690259D01*
X15688186Y-13690259D02*
X15678662Y-13671211D01*
X15678662Y-13671211D02*
X15669139Y-13642640D01*
X15669139Y-13642640D02*
X15659615Y-13595021D01*
X15659615Y-13595021D02*
X15659615Y-13556926D01*
X15659615Y-13556926D02*
X15669139Y-13509307D01*
X15669139Y-13509307D02*
X15678662Y-13480735D01*
X15678662Y-13480735D02*
X15688186Y-13461688D01*
X15688186Y-13461688D02*
X15707234Y-13433116D01*
X15707234Y-13433116D02*
X15716758Y-13423592D01*
X15792948Y-13518830D02*
X15792948Y-13652164D01*
X15792948Y-13537878D02*
X15802472Y-13528354D01*
X15802472Y-13528354D02*
X15821520Y-13518830D01*
X15821520Y-13518830D02*
X15850091Y-13518830D01*
X15850091Y-13518830D02*
X15869139Y-13528354D01*
X15869139Y-13528354D02*
X15878662Y-13547402D01*
X15878662Y-13547402D02*
X15878662Y-13652164D01*
X16002472Y-13652164D02*
X15983424Y-13642640D01*
X15983424Y-13642640D02*
X15973901Y-13633116D01*
X15973901Y-13633116D02*
X15964377Y-13614068D01*
X15964377Y-13614068D02*
X15964377Y-13556926D01*
X15964377Y-13556926D02*
X15973901Y-13537878D01*
X15973901Y-13537878D02*
X15983424Y-13528354D01*
X15983424Y-13528354D02*
X16002472Y-13518830D01*
X16002472Y-13518830D02*
X16031043Y-13518830D01*
X16031043Y-13518830D02*
X16050091Y-13528354D01*
X16050091Y-13528354D02*
X16059615Y-13537878D01*
X16059615Y-13537878D02*
X16069139Y-13556926D01*
X16069139Y-13556926D02*
X16069139Y-13614068D01*
X16069139Y-13614068D02*
X16059615Y-13633116D01*
X16059615Y-13633116D02*
X16050091Y-13642640D01*
X16050091Y-13642640D02*
X16031043Y-13652164D01*
X16031043Y-13652164D02*
X16002472Y-13652164D01*
X16126282Y-13518830D02*
X16202472Y-13518830D01*
X16154853Y-13452164D02*
X16154853Y-13623592D01*
X16154853Y-13623592D02*
X16164377Y-13642640D01*
X16164377Y-13642640D02*
X16183424Y-13652164D01*
X16183424Y-13652164D02*
X16202472Y-13652164D01*
X16421520Y-13518830D02*
X16421520Y-13718830D01*
X16421520Y-13528354D02*
X16440567Y-13518830D01*
X16440567Y-13518830D02*
X16478663Y-13518830D01*
X16478663Y-13518830D02*
X16497710Y-13528354D01*
X16497710Y-13528354D02*
X16507234Y-13537878D01*
X16507234Y-13537878D02*
X16516758Y-13556926D01*
X16516758Y-13556926D02*
X16516758Y-13614068D01*
X16516758Y-13614068D02*
X16507234Y-13633116D01*
X16507234Y-13633116D02*
X16497710Y-13642640D01*
X16497710Y-13642640D02*
X16478663Y-13652164D01*
X16478663Y-13652164D02*
X16440567Y-13652164D01*
X16440567Y-13652164D02*
X16421520Y-13642640D01*
X16631043Y-13652164D02*
X16611996Y-13642640D01*
X16611996Y-13642640D02*
X16602472Y-13623592D01*
X16602472Y-13623592D02*
X16602472Y-13452164D01*
X16792948Y-13652164D02*
X16792948Y-13547402D01*
X16792948Y-13547402D02*
X16783425Y-13528354D01*
X16783425Y-13528354D02*
X16764377Y-13518830D01*
X16764377Y-13518830D02*
X16726282Y-13518830D01*
X16726282Y-13518830D02*
X16707234Y-13528354D01*
X16792948Y-13642640D02*
X16773901Y-13652164D01*
X16773901Y-13652164D02*
X16726282Y-13652164D01*
X16726282Y-13652164D02*
X16707234Y-13642640D01*
X16707234Y-13642640D02*
X16697710Y-13623592D01*
X16697710Y-13623592D02*
X16697710Y-13604545D01*
X16697710Y-13604545D02*
X16707234Y-13585497D01*
X16707234Y-13585497D02*
X16726282Y-13575973D01*
X16726282Y-13575973D02*
X16773901Y-13575973D01*
X16773901Y-13575973D02*
X16792948Y-13566449D01*
X16859615Y-13518830D02*
X16935805Y-13518830D01*
X16888186Y-13452164D02*
X16888186Y-13623592D01*
X16888186Y-13623592D02*
X16897710Y-13642640D01*
X16897710Y-13642640D02*
X16916758Y-13652164D01*
X16916758Y-13652164D02*
X16935805Y-13652164D01*
X17078663Y-13642640D02*
X17059615Y-13652164D01*
X17059615Y-13652164D02*
X17021520Y-13652164D01*
X17021520Y-13652164D02*
X17002472Y-13642640D01*
X17002472Y-13642640D02*
X16992948Y-13623592D01*
X16992948Y-13623592D02*
X16992948Y-13547402D01*
X16992948Y-13547402D02*
X17002472Y-13528354D01*
X17002472Y-13528354D02*
X17021520Y-13518830D01*
X17021520Y-13518830D02*
X17059615Y-13518830D01*
X17059615Y-13518830D02*
X17078663Y-13528354D01*
X17078663Y-13528354D02*
X17088186Y-13547402D01*
X17088186Y-13547402D02*
X17088186Y-13566449D01*
X17088186Y-13566449D02*
X16992948Y-13585497D01*
X17259615Y-13652164D02*
X17259615Y-13452164D01*
X17259615Y-13642640D02*
X17240567Y-13652164D01*
X17240567Y-13652164D02*
X17202472Y-13652164D01*
X17202472Y-13652164D02*
X17183425Y-13642640D01*
X17183425Y-13642640D02*
X17173901Y-13633116D01*
X17173901Y-13633116D02*
X17164377Y-13614068D01*
X17164377Y-13614068D02*
X17164377Y-13556926D01*
X17164377Y-13556926D02*
X17173901Y-13537878D01*
X17173901Y-13537878D02*
X17183425Y-13528354D01*
X17183425Y-13528354D02*
X17202472Y-13518830D01*
X17202472Y-13518830D02*
X17240567Y-13518830D01*
X17240567Y-13518830D02*
X17259615Y-13528354D01*
X17335806Y-13728354D02*
X17345329Y-13718830D01*
X17345329Y-13718830D02*
X17364377Y-13690259D01*
X17364377Y-13690259D02*
X17373901Y-13671211D01*
X17373901Y-13671211D02*
X17383425Y-13642640D01*
X17383425Y-13642640D02*
X17392948Y-13595021D01*
X17392948Y-13595021D02*
X17392948Y-13556926D01*
X17392948Y-13556926D02*
X17383425Y-13509307D01*
X17383425Y-13509307D02*
X17373901Y-13480735D01*
X17373901Y-13480735D02*
X17364377Y-13461688D01*
X17364377Y-13461688D02*
X17345329Y-13433116D01*
X17345329Y-13433116D02*
X17335806Y-13423592D01*
M02*
